M48
; DRILL file {KiCad 7.0.1} date Sa 08 Apr 2023 17:38:17
; FORMAT={-:-/ absolute / inch / decimal}
; #@! TF.CreationDate,2023-04-08T17:38:17+02:00
; #@! TF.GenerationSoftware,Kicad,Pcbnew,7.0.1
; #@! TF.FileFunction,Plated,1,2,PTH
FMAT,2
INCH
; #@! TA.AperFunction,Plated,PTH,ComponentDrill
T1C0.0079
; #@! TA.AperFunction,Plated,PTH,ViaDrill
T2C0.0118
; #@! TA.AperFunction,Plated,PTH,ViaDrill
T3C0.0130
; #@! TA.AperFunction,Plated,PTH,ComponentDrill
T4C0.0236
; #@! TA.AperFunction,Plated,PTH,ComponentDrill
T5C0.0256
; #@! TA.AperFunction,Plated,PTH,ComponentDrill
T6C0.0394
; #@! TA.AperFunction,Plated,PTH,ComponentDrill
T7C0.0413
; #@! TA.AperFunction,Plated,PTH,ComponentDrill
T8C0.0610
; #@! TA.AperFunction,Plated,PTH,ComponentDrill
T9C0.0827
%
G90
G05
T1
X1.8368Y-2.3044
X1.8368Y-2.3645
X1.8668Y-2.2744
X1.8668Y-2.3344
X1.8668Y-2.3945
X1.8969Y-2.3044
X1.8969Y-2.3645
X1.9269Y-2.2744
X1.9269Y-2.3344
X1.9269Y-2.3945
X1.9569Y-2.3044
X1.9569Y-2.3645
T2
X-0.2618Y-1.0098
X-0.1909Y-0.8602
X-0.187Y-0.9606
X0.0138Y-0.2008
X0.1201Y-0.1496
X0.5079Y-0.7776
X0.685Y-0.7835
X1.1299Y-0.7579
X1.1831Y-0.876
X1.189Y-0.9587
X1.3346Y-1.0689
X1.3366Y-1.1339
X1.376Y-1.8484
X1.437Y-0.2028
X1.5177Y0.7559
X1.5787Y-0.2028
X1.6594Y-2.3228
X1.6949Y-1.5492
X1.6949Y-1.8563
X1.7106Y-2.374
X1.7402Y-1.5118
X1.7756Y-1.4783
X1.8071Y-1.4567
X1.8141Y-1.4062
X1.8425Y-1.4016
X1.8642Y-1.376
X1.8681Y-1.6398
X1.8996Y-1.3681
X1.9528Y-1.4803
X1.9823Y-2.0217
X2.0146Y-2.4459
X2.0315Y-1.4803
X2.0335Y-2.0728
X2.0669Y-1.689
X2.0945Y-2.5236
X2.1457Y-2.2264
X2.1476Y-1.6063
X2.2106Y-1.9272
X2.2618Y-2.0157
X2.2697Y-2.1988
X2.2795Y-2.126
X2.2815Y-2.0689
X2.2894Y-2.4252
X2.2894Y-2.4783
X2.3031Y-2.3071
X2.3819Y-2.3898
X2.5433Y-0.3051
X2.6161Y-1.7421
X2.6378Y-0.1378
X2.6516Y-1.7421
X3.6811Y-1.0315
X3.6811Y-1.1378
X3.7677Y-1.0315
T3
X-0.2319Y-1.0563
X-0.2313Y-1.3317
X-0.1171Y-1.3287
X-0.0896Y-0.9587
X-0.0896Y-1.1575
X-0.0896Y-1.3602
X-0.0886Y-0.7559
X-0.0571Y-0.8858
X0.0463Y-0.6181
X0.064Y-0.8612
X0.0659Y-1.2608
X0.0738Y-1.4577
X0.1933Y-1.7205
X0.1969Y0.7362
X0.2764Y-1.6646
X0.3947Y-1.4567
X0.6004Y-1.3386
X0.6171Y-1.4902
X0.9039Y-2.2244
X0.9071Y-2.3224
X0.997Y-2.0738
X1.0923Y-2.0888
X1.1339Y-1.999
X1.1575Y-2.1388
X1.2717Y-2.0443
X1.2776Y-1.9341
X1.2795Y-2.2126
X1.311Y0.6339
X1.3661Y-2.1004
X1.3711Y-1.9331
X1.372Y-2.0472
X1.3937Y-2.5118
X1.435Y1.0276
X1.438Y-2.0167
X1.4488Y0.7461
X1.4528Y-2.3907
X1.4606Y-2.2234
X1.4616Y-2.4724
X1.4646Y-2.2756
X1.4744Y-2.0837
X1.4902Y-1.748
X1.5837Y-2.1772
X1.5976Y-2.6244
X1.6988Y-2.5167
X1.7028Y0.753
X1.7963Y-2.4537
X1.9055Y0.7667
X1.9223Y0.377
X1.9282Y0.8435
X1.9518Y0.377
X1.9921Y0.3789
X2.0378Y1.1957
X2.0438Y1.062
X2.0453Y0.8465
X2.0787Y1.0384
X2.085Y-1.85
X2.0984Y1.0039
X2.1343Y1.3516
X2.1388Y-2.4035
X2.1457Y-1.9094
X2.1585Y-2.5226
X2.1624Y-2.3396
X2.1756Y1.1957
X2.3008Y-2.6234
X2.3154Y1.3587
X2.324Y1.1843
X2.3789Y-1.8533
X2.4016Y-2.3553
X2.4205Y1.3173
X2.4656Y-1.8159
X2.498Y-2.5827
X2.5049Y-1.9636
X2.5591Y0.7283
X2.9026Y-1.5472
X2.9045Y-1.7234
X2.9045Y-1.8171
X2.9606Y-1.8819
X2.9843Y-1.628
X3.2744Y-1.0654
X3.7402Y0.7343
X3.9504Y-1.1165
T5
X1.7563Y1.3264
X1.9839Y1.3264
T6
X0.1575Y-0.7087
X0.1575Y-0.8087
X0.1575Y-0.9087
X0.1575Y-1.0087
X0.1575Y-1.1087
X0.1575Y-1.2087
X0.1575Y-1.3087
X0.1575Y-1.4087
X0.2575Y-0.7087
X0.2575Y-0.8087
X0.2575Y-0.9087
X0.2575Y-1.0087
X0.2575Y-1.1087
X0.2575Y-1.2087
X0.2575Y-1.3087
X0.2575Y-1.4087
X0.8661Y-0.7055
X0.8661Y-0.8055
X0.8661Y-0.9055
X0.8661Y-1.0055
X0.8661Y-1.1055
X0.8661Y-1.2055
X0.8661Y-1.3055
X0.8661Y-1.4055
X3.4433Y-0.7087
X3.4433Y-0.8087
X3.4433Y-0.9087
X3.4433Y-1.0087
X3.5433Y-0.7087
X3.5433Y-0.8087
X3.5433Y-0.9087
X3.5433Y-1.0087
X3.8386Y-0.7618
X3.8386Y-0.8618
X3.8386Y-0.9618
T7
X0.0Y0.5709
X0.0Y0.0
X0.0984Y0.0
X0.1969Y0.5709
X0.1969Y0.0
X1.1811Y0.5709
X1.1811Y0.0
X1.2795Y0.0
X1.378Y0.5709
X1.378Y0.0
X2.3622Y0.5709
X2.3622Y0.0
X2.4606Y0.0
X2.5591Y0.5709
X2.5591Y0.0
X3.5433Y0.5709
X3.5433Y0.0
X3.6417Y0.0
X3.7402Y0.5709
X3.7402Y0.0
T9
X0.0984Y0.2953
X1.2795Y0.2953
X2.4606Y0.2953
X3.6417Y0.2953
T4
G00X1.7Y1.4555
M15
G01X1.7Y1.487
M16
G05
G00X1.7Y1.285
M15
G01X1.7Y1.3283
M16
G05
G00X2.0402Y1.4555
M15
G01X2.0402Y1.487
M16
G05
G00X2.0402Y1.285
M15
G01X2.0402Y1.3283
M16
G05
T8
G00X-0.1169Y0.2667
M15
G01X-0.1169Y0.3238
M16
G05
G00X0.3138Y0.2667
M15
G01X0.3138Y0.3238
M16
G05
G00X1.0642Y0.2667
M15
G01X1.0642Y0.3238
M16
G05
G00X1.4949Y0.2667
M15
G01X1.4949Y0.3238
M16
G05
G00X2.2453Y0.2667
M15
G01X2.2453Y0.3238
M16
G05
G00X2.676Y0.2667
M15
G01X2.676Y0.3238
M16
G05
G00X3.4264Y0.2667
M15
G01X3.4264Y0.3238
M16
G05
G00X3.8571Y0.2667
M15
G01X3.8571Y0.3238
M16
G05
T0
M30
