%TF.GenerationSoftware,KiCad,Pcbnew,(6.0.10)*%
%TF.CreationDate,2023-01-05T01:40:23+01:00*%
%TF.ProjectId,obs-studio-controller,6f62732d-7374-4756-9469-6f2d636f6e74,rev?*%
%TF.SameCoordinates,Original*%
%TF.FileFunction,Soldermask,Bot*%
%TF.FilePolarity,Negative*%
%FSLAX46Y46*%
G04 Gerber Fmt 4.6, Leading zero omitted, Abs format (unit mm)*
G04 Created by KiCad (PCBNEW (6.0.10)) date 2023-01-05 01:40:23*
%MOMM*%
%LPD*%
G01*
G04 APERTURE LIST*
%ADD10C,2.100000*%
%ADD11C,1.800000*%
%ADD12O,2.300000X4.000000*%
%ADD13R,1.700000X1.700000*%
%ADD14O,1.700000X1.700000*%
%ADD15C,0.650000*%
%ADD16O,1.000000X2.100000*%
%ADD17O,1.000000X1.800000*%
G04 APERTURE END LIST*
D10*
%TO.C,SW1*%
X2500000Y7500000D03*
D11*
X0Y0D03*
X5000000Y0D03*
X2500000Y0D03*
X0Y14500000D03*
X5000000Y14500000D03*
D12*
X-2970000Y7500000D03*
X7970000Y7500000D03*
%TD*%
D10*
%TO.C,SW3*%
X62500000Y7500000D03*
D11*
X60000000Y0D03*
X65000000Y0D03*
X62500000Y0D03*
X60000000Y14500000D03*
X65000000Y14500000D03*
D12*
X57030000Y7500000D03*
X67970000Y7500000D03*
%TD*%
D10*
%TO.C,SW2*%
X32500000Y7500000D03*
D11*
X30000000Y0D03*
X35000000Y0D03*
X32500000Y0D03*
X30000000Y14500000D03*
X35000000Y14500000D03*
D12*
X27030000Y7500000D03*
X37970000Y7500000D03*
%TD*%
D10*
%TO.C,SW4*%
X92500000Y7500000D03*
D11*
X90000000Y0D03*
X95000000Y0D03*
X92500000Y0D03*
X90000000Y14500000D03*
X95000000Y14500000D03*
D12*
X87030000Y7500000D03*
X97970000Y7500000D03*
%TD*%
D13*
%TO.C,J2*%
X70000000Y30000000D03*
D14*
X67460000Y30000000D03*
X64920000Y30000000D03*
%TD*%
D13*
%TO.C,J4*%
X22000000Y-17900000D03*
D14*
X22000000Y-20440000D03*
X22000000Y-22980000D03*
X22000000Y-25520000D03*
X22000000Y-28060000D03*
X22000000Y-30600000D03*
X22000000Y-33140000D03*
X22000000Y-35680000D03*
%TD*%
D13*
%TO.C,J3*%
X90000000Y-18000000D03*
D14*
X87460000Y-18000000D03*
X90000000Y-20540000D03*
X87460000Y-20540000D03*
X90000000Y-23080000D03*
X87460000Y-23080000D03*
X90000000Y-25620000D03*
X87460000Y-25620000D03*
%TD*%
D13*
%TO.C,J5*%
X4000000Y-18000000D03*
D14*
X6540000Y-18000000D03*
X4000000Y-20540000D03*
X6540000Y-20540000D03*
X4000000Y-23080000D03*
X6540000Y-23080000D03*
X4000000Y-25620000D03*
X6540000Y-25620000D03*
X4000000Y-28160000D03*
X6540000Y-28160000D03*
X4000000Y-30700000D03*
X6540000Y-30700000D03*
X4000000Y-33240000D03*
X6540000Y-33240000D03*
X4000000Y-35780000D03*
X6540000Y-35780000D03*
%TD*%
D13*
%TO.C,J7*%
X97500000Y-19350000D03*
D14*
X97500000Y-21890000D03*
X97500000Y-24430000D03*
%TD*%
D15*
%TO.C,USBC1*%
X44610000Y33690000D03*
X50390000Y33690000D03*
D16*
X51820000Y33190000D03*
D17*
X51820000Y37370000D03*
X43180000Y37370000D03*
D16*
X43180000Y33190000D03*
%TD*%
D13*
%TO.C,J1*%
X80325001Y27649999D03*
D14*
X80325001Y30189999D03*
%TD*%
D13*
%TO.C,J6*%
X80000000Y-44000000D03*
D14*
X82540000Y-44000000D03*
X85080000Y-44000000D03*
X87620000Y-44000000D03*
X90160000Y-44000000D03*
X92700000Y-44000000D03*
%TD*%
M02*
