%TF.GenerationSoftware,KiCad,Pcbnew,7.0.1*%
%TF.CreationDate,2023-04-08T17:38:17+02:00*%
%TF.ProjectId,obs-studio-controller,6f62732d-7374-4756-9469-6f2d636f6e74,rev?*%
%TF.SameCoordinates,Original*%
%TF.FileFunction,Legend,Bot*%
%TF.FilePolarity,Positive*%
%FSLAX46Y46*%
G04 Gerber Fmt 4.6, Leading zero omitted, Abs format (unit mm)*
G04 Created by KiCad (PCBNEW 7.0.1) date 2023-04-08 17:38:17*
%MOMM*%
%LPD*%
G01*
G04 APERTURE LIST*
%ADD10C,0.150000*%
%ADD11C,0.200000*%
%ADD12C,0.300000*%
%ADD13C,2.100000*%
%ADD14C,1.800000*%
%ADD15O,2.300000X4.000000*%
%ADD16R,1.700000X1.700000*%
%ADD17O,1.700000X1.700000*%
%ADD18C,0.650000*%
%ADD19O,1.000000X2.100000*%
%ADD20O,1.000000X1.800000*%
G04 APERTURE END LIST*
D10*
X19250000Y-15800000D02*
X29350000Y-15800000D01*
X29350000Y-37800000D01*
X19250000Y-37800000D01*
X19250000Y-15800000D01*
D11*
X101514285Y-18574380D02*
X101628571Y-18498190D01*
X101628571Y-18498190D02*
X101799999Y-18498190D01*
X101799999Y-18498190D02*
X101971428Y-18574380D01*
X101971428Y-18574380D02*
X102085713Y-18726761D01*
X102085713Y-18726761D02*
X102142856Y-18879142D01*
X102142856Y-18879142D02*
X102199999Y-19183904D01*
X102199999Y-19183904D02*
X102199999Y-19412476D01*
X102199999Y-19412476D02*
X102142856Y-19717238D01*
X102142856Y-19717238D02*
X102085713Y-19869619D01*
X102085713Y-19869619D02*
X101971428Y-20022000D01*
X101971428Y-20022000D02*
X101799999Y-20098190D01*
X101799999Y-20098190D02*
X101685713Y-20098190D01*
X101685713Y-20098190D02*
X101514285Y-20022000D01*
X101514285Y-20022000D02*
X101457142Y-19945809D01*
X101457142Y-19945809D02*
X101457142Y-19412476D01*
X101457142Y-19412476D02*
X101685713Y-19412476D01*
X100942856Y-20098190D02*
X100942856Y-18498190D01*
X100942856Y-18498190D02*
X100257142Y-20098190D01*
X100257142Y-20098190D02*
X100257142Y-18498190D01*
X99685713Y-20098190D02*
X99685713Y-18498190D01*
X99685713Y-18498190D02*
X99399999Y-18498190D01*
X99399999Y-18498190D02*
X99228570Y-18574380D01*
X99228570Y-18574380D02*
X99114285Y-18726761D01*
X99114285Y-18726761D02*
X99057142Y-18879142D01*
X99057142Y-18879142D02*
X98999999Y-19183904D01*
X98999999Y-19183904D02*
X98999999Y-19412476D01*
X98999999Y-19412476D02*
X99057142Y-19717238D01*
X99057142Y-19717238D02*
X99114285Y-19869619D01*
X99114285Y-19869619D02*
X99228570Y-20022000D01*
X99228570Y-20022000D02*
X99399999Y-20098190D01*
X99399999Y-20098190D02*
X99685713Y-20098190D01*
X101800000Y-21090190D02*
X101571428Y-21090190D01*
X101571428Y-21090190D02*
X101457143Y-21166380D01*
X101457143Y-21166380D02*
X101342857Y-21318761D01*
X101342857Y-21318761D02*
X101285714Y-21623523D01*
X101285714Y-21623523D02*
X101285714Y-22156857D01*
X101285714Y-22156857D02*
X101342857Y-22461619D01*
X101342857Y-22461619D02*
X101457143Y-22614000D01*
X101457143Y-22614000D02*
X101571428Y-22690190D01*
X101571428Y-22690190D02*
X101800000Y-22690190D01*
X101800000Y-22690190D02*
X101914286Y-22614000D01*
X101914286Y-22614000D02*
X102028571Y-22461619D01*
X102028571Y-22461619D02*
X102085714Y-22156857D01*
X102085714Y-22156857D02*
X102085714Y-21623523D01*
X102085714Y-21623523D02*
X102028571Y-21318761D01*
X102028571Y-21318761D02*
X101914286Y-21166380D01*
X101914286Y-21166380D02*
X101800000Y-21090190D01*
X100771428Y-21090190D02*
X100771428Y-22385428D01*
X100771428Y-22385428D02*
X100714285Y-22537809D01*
X100714285Y-22537809D02*
X100657143Y-22614000D01*
X100657143Y-22614000D02*
X100542857Y-22690190D01*
X100542857Y-22690190D02*
X100314285Y-22690190D01*
X100314285Y-22690190D02*
X100200000Y-22614000D01*
X100200000Y-22614000D02*
X100142857Y-22537809D01*
X100142857Y-22537809D02*
X100085714Y-22385428D01*
X100085714Y-22385428D02*
X100085714Y-21090190D01*
X99685714Y-21090190D02*
X99000000Y-21090190D01*
X99342857Y-22690190D02*
X99342857Y-21090190D01*
X102142856Y-24672666D02*
X101228571Y-24672666D01*
X101685713Y-25282190D02*
X101685713Y-24063142D01*
X100085714Y-23682190D02*
X100657142Y-23682190D01*
X100657142Y-23682190D02*
X100714285Y-24444095D01*
X100714285Y-24444095D02*
X100657142Y-24367904D01*
X100657142Y-24367904D02*
X100542857Y-24291714D01*
X100542857Y-24291714D02*
X100257142Y-24291714D01*
X100257142Y-24291714D02*
X100142857Y-24367904D01*
X100142857Y-24367904D02*
X100085714Y-24444095D01*
X100085714Y-24444095D02*
X100028571Y-24596476D01*
X100028571Y-24596476D02*
X100028571Y-24977428D01*
X100028571Y-24977428D02*
X100085714Y-25129809D01*
X100085714Y-25129809D02*
X100142857Y-25206000D01*
X100142857Y-25206000D02*
X100257142Y-25282190D01*
X100257142Y-25282190D02*
X100542857Y-25282190D01*
X100542857Y-25282190D02*
X100657142Y-25206000D01*
X100657142Y-25206000D02*
X100714285Y-25129809D01*
X99685714Y-23682190D02*
X99285714Y-25282190D01*
X99285714Y-25282190D02*
X98885714Y-23682190D01*
D12*
X27114285Y-18668190D02*
X27828571Y-18668190D01*
X27828571Y-18668190D02*
X27828571Y-17068190D01*
X26614285Y-17830095D02*
X26114285Y-17830095D01*
X25899999Y-18668190D02*
X26614285Y-18668190D01*
X26614285Y-18668190D02*
X26614285Y-17068190D01*
X26614285Y-17068190D02*
X25899999Y-17068190D01*
X25257142Y-18668190D02*
X25257142Y-17068190D01*
X25257142Y-17068190D02*
X24899999Y-17068190D01*
X24899999Y-17068190D02*
X24685713Y-17144380D01*
X24685713Y-17144380D02*
X24542856Y-17296761D01*
X24542856Y-17296761D02*
X24471427Y-17449142D01*
X24471427Y-17449142D02*
X24399999Y-17753904D01*
X24399999Y-17753904D02*
X24399999Y-17982476D01*
X24399999Y-17982476D02*
X24471427Y-18287238D01*
X24471427Y-18287238D02*
X24542856Y-18439619D01*
X24542856Y-18439619D02*
X24685713Y-18592000D01*
X24685713Y-18592000D02*
X24899999Y-18668190D01*
X24899999Y-18668190D02*
X25257142Y-18668190D01*
X26399999Y-21107809D02*
X26471427Y-21184000D01*
X26471427Y-21184000D02*
X26685713Y-21260190D01*
X26685713Y-21260190D02*
X26828570Y-21260190D01*
X26828570Y-21260190D02*
X27042856Y-21184000D01*
X27042856Y-21184000D02*
X27185713Y-21031619D01*
X27185713Y-21031619D02*
X27257142Y-20879238D01*
X27257142Y-20879238D02*
X27328570Y-20574476D01*
X27328570Y-20574476D02*
X27328570Y-20345904D01*
X27328570Y-20345904D02*
X27257142Y-20041142D01*
X27257142Y-20041142D02*
X27185713Y-19888761D01*
X27185713Y-19888761D02*
X27042856Y-19736380D01*
X27042856Y-19736380D02*
X26828570Y-19660190D01*
X26828570Y-19660190D02*
X26685713Y-19660190D01*
X26685713Y-19660190D02*
X26471427Y-19736380D01*
X26471427Y-19736380D02*
X26399999Y-19812571D01*
X25828570Y-21184000D02*
X25614285Y-21260190D01*
X25614285Y-21260190D02*
X25257142Y-21260190D01*
X25257142Y-21260190D02*
X25114285Y-21184000D01*
X25114285Y-21184000D02*
X25042856Y-21107809D01*
X25042856Y-21107809D02*
X24971427Y-20955428D01*
X24971427Y-20955428D02*
X24971427Y-20803047D01*
X24971427Y-20803047D02*
X25042856Y-20650666D01*
X25042856Y-20650666D02*
X25114285Y-20574476D01*
X25114285Y-20574476D02*
X25257142Y-20498285D01*
X25257142Y-20498285D02*
X25542856Y-20422095D01*
X25542856Y-20422095D02*
X25685713Y-20345904D01*
X25685713Y-20345904D02*
X25757142Y-20269714D01*
X25757142Y-20269714D02*
X25828570Y-20117333D01*
X25828570Y-20117333D02*
X25828570Y-19964952D01*
X25828570Y-19964952D02*
X25757142Y-19812571D01*
X25757142Y-19812571D02*
X25685713Y-19736380D01*
X25685713Y-19736380D02*
X25542856Y-19660190D01*
X25542856Y-19660190D02*
X25185713Y-19660190D01*
X25185713Y-19660190D02*
X24971427Y-19736380D01*
X27292857Y-23852190D02*
X27292857Y-22252190D01*
X27292857Y-22252190D02*
X26935714Y-22252190D01*
X26935714Y-22252190D02*
X26721428Y-22328380D01*
X26721428Y-22328380D02*
X26578571Y-22480761D01*
X26578571Y-22480761D02*
X26507142Y-22633142D01*
X26507142Y-22633142D02*
X26435714Y-22937904D01*
X26435714Y-22937904D02*
X26435714Y-23166476D01*
X26435714Y-23166476D02*
X26507142Y-23471238D01*
X26507142Y-23471238D02*
X26578571Y-23623619D01*
X26578571Y-23623619D02*
X26721428Y-23776000D01*
X26721428Y-23776000D02*
X26935714Y-23852190D01*
X26935714Y-23852190D02*
X27292857Y-23852190D01*
X24935714Y-23699809D02*
X25007142Y-23776000D01*
X25007142Y-23776000D02*
X25221428Y-23852190D01*
X25221428Y-23852190D02*
X25364285Y-23852190D01*
X25364285Y-23852190D02*
X25578571Y-23776000D01*
X25578571Y-23776000D02*
X25721428Y-23623619D01*
X25721428Y-23623619D02*
X25792857Y-23471238D01*
X25792857Y-23471238D02*
X25864285Y-23166476D01*
X25864285Y-23166476D02*
X25864285Y-22937904D01*
X25864285Y-22937904D02*
X25792857Y-22633142D01*
X25792857Y-22633142D02*
X25721428Y-22480761D01*
X25721428Y-22480761D02*
X25578571Y-22328380D01*
X25578571Y-22328380D02*
X25364285Y-22252190D01*
X25364285Y-22252190D02*
X25221428Y-22252190D01*
X25221428Y-22252190D02*
X25007142Y-22328380D01*
X25007142Y-22328380D02*
X24935714Y-22404571D01*
X26971428Y-26444190D02*
X27471428Y-25682285D01*
X27828571Y-26444190D02*
X27828571Y-24844190D01*
X27828571Y-24844190D02*
X27257142Y-24844190D01*
X27257142Y-24844190D02*
X27114285Y-24920380D01*
X27114285Y-24920380D02*
X27042856Y-24996571D01*
X27042856Y-24996571D02*
X26971428Y-25148952D01*
X26971428Y-25148952D02*
X26971428Y-25377523D01*
X26971428Y-25377523D02*
X27042856Y-25529904D01*
X27042856Y-25529904D02*
X27114285Y-25606095D01*
X27114285Y-25606095D02*
X27257142Y-25682285D01*
X27257142Y-25682285D02*
X27828571Y-25682285D01*
X26399999Y-26368000D02*
X26185714Y-26444190D01*
X26185714Y-26444190D02*
X25828571Y-26444190D01*
X25828571Y-26444190D02*
X25685714Y-26368000D01*
X25685714Y-26368000D02*
X25614285Y-26291809D01*
X25614285Y-26291809D02*
X25542856Y-26139428D01*
X25542856Y-26139428D02*
X25542856Y-25987047D01*
X25542856Y-25987047D02*
X25614285Y-25834666D01*
X25614285Y-25834666D02*
X25685714Y-25758476D01*
X25685714Y-25758476D02*
X25828571Y-25682285D01*
X25828571Y-25682285D02*
X26114285Y-25606095D01*
X26114285Y-25606095D02*
X26257142Y-25529904D01*
X26257142Y-25529904D02*
X26328571Y-25453714D01*
X26328571Y-25453714D02*
X26399999Y-25301333D01*
X26399999Y-25301333D02*
X26399999Y-25148952D01*
X26399999Y-25148952D02*
X26328571Y-24996571D01*
X26328571Y-24996571D02*
X26257142Y-24920380D01*
X26257142Y-24920380D02*
X26114285Y-24844190D01*
X26114285Y-24844190D02*
X25757142Y-24844190D01*
X25757142Y-24844190D02*
X25542856Y-24920380D01*
X25114285Y-24844190D02*
X24257143Y-24844190D01*
X24685714Y-26444190D02*
X24685714Y-24844190D01*
X28507143Y-29036190D02*
X28507143Y-27436190D01*
X28507143Y-27436190D02*
X28007143Y-28579047D01*
X28007143Y-28579047D02*
X27507143Y-27436190D01*
X27507143Y-27436190D02*
X27507143Y-29036190D01*
X26507142Y-27436190D02*
X26221428Y-27436190D01*
X26221428Y-27436190D02*
X26078571Y-27512380D01*
X26078571Y-27512380D02*
X25935714Y-27664761D01*
X25935714Y-27664761D02*
X25864285Y-27969523D01*
X25864285Y-27969523D02*
X25864285Y-28502857D01*
X25864285Y-28502857D02*
X25935714Y-28807619D01*
X25935714Y-28807619D02*
X26078571Y-28960000D01*
X26078571Y-28960000D02*
X26221428Y-29036190D01*
X26221428Y-29036190D02*
X26507142Y-29036190D01*
X26507142Y-29036190D02*
X26650000Y-28960000D01*
X26650000Y-28960000D02*
X26792857Y-28807619D01*
X26792857Y-28807619D02*
X26864285Y-28502857D01*
X26864285Y-28502857D02*
X26864285Y-27969523D01*
X26864285Y-27969523D02*
X26792857Y-27664761D01*
X26792857Y-27664761D02*
X26650000Y-27512380D01*
X26650000Y-27512380D02*
X26507142Y-27436190D01*
X25292856Y-28960000D02*
X25078571Y-29036190D01*
X25078571Y-29036190D02*
X24721428Y-29036190D01*
X24721428Y-29036190D02*
X24578571Y-28960000D01*
X24578571Y-28960000D02*
X24507142Y-28883809D01*
X24507142Y-28883809D02*
X24435713Y-28731428D01*
X24435713Y-28731428D02*
X24435713Y-28579047D01*
X24435713Y-28579047D02*
X24507142Y-28426666D01*
X24507142Y-28426666D02*
X24578571Y-28350476D01*
X24578571Y-28350476D02*
X24721428Y-28274285D01*
X24721428Y-28274285D02*
X25007142Y-28198095D01*
X25007142Y-28198095D02*
X25149999Y-28121904D01*
X25149999Y-28121904D02*
X25221428Y-28045714D01*
X25221428Y-28045714D02*
X25292856Y-27893333D01*
X25292856Y-27893333D02*
X25292856Y-27740952D01*
X25292856Y-27740952D02*
X25221428Y-27588571D01*
X25221428Y-27588571D02*
X25149999Y-27512380D01*
X25149999Y-27512380D02*
X25007142Y-27436190D01*
X25007142Y-27436190D02*
X24649999Y-27436190D01*
X24649999Y-27436190D02*
X24435713Y-27512380D01*
X23792857Y-29036190D02*
X23792857Y-27436190D01*
X28685713Y-31552000D02*
X28471428Y-31628190D01*
X28471428Y-31628190D02*
X28114285Y-31628190D01*
X28114285Y-31628190D02*
X27971428Y-31552000D01*
X27971428Y-31552000D02*
X27899999Y-31475809D01*
X27899999Y-31475809D02*
X27828570Y-31323428D01*
X27828570Y-31323428D02*
X27828570Y-31171047D01*
X27828570Y-31171047D02*
X27899999Y-31018666D01*
X27899999Y-31018666D02*
X27971428Y-30942476D01*
X27971428Y-30942476D02*
X28114285Y-30866285D01*
X28114285Y-30866285D02*
X28399999Y-30790095D01*
X28399999Y-30790095D02*
X28542856Y-30713904D01*
X28542856Y-30713904D02*
X28614285Y-30637714D01*
X28614285Y-30637714D02*
X28685713Y-30485333D01*
X28685713Y-30485333D02*
X28685713Y-30332952D01*
X28685713Y-30332952D02*
X28614285Y-30180571D01*
X28614285Y-30180571D02*
X28542856Y-30104380D01*
X28542856Y-30104380D02*
X28399999Y-30028190D01*
X28399999Y-30028190D02*
X28042856Y-30028190D01*
X28042856Y-30028190D02*
X27828570Y-30104380D01*
X26328571Y-31475809D02*
X26399999Y-31552000D01*
X26399999Y-31552000D02*
X26614285Y-31628190D01*
X26614285Y-31628190D02*
X26757142Y-31628190D01*
X26757142Y-31628190D02*
X26971428Y-31552000D01*
X26971428Y-31552000D02*
X27114285Y-31399619D01*
X27114285Y-31399619D02*
X27185714Y-31247238D01*
X27185714Y-31247238D02*
X27257142Y-30942476D01*
X27257142Y-30942476D02*
X27257142Y-30713904D01*
X27257142Y-30713904D02*
X27185714Y-30409142D01*
X27185714Y-30409142D02*
X27114285Y-30256761D01*
X27114285Y-30256761D02*
X26971428Y-30104380D01*
X26971428Y-30104380D02*
X26757142Y-30028190D01*
X26757142Y-30028190D02*
X26614285Y-30028190D01*
X26614285Y-30028190D02*
X26399999Y-30104380D01*
X26399999Y-30104380D02*
X26328571Y-30180571D01*
X24971428Y-31628190D02*
X25685714Y-31628190D01*
X25685714Y-31628190D02*
X25685714Y-30028190D01*
X24471428Y-31628190D02*
X24471428Y-30028190D01*
X23614285Y-31628190D02*
X24257142Y-30713904D01*
X23614285Y-30028190D02*
X24471428Y-30942476D01*
X28007142Y-32620190D02*
X27078570Y-32620190D01*
X27078570Y-32620190D02*
X27578570Y-33229714D01*
X27578570Y-33229714D02*
X27364285Y-33229714D01*
X27364285Y-33229714D02*
X27221428Y-33305904D01*
X27221428Y-33305904D02*
X27149999Y-33382095D01*
X27149999Y-33382095D02*
X27078570Y-33534476D01*
X27078570Y-33534476D02*
X27078570Y-33915428D01*
X27078570Y-33915428D02*
X27149999Y-34067809D01*
X27149999Y-34067809D02*
X27221428Y-34144000D01*
X27221428Y-34144000D02*
X27364285Y-34220190D01*
X27364285Y-34220190D02*
X27792856Y-34220190D01*
X27792856Y-34220190D02*
X27935713Y-34144000D01*
X27935713Y-34144000D02*
X28007142Y-34067809D01*
X26649999Y-32620190D02*
X26149999Y-34220190D01*
X26149999Y-34220190D02*
X25649999Y-32620190D01*
X25292857Y-32620190D02*
X24364285Y-32620190D01*
X24364285Y-32620190D02*
X24864285Y-33229714D01*
X24864285Y-33229714D02*
X24650000Y-33229714D01*
X24650000Y-33229714D02*
X24507143Y-33305904D01*
X24507143Y-33305904D02*
X24435714Y-33382095D01*
X24435714Y-33382095D02*
X24364285Y-33534476D01*
X24364285Y-33534476D02*
X24364285Y-33915428D01*
X24364285Y-33915428D02*
X24435714Y-34067809D01*
X24435714Y-34067809D02*
X24507143Y-34144000D01*
X24507143Y-34144000D02*
X24650000Y-34220190D01*
X24650000Y-34220190D02*
X25078571Y-34220190D01*
X25078571Y-34220190D02*
X25221428Y-34144000D01*
X25221428Y-34144000D02*
X25292857Y-34067809D01*
X27292856Y-35288380D02*
X27435714Y-35212190D01*
X27435714Y-35212190D02*
X27649999Y-35212190D01*
X27649999Y-35212190D02*
X27864285Y-35288380D01*
X27864285Y-35288380D02*
X28007142Y-35440761D01*
X28007142Y-35440761D02*
X28078571Y-35593142D01*
X28078571Y-35593142D02*
X28149999Y-35897904D01*
X28149999Y-35897904D02*
X28149999Y-36126476D01*
X28149999Y-36126476D02*
X28078571Y-36431238D01*
X28078571Y-36431238D02*
X28007142Y-36583619D01*
X28007142Y-36583619D02*
X27864285Y-36736000D01*
X27864285Y-36736000D02*
X27649999Y-36812190D01*
X27649999Y-36812190D02*
X27507142Y-36812190D01*
X27507142Y-36812190D02*
X27292856Y-36736000D01*
X27292856Y-36736000D02*
X27221428Y-36659809D01*
X27221428Y-36659809D02*
X27221428Y-36126476D01*
X27221428Y-36126476D02*
X27507142Y-36126476D01*
X26578571Y-36812190D02*
X26578571Y-35212190D01*
X26578571Y-35212190D02*
X25721428Y-36812190D01*
X25721428Y-36812190D02*
X25721428Y-35212190D01*
X25007142Y-36812190D02*
X25007142Y-35212190D01*
X25007142Y-35212190D02*
X24649999Y-35212190D01*
X24649999Y-35212190D02*
X24435713Y-35288380D01*
X24435713Y-35288380D02*
X24292856Y-35440761D01*
X24292856Y-35440761D02*
X24221427Y-35593142D01*
X24221427Y-35593142D02*
X24149999Y-35897904D01*
X24149999Y-35897904D02*
X24149999Y-36126476D01*
X24149999Y-36126476D02*
X24221427Y-36431238D01*
X24221427Y-36431238D02*
X24292856Y-36583619D01*
X24292856Y-36583619D02*
X24435713Y-36736000D01*
X24435713Y-36736000D02*
X24649999Y-36812190D01*
X24649999Y-36812190D02*
X25007142Y-36812190D01*
%LPC*%
D13*
%TO.C,SW3*%
X62500000Y7500000D03*
D14*
X60000000Y0D03*
X65000000Y0D03*
X62500000Y0D03*
X60000000Y14500000D03*
X65000000Y14500000D03*
D15*
X57030000Y7500000D03*
X67970000Y7500000D03*
%TD*%
D13*
%TO.C,SW1*%
X2500000Y7500000D03*
D14*
X0Y0D03*
X5000000Y0D03*
X2500000Y0D03*
X0Y14500000D03*
X5000000Y14500000D03*
D15*
X-2970000Y7500000D03*
X7970000Y7500000D03*
%TD*%
D13*
%TO.C,SW2*%
X32500000Y7500000D03*
D14*
X30000000Y0D03*
X35000000Y0D03*
X32500000Y0D03*
X30000000Y14500000D03*
X35000000Y14500000D03*
D15*
X27030000Y7500000D03*
X37970000Y7500000D03*
%TD*%
D13*
%TO.C,SW4*%
X92500000Y7500000D03*
D14*
X90000000Y0D03*
X95000000Y0D03*
X92500000Y0D03*
X90000000Y14500000D03*
X95000000Y14500000D03*
D15*
X87030000Y7500000D03*
X97970000Y7500000D03*
%TD*%
D16*
%TO.C,J4*%
X22000000Y-35700000D03*
D17*
X22000000Y-33160000D03*
X22000000Y-30620000D03*
X22000000Y-28080000D03*
X22000000Y-25540000D03*
X22000000Y-23000000D03*
X22000000Y-20460000D03*
X22000000Y-17920000D03*
%TD*%
D16*
%TO.C,J3*%
X90000000Y-18000000D03*
D17*
X87460000Y-18000000D03*
X90000000Y-20540000D03*
X87460000Y-20540000D03*
X90000000Y-23080000D03*
X87460000Y-23080000D03*
X90000000Y-25620000D03*
X87460000Y-25620000D03*
%TD*%
D16*
%TO.C,J5*%
X4000000Y-18000000D03*
D17*
X6540000Y-18000000D03*
X4000000Y-20540000D03*
X6540000Y-20540000D03*
X4000000Y-23080000D03*
X6540000Y-23080000D03*
X4000000Y-25620000D03*
X6540000Y-25620000D03*
X4000000Y-28160000D03*
X6540000Y-28160000D03*
X4000000Y-30700000D03*
X6540000Y-30700000D03*
X4000000Y-33240000D03*
X6540000Y-33240000D03*
X4000000Y-35780000D03*
X6540000Y-35780000D03*
%TD*%
D16*
%TO.C,J7*%
X97500000Y-19350000D03*
D17*
X97500000Y-21890000D03*
X97500000Y-24430000D03*
%TD*%
D18*
%TO.C,USBC1*%
X50390000Y33690000D03*
X44610000Y33690000D03*
D19*
X51820000Y33190000D03*
D20*
X51820000Y37370000D03*
X43180000Y37370000D03*
D19*
X43180000Y33190000D03*
%TD*%
M02*
