%TF.GenerationSoftware,KiCad,Pcbnew,(6.0.10)*%
%TF.CreationDate,2023-01-15T02:26:48+01:00*%
%TF.ProjectId,obs-studio-controller,6f62732d-7374-4756-9469-6f2d636f6e74,rev?*%
%TF.SameCoordinates,Original*%
%TF.FileFunction,Legend,Top*%
%TF.FilePolarity,Positive*%
%FSLAX46Y46*%
G04 Gerber Fmt 4.6, Leading zero omitted, Abs format (unit mm)*
G04 Created by KiCad (PCBNEW (6.0.10)) date 2023-01-15 02:26:48*
%MOMM*%
%LPD*%
G01*
G04 APERTURE LIST*
G04 Aperture macros list*
%AMRoundRect*
0 Rectangle with rounded corners*
0 $1 Rounding radius*
0 $2 $3 $4 $5 $6 $7 $8 $9 X,Y pos of 4 corners*
0 Add a 4 corners polygon primitive as box body*
4,1,4,$2,$3,$4,$5,$6,$7,$8,$9,$2,$3,0*
0 Add four circle primitives for the rounded corners*
1,1,$1+$1,$2,$3*
1,1,$1+$1,$4,$5*
1,1,$1+$1,$6,$7*
1,1,$1+$1,$8,$9*
0 Add four rect primitives between the rounded corners*
20,1,$1+$1,$2,$3,$4,$5,0*
20,1,$1+$1,$4,$5,$6,$7,0*
20,1,$1+$1,$6,$7,$8,$9,0*
20,1,$1+$1,$8,$9,$2,$3,0*%
G04 Aperture macros list end*
%ADD10C,0.150000*%
%ADD11C,0.300000*%
%ADD12C,0.120000*%
%ADD13C,0.250000*%
%ADD14RoundRect,0.150000X-0.150000X0.825000X-0.150000X-0.825000X0.150000X-0.825000X0.150000X0.825000X0*%
%ADD15RoundRect,0.135000X-0.185000X0.135000X-0.185000X-0.135000X0.185000X-0.135000X0.185000X0.135000X0*%
%ADD16RoundRect,0.150000X-0.587500X-0.150000X0.587500X-0.150000X0.587500X0.150000X-0.587500X0.150000X0*%
%ADD17C,2.100000*%
%ADD18C,1.800000*%
%ADD19O,2.300000X4.000000*%
%ADD20R,0.650000X1.220000*%
%ADD21RoundRect,0.218750X0.218750X0.256250X-0.218750X0.256250X-0.218750X-0.256250X0.218750X-0.256250X0*%
%ADD22RoundRect,0.150000X-0.512500X-0.150000X0.512500X-0.150000X0.512500X0.150000X-0.512500X0.150000X0*%
%ADD23RoundRect,0.135000X0.185000X-0.135000X0.185000X0.135000X-0.185000X0.135000X-0.185000X-0.135000X0*%
%ADD24RoundRect,0.140000X0.140000X0.170000X-0.140000X0.170000X-0.140000X-0.170000X0.140000X-0.170000X0*%
%ADD25RoundRect,0.200000X-0.200000X-0.275000X0.200000X-0.275000X0.200000X0.275000X-0.200000X0.275000X0*%
%ADD26RoundRect,0.135000X0.135000X0.185000X-0.135000X0.185000X-0.135000X-0.185000X0.135000X-0.185000X0*%
%ADD27R,1.500000X2.000000*%
%ADD28R,3.800000X2.000000*%
%ADD29RoundRect,0.135000X-0.135000X-0.185000X0.135000X-0.185000X0.135000X0.185000X-0.135000X0.185000X0*%
%ADD30RoundRect,0.218750X-0.218750X-0.256250X0.218750X-0.256250X0.218750X0.256250X-0.218750X0.256250X0*%
%ADD31RoundRect,0.225000X-0.250000X0.225000X-0.250000X-0.225000X0.250000X-0.225000X0.250000X0.225000X0*%
%ADD32RoundRect,0.225000X0.225000X0.250000X-0.225000X0.250000X-0.225000X-0.250000X0.225000X-0.250000X0*%
%ADD33RoundRect,0.225000X0.250000X-0.225000X0.250000X0.225000X-0.250000X0.225000X-0.250000X-0.225000X0*%
%ADD34R,1.700000X1.700000*%
%ADD35O,1.700000X1.700000*%
%ADD36RoundRect,0.140000X0.170000X-0.140000X0.170000X0.140000X-0.170000X0.140000X-0.170000X-0.140000X0*%
%ADD37R,1.500000X0.900000*%
%ADD38R,0.900000X1.500000*%
%ADD39C,0.475000*%
%ADD40R,4.200000X4.200000*%
%ADD41C,0.650000*%
%ADD42O,1.000000X2.100000*%
%ADD43O,1.000000X1.800000*%
%ADD44R,0.600000X1.150000*%
%ADD45R,0.300000X1.150000*%
%ADD46RoundRect,0.140000X-0.140000X-0.170000X0.140000X-0.170000X0.140000X0.170000X-0.140000X0.170000X0*%
%ADD47RoundRect,0.225000X-0.225000X-0.250000X0.225000X-0.250000X0.225000X0.250000X-0.225000X0.250000X0*%
G04 APERTURE END LIST*
D10*
X1850000Y-15750000D02*
X10800000Y-15750000D01*
X10800000Y-15750000D02*
X10800000Y-38050000D01*
X10800000Y-38050000D02*
X1850000Y-38050000D01*
X1850000Y-38050000D02*
X1850000Y-15750000D01*
X19250000Y-15750000D02*
X29350000Y-15750000D01*
X29350000Y-15750000D02*
X29350000Y-37750000D01*
X29350000Y-37750000D02*
X19250000Y-37750000D01*
X19250000Y-37750000D02*
X19250000Y-15750000D01*
X-5000000Y16000000D02*
X100000000Y16000000D01*
X100000000Y16000000D02*
X100000000Y-1500000D01*
X100000000Y-1500000D02*
X-5000000Y-1500000D01*
X-5000000Y-1500000D02*
X-5000000Y16000000D01*
X-2809523Y-66452380D02*
X-2809523Y-65452380D01*
X-2476190Y-66166666D01*
X-2142857Y-65452380D01*
X-2142857Y-66452380D01*
X-1238095Y-65785714D02*
X-1238095Y-66452380D01*
X-1476190Y-65404761D02*
X-1714285Y-66119047D01*
X-1095238Y-66119047D01*
D11*
X62478571Y35300000D02*
X61764285Y34800000D01*
X62478571Y34442857D02*
X60978571Y34442857D01*
X60978571Y35014285D01*
X61050000Y35157142D01*
X61121428Y35228571D01*
X61264285Y35300000D01*
X61478571Y35300000D01*
X61621428Y35228571D01*
X61692857Y35157142D01*
X61764285Y35014285D01*
X61764285Y34442857D01*
X60978571Y35800000D02*
X62478571Y36800000D01*
X60978571Y36800000D02*
X62478571Y35800000D01*
X25185714Y-18657809D02*
X24471428Y-18657809D01*
X24471428Y-17057809D01*
X25685714Y-17819714D02*
X26185714Y-17819714D01*
X26400000Y-18657809D02*
X25685714Y-18657809D01*
X25685714Y-17057809D01*
X26400000Y-17057809D01*
X27042857Y-18657809D02*
X27042857Y-17057809D01*
X27400000Y-17057809D01*
X27614285Y-17134000D01*
X27757142Y-17286380D01*
X27828571Y-17438761D01*
X27900000Y-17743523D01*
X27900000Y-17972095D01*
X27828571Y-18276857D01*
X27757142Y-18429238D01*
X27614285Y-18581619D01*
X27400000Y-18657809D01*
X27042857Y-18657809D01*
X25900000Y-21081428D02*
X25828571Y-21157619D01*
X25614285Y-21233809D01*
X25471428Y-21233809D01*
X25257142Y-21157619D01*
X25114285Y-21005238D01*
X25042857Y-20852857D01*
X24971428Y-20548095D01*
X24971428Y-20319523D01*
X25042857Y-20014761D01*
X25114285Y-19862380D01*
X25257142Y-19710000D01*
X25471428Y-19633809D01*
X25614285Y-19633809D01*
X25828571Y-19710000D01*
X25900000Y-19786190D01*
X26471428Y-21157619D02*
X26685714Y-21233809D01*
X27042857Y-21233809D01*
X27185714Y-21157619D01*
X27257142Y-21081428D01*
X27328571Y-20929047D01*
X27328571Y-20776666D01*
X27257142Y-20624285D01*
X27185714Y-20548095D01*
X27042857Y-20471904D01*
X26757142Y-20395714D01*
X26614285Y-20319523D01*
X26542857Y-20243333D01*
X26471428Y-20090952D01*
X26471428Y-19938571D01*
X26542857Y-19786190D01*
X26614285Y-19710000D01*
X26757142Y-19633809D01*
X27114285Y-19633809D01*
X27328571Y-19710000D01*
X25007142Y-23809809D02*
X25007142Y-22209809D01*
X25364285Y-22209809D01*
X25578571Y-22286000D01*
X25721428Y-22438380D01*
X25792857Y-22590761D01*
X25864285Y-22895523D01*
X25864285Y-23124095D01*
X25792857Y-23428857D01*
X25721428Y-23581238D01*
X25578571Y-23733619D01*
X25364285Y-23809809D01*
X25007142Y-23809809D01*
X27364285Y-23657428D02*
X27292857Y-23733619D01*
X27078571Y-23809809D01*
X26935714Y-23809809D01*
X26721428Y-23733619D01*
X26578571Y-23581238D01*
X26507142Y-23428857D01*
X26435714Y-23124095D01*
X26435714Y-22895523D01*
X26507142Y-22590761D01*
X26578571Y-22438380D01*
X26721428Y-22286000D01*
X26935714Y-22209809D01*
X27078571Y-22209809D01*
X27292857Y-22286000D01*
X27364285Y-22362190D01*
X25328571Y-26385809D02*
X24828571Y-25623904D01*
X24471428Y-26385809D02*
X24471428Y-24785809D01*
X25042857Y-24785809D01*
X25185714Y-24862000D01*
X25257142Y-24938190D01*
X25328571Y-25090571D01*
X25328571Y-25319142D01*
X25257142Y-25471523D01*
X25185714Y-25547714D01*
X25042857Y-25623904D01*
X24471428Y-25623904D01*
X25900000Y-26309619D02*
X26114285Y-26385809D01*
X26471428Y-26385809D01*
X26614285Y-26309619D01*
X26685714Y-26233428D01*
X26757142Y-26081047D01*
X26757142Y-25928666D01*
X26685714Y-25776285D01*
X26614285Y-25700095D01*
X26471428Y-25623904D01*
X26185714Y-25547714D01*
X26042857Y-25471523D01*
X25971428Y-25395333D01*
X25900000Y-25242952D01*
X25900000Y-25090571D01*
X25971428Y-24938190D01*
X26042857Y-24862000D01*
X26185714Y-24785809D01*
X26542857Y-24785809D01*
X26757142Y-24862000D01*
X27185714Y-24785809D02*
X28042857Y-24785809D01*
X27614285Y-26385809D02*
X27614285Y-24785809D01*
X23792857Y-28961809D02*
X23792857Y-27361809D01*
X24292857Y-28504666D01*
X24792857Y-27361809D01*
X24792857Y-28961809D01*
X25792857Y-27361809D02*
X26078571Y-27361809D01*
X26221428Y-27438000D01*
X26364285Y-27590380D01*
X26435714Y-27895142D01*
X26435714Y-28428476D01*
X26364285Y-28733238D01*
X26221428Y-28885619D01*
X26078571Y-28961809D01*
X25792857Y-28961809D01*
X25650000Y-28885619D01*
X25507142Y-28733238D01*
X25435714Y-28428476D01*
X25435714Y-27895142D01*
X25507142Y-27590380D01*
X25650000Y-27438000D01*
X25792857Y-27361809D01*
X27007142Y-28885619D02*
X27221428Y-28961809D01*
X27578571Y-28961809D01*
X27721428Y-28885619D01*
X27792857Y-28809428D01*
X27864285Y-28657047D01*
X27864285Y-28504666D01*
X27792857Y-28352285D01*
X27721428Y-28276095D01*
X27578571Y-28199904D01*
X27292857Y-28123714D01*
X27150000Y-28047523D01*
X27078571Y-27971333D01*
X27007142Y-27818952D01*
X27007142Y-27666571D01*
X27078571Y-27514190D01*
X27150000Y-27438000D01*
X27292857Y-27361809D01*
X27650000Y-27361809D01*
X27864285Y-27438000D01*
X28507142Y-28961809D02*
X28507142Y-27361809D01*
X23614285Y-31461619D02*
X23828571Y-31537809D01*
X24185714Y-31537809D01*
X24328571Y-31461619D01*
X24400000Y-31385428D01*
X24471428Y-31233047D01*
X24471428Y-31080666D01*
X24400000Y-30928285D01*
X24328571Y-30852095D01*
X24185714Y-30775904D01*
X23900000Y-30699714D01*
X23757142Y-30623523D01*
X23685714Y-30547333D01*
X23614285Y-30394952D01*
X23614285Y-30242571D01*
X23685714Y-30090190D01*
X23757142Y-30014000D01*
X23900000Y-29937809D01*
X24257142Y-29937809D01*
X24471428Y-30014000D01*
X25971428Y-31385428D02*
X25900000Y-31461619D01*
X25685714Y-31537809D01*
X25542857Y-31537809D01*
X25328571Y-31461619D01*
X25185714Y-31309238D01*
X25114285Y-31156857D01*
X25042857Y-30852095D01*
X25042857Y-30623523D01*
X25114285Y-30318761D01*
X25185714Y-30166380D01*
X25328571Y-30014000D01*
X25542857Y-29937809D01*
X25685714Y-29937809D01*
X25900000Y-30014000D01*
X25971428Y-30090190D01*
X27328571Y-31537809D02*
X26614285Y-31537809D01*
X26614285Y-29937809D01*
X27828571Y-31537809D02*
X27828571Y-29937809D01*
X28685714Y-31537809D02*
X28042857Y-30623523D01*
X28685714Y-29937809D02*
X27828571Y-30852095D01*
X24292857Y-32513809D02*
X25221428Y-32513809D01*
X24721428Y-33123333D01*
X24935714Y-33123333D01*
X25078571Y-33199523D01*
X25150000Y-33275714D01*
X25221428Y-33428095D01*
X25221428Y-33809047D01*
X25150000Y-33961428D01*
X25078571Y-34037619D01*
X24935714Y-34113809D01*
X24507142Y-34113809D01*
X24364285Y-34037619D01*
X24292857Y-33961428D01*
X25650000Y-32513809D02*
X26150000Y-34113809D01*
X26650000Y-32513809D01*
X27007142Y-32513809D02*
X27935714Y-32513809D01*
X27435714Y-33123333D01*
X27650000Y-33123333D01*
X27792857Y-33199523D01*
X27864285Y-33275714D01*
X27935714Y-33428095D01*
X27935714Y-33809047D01*
X27864285Y-33961428D01*
X27792857Y-34037619D01*
X27650000Y-34113809D01*
X27221428Y-34113809D01*
X27078571Y-34037619D01*
X27007142Y-33961428D01*
X25007142Y-35166000D02*
X24864285Y-35089809D01*
X24650000Y-35089809D01*
X24435714Y-35166000D01*
X24292857Y-35318380D01*
X24221428Y-35470761D01*
X24150000Y-35775523D01*
X24150000Y-36004095D01*
X24221428Y-36308857D01*
X24292857Y-36461238D01*
X24435714Y-36613619D01*
X24650000Y-36689809D01*
X24792857Y-36689809D01*
X25007142Y-36613619D01*
X25078571Y-36537428D01*
X25078571Y-36004095D01*
X24792857Y-36004095D01*
X25721428Y-36689809D02*
X25721428Y-35089809D01*
X26578571Y-36689809D01*
X26578571Y-35089809D01*
X27292857Y-36689809D02*
X27292857Y-35089809D01*
X27650000Y-35089809D01*
X27864285Y-35166000D01*
X28007142Y-35318380D01*
X28078571Y-35470761D01*
X28150000Y-35775523D01*
X28150000Y-36004095D01*
X28078571Y-36308857D01*
X28007142Y-36461238D01*
X27864285Y-36613619D01*
X27650000Y-36689809D01*
X27292857Y-36689809D01*
D10*
X-2809523Y35547619D02*
X-2809523Y36547619D01*
X-2476190Y35833333D01*
X-2142857Y36547619D01*
X-2142857Y35547619D01*
X-1238095Y36214285D02*
X-1238095Y35547619D01*
X-1476190Y36595238D02*
X-1714285Y35880952D01*
X-1095238Y35880952D01*
X41092857Y6411904D02*
X40659523Y7030952D01*
X40349999Y6411904D02*
X40349999Y7711904D01*
X40845238Y7711904D01*
X40969047Y7650000D01*
X41030952Y7588095D01*
X41092857Y7464285D01*
X41092857Y7278571D01*
X41030952Y7154761D01*
X40969047Y7092857D01*
X40845238Y7030952D01*
X40349999Y7030952D01*
X41835714Y6411904D02*
X41711904Y6473809D01*
X41649999Y6535714D01*
X41588095Y6659523D01*
X41588095Y7030952D01*
X41649999Y7154761D01*
X41711904Y7216666D01*
X41835714Y7278571D01*
X42021428Y7278571D01*
X42145238Y7216666D01*
X42207142Y7154761D01*
X42269047Y7030952D01*
X42269047Y6659523D01*
X42207142Y6535714D01*
X42145238Y6473809D01*
X42021428Y6411904D01*
X41835714Y6411904D01*
X42640476Y7278571D02*
X43135714Y7278571D01*
X42826190Y7711904D02*
X42826190Y6597619D01*
X42888095Y6473809D01*
X43011904Y6411904D01*
X43135714Y6411904D01*
X44126190Y6411904D02*
X44126190Y7092857D01*
X44064285Y7216666D01*
X43940476Y7278571D01*
X43692857Y7278571D01*
X43569047Y7216666D01*
X44126190Y6473809D02*
X44002380Y6411904D01*
X43692857Y6411904D01*
X43569047Y6473809D01*
X43507142Y6597619D01*
X43507142Y6721428D01*
X43569047Y6845238D01*
X43692857Y6907142D01*
X44002380Y6907142D01*
X44126190Y6969047D01*
X44745238Y6411904D02*
X44745238Y7278571D01*
X44745238Y7030952D02*
X44807142Y7154761D01*
X44869047Y7216666D01*
X44992857Y7278571D01*
X45116666Y7278571D01*
X45426190Y7278571D02*
X45735714Y6411904D01*
X46045238Y7278571D02*
X45735714Y6411904D01*
X45611904Y6102380D01*
X45549999Y6040476D01*
X45426190Y5978571D01*
X47530952Y7092857D02*
X47964285Y7092857D01*
X48149999Y6411904D02*
X47530952Y6411904D01*
X47530952Y7711904D01*
X48149999Y7711904D01*
X48707142Y7278571D02*
X48707142Y6411904D01*
X48707142Y7154761D02*
X48769047Y7216666D01*
X48892857Y7278571D01*
X49078571Y7278571D01*
X49202380Y7216666D01*
X49264285Y7092857D01*
X49264285Y6411904D01*
X50440476Y6473809D02*
X50316666Y6411904D01*
X50069047Y6411904D01*
X49945238Y6473809D01*
X49883333Y6535714D01*
X49821428Y6659523D01*
X49821428Y7030952D01*
X49883333Y7154761D01*
X49945238Y7216666D01*
X50069047Y7278571D01*
X50316666Y7278571D01*
X50440476Y7216666D01*
X51183333Y6411904D02*
X51059523Y6473809D01*
X50997619Y6535714D01*
X50935714Y6659523D01*
X50935714Y7030952D01*
X50997619Y7154761D01*
X51059523Y7216666D01*
X51183333Y7278571D01*
X51369047Y7278571D01*
X51492857Y7216666D01*
X51554761Y7154761D01*
X51616666Y7030952D01*
X51616666Y6659523D01*
X51554761Y6535714D01*
X51492857Y6473809D01*
X51369047Y6411904D01*
X51183333Y6411904D01*
X52730952Y6411904D02*
X52730952Y7711904D01*
X52730952Y6473809D02*
X52607142Y6411904D01*
X52359523Y6411904D01*
X52235714Y6473809D01*
X52173809Y6535714D01*
X52111904Y6659523D01*
X52111904Y7030952D01*
X52173809Y7154761D01*
X52235714Y7216666D01*
X52359523Y7278571D01*
X52607142Y7278571D01*
X52730952Y7216666D01*
X53845238Y6473809D02*
X53721428Y6411904D01*
X53473809Y6411904D01*
X53349999Y6473809D01*
X53288095Y6597619D01*
X53288095Y7092857D01*
X53349999Y7216666D01*
X53473809Y7278571D01*
X53721428Y7278571D01*
X53845238Y7216666D01*
X53907142Y7092857D01*
X53907142Y6969047D01*
X53288095Y6845238D01*
X54464285Y6411904D02*
X54464285Y7278571D01*
X54464285Y7030952D02*
X54526190Y7154761D01*
X54588095Y7216666D01*
X54711904Y7278571D01*
X54835714Y7278571D01*
D11*
X62878571Y34557142D02*
X62878571Y35414285D01*
X64378571Y34985714D02*
X62878571Y34985714D01*
X62878571Y35771428D02*
X64378571Y36771428D01*
X62878571Y36771428D02*
X64378571Y35771428D01*
X56828571Y33192857D02*
X56828571Y34121428D01*
X57400000Y33621428D01*
X57400000Y33835714D01*
X57471428Y33978571D01*
X57542857Y34050000D01*
X57685714Y34121428D01*
X58042857Y34121428D01*
X58185714Y34050000D01*
X58257142Y33978571D01*
X58328571Y33835714D01*
X58328571Y33407142D01*
X58257142Y33264285D01*
X58185714Y33192857D01*
X56828571Y34550000D02*
X58328571Y35050000D01*
X56828571Y35550000D01*
X56828571Y35907142D02*
X56828571Y36835714D01*
X57400000Y36335714D01*
X57400000Y36550000D01*
X57471428Y36692857D01*
X57542857Y36764285D01*
X57685714Y36835714D01*
X58042857Y36835714D01*
X58185714Y36764285D01*
X58257142Y36692857D01*
X58328571Y36550000D01*
X58328571Y36121428D01*
X58257142Y35978571D01*
X58185714Y35907142D01*
X93628571Y-23678571D02*
X93628571Y-24392857D01*
X92128571Y-24392857D01*
X92842857Y-23178571D02*
X92842857Y-22678571D01*
X93628571Y-22464285D02*
X93628571Y-23178571D01*
X92128571Y-23178571D01*
X92128571Y-22464285D01*
X93628571Y-21821428D02*
X92128571Y-21821428D01*
X92128571Y-21464285D01*
X92200000Y-21250000D01*
X92342857Y-21107142D01*
X92485714Y-21035714D01*
X92771428Y-20964285D01*
X92985714Y-20964285D01*
X93271428Y-21035714D01*
X93414285Y-21107142D01*
X93557142Y-21250000D01*
X93628571Y-21464285D01*
X93628571Y-21821428D01*
X93557142Y-20392857D02*
X93628571Y-20178571D01*
X93628571Y-19821428D01*
X93557142Y-19678571D01*
X93485714Y-19607142D01*
X93342857Y-19535714D01*
X93200000Y-19535714D01*
X93057142Y-19607142D01*
X92985714Y-19678571D01*
X92914285Y-19821428D01*
X92842857Y-20107142D01*
X92771428Y-20250000D01*
X92700000Y-20321428D01*
X92557142Y-20392857D01*
X92414285Y-20392857D01*
X92271428Y-20321428D01*
X92200000Y-20250000D01*
X92128571Y-20107142D01*
X92128571Y-19750000D01*
X92200000Y-19535714D01*
X55757142Y32771428D02*
X55757142Y33914285D01*
X56328571Y33342857D02*
X55185714Y33342857D01*
X54828571Y35342857D02*
X54828571Y34628571D01*
X55542857Y34557142D01*
X55471428Y34628571D01*
X55400000Y34771428D01*
X55400000Y35128571D01*
X55471428Y35271428D01*
X55542857Y35342857D01*
X55685714Y35414285D01*
X56042857Y35414285D01*
X56185714Y35342857D01*
X56257142Y35271428D01*
X56328571Y35128571D01*
X56328571Y34771428D01*
X56257142Y34628571D01*
X56185714Y34557142D01*
X54828571Y35842857D02*
X56328571Y36342857D01*
X54828571Y36842857D01*
X99878571Y-26064285D02*
X101378571Y-25707142D01*
X100307142Y-25421428D01*
X101378571Y-25135714D01*
X99878571Y-24778571D01*
X101307142Y-24278571D02*
X101378571Y-24064285D01*
X101378571Y-23707142D01*
X101307142Y-23564285D01*
X101235714Y-23492857D01*
X101092857Y-23421428D01*
X100950000Y-23421428D01*
X100807142Y-23492857D01*
X100735714Y-23564285D01*
X100664285Y-23707142D01*
X100592857Y-23992857D01*
X100521428Y-24135714D01*
X100450000Y-24207142D01*
X100307142Y-24278571D01*
X100164285Y-24278571D01*
X100021428Y-24207142D01*
X99950000Y-24135714D01*
X99878571Y-23992857D01*
X99878571Y-23635714D01*
X99950000Y-23421428D01*
X100021428Y-22850000D02*
X99950000Y-22778571D01*
X99878571Y-22635714D01*
X99878571Y-22278571D01*
X99950000Y-22135714D01*
X100021428Y-22064285D01*
X100164285Y-21992857D01*
X100307142Y-21992857D01*
X100521428Y-22064285D01*
X101378571Y-22921428D01*
X101378571Y-21992857D01*
X100521428Y-21135714D02*
X100450000Y-21278571D01*
X100378571Y-21350000D01*
X100235714Y-21421428D01*
X100164285Y-21421428D01*
X100021428Y-21350000D01*
X99950000Y-21278571D01*
X99878571Y-21135714D01*
X99878571Y-20850000D01*
X99950000Y-20707142D01*
X100021428Y-20635714D01*
X100164285Y-20564285D01*
X100235714Y-20564285D01*
X100378571Y-20635714D01*
X100450000Y-20707142D01*
X100521428Y-20850000D01*
X100521428Y-21135714D01*
X100592857Y-21278571D01*
X100664285Y-21350000D01*
X100807142Y-21421428D01*
X101092857Y-21421428D01*
X101235714Y-21350000D01*
X101307142Y-21278571D01*
X101378571Y-21135714D01*
X101378571Y-20850000D01*
X101307142Y-20707142D01*
X101235714Y-20635714D01*
X101092857Y-20564285D01*
X100807142Y-20564285D01*
X100664285Y-20635714D01*
X100592857Y-20707142D01*
X100521428Y-20850000D01*
X101378571Y-19135714D02*
X101378571Y-19992857D01*
X101378571Y-19564285D02*
X99878571Y-19564285D01*
X100092857Y-19707142D01*
X100235714Y-19850000D01*
X100307142Y-19992857D01*
X100021428Y-18564285D02*
X99950000Y-18492857D01*
X99878571Y-18350000D01*
X99878571Y-17992857D01*
X99950000Y-17850000D01*
X100021428Y-17778571D01*
X100164285Y-17707142D01*
X100307142Y-17707142D01*
X100521428Y-17778571D01*
X101378571Y-18635714D01*
X101378571Y-17707142D01*
D10*
X9421428Y-24111904D02*
X9373809Y-24254761D01*
X9326190Y-24302380D01*
X9230952Y-24350000D01*
X9088095Y-24350000D01*
X8992857Y-24302380D01*
X8945238Y-24254761D01*
X8897619Y-24159523D01*
X8897619Y-23778571D01*
X9897619Y-23778571D01*
X9897619Y-24111904D01*
X9850000Y-24207142D01*
X9802380Y-24254761D01*
X9707142Y-24302380D01*
X9611904Y-24302380D01*
X9516666Y-24254761D01*
X9469047Y-24207142D01*
X9421428Y-24111904D01*
X9421428Y-23778571D01*
X9897619Y-24778571D02*
X9088095Y-24778571D01*
X8992857Y-24826190D01*
X8945238Y-24873809D01*
X8897619Y-24969047D01*
X8897619Y-25159523D01*
X8945238Y-25254761D01*
X8992857Y-25302380D01*
X9088095Y-25350000D01*
X9897619Y-25350000D01*
X9897619Y-25683333D02*
X9897619Y-26254761D01*
X8897619Y-25969047D02*
X9897619Y-25969047D01*
X9897619Y-26445238D02*
X9897619Y-27016666D01*
X8897619Y-26730952D02*
X9897619Y-26730952D01*
X9897619Y-27540476D02*
X9897619Y-27730952D01*
X9850000Y-27826190D01*
X9754761Y-27921428D01*
X9564285Y-27969047D01*
X9230952Y-27969047D01*
X9040476Y-27921428D01*
X8945238Y-27826190D01*
X8897619Y-27730952D01*
X8897619Y-27540476D01*
X8945238Y-27445238D01*
X9040476Y-27350000D01*
X9230952Y-27302380D01*
X9564285Y-27302380D01*
X9754761Y-27350000D01*
X9850000Y-27445238D01*
X9897619Y-27540476D01*
X8897619Y-28397619D02*
X9897619Y-28397619D01*
X8897619Y-28969047D01*
X9897619Y-28969047D01*
X8945238Y-29397619D02*
X8897619Y-29540476D01*
X8897619Y-29778571D01*
X8945238Y-29873809D01*
X8992857Y-29921428D01*
X9088095Y-29969047D01*
X9183333Y-29969047D01*
X9278571Y-29921428D01*
X9326190Y-29873809D01*
X9373809Y-29778571D01*
X9421428Y-29588095D01*
X9469047Y-29492857D01*
X9516666Y-29445238D01*
X9611904Y-29397619D01*
X9707142Y-29397619D01*
X9802380Y-29445238D01*
X9850000Y-29492857D01*
X9897619Y-29588095D01*
X9897619Y-29826190D01*
X9850000Y-29969047D01*
X96190476Y35547619D02*
X96190476Y36547619D01*
X96523809Y35833333D01*
X96857142Y36547619D01*
X96857142Y35547619D01*
X97761904Y36214285D02*
X97761904Y35547619D01*
X97523809Y36595238D02*
X97285714Y35880952D01*
X97904761Y35880952D01*
X96190476Y-66452380D02*
X96190476Y-65452380D01*
X96523809Y-66166666D01*
X96857142Y-65452380D01*
X96857142Y-66452380D01*
X97761904Y-65785714D02*
X97761904Y-66452380D01*
X97523809Y-65404761D02*
X97285714Y-66119047D01*
X97904761Y-66119047D01*
%TO.C,U4*%
X54102380Y25238095D02*
X54911904Y25238095D01*
X55007142Y25285714D01*
X55054761Y25333333D01*
X55102380Y25428571D01*
X55102380Y25619047D01*
X55054761Y25714285D01*
X55007142Y25761904D01*
X54911904Y25809523D01*
X54102380Y25809523D01*
X54435714Y26714285D02*
X55102380Y26714285D01*
X54054761Y26476190D02*
X54769047Y26238095D01*
X54769047Y26857142D01*
%TO.C,R5*%
X37052380Y-47866666D02*
X36576190Y-48200000D01*
X37052380Y-48438095D02*
X36052380Y-48438095D01*
X36052380Y-48057142D01*
X36100000Y-47961904D01*
X36147619Y-47914285D01*
X36242857Y-47866666D01*
X36385714Y-47866666D01*
X36480952Y-47914285D01*
X36528571Y-47961904D01*
X36576190Y-48057142D01*
X36576190Y-48438095D01*
X36052380Y-46961904D02*
X36052380Y-47438095D01*
X36528571Y-47485714D01*
X36480952Y-47438095D01*
X36433333Y-47342857D01*
X36433333Y-47104761D01*
X36480952Y-47009523D01*
X36528571Y-46961904D01*
X36623809Y-46914285D01*
X36861904Y-46914285D01*
X36957142Y-46961904D01*
X37004761Y-47009523D01*
X37052380Y-47104761D01*
X37052380Y-47342857D01*
X37004761Y-47438095D01*
X36957142Y-47485714D01*
%TO.C,D5*%
X-738095Y-32652380D02*
X-738095Y-31652380D01*
X-500000Y-31652380D01*
X-357142Y-31700000D01*
X-261904Y-31795238D01*
X-214285Y-31890476D01*
X-166666Y-32080952D01*
X-166666Y-32223809D01*
X-214285Y-32414285D01*
X-261904Y-32509523D01*
X-357142Y-32604761D01*
X-500000Y-32652380D01*
X-738095Y-32652380D01*
X738095Y-31652380D02*
X261904Y-31652380D01*
X214285Y-32128571D01*
X261904Y-32080952D01*
X357142Y-32033333D01*
X595238Y-32033333D01*
X690476Y-32080952D01*
X738095Y-32128571D01*
X785714Y-32223809D01*
X785714Y-32461904D01*
X738095Y-32557142D01*
X690476Y-32604761D01*
X595238Y-32652380D01*
X357142Y-32652380D01*
X261904Y-32604761D01*
X214285Y-32557142D01*
%TO.C,SW3*%
X61166666Y18095238D02*
X61309523Y18047619D01*
X61547619Y18047619D01*
X61642857Y18095238D01*
X61690476Y18142857D01*
X61738095Y18238095D01*
X61738095Y18333333D01*
X61690476Y18428571D01*
X61642857Y18476190D01*
X61547619Y18523809D01*
X61357142Y18571428D01*
X61261904Y18619047D01*
X61214285Y18666666D01*
X61166666Y18761904D01*
X61166666Y18857142D01*
X61214285Y18952380D01*
X61261904Y19000000D01*
X61357142Y19047619D01*
X61595238Y19047619D01*
X61738095Y19000000D01*
X62071428Y19047619D02*
X62309523Y18047619D01*
X62500000Y18761904D01*
X62690476Y18047619D01*
X62928571Y19047619D01*
X63214285Y19047619D02*
X63833333Y19047619D01*
X63500000Y18666666D01*
X63642857Y18666666D01*
X63738095Y18619047D01*
X63785714Y18571428D01*
X63833333Y18476190D01*
X63833333Y18238095D01*
X63785714Y18142857D01*
X63738095Y18095238D01*
X63642857Y18047619D01*
X63357142Y18047619D01*
X63261904Y18095238D01*
X63214285Y18142857D01*
%TO.C,R4*%
X61677380Y-62366666D02*
X61201190Y-62700000D01*
X61677380Y-62938095D02*
X60677380Y-62938095D01*
X60677380Y-62557142D01*
X60725000Y-62461904D01*
X60772619Y-62414285D01*
X60867857Y-62366666D01*
X61010714Y-62366666D01*
X61105952Y-62414285D01*
X61153571Y-62461904D01*
X61201190Y-62557142D01*
X61201190Y-62938095D01*
X61010714Y-61509523D02*
X61677380Y-61509523D01*
X60629761Y-61747619D02*
X61344047Y-61985714D01*
X61344047Y-61366666D01*
%TO.C,Q3*%
X43597619Y17304761D02*
X43550000Y17209523D01*
X43454761Y17114285D01*
X43311904Y16971428D01*
X43264285Y16876190D01*
X43264285Y16780952D01*
X43502380Y16828571D02*
X43454761Y16733333D01*
X43359523Y16638095D01*
X43169047Y16590476D01*
X42835714Y16590476D01*
X42645238Y16638095D01*
X42550000Y16733333D01*
X42502380Y16828571D01*
X42502380Y17019047D01*
X42550000Y17114285D01*
X42645238Y17209523D01*
X42835714Y17257142D01*
X43169047Y17257142D01*
X43359523Y17209523D01*
X43454761Y17114285D01*
X43502380Y17019047D01*
X43502380Y16828571D01*
X42502380Y17590476D02*
X42502380Y18209523D01*
X42883333Y17876190D01*
X42883333Y18019047D01*
X42930952Y18114285D01*
X42978571Y18161904D01*
X43073809Y18209523D01*
X43311904Y18209523D01*
X43407142Y18161904D01*
X43454761Y18114285D01*
X43502380Y18019047D01*
X43502380Y17733333D01*
X43454761Y17638095D01*
X43407142Y17590476D01*
%TO.C,SW1*%
X1166666Y18095238D02*
X1309523Y18047619D01*
X1547619Y18047619D01*
X1642857Y18095238D01*
X1690476Y18142857D01*
X1738095Y18238095D01*
X1738095Y18333333D01*
X1690476Y18428571D01*
X1642857Y18476190D01*
X1547619Y18523809D01*
X1357142Y18571428D01*
X1261904Y18619047D01*
X1214285Y18666666D01*
X1166666Y18761904D01*
X1166666Y18857142D01*
X1214285Y18952380D01*
X1261904Y19000000D01*
X1357142Y19047619D01*
X1595238Y19047619D01*
X1738095Y19000000D01*
X2071428Y19047619D02*
X2309523Y18047619D01*
X2500000Y18761904D01*
X2690476Y18047619D01*
X2928571Y19047619D01*
X3833333Y18047619D02*
X3261904Y18047619D01*
X3547619Y18047619D02*
X3547619Y19047619D01*
X3452380Y18904761D01*
X3357142Y18809523D01*
X3261904Y18761904D01*
%TO.C,R15*%
X36622380Y-3792857D02*
X36146190Y-4126190D01*
X36622380Y-4364285D02*
X35622380Y-4364285D01*
X35622380Y-3983333D01*
X35670000Y-3888095D01*
X35717619Y-3840476D01*
X35812857Y-3792857D01*
X35955714Y-3792857D01*
X36050952Y-3840476D01*
X36098571Y-3888095D01*
X36146190Y-3983333D01*
X36146190Y-4364285D01*
X36622380Y-2840476D02*
X36622380Y-3411904D01*
X36622380Y-3126190D02*
X35622380Y-3126190D01*
X35765238Y-3221428D01*
X35860476Y-3316666D01*
X35908095Y-3411904D01*
X35622380Y-1935714D02*
X35622380Y-2411904D01*
X36098571Y-2459523D01*
X36050952Y-2411904D01*
X36003333Y-2316666D01*
X36003333Y-2078571D01*
X36050952Y-1983333D01*
X36098571Y-1935714D01*
X36193809Y-1888095D01*
X36431904Y-1888095D01*
X36527142Y-1935714D01*
X36574761Y-1983333D01*
X36622380Y-2078571D01*
X36622380Y-2316666D01*
X36574761Y-2411904D01*
X36527142Y-2459523D01*
%TO.C,Q2*%
X51487619Y17304761D02*
X51440000Y17209523D01*
X51344761Y17114285D01*
X51201904Y16971428D01*
X51154285Y16876190D01*
X51154285Y16780952D01*
X51392380Y16828571D02*
X51344761Y16733333D01*
X51249523Y16638095D01*
X51059047Y16590476D01*
X50725714Y16590476D01*
X50535238Y16638095D01*
X50440000Y16733333D01*
X50392380Y16828571D01*
X50392380Y17019047D01*
X50440000Y17114285D01*
X50535238Y17209523D01*
X50725714Y17257142D01*
X51059047Y17257142D01*
X51249523Y17209523D01*
X51344761Y17114285D01*
X51392380Y17019047D01*
X51392380Y16828571D01*
X50487619Y17638095D02*
X50440000Y17685714D01*
X50392380Y17780952D01*
X50392380Y18019047D01*
X50440000Y18114285D01*
X50487619Y18161904D01*
X50582857Y18209523D01*
X50678095Y18209523D01*
X50820952Y18161904D01*
X51392380Y17590476D01*
X51392380Y18209523D01*
%TO.C,U2*%
X-5561904Y-18752380D02*
X-5561904Y-19561904D01*
X-5514285Y-19657142D01*
X-5466666Y-19704761D01*
X-5371428Y-19752380D01*
X-5180952Y-19752380D01*
X-5085714Y-19704761D01*
X-5038095Y-19657142D01*
X-4990476Y-19561904D01*
X-4990476Y-18752380D01*
X-4561904Y-18847619D02*
X-4514285Y-18800000D01*
X-4419047Y-18752380D01*
X-4180952Y-18752380D01*
X-4085714Y-18800000D01*
X-4038095Y-18847619D01*
X-3990476Y-18942857D01*
X-3990476Y-19038095D01*
X-4038095Y-19180952D01*
X-4609523Y-19752380D01*
X-3990476Y-19752380D01*
%TO.C,SW2*%
X31166666Y18095238D02*
X31309523Y18047619D01*
X31547619Y18047619D01*
X31642857Y18095238D01*
X31690476Y18142857D01*
X31738095Y18238095D01*
X31738095Y18333333D01*
X31690476Y18428571D01*
X31642857Y18476190D01*
X31547619Y18523809D01*
X31357142Y18571428D01*
X31261904Y18619047D01*
X31214285Y18666666D01*
X31166666Y18761904D01*
X31166666Y18857142D01*
X31214285Y18952380D01*
X31261904Y19000000D01*
X31357142Y19047619D01*
X31595238Y19047619D01*
X31738095Y19000000D01*
X32071428Y19047619D02*
X32309523Y18047619D01*
X32500000Y18761904D01*
X32690476Y18047619D01*
X32928571Y19047619D01*
X33261904Y18952380D02*
X33309523Y19000000D01*
X33404761Y19047619D01*
X33642857Y19047619D01*
X33738095Y19000000D01*
X33785714Y18952380D01*
X33833333Y18857142D01*
X33833333Y18761904D01*
X33785714Y18619047D01*
X33214285Y18047619D01*
X33833333Y18047619D01*
%TO.C,C3*%
X39783333Y18382857D02*
X39735714Y18335238D01*
X39592857Y18287619D01*
X39497619Y18287619D01*
X39354761Y18335238D01*
X39259523Y18430476D01*
X39211904Y18525714D01*
X39164285Y18716190D01*
X39164285Y18859047D01*
X39211904Y19049523D01*
X39259523Y19144761D01*
X39354761Y19240000D01*
X39497619Y19287619D01*
X39592857Y19287619D01*
X39735714Y19240000D01*
X39783333Y19192380D01*
X40116666Y19287619D02*
X40735714Y19287619D01*
X40402380Y18906666D01*
X40545238Y18906666D01*
X40640476Y18859047D01*
X40688095Y18811428D01*
X40735714Y18716190D01*
X40735714Y18478095D01*
X40688095Y18382857D01*
X40640476Y18335238D01*
X40545238Y18287619D01*
X40259523Y18287619D01*
X40164285Y18335238D01*
X40116666Y18382857D01*
%TO.C,R8*%
X81233333Y-23552380D02*
X80900000Y-23076190D01*
X80661904Y-23552380D02*
X80661904Y-22552380D01*
X81042857Y-22552380D01*
X81138095Y-22600000D01*
X81185714Y-22647619D01*
X81233333Y-22742857D01*
X81233333Y-22885714D01*
X81185714Y-22980952D01*
X81138095Y-23028571D01*
X81042857Y-23076190D01*
X80661904Y-23076190D01*
X81804761Y-22980952D02*
X81709523Y-22933333D01*
X81661904Y-22885714D01*
X81614285Y-22790476D01*
X81614285Y-22742857D01*
X81661904Y-22647619D01*
X81709523Y-22600000D01*
X81804761Y-22552380D01*
X81995238Y-22552380D01*
X82090476Y-22600000D01*
X82138095Y-22647619D01*
X82185714Y-22742857D01*
X82185714Y-22790476D01*
X82138095Y-22885714D01*
X82090476Y-22933333D01*
X81995238Y-22980952D01*
X81804761Y-22980952D01*
X81709523Y-23028571D01*
X81661904Y-23076190D01*
X81614285Y-23171428D01*
X81614285Y-23361904D01*
X81661904Y-23457142D01*
X81709523Y-23504761D01*
X81804761Y-23552380D01*
X81995238Y-23552380D01*
X82090476Y-23504761D01*
X82138095Y-23457142D01*
X82185714Y-23361904D01*
X82185714Y-23171428D01*
X82138095Y-23076190D01*
X82090476Y-23028571D01*
X81995238Y-22980952D01*
%TO.C,R6*%
X81233333Y-18452380D02*
X80900000Y-17976190D01*
X80661904Y-18452380D02*
X80661904Y-17452380D01*
X81042857Y-17452380D01*
X81138095Y-17500000D01*
X81185714Y-17547619D01*
X81233333Y-17642857D01*
X81233333Y-17785714D01*
X81185714Y-17880952D01*
X81138095Y-17928571D01*
X81042857Y-17976190D01*
X80661904Y-17976190D01*
X82090476Y-17452380D02*
X81900000Y-17452380D01*
X81804761Y-17500000D01*
X81757142Y-17547619D01*
X81661904Y-17690476D01*
X81614285Y-17880952D01*
X81614285Y-18261904D01*
X81661904Y-18357142D01*
X81709523Y-18404761D01*
X81804761Y-18452380D01*
X81995238Y-18452380D01*
X82090476Y-18404761D01*
X82138095Y-18357142D01*
X82185714Y-18261904D01*
X82185714Y-18023809D01*
X82138095Y-17928571D01*
X82090476Y-17880952D01*
X81995238Y-17833333D01*
X81804761Y-17833333D01*
X81709523Y-17880952D01*
X81661904Y-17928571D01*
X81614285Y-18023809D01*
%TO.C,R24*%
X44147142Y19697619D02*
X43813809Y20173809D01*
X43575714Y19697619D02*
X43575714Y20697619D01*
X43956666Y20697619D01*
X44051904Y20650000D01*
X44099523Y20602380D01*
X44147142Y20507142D01*
X44147142Y20364285D01*
X44099523Y20269047D01*
X44051904Y20221428D01*
X43956666Y20173809D01*
X43575714Y20173809D01*
X44528095Y20602380D02*
X44575714Y20650000D01*
X44670952Y20697619D01*
X44909047Y20697619D01*
X45004285Y20650000D01*
X45051904Y20602380D01*
X45099523Y20507142D01*
X45099523Y20411904D01*
X45051904Y20269047D01*
X44480476Y19697619D01*
X45099523Y19697619D01*
X45956666Y20364285D02*
X45956666Y19697619D01*
X45718571Y20745238D02*
X45480476Y20030952D01*
X46099523Y20030952D01*
%TO.C,U5*%
X31402380Y25338095D02*
X32211904Y25338095D01*
X32307142Y25385714D01*
X32354761Y25433333D01*
X32402380Y25528571D01*
X32402380Y25719047D01*
X32354761Y25814285D01*
X32307142Y25861904D01*
X32211904Y25909523D01*
X31402380Y25909523D01*
X31402380Y26861904D02*
X31402380Y26385714D01*
X31878571Y26338095D01*
X31830952Y26385714D01*
X31783333Y26480952D01*
X31783333Y26719047D01*
X31830952Y26814285D01*
X31878571Y26861904D01*
X31973809Y26909523D01*
X32211904Y26909523D01*
X32307142Y26861904D01*
X32354761Y26814285D01*
X32402380Y26719047D01*
X32402380Y26480952D01*
X32354761Y26385714D01*
X32307142Y26338095D01*
%TO.C,R18*%
X66622380Y-3792857D02*
X66146190Y-4126190D01*
X66622380Y-4364285D02*
X65622380Y-4364285D01*
X65622380Y-3983333D01*
X65670000Y-3888095D01*
X65717619Y-3840476D01*
X65812857Y-3792857D01*
X65955714Y-3792857D01*
X66050952Y-3840476D01*
X66098571Y-3888095D01*
X66146190Y-3983333D01*
X66146190Y-4364285D01*
X66622380Y-2840476D02*
X66622380Y-3411904D01*
X66622380Y-3126190D02*
X65622380Y-3126190D01*
X65765238Y-3221428D01*
X65860476Y-3316666D01*
X65908095Y-3411904D01*
X66050952Y-2269047D02*
X66003333Y-2364285D01*
X65955714Y-2411904D01*
X65860476Y-2459523D01*
X65812857Y-2459523D01*
X65717619Y-2411904D01*
X65670000Y-2364285D01*
X65622380Y-2269047D01*
X65622380Y-2078571D01*
X65670000Y-1983333D01*
X65717619Y-1935714D01*
X65812857Y-1888095D01*
X65860476Y-1888095D01*
X65955714Y-1935714D01*
X66003333Y-1983333D01*
X66050952Y-2078571D01*
X66050952Y-2269047D01*
X66098571Y-2364285D01*
X66146190Y-2411904D01*
X66241428Y-2459523D01*
X66431904Y-2459523D01*
X66527142Y-2411904D01*
X66574761Y-2364285D01*
X66622380Y-2269047D01*
X66622380Y-2078571D01*
X66574761Y-1983333D01*
X66527142Y-1935714D01*
X66431904Y-1888095D01*
X66241428Y-1888095D01*
X66146190Y-1935714D01*
X66098571Y-1983333D01*
X66050952Y-2078571D01*
%TO.C,SW4*%
X91166666Y18095238D02*
X91309523Y18047619D01*
X91547619Y18047619D01*
X91642857Y18095238D01*
X91690476Y18142857D01*
X91738095Y18238095D01*
X91738095Y18333333D01*
X91690476Y18428571D01*
X91642857Y18476190D01*
X91547619Y18523809D01*
X91357142Y18571428D01*
X91261904Y18619047D01*
X91214285Y18666666D01*
X91166666Y18761904D01*
X91166666Y18857142D01*
X91214285Y18952380D01*
X91261904Y19000000D01*
X91357142Y19047619D01*
X91595238Y19047619D01*
X91738095Y19000000D01*
X92071428Y19047619D02*
X92309523Y18047619D01*
X92500000Y18761904D01*
X92690476Y18047619D01*
X92928571Y19047619D01*
X93738095Y18714285D02*
X93738095Y18047619D01*
X93500000Y19095238D02*
X93261904Y18380952D01*
X93880952Y18380952D01*
%TO.C,R21*%
X96622380Y-3792857D02*
X96146190Y-4126190D01*
X96622380Y-4364285D02*
X95622380Y-4364285D01*
X95622380Y-3983333D01*
X95670000Y-3888095D01*
X95717619Y-3840476D01*
X95812857Y-3792857D01*
X95955714Y-3792857D01*
X96050952Y-3840476D01*
X96098571Y-3888095D01*
X96146190Y-3983333D01*
X96146190Y-4364285D01*
X95717619Y-3411904D02*
X95670000Y-3364285D01*
X95622380Y-3269047D01*
X95622380Y-3030952D01*
X95670000Y-2935714D01*
X95717619Y-2888095D01*
X95812857Y-2840476D01*
X95908095Y-2840476D01*
X96050952Y-2888095D01*
X96622380Y-3459523D01*
X96622380Y-2840476D01*
X96622380Y-1888095D02*
X96622380Y-2459523D01*
X96622380Y-2173809D02*
X95622380Y-2173809D01*
X95765238Y-2269047D01*
X95860476Y-2364285D01*
X95908095Y-2459523D01*
%TO.C,R7*%
X81233333Y-21002380D02*
X80900000Y-20526190D01*
X80661904Y-21002380D02*
X80661904Y-20002380D01*
X81042857Y-20002380D01*
X81138095Y-20050000D01*
X81185714Y-20097619D01*
X81233333Y-20192857D01*
X81233333Y-20335714D01*
X81185714Y-20430952D01*
X81138095Y-20478571D01*
X81042857Y-20526190D01*
X80661904Y-20526190D01*
X81566666Y-20002380D02*
X82233333Y-20002380D01*
X81804761Y-21002380D01*
%TO.C,R23*%
X46957142Y22117619D02*
X46623809Y22593809D01*
X46385714Y22117619D02*
X46385714Y23117619D01*
X46766666Y23117619D01*
X46861904Y23070000D01*
X46909523Y23022380D01*
X46957142Y22927142D01*
X46957142Y22784285D01*
X46909523Y22689047D01*
X46861904Y22641428D01*
X46766666Y22593809D01*
X46385714Y22593809D01*
X47338095Y23022380D02*
X47385714Y23070000D01*
X47480952Y23117619D01*
X47719047Y23117619D01*
X47814285Y23070000D01*
X47861904Y23022380D01*
X47909523Y22927142D01*
X47909523Y22831904D01*
X47861904Y22689047D01*
X47290476Y22117619D01*
X47909523Y22117619D01*
X48242857Y23117619D02*
X48861904Y23117619D01*
X48528571Y22736666D01*
X48671428Y22736666D01*
X48766666Y22689047D01*
X48814285Y22641428D01*
X48861904Y22546190D01*
X48861904Y22308095D01*
X48814285Y22212857D01*
X48766666Y22165238D01*
X48671428Y22117619D01*
X48385714Y22117619D01*
X48290476Y22165238D01*
X48242857Y22212857D01*
%TO.C,D2*%
X-738095Y-17252380D02*
X-738095Y-16252380D01*
X-500000Y-16252380D01*
X-357142Y-16300000D01*
X-261904Y-16395238D01*
X-214285Y-16490476D01*
X-166666Y-16680952D01*
X-166666Y-16823809D01*
X-214285Y-17014285D01*
X-261904Y-17109523D01*
X-357142Y-17204761D01*
X-500000Y-17252380D01*
X-738095Y-17252380D01*
X214285Y-16347619D02*
X261904Y-16300000D01*
X357142Y-16252380D01*
X595238Y-16252380D01*
X690476Y-16300000D01*
X738095Y-16347619D01*
X785714Y-16442857D01*
X785714Y-16538095D01*
X738095Y-16680952D01*
X166666Y-17252380D01*
X785714Y-17252380D01*
%TO.C,U3*%
X-5561904Y-29002380D02*
X-5561904Y-29811904D01*
X-5514285Y-29907142D01*
X-5466666Y-29954761D01*
X-5371428Y-30002380D01*
X-5180952Y-30002380D01*
X-5085714Y-29954761D01*
X-5038095Y-29907142D01*
X-4990476Y-29811904D01*
X-4990476Y-29002380D01*
X-4609523Y-29002380D02*
X-3990476Y-29002380D01*
X-4323809Y-29383333D01*
X-4180952Y-29383333D01*
X-4085714Y-29430952D01*
X-4038095Y-29478571D01*
X-3990476Y-29573809D01*
X-3990476Y-29811904D01*
X-4038095Y-29907142D01*
X-4085714Y-29954761D01*
X-4180952Y-30002380D01*
X-4466666Y-30002380D01*
X-4561904Y-29954761D01*
X-4609523Y-29907142D01*
%TO.C,C9*%
X19837142Y-34716666D02*
X19884761Y-34764285D01*
X19932380Y-34907142D01*
X19932380Y-35002380D01*
X19884761Y-35145238D01*
X19789523Y-35240476D01*
X19694285Y-35288095D01*
X19503809Y-35335714D01*
X19360952Y-35335714D01*
X19170476Y-35288095D01*
X19075238Y-35240476D01*
X18980000Y-35145238D01*
X18932380Y-35002380D01*
X18932380Y-34907142D01*
X18980000Y-34764285D01*
X19027619Y-34716666D01*
X19932380Y-34240476D02*
X19932380Y-34050000D01*
X19884761Y-33954761D01*
X19837142Y-33907142D01*
X19694285Y-33811904D01*
X19503809Y-33764285D01*
X19122857Y-33764285D01*
X19027619Y-33811904D01*
X18980000Y-33859523D01*
X18932380Y-33954761D01*
X18932380Y-34145238D01*
X18980000Y-34240476D01*
X19027619Y-34288095D01*
X19122857Y-34335714D01*
X19360952Y-34335714D01*
X19456190Y-34288095D01*
X19503809Y-34240476D01*
X19551428Y-34145238D01*
X19551428Y-33954761D01*
X19503809Y-33859523D01*
X19456190Y-33811904D01*
X19360952Y-33764285D01*
%TO.C,C6*%
X63233333Y-64507142D02*
X63185714Y-64554761D01*
X63042857Y-64602380D01*
X62947619Y-64602380D01*
X62804761Y-64554761D01*
X62709523Y-64459523D01*
X62661904Y-64364285D01*
X62614285Y-64173809D01*
X62614285Y-64030952D01*
X62661904Y-63840476D01*
X62709523Y-63745238D01*
X62804761Y-63650000D01*
X62947619Y-63602380D01*
X63042857Y-63602380D01*
X63185714Y-63650000D01*
X63233333Y-63697619D01*
X64090476Y-63602380D02*
X63900000Y-63602380D01*
X63804761Y-63650000D01*
X63757142Y-63697619D01*
X63661904Y-63840476D01*
X63614285Y-64030952D01*
X63614285Y-64411904D01*
X63661904Y-64507142D01*
X63709523Y-64554761D01*
X63804761Y-64602380D01*
X63995238Y-64602380D01*
X64090476Y-64554761D01*
X64138095Y-64507142D01*
X64185714Y-64411904D01*
X64185714Y-64173809D01*
X64138095Y-64078571D01*
X64090476Y-64030952D01*
X63995238Y-63983333D01*
X63804761Y-63983333D01*
X63709523Y-64030952D01*
X63661904Y-64078571D01*
X63614285Y-64173809D01*
%TO.C,C4*%
X60707142Y-66866666D02*
X60754761Y-66914285D01*
X60802380Y-67057142D01*
X60802380Y-67152380D01*
X60754761Y-67295238D01*
X60659523Y-67390476D01*
X60564285Y-67438095D01*
X60373809Y-67485714D01*
X60230952Y-67485714D01*
X60040476Y-67438095D01*
X59945238Y-67390476D01*
X59850000Y-67295238D01*
X59802380Y-67152380D01*
X59802380Y-67057142D01*
X59850000Y-66914285D01*
X59897619Y-66866666D01*
X60135714Y-66009523D02*
X60802380Y-66009523D01*
X59754761Y-66247619D02*
X60469047Y-66485714D01*
X60469047Y-65866666D01*
%TO.C,R22*%
X96622380Y16357142D02*
X96146190Y16023809D01*
X96622380Y15785714D02*
X95622380Y15785714D01*
X95622380Y16166666D01*
X95670000Y16261904D01*
X95717619Y16309523D01*
X95812857Y16357142D01*
X95955714Y16357142D01*
X96050952Y16309523D01*
X96098571Y16261904D01*
X96146190Y16166666D01*
X96146190Y15785714D01*
X95717619Y16738095D02*
X95670000Y16785714D01*
X95622380Y16880952D01*
X95622380Y17119047D01*
X95670000Y17214285D01*
X95717619Y17261904D01*
X95812857Y17309523D01*
X95908095Y17309523D01*
X96050952Y17261904D01*
X96622380Y16690476D01*
X96622380Y17309523D01*
X95717619Y17690476D02*
X95670000Y17738095D01*
X95622380Y17833333D01*
X95622380Y18071428D01*
X95670000Y18166666D01*
X95717619Y18214285D01*
X95812857Y18261904D01*
X95908095Y18261904D01*
X96050952Y18214285D01*
X96622380Y17642857D01*
X96622380Y18261904D01*
%TO.C,R14*%
X29282380Y-3792857D02*
X28806190Y-4126190D01*
X29282380Y-4364285D02*
X28282380Y-4364285D01*
X28282380Y-3983333D01*
X28330000Y-3888095D01*
X28377619Y-3840476D01*
X28472857Y-3792857D01*
X28615714Y-3792857D01*
X28710952Y-3840476D01*
X28758571Y-3888095D01*
X28806190Y-3983333D01*
X28806190Y-4364285D01*
X29282380Y-2840476D02*
X29282380Y-3411904D01*
X29282380Y-3126190D02*
X28282380Y-3126190D01*
X28425238Y-3221428D01*
X28520476Y-3316666D01*
X28568095Y-3411904D01*
X28615714Y-1983333D02*
X29282380Y-1983333D01*
X28234761Y-2221428D02*
X28949047Y-2459523D01*
X28949047Y-1840476D01*
%TO.C,J4*%
X21666666Y-37482380D02*
X21666666Y-38196666D01*
X21619047Y-38339523D01*
X21523809Y-38434761D01*
X21380952Y-38482380D01*
X21285714Y-38482380D01*
X22571428Y-37815714D02*
X22571428Y-38482380D01*
X22333333Y-37434761D02*
X22095238Y-38149047D01*
X22714285Y-38149047D01*
D11*
X28833333Y-25157142D02*
X30166666Y-28157142D01*
X31500000Y-25157142D01*
X32833333Y-28157142D02*
X32833333Y-26157142D01*
X32833333Y-25157142D02*
X32642857Y-25300000D01*
X32833333Y-25442857D01*
X33023809Y-25300000D01*
X32833333Y-25157142D01*
X32833333Y-25442857D01*
X36261904Y-28014285D02*
X35880952Y-28157142D01*
X35119047Y-28157142D01*
X34738095Y-28014285D01*
X34547619Y-27728571D01*
X34547619Y-26585714D01*
X34738095Y-26300000D01*
X35119047Y-26157142D01*
X35880952Y-26157142D01*
X36261904Y-26300000D01*
X36452380Y-26585714D01*
X36452380Y-26871428D01*
X34547619Y-27157142D01*
X37785714Y-26157142D02*
X38547619Y-28157142D01*
X39309523Y-26728571D01*
X40071428Y-28157142D01*
X40833333Y-26157142D01*
X42357142Y-28157142D02*
X42357142Y-26157142D01*
X42357142Y-25157142D02*
X42166666Y-25300000D01*
X42357142Y-25442857D01*
X42547619Y-25300000D01*
X42357142Y-25157142D01*
X42357142Y-25442857D01*
X44261904Y-26157142D02*
X44261904Y-28157142D01*
X44261904Y-26442857D02*
X44452380Y-26300000D01*
X44833333Y-26157142D01*
X45404761Y-26157142D01*
X45785714Y-26300000D01*
X45976190Y-26585714D01*
X45976190Y-28157142D01*
X49595238Y-26157142D02*
X49595238Y-28585714D01*
X49404761Y-28871428D01*
X49214285Y-29014285D01*
X48833333Y-29157142D01*
X48261904Y-29157142D01*
X47880952Y-29014285D01*
X49595238Y-28014285D02*
X49214285Y-28157142D01*
X48452380Y-28157142D01*
X48071428Y-28014285D01*
X47880952Y-27871428D01*
X47690476Y-27585714D01*
X47690476Y-26728571D01*
X47880952Y-26442857D01*
X48071428Y-26300000D01*
X48452380Y-26157142D01*
X49214285Y-26157142D01*
X49595238Y-26300000D01*
X54357142Y-27300000D02*
X56261904Y-27300000D01*
X53976190Y-28157142D02*
X55309523Y-25157142D01*
X56642857Y-28157142D01*
X57976190Y-28157142D02*
X57976190Y-26157142D01*
X57976190Y-26728571D02*
X58166666Y-26442857D01*
X58357142Y-26300000D01*
X58738095Y-26157142D01*
X59119047Y-26157142D01*
X61976190Y-28014285D02*
X61595238Y-28157142D01*
X60833333Y-28157142D01*
X60452380Y-28014285D01*
X60261904Y-27728571D01*
X60261904Y-26585714D01*
X60452380Y-26300000D01*
X60833333Y-26157142D01*
X61595238Y-26157142D01*
X61976190Y-26300000D01*
X62166666Y-26585714D01*
X62166666Y-26871428D01*
X60261904Y-27157142D01*
X65595238Y-28157142D02*
X65595238Y-26585714D01*
X65404761Y-26300000D01*
X65023809Y-26157142D01*
X64261904Y-26157142D01*
X63880952Y-26300000D01*
X65595238Y-28014285D02*
X65214285Y-28157142D01*
X64261904Y-28157142D01*
X63880952Y-28014285D01*
X63690476Y-27728571D01*
X63690476Y-27442857D01*
X63880952Y-27157142D01*
X64261904Y-27014285D01*
X65214285Y-27014285D01*
X65595238Y-26871428D01*
D10*
%TO.C,C8*%
X96427142Y-28066666D02*
X96474761Y-28114285D01*
X96522380Y-28257142D01*
X96522380Y-28352380D01*
X96474761Y-28495238D01*
X96379523Y-28590476D01*
X96284285Y-28638095D01*
X96093809Y-28685714D01*
X95950952Y-28685714D01*
X95760476Y-28638095D01*
X95665238Y-28590476D01*
X95570000Y-28495238D01*
X95522380Y-28352380D01*
X95522380Y-28257142D01*
X95570000Y-28114285D01*
X95617619Y-28066666D01*
X95950952Y-27495238D02*
X95903333Y-27590476D01*
X95855714Y-27638095D01*
X95760476Y-27685714D01*
X95712857Y-27685714D01*
X95617619Y-27638095D01*
X95570000Y-27590476D01*
X95522380Y-27495238D01*
X95522380Y-27304761D01*
X95570000Y-27209523D01*
X95617619Y-27161904D01*
X95712857Y-27114285D01*
X95760476Y-27114285D01*
X95855714Y-27161904D01*
X95903333Y-27209523D01*
X95950952Y-27304761D01*
X95950952Y-27495238D01*
X95998571Y-27590476D01*
X96046190Y-27638095D01*
X96141428Y-27685714D01*
X96331904Y-27685714D01*
X96427142Y-27638095D01*
X96474761Y-27590476D01*
X96522380Y-27495238D01*
X96522380Y-27304761D01*
X96474761Y-27209523D01*
X96427142Y-27161904D01*
X96331904Y-27114285D01*
X96141428Y-27114285D01*
X96046190Y-27161904D01*
X95998571Y-27209523D01*
X95950952Y-27304761D01*
%TO.C,D4*%
X-738095Y-27452380D02*
X-738095Y-26452380D01*
X-500000Y-26452380D01*
X-357142Y-26500000D01*
X-261904Y-26595238D01*
X-214285Y-26690476D01*
X-166666Y-26880952D01*
X-166666Y-27023809D01*
X-214285Y-27214285D01*
X-261904Y-27309523D01*
X-357142Y-27404761D01*
X-500000Y-27452380D01*
X-738095Y-27452380D01*
X690476Y-26785714D02*
X690476Y-27452380D01*
X452380Y-26404761D02*
X214285Y-27119047D01*
X833333Y-27119047D01*
%TO.C,R13*%
X13202380Y-21492857D02*
X12726190Y-21826190D01*
X13202380Y-22064285D02*
X12202380Y-22064285D01*
X12202380Y-21683333D01*
X12250000Y-21588095D01*
X12297619Y-21540476D01*
X12392857Y-21492857D01*
X12535714Y-21492857D01*
X12630952Y-21540476D01*
X12678571Y-21588095D01*
X12726190Y-21683333D01*
X12726190Y-22064285D01*
X13202380Y-20540476D02*
X13202380Y-21111904D01*
X13202380Y-20826190D02*
X12202380Y-20826190D01*
X12345238Y-20921428D01*
X12440476Y-21016666D01*
X12488095Y-21111904D01*
X12202380Y-20207142D02*
X12202380Y-19588095D01*
X12583333Y-19921428D01*
X12583333Y-19778571D01*
X12630952Y-19683333D01*
X12678571Y-19635714D01*
X12773809Y-19588095D01*
X13011904Y-19588095D01*
X13107142Y-19635714D01*
X13154761Y-19683333D01*
X13202380Y-19778571D01*
X13202380Y-20064285D01*
X13154761Y-20159523D01*
X13107142Y-20207142D01*
%TO.C,R19*%
X66622380Y16357142D02*
X66146190Y16023809D01*
X66622380Y15785714D02*
X65622380Y15785714D01*
X65622380Y16166666D01*
X65670000Y16261904D01*
X65717619Y16309523D01*
X65812857Y16357142D01*
X65955714Y16357142D01*
X66050952Y16309523D01*
X66098571Y16261904D01*
X66146190Y16166666D01*
X66146190Y15785714D01*
X66622380Y17309523D02*
X66622380Y16738095D01*
X66622380Y17023809D02*
X65622380Y17023809D01*
X65765238Y16928571D01*
X65860476Y16833333D01*
X65908095Y16738095D01*
X66622380Y17785714D02*
X66622380Y17976190D01*
X66574761Y18071428D01*
X66527142Y18119047D01*
X66384285Y18214285D01*
X66193809Y18261904D01*
X65812857Y18261904D01*
X65717619Y18214285D01*
X65670000Y18166666D01*
X65622380Y18071428D01*
X65622380Y17880952D01*
X65670000Y17785714D01*
X65717619Y17738095D01*
X65812857Y17690476D01*
X66050952Y17690476D01*
X66146190Y17738095D01*
X66193809Y17785714D01*
X66241428Y17880952D01*
X66241428Y18071428D01*
X66193809Y18166666D01*
X66146190Y18214285D01*
X66050952Y18261904D01*
%TO.C,C7*%
X99457142Y-30016666D02*
X99504761Y-30064285D01*
X99552380Y-30207142D01*
X99552380Y-30302380D01*
X99504761Y-30445238D01*
X99409523Y-30540476D01*
X99314285Y-30588095D01*
X99123809Y-30635714D01*
X98980952Y-30635714D01*
X98790476Y-30588095D01*
X98695238Y-30540476D01*
X98600000Y-30445238D01*
X98552380Y-30302380D01*
X98552380Y-30207142D01*
X98600000Y-30064285D01*
X98647619Y-30016666D01*
X98552380Y-29683333D02*
X98552380Y-29016666D01*
X99552380Y-29445238D01*
%TO.C,R28*%
X44572380Y14807142D02*
X44096190Y14473809D01*
X44572380Y14235714D02*
X43572380Y14235714D01*
X43572380Y14616666D01*
X43620000Y14711904D01*
X43667619Y14759523D01*
X43762857Y14807142D01*
X43905714Y14807142D01*
X44000952Y14759523D01*
X44048571Y14711904D01*
X44096190Y14616666D01*
X44096190Y14235714D01*
X43667619Y15188095D02*
X43620000Y15235714D01*
X43572380Y15330952D01*
X43572380Y15569047D01*
X43620000Y15664285D01*
X43667619Y15711904D01*
X43762857Y15759523D01*
X43858095Y15759523D01*
X44000952Y15711904D01*
X44572380Y15140476D01*
X44572380Y15759523D01*
X44000952Y16330952D02*
X43953333Y16235714D01*
X43905714Y16188095D01*
X43810476Y16140476D01*
X43762857Y16140476D01*
X43667619Y16188095D01*
X43620000Y16235714D01*
X43572380Y16330952D01*
X43572380Y16521428D01*
X43620000Y16616666D01*
X43667619Y16664285D01*
X43762857Y16711904D01*
X43810476Y16711904D01*
X43905714Y16664285D01*
X43953333Y16616666D01*
X44000952Y16521428D01*
X44000952Y16330952D01*
X44048571Y16235714D01*
X44096190Y16188095D01*
X44191428Y16140476D01*
X44381904Y16140476D01*
X44477142Y16188095D01*
X44524761Y16235714D01*
X44572380Y16330952D01*
X44572380Y16521428D01*
X44524761Y16616666D01*
X44477142Y16664285D01*
X44381904Y16711904D01*
X44191428Y16711904D01*
X44096190Y16664285D01*
X44048571Y16616666D01*
X44000952Y16521428D01*
%TO.C,D3*%
X-738095Y-22402380D02*
X-738095Y-21402380D01*
X-500000Y-21402380D01*
X-357142Y-21450000D01*
X-261904Y-21545238D01*
X-214285Y-21640476D01*
X-166666Y-21830952D01*
X-166666Y-21973809D01*
X-214285Y-22164285D01*
X-261904Y-22259523D01*
X-357142Y-22354761D01*
X-500000Y-22402380D01*
X-738095Y-22402380D01*
X166666Y-21402380D02*
X785714Y-21402380D01*
X452380Y-21783333D01*
X595238Y-21783333D01*
X690476Y-21830952D01*
X738095Y-21878571D01*
X785714Y-21973809D01*
X785714Y-22211904D01*
X738095Y-22307142D01*
X690476Y-22354761D01*
X595238Y-22402380D01*
X309523Y-22402380D01*
X214285Y-22354761D01*
X166666Y-22307142D01*
%TO.C,R20*%
X89282380Y-3792857D02*
X88806190Y-4126190D01*
X89282380Y-4364285D02*
X88282380Y-4364285D01*
X88282380Y-3983333D01*
X88330000Y-3888095D01*
X88377619Y-3840476D01*
X88472857Y-3792857D01*
X88615714Y-3792857D01*
X88710952Y-3840476D01*
X88758571Y-3888095D01*
X88806190Y-3983333D01*
X88806190Y-4364285D01*
X88377619Y-3411904D02*
X88330000Y-3364285D01*
X88282380Y-3269047D01*
X88282380Y-3030952D01*
X88330000Y-2935714D01*
X88377619Y-2888095D01*
X88472857Y-2840476D01*
X88568095Y-2840476D01*
X88710952Y-2888095D01*
X89282380Y-3459523D01*
X89282380Y-2840476D01*
X88282380Y-2221428D02*
X88282380Y-2126190D01*
X88330000Y-2030952D01*
X88377619Y-1983333D01*
X88472857Y-1935714D01*
X88663333Y-1888095D01*
X88901428Y-1888095D01*
X89091904Y-1935714D01*
X89187142Y-1983333D01*
X89234761Y-2030952D01*
X89282380Y-2126190D01*
X89282380Y-2221428D01*
X89234761Y-2316666D01*
X89187142Y-2364285D01*
X89091904Y-2411904D01*
X88901428Y-2459523D01*
X88663333Y-2459523D01*
X88472857Y-2411904D01*
X88377619Y-2364285D01*
X88330000Y-2316666D01*
X88282380Y-2221428D01*
%TO.C,R17*%
X59282380Y-3792857D02*
X58806190Y-4126190D01*
X59282380Y-4364285D02*
X58282380Y-4364285D01*
X58282380Y-3983333D01*
X58330000Y-3888095D01*
X58377619Y-3840476D01*
X58472857Y-3792857D01*
X58615714Y-3792857D01*
X58710952Y-3840476D01*
X58758571Y-3888095D01*
X58806190Y-3983333D01*
X58806190Y-4364285D01*
X59282380Y-2840476D02*
X59282380Y-3411904D01*
X59282380Y-3126190D02*
X58282380Y-3126190D01*
X58425238Y-3221428D01*
X58520476Y-3316666D01*
X58568095Y-3411904D01*
X58282380Y-2507142D02*
X58282380Y-1840476D01*
X59282380Y-2269047D01*
%TO.C,Q1*%
X16454761Y-17047619D02*
X16359523Y-17000000D01*
X16264285Y-16904761D01*
X16121428Y-16761904D01*
X16026190Y-16714285D01*
X15930952Y-16714285D01*
X15978571Y-16952380D02*
X15883333Y-16904761D01*
X15788095Y-16809523D01*
X15740476Y-16619047D01*
X15740476Y-16285714D01*
X15788095Y-16095238D01*
X15883333Y-16000000D01*
X15978571Y-15952380D01*
X16169047Y-15952380D01*
X16264285Y-16000000D01*
X16359523Y-16095238D01*
X16407142Y-16285714D01*
X16407142Y-16619047D01*
X16359523Y-16809523D01*
X16264285Y-16904761D01*
X16169047Y-16952380D01*
X15978571Y-16952380D01*
X17359523Y-16952380D02*
X16788095Y-16952380D01*
X17073809Y-16952380D02*
X17073809Y-15952380D01*
X16978571Y-16095238D01*
X16883333Y-16190476D01*
X16788095Y-16238095D01*
%TO.C,C5*%
X50083333Y29132857D02*
X50035714Y29085238D01*
X49892857Y29037619D01*
X49797619Y29037619D01*
X49654761Y29085238D01*
X49559523Y29180476D01*
X49511904Y29275714D01*
X49464285Y29466190D01*
X49464285Y29609047D01*
X49511904Y29799523D01*
X49559523Y29894761D01*
X49654761Y29990000D01*
X49797619Y30037619D01*
X49892857Y30037619D01*
X50035714Y29990000D01*
X50083333Y29942380D01*
X50988095Y30037619D02*
X50511904Y30037619D01*
X50464285Y29561428D01*
X50511904Y29609047D01*
X50607142Y29656666D01*
X50845238Y29656666D01*
X50940476Y29609047D01*
X50988095Y29561428D01*
X51035714Y29466190D01*
X51035714Y29228095D01*
X50988095Y29132857D01*
X50940476Y29085238D01*
X50845238Y29037619D01*
X50607142Y29037619D01*
X50511904Y29085238D01*
X50464285Y29132857D01*
%TO.C,J7*%
X97166666Y-16032380D02*
X97166666Y-16746666D01*
X97119047Y-16889523D01*
X97023809Y-16984761D01*
X96880952Y-17032380D01*
X96785714Y-17032380D01*
X97547619Y-16032380D02*
X98214285Y-16032380D01*
X97785714Y-17032380D01*
%TO.C,R9*%
X81233333Y-26052380D02*
X80900000Y-25576190D01*
X80661904Y-26052380D02*
X80661904Y-25052380D01*
X81042857Y-25052380D01*
X81138095Y-25100000D01*
X81185714Y-25147619D01*
X81233333Y-25242857D01*
X81233333Y-25385714D01*
X81185714Y-25480952D01*
X81138095Y-25528571D01*
X81042857Y-25576190D01*
X80661904Y-25576190D01*
X81709523Y-26052380D02*
X81900000Y-26052380D01*
X81995238Y-26004761D01*
X82042857Y-25957142D01*
X82138095Y-25814285D01*
X82185714Y-25623809D01*
X82185714Y-25242857D01*
X82138095Y-25147619D01*
X82090476Y-25100000D01*
X81995238Y-25052380D01*
X81804761Y-25052380D01*
X81709523Y-25100000D01*
X81661904Y-25147619D01*
X81614285Y-25242857D01*
X81614285Y-25480952D01*
X81661904Y-25576190D01*
X81709523Y-25623809D01*
X81804761Y-25671428D01*
X81995238Y-25671428D01*
X82090476Y-25623809D01*
X82138095Y-25576190D01*
X82185714Y-25480952D01*
%TO.C,R16*%
X36622380Y16357142D02*
X36146190Y16023809D01*
X36622380Y15785714D02*
X35622380Y15785714D01*
X35622380Y16166666D01*
X35670000Y16261904D01*
X35717619Y16309523D01*
X35812857Y16357142D01*
X35955714Y16357142D01*
X36050952Y16309523D01*
X36098571Y16261904D01*
X36146190Y16166666D01*
X36146190Y15785714D01*
X36622380Y17309523D02*
X36622380Y16738095D01*
X36622380Y17023809D02*
X35622380Y17023809D01*
X35765238Y16928571D01*
X35860476Y16833333D01*
X35908095Y16738095D01*
X35622380Y18166666D02*
X35622380Y17976190D01*
X35670000Y17880952D01*
X35717619Y17833333D01*
X35860476Y17738095D01*
X36050952Y17690476D01*
X36431904Y17690476D01*
X36527142Y17738095D01*
X36574761Y17785714D01*
X36622380Y17880952D01*
X36622380Y18071428D01*
X36574761Y18166666D01*
X36527142Y18214285D01*
X36431904Y18261904D01*
X36193809Y18261904D01*
X36098571Y18214285D01*
X36050952Y18166666D01*
X36003333Y18071428D01*
X36003333Y17880952D01*
X36050952Y17785714D01*
X36098571Y17738095D01*
X36193809Y17690476D01*
%TO.C,R27*%
X34277380Y-63617857D02*
X33801190Y-63951190D01*
X34277380Y-64189285D02*
X33277380Y-64189285D01*
X33277380Y-63808333D01*
X33325000Y-63713095D01*
X33372619Y-63665476D01*
X33467857Y-63617857D01*
X33610714Y-63617857D01*
X33705952Y-63665476D01*
X33753571Y-63713095D01*
X33801190Y-63808333D01*
X33801190Y-64189285D01*
X33372619Y-63236904D02*
X33325000Y-63189285D01*
X33277380Y-63094047D01*
X33277380Y-62855952D01*
X33325000Y-62760714D01*
X33372619Y-62713095D01*
X33467857Y-62665476D01*
X33563095Y-62665476D01*
X33705952Y-62713095D01*
X34277380Y-63284523D01*
X34277380Y-62665476D01*
X33277380Y-62332142D02*
X33277380Y-61665476D01*
X34277380Y-62094047D01*
%TO.C,R10*%
X-717619Y-3792857D02*
X-1193809Y-4126190D01*
X-717619Y-4364285D02*
X-1717619Y-4364285D01*
X-1717619Y-3983333D01*
X-1670000Y-3888095D01*
X-1622380Y-3840476D01*
X-1527142Y-3792857D01*
X-1384285Y-3792857D01*
X-1289047Y-3840476D01*
X-1241428Y-3888095D01*
X-1193809Y-3983333D01*
X-1193809Y-4364285D01*
X-717619Y-2840476D02*
X-717619Y-3411904D01*
X-717619Y-3126190D02*
X-1717619Y-3126190D01*
X-1574761Y-3221428D01*
X-1479523Y-3316666D01*
X-1431904Y-3411904D01*
X-1717619Y-2221428D02*
X-1717619Y-2126190D01*
X-1670000Y-2030952D01*
X-1622380Y-1983333D01*
X-1527142Y-1935714D01*
X-1336666Y-1888095D01*
X-1098571Y-1888095D01*
X-908095Y-1935714D01*
X-812857Y-1983333D01*
X-765238Y-2030952D01*
X-717619Y-2126190D01*
X-717619Y-2221428D01*
X-765238Y-2316666D01*
X-812857Y-2364285D01*
X-908095Y-2411904D01*
X-1098571Y-2459523D01*
X-1336666Y-2459523D01*
X-1527142Y-2411904D01*
X-1622380Y-2364285D01*
X-1670000Y-2316666D01*
X-1717619Y-2221428D01*
%TO.C,R26*%
X40157142Y32247619D02*
X39823809Y32723809D01*
X39585714Y32247619D02*
X39585714Y33247619D01*
X39966666Y33247619D01*
X40061904Y33200000D01*
X40109523Y33152380D01*
X40157142Y33057142D01*
X40157142Y32914285D01*
X40109523Y32819047D01*
X40061904Y32771428D01*
X39966666Y32723809D01*
X39585714Y32723809D01*
X40538095Y33152380D02*
X40585714Y33200000D01*
X40680952Y33247619D01*
X40919047Y33247619D01*
X41014285Y33200000D01*
X41061904Y33152380D01*
X41109523Y33057142D01*
X41109523Y32961904D01*
X41061904Y32819047D01*
X40490476Y32247619D01*
X41109523Y32247619D01*
X41966666Y33247619D02*
X41776190Y33247619D01*
X41680952Y33200000D01*
X41633333Y33152380D01*
X41538095Y33009523D01*
X41490476Y32819047D01*
X41490476Y32438095D01*
X41538095Y32342857D01*
X41585714Y32295238D01*
X41680952Y32247619D01*
X41871428Y32247619D01*
X41966666Y32295238D01*
X42014285Y32342857D01*
X42061904Y32438095D01*
X42061904Y32676190D01*
X42014285Y32771428D01*
X41966666Y32819047D01*
X41871428Y32866666D01*
X41680952Y32866666D01*
X41585714Y32819047D01*
X41538095Y32771428D01*
X41490476Y32676190D01*
%TO.C,U1*%
X57562380Y-50716904D02*
X58371904Y-50716904D01*
X58467142Y-50669285D01*
X58514761Y-50621666D01*
X58562380Y-50526428D01*
X58562380Y-50335952D01*
X58514761Y-50240714D01*
X58467142Y-50193095D01*
X58371904Y-50145476D01*
X57562380Y-50145476D01*
X58562380Y-49145476D02*
X58562380Y-49716904D01*
X58562380Y-49431190D02*
X57562380Y-49431190D01*
X57705238Y-49526428D01*
X57800476Y-49621666D01*
X57848095Y-49716904D01*
%TO.C,R25*%
X54107142Y31047619D02*
X53773809Y31523809D01*
X53535714Y31047619D02*
X53535714Y32047619D01*
X53916666Y32047619D01*
X54011904Y32000000D01*
X54059523Y31952380D01*
X54107142Y31857142D01*
X54107142Y31714285D01*
X54059523Y31619047D01*
X54011904Y31571428D01*
X53916666Y31523809D01*
X53535714Y31523809D01*
X54488095Y31952380D02*
X54535714Y32000000D01*
X54630952Y32047619D01*
X54869047Y32047619D01*
X54964285Y32000000D01*
X55011904Y31952380D01*
X55059523Y31857142D01*
X55059523Y31761904D01*
X55011904Y31619047D01*
X54440476Y31047619D01*
X55059523Y31047619D01*
X55964285Y32047619D02*
X55488095Y32047619D01*
X55440476Y31571428D01*
X55488095Y31619047D01*
X55583333Y31666666D01*
X55821428Y31666666D01*
X55916666Y31619047D01*
X55964285Y31571428D01*
X56011904Y31476190D01*
X56011904Y31238095D01*
X55964285Y31142857D01*
X55916666Y31095238D01*
X55821428Y31047619D01*
X55583333Y31047619D01*
X55488095Y31095238D01*
X55440476Y31142857D01*
%TO.C,R11*%
X6622380Y-3792857D02*
X6146190Y-4126190D01*
X6622380Y-4364285D02*
X5622380Y-4364285D01*
X5622380Y-3983333D01*
X5670000Y-3888095D01*
X5717619Y-3840476D01*
X5812857Y-3792857D01*
X5955714Y-3792857D01*
X6050952Y-3840476D01*
X6098571Y-3888095D01*
X6146190Y-3983333D01*
X6146190Y-4364285D01*
X6622380Y-2840476D02*
X6622380Y-3411904D01*
X6622380Y-3126190D02*
X5622380Y-3126190D01*
X5765238Y-3221428D01*
X5860476Y-3316666D01*
X5908095Y-3411904D01*
X6622380Y-1888095D02*
X6622380Y-2459523D01*
X6622380Y-2173809D02*
X5622380Y-2173809D01*
X5765238Y-2269047D01*
X5860476Y-2364285D01*
X5908095Y-2459523D01*
%TO.C,C2*%
X35083333Y16892857D02*
X35035714Y16845238D01*
X34892857Y16797619D01*
X34797619Y16797619D01*
X34654761Y16845238D01*
X34559523Y16940476D01*
X34511904Y17035714D01*
X34464285Y17226190D01*
X34464285Y17369047D01*
X34511904Y17559523D01*
X34559523Y17654761D01*
X34654761Y17750000D01*
X34797619Y17797619D01*
X34892857Y17797619D01*
X35035714Y17750000D01*
X35083333Y17702380D01*
X35464285Y17702380D02*
X35511904Y17750000D01*
X35607142Y17797619D01*
X35845238Y17797619D01*
X35940476Y17750000D01*
X35988095Y17702380D01*
X36035714Y17607142D01*
X36035714Y17511904D01*
X35988095Y17369047D01*
X35416666Y16797619D01*
X36035714Y16797619D01*
%TO.C,R12*%
X6622380Y16357142D02*
X6146190Y16023809D01*
X6622380Y15785714D02*
X5622380Y15785714D01*
X5622380Y16166666D01*
X5670000Y16261904D01*
X5717619Y16309523D01*
X5812857Y16357142D01*
X5955714Y16357142D01*
X6050952Y16309523D01*
X6098571Y16261904D01*
X6146190Y16166666D01*
X6146190Y15785714D01*
X6622380Y17309523D02*
X6622380Y16738095D01*
X6622380Y17023809D02*
X5622380Y17023809D01*
X5765238Y16928571D01*
X5860476Y16833333D01*
X5908095Y16738095D01*
X5717619Y17690476D02*
X5670000Y17738095D01*
X5622380Y17833333D01*
X5622380Y18071428D01*
X5670000Y18166666D01*
X5717619Y18214285D01*
X5812857Y18261904D01*
X5908095Y18261904D01*
X6050952Y18214285D01*
X6622380Y17642857D01*
X6622380Y18261904D01*
%TO.C,C10*%
X15847142Y-35192858D02*
X15894761Y-35240477D01*
X15942380Y-35383334D01*
X15942380Y-35478572D01*
X15894761Y-35621429D01*
X15799523Y-35716667D01*
X15704285Y-35764286D01*
X15513809Y-35811905D01*
X15370952Y-35811905D01*
X15180476Y-35764286D01*
X15085238Y-35716667D01*
X14990000Y-35621429D01*
X14942380Y-35478572D01*
X14942380Y-35383334D01*
X14990000Y-35240477D01*
X15037619Y-35192858D01*
X15942380Y-34240477D02*
X15942380Y-34811905D01*
X15942380Y-34526191D02*
X14942380Y-34526191D01*
X15085238Y-34621429D01*
X15180476Y-34716667D01*
X15228095Y-34811905D01*
X14942380Y-33621429D02*
X14942380Y-33526191D01*
X14990000Y-33430953D01*
X15037619Y-33383334D01*
X15132857Y-33335715D01*
X15323333Y-33288096D01*
X15561428Y-33288096D01*
X15751904Y-33335715D01*
X15847142Y-33383334D01*
X15894761Y-33430953D01*
X15942380Y-33526191D01*
X15942380Y-33621429D01*
X15894761Y-33716667D01*
X15847142Y-33764286D01*
X15751904Y-33811905D01*
X15561428Y-33859524D01*
X15323333Y-33859524D01*
X15132857Y-33811905D01*
X15037619Y-33764286D01*
X14990000Y-33716667D01*
X14942380Y-33621429D01*
%TO.C,C1*%
X37163333Y19392857D02*
X37115714Y19345238D01*
X36972857Y19297619D01*
X36877619Y19297619D01*
X36734761Y19345238D01*
X36639523Y19440476D01*
X36591904Y19535714D01*
X36544285Y19726190D01*
X36544285Y19869047D01*
X36591904Y20059523D01*
X36639523Y20154761D01*
X36734761Y20250000D01*
X36877619Y20297619D01*
X36972857Y20297619D01*
X37115714Y20250000D01*
X37163333Y20202380D01*
X38115714Y19297619D02*
X37544285Y19297619D01*
X37830000Y19297619D02*
X37830000Y20297619D01*
X37734761Y20154761D01*
X37639523Y20059523D01*
X37544285Y20011904D01*
D12*
%TO.C,U4*%
X53810000Y26000000D02*
X53810000Y29450000D01*
X53810000Y26000000D02*
X53810000Y24050000D01*
X43690000Y26000000D02*
X43690000Y24050000D01*
X43690000Y26000000D02*
X43690000Y27950000D01*
%TO.C,R5*%
X36930000Y-49446359D02*
X36930000Y-49753641D01*
X36170000Y-49446359D02*
X36170000Y-49753641D01*
%TO.C,D5*%
X0Y-33040000D02*
X650000Y-33040000D01*
X0Y-36160000D02*
X650000Y-36160000D01*
X0Y-36160000D02*
X-650000Y-36160000D01*
X0Y-33040000D02*
X-1675000Y-33040000D01*
D10*
%TO.C,SW3*%
X57610000Y2500000D02*
X59500000Y4390000D01*
X65500000Y10000000D02*
X65500000Y12500000D01*
X67620000Y2500000D02*
X68800000Y3680000D01*
X56200000Y3210000D02*
X57990000Y5000000D01*
X65500000Y2500000D02*
X68000000Y5000000D01*
X57610000Y10000000D02*
X59500000Y11890000D01*
X56200000Y5000000D02*
X59500000Y5000000D01*
X56910000Y2500000D02*
X59410000Y5000000D01*
D13*
X57660000Y13500000D02*
X59360000Y13500000D01*
D10*
X59500000Y12500000D02*
X59500000Y10000000D01*
X56910000Y10000000D02*
X59410000Y12500000D01*
X65500000Y10710000D02*
X67290000Y12500000D01*
X66910000Y10000000D02*
X68800000Y11890000D01*
X56200000Y3910000D02*
X57290000Y5000000D01*
X56200000Y10000000D02*
X56200000Y12500000D01*
X58320000Y2500000D02*
X59500000Y3680000D01*
X65500000Y4620000D02*
X65880000Y5000000D01*
X68330000Y2500000D02*
X68800000Y2970000D01*
X59500000Y10000000D02*
X56200000Y10000000D01*
X65500000Y2500000D02*
X65500000Y5000000D01*
X56200000Y2500000D02*
X56200000Y5000000D01*
D13*
X59900000Y9000000D02*
X65100000Y9000000D01*
D10*
X67620000Y10000000D02*
X68800000Y11180000D01*
X59500000Y5000000D02*
X59500000Y2500000D01*
X56200000Y10000000D02*
X58700000Y12500000D01*
X56200000Y12500000D02*
X59500000Y12500000D01*
D13*
X65640000Y13500000D02*
X67340000Y13500000D01*
D10*
X56200000Y12120000D02*
X56580000Y12500000D01*
X56200000Y10710000D02*
X57990000Y12500000D01*
D13*
X60600000Y13500000D02*
X64400000Y13500000D01*
D10*
X65500000Y3910000D02*
X66590000Y5000000D01*
X59030000Y2500000D02*
X59500000Y2970000D01*
X65500000Y12500000D02*
X68800000Y12500000D01*
X68330000Y10000000D02*
X68800000Y10470000D01*
X66210000Y2500000D02*
X68710000Y5000000D01*
X65500000Y12120000D02*
X65880000Y12500000D01*
X65500000Y10000000D02*
X68000000Y12500000D01*
X68800000Y2500000D02*
X65500000Y2500000D01*
X56200000Y4620000D02*
X56580000Y5000000D01*
X66210000Y10000000D02*
X68710000Y12500000D01*
X65500000Y11410000D02*
X66590000Y12500000D01*
X68800000Y12500000D02*
X68800000Y10000000D01*
X65500000Y3210000D02*
X67290000Y5000000D01*
X59500000Y2500000D02*
X56200000Y2500000D01*
X68800000Y10000000D02*
X65500000Y10000000D01*
X56200000Y11410000D02*
X57290000Y12500000D01*
X59030000Y10000000D02*
X59500000Y10470000D01*
X56200000Y2500000D02*
X58700000Y5000000D01*
X66910000Y2500000D02*
X68800000Y4390000D01*
X65500000Y5000000D02*
X68800000Y5000000D01*
D13*
X57660000Y1500000D02*
X67340000Y1500000D01*
D10*
X58320000Y10000000D02*
X59500000Y11180000D01*
X68800000Y5000000D02*
X68800000Y2500000D01*
D13*
X59495819Y4854740D02*
G75*
G03*
X65500000Y4850000I3004181J2645260D01*
G01*
X57660128Y13500049D02*
G75*
G03*
X56650000Y12500000I-129J-1010048D01*
G01*
X59495950Y3312901D02*
G75*
G03*
X65500000Y3310000I3004049J4187098D01*
G01*
X67339872Y1499950D02*
G75*
G03*
X68350000Y2500000I128J1010050D01*
G01*
X68349952Y12499871D02*
G75*
G03*
X67340000Y13500000I-1009952J-9871D01*
G01*
X59504113Y4146321D02*
G75*
G03*
X65500000Y4150000I2995887J3353678D01*
G01*
X56650047Y2500129D02*
G75*
G03*
X57660000Y1500000I1009954J9873D01*
G01*
X61182503Y9002199D02*
G75*
G03*
X63820000Y9000000I1317497J-1502199D01*
G01*
X66239935Y4999983D02*
G75*
G03*
X66640000Y5740000I-3739964J2500033D01*
G01*
X59377857Y9997323D02*
G75*
G03*
X59380000Y5000000I3122143J-2497323D01*
G01*
X65622143Y5002677D02*
G75*
G03*
X65620000Y10000000I-3122143J2497323D01*
G01*
X66640061Y9259971D02*
G75*
G03*
X66240000Y10000000I-4140061J-1759971D01*
G01*
X65504050Y11687097D02*
G75*
G03*
X59500000Y11690000I-3004050J-4187097D01*
G01*
X58760065Y10000017D02*
G75*
G03*
X58360000Y9260000I3739935J-2500017D01*
G01*
X58359940Y5740029D02*
G75*
G03*
X58760000Y5000000I4140040J1759957D01*
G01*
X65495887Y10853679D02*
G75*
G03*
X59500000Y10850000I-2995887J-3353679D01*
G01*
X65504181Y10145260D02*
G75*
G03*
X59500000Y10150000I-3004181J-2645260D01*
G01*
X65500000Y7500000D02*
G75*
G03*
X65500000Y7500000I-3000000J0D01*
G01*
D12*
%TO.C,R4*%
X59620000Y-61996359D02*
X59620000Y-62303641D01*
X60380000Y-61996359D02*
X60380000Y-62303641D01*
%TO.C,Q3*%
X43700000Y18400000D02*
X42650000Y18400000D01*
X42650000Y18400000D02*
X42650000Y20250000D01*
X45710000Y18420000D02*
X45710000Y20850000D01*
X45700000Y18400000D02*
X44700000Y18400000D01*
D10*
%TO.C,SW1*%
X5500000Y12120000D02*
X5880000Y12500000D01*
X-970000Y2500000D02*
X-500000Y2970000D01*
X-3800000Y2500000D02*
X-3800000Y5000000D01*
X-3800000Y10710000D02*
X-2010000Y12500000D01*
X-2390000Y2500000D02*
X-500000Y4390000D01*
X-3800000Y11410000D02*
X-2710000Y12500000D01*
X5500000Y2500000D02*
X5500000Y5000000D01*
X-3800000Y3210000D02*
X-2010000Y5000000D01*
X5500000Y2500000D02*
X8000000Y5000000D01*
X5500000Y12500000D02*
X8800000Y12500000D01*
X5500000Y4620000D02*
X5880000Y5000000D01*
X8330000Y2500000D02*
X8800000Y2970000D01*
X8800000Y2500000D02*
X5500000Y2500000D01*
X-3800000Y12120000D02*
X-3420000Y12500000D01*
X6910000Y10000000D02*
X8800000Y11890000D01*
X8800000Y10000000D02*
X5500000Y10000000D01*
X7620000Y10000000D02*
X8800000Y11180000D01*
X-2390000Y10000000D02*
X-500000Y11890000D01*
X7620000Y2500000D02*
X8800000Y3680000D01*
X-1680000Y10000000D02*
X-500000Y11180000D01*
X-3800000Y10000000D02*
X-1300000Y12500000D01*
X-3800000Y3910000D02*
X-2710000Y5000000D01*
X5500000Y10000000D02*
X8000000Y12500000D01*
X-970000Y10000000D02*
X-500000Y10470000D01*
X-500000Y12500000D02*
X-500000Y10000000D01*
X-3090000Y10000000D02*
X-590000Y12500000D01*
D13*
X600000Y13500000D02*
X4400000Y13500000D01*
D10*
X-500000Y10000000D02*
X-3800000Y10000000D01*
X-500000Y5000000D02*
X-500000Y2500000D01*
X6210000Y2500000D02*
X8710000Y5000000D01*
X5500000Y3210000D02*
X7290000Y5000000D01*
X-500000Y2500000D02*
X-3800000Y2500000D01*
X6210000Y10000000D02*
X8710000Y12500000D01*
D13*
X5640000Y13500000D02*
X7340000Y13500000D01*
D10*
X-3800000Y12500000D02*
X-500000Y12500000D01*
X6910000Y2500000D02*
X8800000Y4390000D01*
X5500000Y5000000D02*
X8800000Y5000000D01*
X5500000Y3910000D02*
X6590000Y5000000D01*
X-3090000Y2500000D02*
X-590000Y5000000D01*
X8330000Y10000000D02*
X8800000Y10470000D01*
X8800000Y5000000D02*
X8800000Y2500000D01*
X-3800000Y4620000D02*
X-3420000Y5000000D01*
X5500000Y10000000D02*
X5500000Y12500000D01*
X5500000Y11410000D02*
X6590000Y12500000D01*
X-3800000Y2500000D02*
X-1300000Y5000000D01*
X-3800000Y5000000D02*
X-500000Y5000000D01*
D13*
X-100000Y9000000D02*
X5100000Y9000000D01*
D10*
X-3800000Y10000000D02*
X-3800000Y12500000D01*
X8800000Y12500000D02*
X8800000Y10000000D01*
X5500000Y10710000D02*
X7290000Y12500000D01*
D13*
X-2340000Y1500000D02*
X7340000Y1500000D01*
X-2340000Y13500000D02*
X-640000Y13500000D01*
D10*
X-1680000Y2500000D02*
X-500000Y3680000D01*
D13*
X6640061Y9259971D02*
G75*
G03*
X6240000Y10000000I-4140061J-1759971D01*
G01*
X-1640060Y5740029D02*
G75*
G03*
X-1240000Y5000000I4140040J1759957D01*
G01*
X5622143Y5002677D02*
G75*
G03*
X5620000Y10000000I-3122143J2497323D01*
G01*
X-504050Y3312901D02*
G75*
G03*
X5500000Y3310000I3004049J4187098D01*
G01*
X5504181Y10145260D02*
G75*
G03*
X-500000Y10150000I-3004181J-2645260D01*
G01*
X-504181Y4854740D02*
G75*
G03*
X5500000Y4850000I3004181J2645260D01*
G01*
X6239935Y4999983D02*
G75*
G03*
X6640000Y5740000I-3739964J2500033D01*
G01*
X5504050Y11687097D02*
G75*
G03*
X-500000Y11690000I-3004050J-4187097D01*
G01*
X8349952Y12499871D02*
G75*
G03*
X7340000Y13500000I-1009952J-9871D01*
G01*
X-2339872Y13500049D02*
G75*
G03*
X-3350000Y12500000I-129J-1010048D01*
G01*
X-495887Y4146321D02*
G75*
G03*
X5500000Y4150000I2995887J3353678D01*
G01*
X7339872Y1499950D02*
G75*
G03*
X8350000Y2500000I128J1010050D01*
G01*
X1182503Y9002199D02*
G75*
G03*
X3820000Y9000000I1317497J-1502199D01*
G01*
X-622143Y9997323D02*
G75*
G03*
X-620000Y5000000I3122143J-2497323D01*
G01*
X-3349953Y2500129D02*
G75*
G03*
X-2340000Y1500000I1009954J9873D01*
G01*
X-1239935Y10000017D02*
G75*
G03*
X-1640000Y9260000I3739935J-2500017D01*
G01*
X5495887Y10853679D02*
G75*
G03*
X-500000Y10850000I-2995887J-3353679D01*
G01*
X5500000Y7500000D02*
G75*
G03*
X5500000Y7500000I-3000000J0D01*
G01*
D12*
%TO.C,D6*%
X60300000Y37115000D02*
X62585000Y37115000D01*
X62585000Y38585000D02*
X60300000Y38585000D01*
X62585000Y37115000D02*
X62585000Y38585000D01*
%TO.C,R15*%
X35380000Y-2996359D02*
X35380000Y-3303641D01*
X34620000Y-2996359D02*
X34620000Y-3303641D01*
%TO.C,Q2*%
X47990000Y16450000D02*
X46940000Y16450000D01*
X50000000Y16470000D02*
X50000000Y18900000D01*
X46940000Y16450000D02*
X46940000Y18300000D01*
X49990000Y16450000D02*
X48990000Y16450000D01*
%TO.C,U2*%
X-4800000Y-20140000D02*
X-6600000Y-20140000D01*
X-4800000Y-23260000D02*
X-5600000Y-23260000D01*
X-4800000Y-23260000D02*
X-4000000Y-23260000D01*
X-4800000Y-20140000D02*
X-4000000Y-20140000D01*
%TO.C,R30*%
X65630000Y35846359D02*
X65630000Y36153641D01*
X64870000Y35846359D02*
X64870000Y36153641D01*
D10*
%TO.C,SW2*%
X26200000Y3910000D02*
X27290000Y5000000D01*
X26910000Y10000000D02*
X29410000Y12500000D01*
X27610000Y2500000D02*
X29500000Y4390000D01*
D13*
X35640000Y13500000D02*
X37340000Y13500000D01*
D10*
X26200000Y10710000D02*
X27990000Y12500000D01*
X29500000Y5000000D02*
X29500000Y2500000D01*
X37620000Y10000000D02*
X38800000Y11180000D01*
X35500000Y12120000D02*
X35880000Y12500000D01*
X35500000Y10000000D02*
X35500000Y12500000D01*
X36210000Y10000000D02*
X38710000Y12500000D01*
X38330000Y2500000D02*
X38800000Y2970000D01*
X28320000Y2500000D02*
X29500000Y3680000D01*
X28320000Y10000000D02*
X29500000Y11180000D01*
X35500000Y2500000D02*
X35500000Y5000000D01*
X35500000Y10710000D02*
X37290000Y12500000D01*
X29500000Y10000000D02*
X26200000Y10000000D01*
D13*
X29900000Y9000000D02*
X35100000Y9000000D01*
D10*
X35500000Y4620000D02*
X35880000Y5000000D01*
X26200000Y2500000D02*
X28700000Y5000000D01*
X26200000Y10000000D02*
X26200000Y12500000D01*
D13*
X27660000Y13500000D02*
X29360000Y13500000D01*
D10*
X35500000Y11410000D02*
X36590000Y12500000D01*
X26200000Y11410000D02*
X27290000Y12500000D01*
D13*
X30600000Y13500000D02*
X34400000Y13500000D01*
D10*
X35500000Y10000000D02*
X38000000Y12500000D01*
X35500000Y5000000D02*
X38800000Y5000000D01*
X29500000Y2500000D02*
X26200000Y2500000D01*
X38800000Y2500000D02*
X35500000Y2500000D01*
X36910000Y2500000D02*
X38800000Y4390000D01*
X26200000Y3210000D02*
X27990000Y5000000D01*
X36910000Y10000000D02*
X38800000Y11890000D01*
X35500000Y12500000D02*
X38800000Y12500000D01*
D13*
X27660000Y1500000D02*
X37340000Y1500000D01*
D10*
X26910000Y2500000D02*
X29410000Y5000000D01*
X26200000Y12500000D02*
X29500000Y12500000D01*
X29030000Y2500000D02*
X29500000Y2970000D01*
X29030000Y10000000D02*
X29500000Y10470000D01*
X38800000Y10000000D02*
X35500000Y10000000D01*
X27610000Y10000000D02*
X29500000Y11890000D01*
X38800000Y12500000D02*
X38800000Y10000000D01*
X35500000Y3210000D02*
X37290000Y5000000D01*
X26200000Y10000000D02*
X28700000Y12500000D01*
X38800000Y5000000D02*
X38800000Y2500000D01*
X26200000Y5000000D02*
X29500000Y5000000D01*
X37620000Y2500000D02*
X38800000Y3680000D01*
X26200000Y12120000D02*
X26580000Y12500000D01*
X29500000Y12500000D02*
X29500000Y10000000D01*
X26200000Y4620000D02*
X26580000Y5000000D01*
X35500000Y2500000D02*
X38000000Y5000000D01*
X36210000Y2500000D02*
X38710000Y5000000D01*
X35500000Y3910000D02*
X36590000Y5000000D01*
X38330000Y10000000D02*
X38800000Y10470000D01*
X26200000Y2500000D02*
X26200000Y5000000D01*
D13*
X35622143Y5002677D02*
G75*
G03*
X35620000Y10000000I-3122143J2497323D01*
G01*
X28359940Y5740029D02*
G75*
G03*
X28760000Y5000000I4140040J1759957D01*
G01*
X31182503Y9002199D02*
G75*
G03*
X33820000Y9000000I1317497J-1502199D01*
G01*
X29377857Y9997323D02*
G75*
G03*
X29380000Y5000000I3122143J-2497323D01*
G01*
X29504113Y4146321D02*
G75*
G03*
X35500000Y4150000I2995887J3353678D01*
G01*
X35504181Y10145260D02*
G75*
G03*
X29500000Y10150000I-3004181J-2645260D01*
G01*
X26650047Y2500129D02*
G75*
G03*
X27660000Y1500000I1009954J9873D01*
G01*
X38349952Y12499871D02*
G75*
G03*
X37340000Y13500000I-1009952J-9871D01*
G01*
X37339872Y1499950D02*
G75*
G03*
X38350000Y2500000I128J1010050D01*
G01*
X35504050Y11687097D02*
G75*
G03*
X29500000Y11690000I-3004050J-4187097D01*
G01*
X27660128Y13500049D02*
G75*
G03*
X26650000Y12500000I-129J-1010048D01*
G01*
X35495887Y10853679D02*
G75*
G03*
X29500000Y10850000I-2995887J-3353679D01*
G01*
X36640061Y9259971D02*
G75*
G03*
X36240000Y10000000I-4140061J-1759971D01*
G01*
X28760065Y10000017D02*
G75*
G03*
X28360000Y9260000I3739935J-2500017D01*
G01*
X29495950Y3312901D02*
G75*
G03*
X35500000Y3310000I3004049J4187098D01*
G01*
X36239935Y4999983D02*
G75*
G03*
X36640000Y5740000I-3739964J2500033D01*
G01*
X29495819Y4854740D02*
G75*
G03*
X35500000Y4850000I3004181J2645260D01*
G01*
X35500000Y7500000D02*
G75*
G03*
X35500000Y7500000I-3000000J0D01*
G01*
D12*
%TO.C,C3*%
X40057836Y19540000D02*
X39842164Y19540000D01*
X40057836Y20260000D02*
X39842164Y20260000D01*
%TO.C,R8*%
X83712742Y-23622500D02*
X84187258Y-23622500D01*
X83712742Y-22577500D02*
X84187258Y-22577500D01*
%TO.C,R6*%
X83712742Y-17477500D02*
X84187258Y-17477500D01*
X83712742Y-18522500D02*
X84187258Y-18522500D01*
%TO.C,R24*%
X47403641Y20530000D02*
X47096359Y20530000D01*
X47403641Y19770000D02*
X47096359Y19770000D01*
%TO.C,U5*%
X39860000Y24250000D02*
X39860000Y28010000D01*
X33040000Y22000000D02*
X33040000Y28010000D01*
X33040000Y28010000D02*
X34300000Y28010000D01*
X39860000Y28010000D02*
X38600000Y28010000D01*
%TO.C,R18*%
X65380000Y-2996359D02*
X65380000Y-3303641D01*
X64620000Y-2996359D02*
X64620000Y-3303641D01*
D10*
%TO.C,SW4*%
X86910000Y2500000D02*
X89410000Y5000000D01*
D13*
X87660000Y1500000D02*
X97340000Y1500000D01*
D10*
X95500000Y10000000D02*
X95500000Y12500000D01*
X97620000Y10000000D02*
X98800000Y11180000D01*
D13*
X89900000Y9000000D02*
X95100000Y9000000D01*
D10*
X89500000Y2500000D02*
X86200000Y2500000D01*
X88320000Y2500000D02*
X89500000Y3680000D01*
X89500000Y10000000D02*
X86200000Y10000000D01*
X86200000Y3210000D02*
X87990000Y5000000D01*
X95500000Y4620000D02*
X95880000Y5000000D01*
X89030000Y2500000D02*
X89500000Y2970000D01*
X86200000Y3910000D02*
X87290000Y5000000D01*
X87610000Y2500000D02*
X89500000Y4390000D01*
X98800000Y2500000D02*
X95500000Y2500000D01*
X87610000Y10000000D02*
X89500000Y11890000D01*
X95500000Y5000000D02*
X98800000Y5000000D01*
X95500000Y12120000D02*
X95880000Y12500000D01*
D13*
X90600000Y13500000D02*
X94400000Y13500000D01*
D10*
X96210000Y2500000D02*
X98710000Y5000000D01*
X86200000Y10000000D02*
X86200000Y12500000D01*
X86200000Y2500000D02*
X88700000Y5000000D01*
X86200000Y11410000D02*
X87290000Y12500000D01*
X98800000Y10000000D02*
X95500000Y10000000D01*
D13*
X95640000Y13500000D02*
X97340000Y13500000D01*
D10*
X95500000Y3910000D02*
X96590000Y5000000D01*
X95500000Y2500000D02*
X95500000Y5000000D01*
X89030000Y10000000D02*
X89500000Y10470000D01*
X86910000Y10000000D02*
X89410000Y12500000D01*
X98330000Y10000000D02*
X98800000Y10470000D01*
D13*
X87660000Y13500000D02*
X89360000Y13500000D01*
D10*
X95500000Y10000000D02*
X98000000Y12500000D01*
X86200000Y12120000D02*
X86580000Y12500000D01*
X97620000Y2500000D02*
X98800000Y3680000D01*
X95500000Y3210000D02*
X97290000Y5000000D01*
X86200000Y5000000D02*
X89500000Y5000000D01*
X98800000Y12500000D02*
X98800000Y10000000D01*
X98800000Y5000000D02*
X98800000Y2500000D01*
X89500000Y12500000D02*
X89500000Y10000000D01*
X95500000Y2500000D02*
X98000000Y5000000D01*
X95500000Y12500000D02*
X98800000Y12500000D01*
X89500000Y5000000D02*
X89500000Y2500000D01*
X96210000Y10000000D02*
X98710000Y12500000D01*
X86200000Y12500000D02*
X89500000Y12500000D01*
X86200000Y10710000D02*
X87990000Y12500000D01*
X88320000Y10000000D02*
X89500000Y11180000D01*
X95500000Y11410000D02*
X96590000Y12500000D01*
X96910000Y10000000D02*
X98800000Y11890000D01*
X86200000Y10000000D02*
X88700000Y12500000D01*
X98330000Y2500000D02*
X98800000Y2970000D01*
X96910000Y2500000D02*
X98800000Y4390000D01*
X95500000Y10710000D02*
X97290000Y12500000D01*
X86200000Y4620000D02*
X86580000Y5000000D01*
X86200000Y2500000D02*
X86200000Y5000000D01*
D13*
X96640061Y9259971D02*
G75*
G03*
X96240000Y10000000I-4140061J-1759971D01*
G01*
X88760065Y10000017D02*
G75*
G03*
X88360000Y9260000I3739935J-2500017D01*
G01*
X95495887Y10853679D02*
G75*
G03*
X89500000Y10850000I-2995887J-3353679D01*
G01*
X91182503Y9002199D02*
G75*
G03*
X93820000Y9000000I1317497J-1502199D01*
G01*
X89377857Y9997323D02*
G75*
G03*
X89380000Y5000000I3122143J-2497323D01*
G01*
X95504050Y11687097D02*
G75*
G03*
X89500000Y11690000I-3004050J-4187097D01*
G01*
X86650047Y2500129D02*
G75*
G03*
X87660000Y1500000I1009954J9873D01*
G01*
X95504181Y10145260D02*
G75*
G03*
X89500000Y10150000I-3004181J-2645260D01*
G01*
X98349952Y12499871D02*
G75*
G03*
X97340000Y13500000I-1009952J-9871D01*
G01*
X87660128Y13500049D02*
G75*
G03*
X86650000Y12500000I-129J-1010048D01*
G01*
X96239935Y4999983D02*
G75*
G03*
X96640000Y5740000I-3739964J2500033D01*
G01*
X89495819Y4854740D02*
G75*
G03*
X95500000Y4850000I3004181J2645260D01*
G01*
X95622143Y5002677D02*
G75*
G03*
X95620000Y10000000I-3122143J2497323D01*
G01*
X89504113Y4146321D02*
G75*
G03*
X95500000Y4150000I2995887J3353678D01*
G01*
X89495950Y3312901D02*
G75*
G03*
X95500000Y3310000I3004049J4187098D01*
G01*
X97339872Y1499950D02*
G75*
G03*
X98350000Y2500000I128J1010050D01*
G01*
X88359940Y5740029D02*
G75*
G03*
X88760000Y5000000I4140040J1759957D01*
G01*
X95500000Y7500000D02*
G75*
G03*
X95500000Y7500000I-3000000J0D01*
G01*
D12*
%TO.C,R29*%
X60480000Y35846359D02*
X60480000Y36153641D01*
X59720000Y35846359D02*
X59720000Y36153641D01*
%TO.C,R31*%
X59430000Y35846359D02*
X59430000Y36153641D01*
X58670000Y35846359D02*
X58670000Y36153641D01*
%TO.C,R21*%
X94620000Y-2996359D02*
X94620000Y-3303641D01*
X95380000Y-2996359D02*
X95380000Y-3303641D01*
%TO.C,R7*%
X83712742Y-20027500D02*
X84187258Y-20027500D01*
X83712742Y-21072500D02*
X84187258Y-21072500D01*
%TO.C,R23*%
X47446359Y21780000D02*
X47753641Y21780000D01*
X47446359Y21020000D02*
X47753641Y21020000D01*
%TO.C,D7*%
X65050000Y38585000D02*
X62765000Y38585000D01*
X62765000Y38585000D02*
X62765000Y37115000D01*
X62765000Y37115000D02*
X65050000Y37115000D01*
%TO.C,D2*%
X0Y-17640000D02*
X650000Y-17640000D01*
X0Y-20760000D02*
X650000Y-20760000D01*
X0Y-20760000D02*
X-650000Y-20760000D01*
X0Y-17640000D02*
X-1675000Y-17640000D01*
%TO.C,U3*%
X-4800000Y-30390000D02*
X-4000000Y-30390000D01*
X-4800000Y-33510000D02*
X-5600000Y-33510000D01*
X-4800000Y-30390000D02*
X-6600000Y-30390000D01*
X-4800000Y-33510000D02*
X-4000000Y-33510000D01*
%TO.C,C9*%
X17540000Y-34409420D02*
X17540000Y-34690580D01*
X18560000Y-34409420D02*
X18560000Y-34690580D01*
%TO.C,C6*%
X60940580Y-64460000D02*
X60659420Y-64460000D01*
X60940580Y-63440000D02*
X60659420Y-63440000D01*
%TO.C,C4*%
X61340000Y-66540580D02*
X61340000Y-66259420D01*
X62360000Y-66540580D02*
X62360000Y-66259420D01*
%TO.C,R22*%
X95380000Y17153641D02*
X95380000Y16846359D01*
X94620000Y17153641D02*
X94620000Y16846359D01*
%TO.C,R14*%
X29620000Y-3303641D02*
X29620000Y-2996359D01*
X30380000Y-3303641D02*
X30380000Y-2996359D01*
%TO.C,J4*%
X23330000Y-37030000D02*
X22000000Y-37030000D01*
X25600000Y-9550000D02*
X25600000Y-44050000D01*
X23330000Y-35700000D02*
X23330000Y-37030000D01*
X23330000Y-34430000D02*
X20670000Y-34430000D01*
X20670000Y-34430000D02*
X20670000Y-16590000D01*
X23330000Y-34430000D02*
X23330000Y-16590000D01*
X23330000Y-16590000D02*
X20670000Y-16590000D01*
X69450000Y-9550000D02*
X69450000Y-44050000D01*
X25600000Y-9550000D02*
X69450000Y-9550000D01*
X69450000Y-9550000D02*
X69450000Y-44050000D01*
X69450000Y-44050000D02*
X25600000Y-44050000D01*
X25600000Y-44050000D02*
X25600000Y-9550000D01*
X18900000Y-7900000D02*
X74450000Y-7900000D01*
X74450000Y-7900000D02*
X74450000Y-45680000D01*
X74450000Y-45680000D02*
X18900000Y-45680000D01*
X18900000Y-45680000D02*
X18900000Y-7900000D01*
%TO.C,C8*%
X96990000Y-28040580D02*
X96990000Y-27759420D01*
X98010000Y-28040580D02*
X98010000Y-27759420D01*
%TO.C,J3*%
X90000000Y-16670000D02*
X91330000Y-16670000D01*
X88730000Y-16670000D02*
X88730000Y-19270000D01*
X91330000Y-16670000D02*
X91330000Y-18000000D01*
X86130000Y-26950000D02*
X91330000Y-26950000D01*
X91330000Y-19270000D02*
X91330000Y-26950000D01*
X86130000Y-16670000D02*
X86130000Y-26950000D01*
X86130000Y-16670000D02*
X88730000Y-16670000D01*
X88730000Y-19270000D02*
X91330000Y-19270000D01*
%TO.C,D4*%
X0Y-27840000D02*
X-1675000Y-27840000D01*
X0Y-27840000D02*
X650000Y-27840000D01*
X0Y-30960000D02*
X-650000Y-30960000D01*
X0Y-30960000D02*
X650000Y-30960000D01*
%TO.C,R13*%
X14380000Y-19046359D02*
X14380000Y-19353641D01*
X13620000Y-19046359D02*
X13620000Y-19353641D01*
%TO.C,R19*%
X64620000Y17153641D02*
X64620000Y16846359D01*
X65380000Y17153641D02*
X65380000Y16846359D01*
%TO.C,C7*%
X98590000Y-27957836D02*
X98590000Y-27742164D01*
X99310000Y-27957836D02*
X99310000Y-27742164D01*
%TO.C,R32*%
X53520000Y35846359D02*
X53520000Y36153641D01*
X54280000Y35846359D02*
X54280000Y36153641D01*
%TO.C,R28*%
X42570000Y15603641D02*
X42570000Y15296359D01*
X43330000Y15603641D02*
X43330000Y15296359D01*
%TO.C,D3*%
X0Y-25910000D02*
X-650000Y-25910000D01*
X0Y-22790000D02*
X-1675000Y-22790000D01*
X0Y-25910000D02*
X650000Y-25910000D01*
X0Y-22790000D02*
X650000Y-22790000D01*
%TO.C,R20*%
X89620000Y-3303641D02*
X89620000Y-2996359D01*
X90380000Y-3303641D02*
X90380000Y-2996359D01*
%TO.C,R17*%
X60380000Y-3303641D02*
X60380000Y-2996359D01*
X59620000Y-3303641D02*
X59620000Y-2996359D01*
%TO.C,Q1*%
X16550000Y-20460000D02*
X17200000Y-20460000D01*
X16550000Y-17340000D02*
X14875000Y-17340000D01*
X16550000Y-20460000D02*
X15900000Y-20460000D01*
X16550000Y-17340000D02*
X17200000Y-17340000D01*
%TO.C,C5*%
X50357836Y31010000D02*
X50142164Y31010000D01*
X50357836Y30290000D02*
X50142164Y30290000D01*
%TO.C,J5*%
X2670000Y-18000000D02*
X2670000Y-16670000D01*
X2670000Y-16670000D02*
X4000000Y-16670000D01*
X2670000Y-19270000D02*
X5270000Y-19270000D01*
X5270000Y-16670000D02*
X7870000Y-16670000D01*
X2670000Y-37110000D02*
X7870000Y-37110000D01*
X5270000Y-19270000D02*
X5270000Y-16670000D01*
X7870000Y-16670000D02*
X7870000Y-37110000D01*
X2670000Y-19270000D02*
X2670000Y-37110000D01*
%TO.C,J7*%
X98830000Y-18020000D02*
X98830000Y-19350000D01*
X96170000Y-20620000D02*
X98830000Y-20620000D01*
X96170000Y-25760000D02*
X98830000Y-25760000D01*
X97500000Y-18020000D02*
X98830000Y-18020000D01*
X96170000Y-20620000D02*
X96170000Y-25760000D01*
X98830000Y-20620000D02*
X98830000Y-25760000D01*
%TO.C,R9*%
X83712742Y-26122500D02*
X84187258Y-26122500D01*
X83712742Y-25077500D02*
X84187258Y-25077500D01*
%TO.C,R16*%
X34620000Y17153641D02*
X34620000Y16846359D01*
X35380000Y17153641D02*
X35380000Y16846359D01*
%TO.C,R27*%
X34995000Y-61971359D02*
X34995000Y-62278641D01*
X35755000Y-61971359D02*
X35755000Y-62278641D01*
%TO.C,R10*%
X-380000Y-3303641D02*
X-380000Y-2996359D01*
X380000Y-3303641D02*
X380000Y-2996359D01*
%TO.C,D9*%
X56385000Y37115000D02*
X56385000Y38585000D01*
X54100000Y37115000D02*
X56385000Y37115000D01*
X56385000Y38585000D02*
X54100000Y38585000D01*
%TO.C,R26*%
X42446359Y31780000D02*
X42753641Y31780000D01*
X42446359Y31020000D02*
X42753641Y31020000D01*
%TO.C,U1*%
X38380000Y-74245000D02*
X38380000Y-67830000D01*
X38380000Y-49285000D02*
X38380000Y-48505000D01*
X56620000Y-74245000D02*
X38380000Y-74245000D01*
X56620000Y-48505000D02*
X55620000Y-48505000D01*
X56620000Y-74245000D02*
X56620000Y-67830000D01*
X38380000Y-48505000D02*
X39380000Y-48505000D01*
X56620000Y-67830000D02*
X57000000Y-67830000D01*
X56620000Y-49285000D02*
X56620000Y-48505000D01*
D13*
%TO.C,USBC1*%
X52070000Y38550000D02*
X52070000Y40080000D01*
X52070000Y34550000D02*
X52070000Y36200000D01*
X42930000Y34550000D02*
X42930000Y36200000D01*
X52070000Y40080000D02*
X42930000Y40080000D01*
X42930000Y40080000D02*
X42930000Y38550000D01*
D12*
%TO.C,R25*%
X52096359Y31730000D02*
X52403641Y31730000D01*
X52096359Y30970000D02*
X52403641Y30970000D01*
%TO.C,D8*%
X56565000Y37115000D02*
X58850000Y37115000D01*
X58850000Y38585000D02*
X56565000Y38585000D01*
X56565000Y38585000D02*
X56565000Y37115000D01*
%TO.C,R11*%
X5380000Y-2996359D02*
X5380000Y-3303641D01*
X4620000Y-2996359D02*
X4620000Y-3303641D01*
%TO.C,C2*%
X33192164Y16890000D02*
X33407836Y16890000D01*
X33192164Y17610000D02*
X33407836Y17610000D01*
%TO.C,R12*%
X5380000Y17153641D02*
X5380000Y16846359D01*
X4620000Y17153641D02*
X4620000Y16846359D01*
%TO.C,C10*%
X16290000Y-34657837D02*
X16290000Y-34442165D01*
X17010000Y-34657837D02*
X17010000Y-34442165D01*
%TO.C,C1*%
X34709420Y19190000D02*
X34990580Y19190000D01*
X34709420Y20210000D02*
X34990580Y20210000D01*
%TD*%
%LPC*%
D14*
%TO.C,U4*%
X53195000Y28475000D03*
X51925000Y28475000D03*
X50655000Y28475000D03*
X49385000Y28475000D03*
X48115000Y28475000D03*
X46845000Y28475000D03*
X45575000Y28475000D03*
X44305000Y28475000D03*
X44305000Y23525000D03*
X45575000Y23525000D03*
X46845000Y23525000D03*
X48115000Y23525000D03*
X49385000Y23525000D03*
X50655000Y23525000D03*
X51925000Y23525000D03*
X53195000Y23525000D03*
%TD*%
D15*
%TO.C,R5*%
X36550000Y-49090000D03*
X36550000Y-50110000D03*
%TD*%
D16*
%TO.C,D5*%
X-937500Y-33650000D03*
X-937500Y-35550000D03*
X937500Y-34600000D03*
%TD*%
D17*
%TO.C,SW3*%
X62500000Y7500000D03*
D18*
X60000000Y0D03*
X65000000Y0D03*
X62500000Y0D03*
X60000000Y14500000D03*
X65000000Y14500000D03*
D19*
X57030000Y7500000D03*
X67970000Y7500000D03*
%TD*%
D15*
%TO.C,R4*%
X60000000Y-61640000D03*
X60000000Y-62660000D03*
%TD*%
D20*
%TO.C,Q3*%
X45150000Y20660000D03*
X43250000Y20660000D03*
X44200000Y18040000D03*
%TD*%
D17*
%TO.C,SW1*%
X2500000Y7500000D03*
D18*
X0Y0D03*
X5000000Y0D03*
X2500000Y0D03*
X0Y14500000D03*
X5000000Y14500000D03*
D19*
X-2970000Y7500000D03*
X7970000Y7500000D03*
%TD*%
D21*
%TO.C,D6*%
X61887500Y37850000D03*
X60312500Y37850000D03*
%TD*%
D15*
%TO.C,R15*%
X35000000Y-2640000D03*
X35000000Y-3660000D03*
%TD*%
D20*
%TO.C,Q2*%
X49440000Y18710000D03*
X47540000Y18710000D03*
X48490000Y16090000D03*
%TD*%
D22*
%TO.C,U2*%
X-5937500Y-20750000D03*
X-5937500Y-21700000D03*
X-5937500Y-22650000D03*
X-3662500Y-22650000D03*
X-3662500Y-21700000D03*
X-3662500Y-20750000D03*
%TD*%
D23*
%TO.C,R30*%
X65250000Y35490000D03*
X65250000Y36510000D03*
%TD*%
D17*
%TO.C,SW2*%
X32500000Y7500000D03*
D18*
X30000000Y0D03*
X35000000Y0D03*
X32500000Y0D03*
X30000000Y14500000D03*
X35000000Y14500000D03*
D19*
X27030000Y7500000D03*
X37970000Y7500000D03*
%TD*%
D24*
%TO.C,C3*%
X40430000Y19900000D03*
X39470000Y19900000D03*
%TD*%
D25*
%TO.C,R8*%
X83125000Y-23100000D03*
X84775000Y-23100000D03*
%TD*%
%TO.C,R6*%
X83125000Y-18000000D03*
X84775000Y-18000000D03*
%TD*%
D26*
%TO.C,R24*%
X47760000Y20150000D03*
X46740000Y20150000D03*
%TD*%
D27*
%TO.C,U5*%
X34150000Y22950000D03*
X36450000Y22950000D03*
D28*
X36450000Y29250000D03*
D27*
X38750000Y22950000D03*
%TD*%
D15*
%TO.C,R18*%
X65000000Y-2640000D03*
X65000000Y-3660000D03*
%TD*%
D17*
%TO.C,SW4*%
X92500000Y7500000D03*
D18*
X90000000Y0D03*
X95000000Y0D03*
X92500000Y0D03*
X90000000Y14500000D03*
X95000000Y14500000D03*
D19*
X87030000Y7500000D03*
X97970000Y7500000D03*
%TD*%
D23*
%TO.C,R29*%
X60100000Y35490000D03*
X60100000Y36510000D03*
%TD*%
%TO.C,R31*%
X59050000Y35490000D03*
X59050000Y36510000D03*
%TD*%
D15*
%TO.C,R21*%
X95000000Y-2640000D03*
X95000000Y-3660000D03*
%TD*%
D25*
%TO.C,R7*%
X83125000Y-20550000D03*
X84775000Y-20550000D03*
%TD*%
D29*
%TO.C,R23*%
X47090000Y21400000D03*
X48110000Y21400000D03*
%TD*%
D30*
%TO.C,D7*%
X63462500Y37850000D03*
X65037500Y37850000D03*
%TD*%
D16*
%TO.C,D2*%
X-937500Y-18250000D03*
X-937500Y-20150000D03*
X937500Y-19200000D03*
%TD*%
D22*
%TO.C,U3*%
X-5937500Y-31000000D03*
X-5937500Y-31950000D03*
X-5937500Y-32900000D03*
X-3662500Y-32900000D03*
X-3662500Y-31950000D03*
X-3662500Y-31000000D03*
%TD*%
D31*
%TO.C,C9*%
X18050000Y-33775000D03*
X18050000Y-35325000D03*
%TD*%
D32*
%TO.C,C6*%
X61575000Y-63950000D03*
X60025000Y-63950000D03*
%TD*%
D33*
%TO.C,C4*%
X61850000Y-67175000D03*
X61850000Y-65625000D03*
%TD*%
D15*
%TO.C,R22*%
X95000000Y17510000D03*
X95000000Y16490000D03*
%TD*%
D23*
%TO.C,R14*%
X30000000Y-3660000D03*
X30000000Y-2640000D03*
%TD*%
D34*
%TO.C,J4*%
X22000000Y-35700000D03*
D35*
X22000000Y-33160000D03*
X22000000Y-30620000D03*
X22000000Y-28080000D03*
X22000000Y-25540000D03*
X22000000Y-23000000D03*
X22000000Y-20460000D03*
X22000000Y-17920000D03*
%TD*%
D33*
%TO.C,C8*%
X97500000Y-28675000D03*
X97500000Y-27125000D03*
%TD*%
D34*
%TO.C,J3*%
X90000000Y-18000000D03*
D35*
X87460000Y-18000000D03*
X90000000Y-20540000D03*
X87460000Y-20540000D03*
X90000000Y-23080000D03*
X87460000Y-23080000D03*
X90000000Y-25620000D03*
X87460000Y-25620000D03*
%TD*%
D16*
%TO.C,D4*%
X-937500Y-28450000D03*
X-937500Y-30350000D03*
X937500Y-29400000D03*
%TD*%
D15*
%TO.C,R13*%
X14000000Y-18690000D03*
X14000000Y-19710000D03*
%TD*%
%TO.C,R19*%
X65000000Y17510000D03*
X65000000Y16490000D03*
%TD*%
D36*
%TO.C,C7*%
X98950000Y-28330000D03*
X98950000Y-27370000D03*
%TD*%
D23*
%TO.C,R32*%
X53900000Y35490000D03*
X53900000Y36510000D03*
%TD*%
D15*
%TO.C,R28*%
X42950000Y15960000D03*
X42950000Y14940000D03*
%TD*%
D16*
%TO.C,D3*%
X-937500Y-23400000D03*
X-937500Y-25300000D03*
X937500Y-24350000D03*
%TD*%
D23*
%TO.C,R20*%
X90000000Y-3660000D03*
X90000000Y-2640000D03*
%TD*%
%TO.C,R17*%
X60000000Y-3660000D03*
X60000000Y-2640000D03*
%TD*%
D16*
%TO.C,Q1*%
X15612500Y-17950000D03*
X15612500Y-19850000D03*
X17487500Y-18900000D03*
%TD*%
D24*
%TO.C,C5*%
X50730000Y30650000D03*
X49770000Y30650000D03*
%TD*%
D34*
%TO.C,J5*%
X4000000Y-18000000D03*
D35*
X6540000Y-18000000D03*
X4000000Y-20540000D03*
X6540000Y-20540000D03*
X4000000Y-23080000D03*
X6540000Y-23080000D03*
X4000000Y-25620000D03*
X6540000Y-25620000D03*
X4000000Y-28160000D03*
X6540000Y-28160000D03*
X4000000Y-30700000D03*
X6540000Y-30700000D03*
X4000000Y-33240000D03*
X6540000Y-33240000D03*
X4000000Y-35780000D03*
X6540000Y-35780000D03*
%TD*%
D34*
%TO.C,J7*%
X97500000Y-19350000D03*
D35*
X97500000Y-21890000D03*
X97500000Y-24430000D03*
%TD*%
D25*
%TO.C,R9*%
X83125000Y-25600000D03*
X84775000Y-25600000D03*
%TD*%
D15*
%TO.C,R16*%
X35000000Y17510000D03*
X35000000Y16490000D03*
%TD*%
%TO.C,R27*%
X35375000Y-61615000D03*
X35375000Y-62635000D03*
%TD*%
D23*
%TO.C,R10*%
X0Y-3660000D03*
X0Y-2640000D03*
%TD*%
D21*
%TO.C,D9*%
X55687500Y37850000D03*
X54112500Y37850000D03*
%TD*%
D29*
%TO.C,R26*%
X42090000Y31400000D03*
X43110000Y31400000D03*
%TD*%
D37*
%TO.C,U1*%
X56250000Y-66635000D03*
X56250000Y-65365000D03*
X56250000Y-64095000D03*
X56250000Y-62825000D03*
X56250000Y-61555000D03*
X56250000Y-60285000D03*
X56250000Y-59015000D03*
X56250000Y-57745000D03*
X56250000Y-56475000D03*
X56250000Y-55205000D03*
X56250000Y-53935000D03*
X56250000Y-52665000D03*
X56250000Y-51395000D03*
X56250000Y-50125000D03*
D38*
X53210000Y-48875000D03*
X51940000Y-48875000D03*
X50670000Y-48875000D03*
X49400000Y-48875000D03*
X48130000Y-48875000D03*
X46860000Y-48875000D03*
X45590000Y-48875000D03*
X44320000Y-48875000D03*
X43050000Y-48875000D03*
X41780000Y-48875000D03*
D37*
X38750000Y-50125000D03*
X38750000Y-51395000D03*
X38750000Y-52665000D03*
X38750000Y-53935000D03*
X38750000Y-55205000D03*
X38750000Y-56475000D03*
X38750000Y-57745000D03*
X38750000Y-59015000D03*
X38750000Y-60285000D03*
X38750000Y-61555000D03*
X38750000Y-62825000D03*
X38750000Y-64095000D03*
X38750000Y-65365000D03*
X38750000Y-66635000D03*
D39*
X48180000Y-58532500D03*
X48942500Y-59295000D03*
X47417500Y-57770000D03*
X48180000Y-60057500D03*
D40*
X48180000Y-59295000D03*
D39*
X46655000Y-58532500D03*
X48942500Y-60820000D03*
X49705000Y-58532500D03*
X46655000Y-60057500D03*
X49705000Y-60057500D03*
X47417500Y-59295000D03*
X48942500Y-57770000D03*
X47417500Y-60820000D03*
%TD*%
D41*
%TO.C,USBC1*%
X44610000Y33690000D03*
X50390000Y33690000D03*
D42*
X51820000Y33190000D03*
D43*
X51820000Y37370000D03*
X43180000Y37370000D03*
D42*
X43180000Y33190000D03*
D44*
X50700000Y32630000D03*
X49900000Y32630000D03*
D45*
X48750000Y32630000D03*
X47750000Y32630000D03*
X47250000Y32630000D03*
X46250000Y32630000D03*
D44*
X44300000Y32630000D03*
X45100000Y32630000D03*
D45*
X45750000Y32630000D03*
X46750000Y32630000D03*
X48250000Y32630000D03*
X49250000Y32630000D03*
%TD*%
D29*
%TO.C,R25*%
X51740000Y31350000D03*
X52760000Y31350000D03*
%TD*%
D30*
%TO.C,D8*%
X57262500Y37850000D03*
X58837500Y37850000D03*
%TD*%
D15*
%TO.C,R11*%
X5000000Y-2640000D03*
X5000000Y-3660000D03*
%TD*%
D46*
%TO.C,C2*%
X32820000Y17250000D03*
X33780000Y17250000D03*
%TD*%
D15*
%TO.C,R12*%
X5000000Y17510000D03*
X5000000Y16490000D03*
%TD*%
D36*
%TO.C,C10*%
X16650000Y-35030001D03*
X16650000Y-34070001D03*
%TD*%
D47*
%TO.C,C1*%
X34075000Y19700000D03*
X35625000Y19700000D03*
%TD*%
M02*
