%TF.GenerationSoftware,KiCad,Pcbnew,(6.0.10)*%
%TF.CreationDate,2023-01-05T01:12:59+01:00*%
%TF.ProjectId,obs-studio-controller,6f62732d-7374-4756-9469-6f2d636f6e74,rev?*%
%TF.SameCoordinates,Original*%
%TF.FileFunction,Other,Comment*%
%FSLAX46Y46*%
G04 Gerber Fmt 4.6, Leading zero omitted, Abs format (unit mm)*
G04 Created by KiCad (PCBNEW (6.0.10)) date 2023-01-05 01:12:59*
%MOMM*%
%LPD*%
G01*
G04 APERTURE LIST*
%ADD10C,0.150000*%
%ADD11C,1.000000*%
%ADD12C,0.750000*%
G04 APERTURE END LIST*
D10*
%TO.C,U1*%
X35307142Y-81769761D02*
X35307142Y-79769761D01*
X36450000Y-81769761D02*
X35592857Y-80626904D01*
X36450000Y-79769761D02*
X35307142Y-80912619D01*
X37307142Y-80722142D02*
X37973809Y-80722142D01*
X38259523Y-81769761D02*
X37307142Y-81769761D01*
X37307142Y-79769761D01*
X38259523Y-79769761D01*
X39116666Y-80722142D02*
X39783333Y-80722142D01*
X40069047Y-81769761D02*
X39116666Y-81769761D01*
X39116666Y-79769761D01*
X40069047Y-79769761D01*
X40926190Y-81769761D02*
X40926190Y-79769761D01*
X41688095Y-79769761D01*
X41878571Y-79865000D01*
X41973809Y-79960238D01*
X42069047Y-80150714D01*
X42069047Y-80436428D01*
X41973809Y-80626904D01*
X41878571Y-80722142D01*
X41688095Y-80817380D01*
X40926190Y-80817380D01*
X42926190Y-81007857D02*
X44450000Y-81007857D01*
X45783333Y-79769761D02*
X46164285Y-79769761D01*
X46354761Y-79865000D01*
X46545238Y-80055476D01*
X46640476Y-80436428D01*
X46640476Y-81103095D01*
X46545238Y-81484047D01*
X46354761Y-81674523D01*
X46164285Y-81769761D01*
X45783333Y-81769761D01*
X45592857Y-81674523D01*
X45402380Y-81484047D01*
X45307142Y-81103095D01*
X45307142Y-80436428D01*
X45402380Y-80055476D01*
X45592857Y-79865000D01*
X45783333Y-79769761D01*
X47497619Y-79769761D02*
X47497619Y-81388809D01*
X47592857Y-81579285D01*
X47688095Y-81674523D01*
X47878571Y-81769761D01*
X48259523Y-81769761D01*
X48450000Y-81674523D01*
X48545238Y-81579285D01*
X48640476Y-81388809D01*
X48640476Y-79769761D01*
X49307142Y-79769761D02*
X50450000Y-79769761D01*
X49878571Y-81769761D02*
X49878571Y-79769761D01*
X52450000Y-79769761D02*
X53783333Y-79769761D01*
X52450000Y-81769761D01*
X53783333Y-81769761D01*
X54926190Y-79769761D02*
X55307142Y-79769761D01*
X55497619Y-79865000D01*
X55688095Y-80055476D01*
X55783333Y-80436428D01*
X55783333Y-81103095D01*
X55688095Y-81484047D01*
X55497619Y-81674523D01*
X55307142Y-81769761D01*
X54926190Y-81769761D01*
X54735714Y-81674523D01*
X54545238Y-81484047D01*
X54450000Y-81103095D01*
X54450000Y-80436428D01*
X54545238Y-80055476D01*
X54735714Y-79865000D01*
X54926190Y-79769761D01*
X56640476Y-81769761D02*
X56640476Y-79769761D01*
X57783333Y-81769761D01*
X57783333Y-79769761D01*
X58735714Y-80722142D02*
X59402380Y-80722142D01*
X59688095Y-81769761D02*
X58735714Y-81769761D01*
X58735714Y-79769761D01*
X59688095Y-79769761D01*
X44738095Y-71551666D02*
X45214285Y-71551666D01*
X44642857Y-71837380D02*
X44976190Y-70837380D01*
X45309523Y-71837380D01*
X45642857Y-71170714D02*
X45642857Y-71837380D01*
X45642857Y-71265952D02*
X45690476Y-71218333D01*
X45785714Y-71170714D01*
X45928571Y-71170714D01*
X46023809Y-71218333D01*
X46071428Y-71313571D01*
X46071428Y-71837380D01*
X46404761Y-71170714D02*
X46785714Y-71170714D01*
X46547619Y-70837380D02*
X46547619Y-71694523D01*
X46595238Y-71789761D01*
X46690476Y-71837380D01*
X46785714Y-71837380D01*
X47500000Y-71789761D02*
X47404761Y-71837380D01*
X47214285Y-71837380D01*
X47119047Y-71789761D01*
X47071428Y-71694523D01*
X47071428Y-71313571D01*
X47119047Y-71218333D01*
X47214285Y-71170714D01*
X47404761Y-71170714D01*
X47500000Y-71218333D01*
X47547619Y-71313571D01*
X47547619Y-71408809D01*
X47071428Y-71504047D01*
X47976190Y-71170714D02*
X47976190Y-71837380D01*
X47976190Y-71265952D02*
X48023809Y-71218333D01*
X48119047Y-71170714D01*
X48261904Y-71170714D01*
X48357142Y-71218333D01*
X48404761Y-71313571D01*
X48404761Y-71837380D01*
X48880952Y-71170714D02*
X48880952Y-71837380D01*
X48880952Y-71265952D02*
X48928571Y-71218333D01*
X49023809Y-71170714D01*
X49166666Y-71170714D01*
X49261904Y-71218333D01*
X49309523Y-71313571D01*
X49309523Y-71837380D01*
X50214285Y-71837380D02*
X50214285Y-71313571D01*
X50166666Y-71218333D01*
X50071428Y-71170714D01*
X49880952Y-71170714D01*
X49785714Y-71218333D01*
X50214285Y-71789761D02*
X50119047Y-71837380D01*
X49880952Y-71837380D01*
X49785714Y-71789761D01*
X49738095Y-71694523D01*
X49738095Y-71599285D01*
X49785714Y-71504047D01*
X49880952Y-71456428D01*
X50119047Y-71456428D01*
X50214285Y-71408809D01*
D11*
%TO.C,SW4*%
X93000000Y7500000D02*
G75*
G03*
X93000000Y7500000I-500000J0D01*
G01*
D12*
X92870000Y3000000D02*
G75*
G03*
X92870000Y3000000I-370000J0D01*
G01*
D11*
%TO.C,SW3*%
X63000000Y7500000D02*
G75*
G03*
X63000000Y7500000I-500000J0D01*
G01*
D12*
X62870000Y3000000D02*
G75*
G03*
X62870000Y3000000I-370000J0D01*
G01*
%TO.C,SW2*%
X32870000Y3000000D02*
G75*
G03*
X32870000Y3000000I-370000J0D01*
G01*
D11*
X33000000Y7500000D02*
G75*
G03*
X33000000Y7500000I-500000J0D01*
G01*
%TO.C,SW1*%
X3000000Y7500000D02*
G75*
G03*
X3000000Y7500000I-500000J0D01*
G01*
D12*
X2870000Y3000000D02*
G75*
G03*
X2870000Y3000000I-370000J0D01*
G01*
%TD*%
M02*
