%TF.GenerationSoftware,KiCad,Pcbnew,(6.0.10)*%
%TF.CreationDate,2023-01-15T02:26:48+01:00*%
%TF.ProjectId,obs-studio-controller,6f62732d-7374-4756-9469-6f2d636f6e74,rev?*%
%TF.SameCoordinates,Original*%
%TF.FileFunction,Legend,Bot*%
%TF.FilePolarity,Positive*%
%FSLAX46Y46*%
G04 Gerber Fmt 4.6, Leading zero omitted, Abs format (unit mm)*
G04 Created by KiCad (PCBNEW (6.0.10)) date 2023-01-15 02:26:48*
%MOMM*%
%LPD*%
G01*
G04 APERTURE LIST*
%ADD10C,0.150000*%
%ADD11C,0.200000*%
%ADD12C,0.300000*%
%ADD13C,2.100000*%
%ADD14C,1.800000*%
%ADD15O,2.300000X4.000000*%
%ADD16R,1.700000X1.700000*%
%ADD17O,1.700000X1.700000*%
%ADD18C,0.650000*%
%ADD19O,1.000000X2.100000*%
%ADD20O,1.000000X1.800000*%
G04 APERTURE END LIST*
D10*
X19250000Y-15800000D02*
X29350000Y-15800000D01*
X29350000Y-15800000D02*
X29350000Y-37800000D01*
X29350000Y-37800000D02*
X19250000Y-37800000D01*
X19250000Y-37800000D02*
X19250000Y-15800000D01*
D11*
X101514285Y-18574000D02*
X101628571Y-18497809D01*
X101800000Y-18497809D01*
X101971428Y-18574000D01*
X102085714Y-18726380D01*
X102142857Y-18878761D01*
X102200000Y-19183523D01*
X102200000Y-19412095D01*
X102142857Y-19716857D01*
X102085714Y-19869238D01*
X101971428Y-20021619D01*
X101800000Y-20097809D01*
X101685714Y-20097809D01*
X101514285Y-20021619D01*
X101457142Y-19945428D01*
X101457142Y-19412095D01*
X101685714Y-19412095D01*
X100942857Y-20097809D02*
X100942857Y-18497809D01*
X100257142Y-20097809D01*
X100257142Y-18497809D01*
X99685714Y-20097809D02*
X99685714Y-18497809D01*
X99400000Y-18497809D01*
X99228571Y-18574000D01*
X99114285Y-18726380D01*
X99057142Y-18878761D01*
X99000000Y-19183523D01*
X99000000Y-19412095D01*
X99057142Y-19716857D01*
X99114285Y-19869238D01*
X99228571Y-20021619D01*
X99400000Y-20097809D01*
X99685714Y-20097809D01*
X101800000Y-21073809D02*
X101571428Y-21073809D01*
X101457142Y-21150000D01*
X101342857Y-21302380D01*
X101285714Y-21607142D01*
X101285714Y-22140476D01*
X101342857Y-22445238D01*
X101457142Y-22597619D01*
X101571428Y-22673809D01*
X101800000Y-22673809D01*
X101914285Y-22597619D01*
X102028571Y-22445238D01*
X102085714Y-22140476D01*
X102085714Y-21607142D01*
X102028571Y-21302380D01*
X101914285Y-21150000D01*
X101800000Y-21073809D01*
X100771428Y-21073809D02*
X100771428Y-22369047D01*
X100714285Y-22521428D01*
X100657142Y-22597619D01*
X100542857Y-22673809D01*
X100314285Y-22673809D01*
X100200000Y-22597619D01*
X100142857Y-22521428D01*
X100085714Y-22369047D01*
X100085714Y-21073809D01*
X99685714Y-21073809D02*
X99000000Y-21073809D01*
X99342857Y-22673809D02*
X99342857Y-21073809D01*
X102142857Y-24640285D02*
X101228571Y-24640285D01*
X101685714Y-25249809D02*
X101685714Y-24030761D01*
X100085714Y-23649809D02*
X100657142Y-23649809D01*
X100714285Y-24411714D01*
X100657142Y-24335523D01*
X100542857Y-24259333D01*
X100257142Y-24259333D01*
X100142857Y-24335523D01*
X100085714Y-24411714D01*
X100028571Y-24564095D01*
X100028571Y-24945047D01*
X100085714Y-25097428D01*
X100142857Y-25173619D01*
X100257142Y-25249809D01*
X100542857Y-25249809D01*
X100657142Y-25173619D01*
X100714285Y-25097428D01*
X99685714Y-23649809D02*
X99285714Y-25249809D01*
X98885714Y-23649809D01*
D12*
X27114285Y-18707809D02*
X27828571Y-18707809D01*
X27828571Y-17107809D01*
X26614285Y-17869714D02*
X26114285Y-17869714D01*
X25900000Y-18707809D02*
X26614285Y-18707809D01*
X26614285Y-17107809D01*
X25900000Y-17107809D01*
X25257142Y-18707809D02*
X25257142Y-17107809D01*
X24900000Y-17107809D01*
X24685714Y-17184000D01*
X24542857Y-17336380D01*
X24471428Y-17488761D01*
X24400000Y-17793523D01*
X24400000Y-18022095D01*
X24471428Y-18326857D01*
X24542857Y-18479238D01*
X24685714Y-18631619D01*
X24900000Y-18707809D01*
X25257142Y-18707809D01*
X26400000Y-21131428D02*
X26471428Y-21207619D01*
X26685714Y-21283809D01*
X26828571Y-21283809D01*
X27042857Y-21207619D01*
X27185714Y-21055238D01*
X27257142Y-20902857D01*
X27328571Y-20598095D01*
X27328571Y-20369523D01*
X27257142Y-20064761D01*
X27185714Y-19912380D01*
X27042857Y-19760000D01*
X26828571Y-19683809D01*
X26685714Y-19683809D01*
X26471428Y-19760000D01*
X26400000Y-19836190D01*
X25828571Y-21207619D02*
X25614285Y-21283809D01*
X25257142Y-21283809D01*
X25114285Y-21207619D01*
X25042857Y-21131428D01*
X24971428Y-20979047D01*
X24971428Y-20826666D01*
X25042857Y-20674285D01*
X25114285Y-20598095D01*
X25257142Y-20521904D01*
X25542857Y-20445714D01*
X25685714Y-20369523D01*
X25757142Y-20293333D01*
X25828571Y-20140952D01*
X25828571Y-19988571D01*
X25757142Y-19836190D01*
X25685714Y-19760000D01*
X25542857Y-19683809D01*
X25185714Y-19683809D01*
X24971428Y-19760000D01*
X27292857Y-23859809D02*
X27292857Y-22259809D01*
X26935714Y-22259809D01*
X26721428Y-22336000D01*
X26578571Y-22488380D01*
X26507142Y-22640761D01*
X26435714Y-22945523D01*
X26435714Y-23174095D01*
X26507142Y-23478857D01*
X26578571Y-23631238D01*
X26721428Y-23783619D01*
X26935714Y-23859809D01*
X27292857Y-23859809D01*
X24935714Y-23707428D02*
X25007142Y-23783619D01*
X25221428Y-23859809D01*
X25364285Y-23859809D01*
X25578571Y-23783619D01*
X25721428Y-23631238D01*
X25792857Y-23478857D01*
X25864285Y-23174095D01*
X25864285Y-22945523D01*
X25792857Y-22640761D01*
X25721428Y-22488380D01*
X25578571Y-22336000D01*
X25364285Y-22259809D01*
X25221428Y-22259809D01*
X25007142Y-22336000D01*
X24935714Y-22412190D01*
X26971428Y-26435809D02*
X27471428Y-25673904D01*
X27828571Y-26435809D02*
X27828571Y-24835809D01*
X27257142Y-24835809D01*
X27114285Y-24912000D01*
X27042857Y-24988190D01*
X26971428Y-25140571D01*
X26971428Y-25369142D01*
X27042857Y-25521523D01*
X27114285Y-25597714D01*
X27257142Y-25673904D01*
X27828571Y-25673904D01*
X26400000Y-26359619D02*
X26185714Y-26435809D01*
X25828571Y-26435809D01*
X25685714Y-26359619D01*
X25614285Y-26283428D01*
X25542857Y-26131047D01*
X25542857Y-25978666D01*
X25614285Y-25826285D01*
X25685714Y-25750095D01*
X25828571Y-25673904D01*
X26114285Y-25597714D01*
X26257142Y-25521523D01*
X26328571Y-25445333D01*
X26400000Y-25292952D01*
X26400000Y-25140571D01*
X26328571Y-24988190D01*
X26257142Y-24912000D01*
X26114285Y-24835809D01*
X25757142Y-24835809D01*
X25542857Y-24912000D01*
X25114285Y-24835809D02*
X24257142Y-24835809D01*
X24685714Y-26435809D02*
X24685714Y-24835809D01*
X28507142Y-29011809D02*
X28507142Y-27411809D01*
X28007142Y-28554666D01*
X27507142Y-27411809D01*
X27507142Y-29011809D01*
X26507142Y-27411809D02*
X26221428Y-27411809D01*
X26078571Y-27488000D01*
X25935714Y-27640380D01*
X25864285Y-27945142D01*
X25864285Y-28478476D01*
X25935714Y-28783238D01*
X26078571Y-28935619D01*
X26221428Y-29011809D01*
X26507142Y-29011809D01*
X26650000Y-28935619D01*
X26792857Y-28783238D01*
X26864285Y-28478476D01*
X26864285Y-27945142D01*
X26792857Y-27640380D01*
X26650000Y-27488000D01*
X26507142Y-27411809D01*
X25292857Y-28935619D02*
X25078571Y-29011809D01*
X24721428Y-29011809D01*
X24578571Y-28935619D01*
X24507142Y-28859428D01*
X24435714Y-28707047D01*
X24435714Y-28554666D01*
X24507142Y-28402285D01*
X24578571Y-28326095D01*
X24721428Y-28249904D01*
X25007142Y-28173714D01*
X25150000Y-28097523D01*
X25221428Y-28021333D01*
X25292857Y-27868952D01*
X25292857Y-27716571D01*
X25221428Y-27564190D01*
X25150000Y-27488000D01*
X25007142Y-27411809D01*
X24650000Y-27411809D01*
X24435714Y-27488000D01*
X23792857Y-29011809D02*
X23792857Y-27411809D01*
X28685714Y-31511619D02*
X28471428Y-31587809D01*
X28114285Y-31587809D01*
X27971428Y-31511619D01*
X27900000Y-31435428D01*
X27828571Y-31283047D01*
X27828571Y-31130666D01*
X27900000Y-30978285D01*
X27971428Y-30902095D01*
X28114285Y-30825904D01*
X28400000Y-30749714D01*
X28542857Y-30673523D01*
X28614285Y-30597333D01*
X28685714Y-30444952D01*
X28685714Y-30292571D01*
X28614285Y-30140190D01*
X28542857Y-30064000D01*
X28400000Y-29987809D01*
X28042857Y-29987809D01*
X27828571Y-30064000D01*
X26328571Y-31435428D02*
X26400000Y-31511619D01*
X26614285Y-31587809D01*
X26757142Y-31587809D01*
X26971428Y-31511619D01*
X27114285Y-31359238D01*
X27185714Y-31206857D01*
X27257142Y-30902095D01*
X27257142Y-30673523D01*
X27185714Y-30368761D01*
X27114285Y-30216380D01*
X26971428Y-30064000D01*
X26757142Y-29987809D01*
X26614285Y-29987809D01*
X26400000Y-30064000D01*
X26328571Y-30140190D01*
X24971428Y-31587809D02*
X25685714Y-31587809D01*
X25685714Y-29987809D01*
X24471428Y-31587809D02*
X24471428Y-29987809D01*
X23614285Y-31587809D02*
X24257142Y-30673523D01*
X23614285Y-29987809D02*
X24471428Y-30902095D01*
X28007142Y-32563809D02*
X27078571Y-32563809D01*
X27578571Y-33173333D01*
X27364285Y-33173333D01*
X27221428Y-33249523D01*
X27150000Y-33325714D01*
X27078571Y-33478095D01*
X27078571Y-33859047D01*
X27150000Y-34011428D01*
X27221428Y-34087619D01*
X27364285Y-34163809D01*
X27792857Y-34163809D01*
X27935714Y-34087619D01*
X28007142Y-34011428D01*
X26650000Y-32563809D02*
X26150000Y-34163809D01*
X25650000Y-32563809D01*
X25292857Y-32563809D02*
X24364285Y-32563809D01*
X24864285Y-33173333D01*
X24650000Y-33173333D01*
X24507142Y-33249523D01*
X24435714Y-33325714D01*
X24364285Y-33478095D01*
X24364285Y-33859047D01*
X24435714Y-34011428D01*
X24507142Y-34087619D01*
X24650000Y-34163809D01*
X25078571Y-34163809D01*
X25221428Y-34087619D01*
X25292857Y-34011428D01*
X27292857Y-35216000D02*
X27435714Y-35139809D01*
X27650000Y-35139809D01*
X27864285Y-35216000D01*
X28007142Y-35368380D01*
X28078571Y-35520761D01*
X28150000Y-35825523D01*
X28150000Y-36054095D01*
X28078571Y-36358857D01*
X28007142Y-36511238D01*
X27864285Y-36663619D01*
X27650000Y-36739809D01*
X27507142Y-36739809D01*
X27292857Y-36663619D01*
X27221428Y-36587428D01*
X27221428Y-36054095D01*
X27507142Y-36054095D01*
X26578571Y-36739809D02*
X26578571Y-35139809D01*
X25721428Y-36739809D01*
X25721428Y-35139809D01*
X25007142Y-36739809D02*
X25007142Y-35139809D01*
X24650000Y-35139809D01*
X24435714Y-35216000D01*
X24292857Y-35368380D01*
X24221428Y-35520761D01*
X24150000Y-35825523D01*
X24150000Y-36054095D01*
X24221428Y-36358857D01*
X24292857Y-36511238D01*
X24435714Y-36663619D01*
X24650000Y-36739809D01*
X25007142Y-36739809D01*
%LPC*%
D13*
%TO.C,SW3*%
X62500000Y7500000D03*
D14*
X60000000Y0D03*
X65000000Y0D03*
X62500000Y0D03*
X60000000Y14500000D03*
X65000000Y14500000D03*
D15*
X57030000Y7500000D03*
X67970000Y7500000D03*
%TD*%
D13*
%TO.C,SW1*%
X2500000Y7500000D03*
D14*
X0Y0D03*
X5000000Y0D03*
X2500000Y0D03*
X0Y14500000D03*
X5000000Y14500000D03*
D15*
X-2970000Y7500000D03*
X7970000Y7500000D03*
%TD*%
D13*
%TO.C,SW2*%
X32500000Y7500000D03*
D14*
X30000000Y0D03*
X35000000Y0D03*
X32500000Y0D03*
X30000000Y14500000D03*
X35000000Y14500000D03*
D15*
X27030000Y7500000D03*
X37970000Y7500000D03*
%TD*%
D13*
%TO.C,SW4*%
X92500000Y7500000D03*
D14*
X90000000Y0D03*
X95000000Y0D03*
X92500000Y0D03*
X90000000Y14500000D03*
X95000000Y14500000D03*
D15*
X87030000Y7500000D03*
X97970000Y7500000D03*
%TD*%
D16*
%TO.C,J4*%
X22000000Y-35700000D03*
D17*
X22000000Y-33160000D03*
X22000000Y-30620000D03*
X22000000Y-28080000D03*
X22000000Y-25540000D03*
X22000000Y-23000000D03*
X22000000Y-20460000D03*
X22000000Y-17920000D03*
%TD*%
D16*
%TO.C,J3*%
X90000000Y-18000000D03*
D17*
X87460000Y-18000000D03*
X90000000Y-20540000D03*
X87460000Y-20540000D03*
X90000000Y-23080000D03*
X87460000Y-23080000D03*
X90000000Y-25620000D03*
X87460000Y-25620000D03*
%TD*%
D16*
%TO.C,J5*%
X4000000Y-18000000D03*
D17*
X6540000Y-18000000D03*
X4000000Y-20540000D03*
X6540000Y-20540000D03*
X4000000Y-23080000D03*
X6540000Y-23080000D03*
X4000000Y-25620000D03*
X6540000Y-25620000D03*
X4000000Y-28160000D03*
X6540000Y-28160000D03*
X4000000Y-30700000D03*
X6540000Y-30700000D03*
X4000000Y-33240000D03*
X6540000Y-33240000D03*
X4000000Y-35780000D03*
X6540000Y-35780000D03*
%TD*%
D16*
%TO.C,J7*%
X97500000Y-19350000D03*
D17*
X97500000Y-21890000D03*
X97500000Y-24430000D03*
%TD*%
D18*
%TO.C,USBC1*%
X44610000Y33690000D03*
X50390000Y33690000D03*
D19*
X51820000Y33190000D03*
D20*
X51820000Y37370000D03*
X43180000Y37370000D03*
D19*
X43180000Y33190000D03*
%TD*%
M02*
