%TF.GenerationSoftware,KiCad,Pcbnew,7.0.1*%
%TF.CreationDate,2023-04-08T17:55:00+02:00*%
%TF.ProjectId,obs-studio-controller,6f62732d-7374-4756-9469-6f2d636f6e74,rev?*%
%TF.SameCoordinates,Original*%
%TF.FileFunction,Legend,Top*%
%TF.FilePolarity,Positive*%
%FSLAX46Y46*%
G04 Gerber Fmt 4.6, Leading zero omitted, Abs format (unit mm)*
G04 Created by KiCad (PCBNEW 7.0.1) date 2023-04-08 17:55:00*
%MOMM*%
%LPD*%
G01*
G04 APERTURE LIST*
G04 Aperture macros list*
%AMRoundRect*
0 Rectangle with rounded corners*
0 $1 Rounding radius*
0 $2 $3 $4 $5 $6 $7 $8 $9 X,Y pos of 4 corners*
0 Add a 4 corners polygon primitive as box body*
4,1,4,$2,$3,$4,$5,$6,$7,$8,$9,$2,$3,0*
0 Add four circle primitives for the rounded corners*
1,1,$1+$1,$2,$3*
1,1,$1+$1,$4,$5*
1,1,$1+$1,$6,$7*
1,1,$1+$1,$8,$9*
0 Add four rect primitives between the rounded corners*
20,1,$1+$1,$2,$3,$4,$5,0*
20,1,$1+$1,$4,$5,$6,$7,0*
20,1,$1+$1,$6,$7,$8,$9,0*
20,1,$1+$1,$8,$9,$2,$3,0*%
G04 Aperture macros list end*
%ADD10C,0.200000*%
%ADD11C,0.150000*%
%ADD12C,0.300000*%
%ADD13C,0.120000*%
%ADD14C,0.250000*%
%ADD15RoundRect,0.150000X-0.150000X0.825000X-0.150000X-0.825000X0.150000X-0.825000X0.150000X0.825000X0*%
%ADD16RoundRect,0.135000X-0.185000X0.135000X-0.185000X-0.135000X0.185000X-0.135000X0.185000X0.135000X0*%
%ADD17RoundRect,0.150000X-0.587500X-0.150000X0.587500X-0.150000X0.587500X0.150000X-0.587500X0.150000X0*%
%ADD18C,2.100000*%
%ADD19C,1.800000*%
%ADD20O,2.300000X4.000000*%
%ADD21R,0.650000X1.220000*%
%ADD22RoundRect,0.218750X0.218750X0.256250X-0.218750X0.256250X-0.218750X-0.256250X0.218750X-0.256250X0*%
%ADD23RoundRect,0.150000X-0.512500X-0.150000X0.512500X-0.150000X0.512500X0.150000X-0.512500X0.150000X0*%
%ADD24RoundRect,0.135000X0.185000X-0.135000X0.185000X0.135000X-0.185000X0.135000X-0.185000X-0.135000X0*%
%ADD25RoundRect,0.140000X0.140000X0.170000X-0.140000X0.170000X-0.140000X-0.170000X0.140000X-0.170000X0*%
%ADD26RoundRect,0.200000X-0.200000X-0.275000X0.200000X-0.275000X0.200000X0.275000X-0.200000X0.275000X0*%
%ADD27RoundRect,0.135000X0.135000X0.185000X-0.135000X0.185000X-0.135000X-0.185000X0.135000X-0.185000X0*%
%ADD28R,1.500000X2.000000*%
%ADD29R,3.800000X2.000000*%
%ADD30RoundRect,0.135000X-0.135000X-0.185000X0.135000X-0.185000X0.135000X0.185000X-0.135000X0.185000X0*%
%ADD31RoundRect,0.218750X-0.218750X-0.256250X0.218750X-0.256250X0.218750X0.256250X-0.218750X0.256250X0*%
%ADD32RoundRect,0.225000X-0.250000X0.225000X-0.250000X-0.225000X0.250000X-0.225000X0.250000X0.225000X0*%
%ADD33RoundRect,0.225000X0.225000X0.250000X-0.225000X0.250000X-0.225000X-0.250000X0.225000X-0.250000X0*%
%ADD34RoundRect,0.225000X0.250000X-0.225000X0.250000X0.225000X-0.250000X0.225000X-0.250000X-0.225000X0*%
%ADD35R,1.700000X1.700000*%
%ADD36O,1.700000X1.700000*%
%ADD37RoundRect,0.140000X0.170000X-0.140000X0.170000X0.140000X-0.170000X0.140000X-0.170000X-0.140000X0*%
%ADD38R,1.500000X0.900000*%
%ADD39R,0.900000X1.500000*%
%ADD40C,0.475000*%
%ADD41R,4.200000X4.200000*%
%ADD42C,0.650000*%
%ADD43O,1.000000X2.100000*%
%ADD44O,1.000000X1.800000*%
%ADD45R,0.600000X1.150000*%
%ADD46R,0.300000X1.150000*%
%ADD47RoundRect,0.140000X-0.140000X-0.170000X0.140000X-0.170000X0.140000X0.170000X-0.140000X0.170000X0*%
%ADD48RoundRect,0.225000X-0.225000X-0.250000X0.225000X-0.250000X0.225000X0.250000X-0.225000X0.250000X0*%
G04 APERTURE END LIST*
D10*
X18760714Y-73903142D02*
X18760714Y-72703142D01*
X19275000Y-73903142D02*
X19275000Y-73274571D01*
X19275000Y-73274571D02*
X19217857Y-73160285D01*
X19217857Y-73160285D02*
X19103571Y-73103142D01*
X19103571Y-73103142D02*
X18932142Y-73103142D01*
X18932142Y-73103142D02*
X18817857Y-73160285D01*
X18817857Y-73160285D02*
X18760714Y-73217428D01*
X19674999Y-73103142D02*
X20132142Y-73103142D01*
X19846428Y-72703142D02*
X19846428Y-73731714D01*
X19846428Y-73731714D02*
X19903571Y-73846000D01*
X19903571Y-73846000D02*
X20017856Y-73903142D01*
X20017856Y-73903142D02*
X20132142Y-73903142D01*
X20360713Y-73103142D02*
X20817856Y-73103142D01*
X20532142Y-72703142D02*
X20532142Y-73731714D01*
X20532142Y-73731714D02*
X20589285Y-73846000D01*
X20589285Y-73846000D02*
X20703570Y-73903142D01*
X20703570Y-73903142D02*
X20817856Y-73903142D01*
X21217856Y-73103142D02*
X21217856Y-74303142D01*
X21217856Y-73160285D02*
X21332142Y-73103142D01*
X21332142Y-73103142D02*
X21560713Y-73103142D01*
X21560713Y-73103142D02*
X21674999Y-73160285D01*
X21674999Y-73160285D02*
X21732142Y-73217428D01*
X21732142Y-73217428D02*
X21789284Y-73331714D01*
X21789284Y-73331714D02*
X21789284Y-73674571D01*
X21789284Y-73674571D02*
X21732142Y-73788857D01*
X21732142Y-73788857D02*
X21674999Y-73846000D01*
X21674999Y-73846000D02*
X21560713Y-73903142D01*
X21560713Y-73903142D02*
X21332142Y-73903142D01*
X21332142Y-73903142D02*
X21217856Y-73846000D01*
X22246427Y-73846000D02*
X22360713Y-73903142D01*
X22360713Y-73903142D02*
X22589284Y-73903142D01*
X22589284Y-73903142D02*
X22703570Y-73846000D01*
X22703570Y-73846000D02*
X22760713Y-73731714D01*
X22760713Y-73731714D02*
X22760713Y-73674571D01*
X22760713Y-73674571D02*
X22703570Y-73560285D01*
X22703570Y-73560285D02*
X22589284Y-73503142D01*
X22589284Y-73503142D02*
X22417856Y-73503142D01*
X22417856Y-73503142D02*
X22303570Y-73446000D01*
X22303570Y-73446000D02*
X22246427Y-73331714D01*
X22246427Y-73331714D02*
X22246427Y-73274571D01*
X22246427Y-73274571D02*
X22303570Y-73160285D01*
X22303570Y-73160285D02*
X22417856Y-73103142D01*
X22417856Y-73103142D02*
X22589284Y-73103142D01*
X22589284Y-73103142D02*
X22703570Y-73160285D01*
X23274999Y-73788857D02*
X23332142Y-73846000D01*
X23332142Y-73846000D02*
X23274999Y-73903142D01*
X23274999Y-73903142D02*
X23217856Y-73846000D01*
X23217856Y-73846000D02*
X23274999Y-73788857D01*
X23274999Y-73788857D02*
X23274999Y-73903142D01*
X23274999Y-73160285D02*
X23332142Y-73217428D01*
X23332142Y-73217428D02*
X23274999Y-73274571D01*
X23274999Y-73274571D02*
X23217856Y-73217428D01*
X23217856Y-73217428D02*
X23274999Y-73160285D01*
X23274999Y-73160285D02*
X23274999Y-73274571D01*
X24703571Y-72646000D02*
X23674999Y-74188857D01*
X25960714Y-72646000D02*
X24932142Y-74188857D01*
X26875000Y-73103142D02*
X26875000Y-74074571D01*
X26875000Y-74074571D02*
X26817857Y-74188857D01*
X26817857Y-74188857D02*
X26760714Y-74246000D01*
X26760714Y-74246000D02*
X26646428Y-74303142D01*
X26646428Y-74303142D02*
X26475000Y-74303142D01*
X26475000Y-74303142D02*
X26360714Y-74246000D01*
X26875000Y-73846000D02*
X26760714Y-73903142D01*
X26760714Y-73903142D02*
X26532142Y-73903142D01*
X26532142Y-73903142D02*
X26417857Y-73846000D01*
X26417857Y-73846000D02*
X26360714Y-73788857D01*
X26360714Y-73788857D02*
X26303571Y-73674571D01*
X26303571Y-73674571D02*
X26303571Y-73331714D01*
X26303571Y-73331714D02*
X26360714Y-73217428D01*
X26360714Y-73217428D02*
X26417857Y-73160285D01*
X26417857Y-73160285D02*
X26532142Y-73103142D01*
X26532142Y-73103142D02*
X26760714Y-73103142D01*
X26760714Y-73103142D02*
X26875000Y-73160285D01*
X27446428Y-73903142D02*
X27446428Y-73103142D01*
X27446428Y-72703142D02*
X27389285Y-72760285D01*
X27389285Y-72760285D02*
X27446428Y-72817428D01*
X27446428Y-72817428D02*
X27503571Y-72760285D01*
X27503571Y-72760285D02*
X27446428Y-72703142D01*
X27446428Y-72703142D02*
X27446428Y-72817428D01*
X27846428Y-73103142D02*
X28303571Y-73103142D01*
X28017857Y-72703142D02*
X28017857Y-73731714D01*
X28017857Y-73731714D02*
X28075000Y-73846000D01*
X28075000Y-73846000D02*
X28189285Y-73903142D01*
X28189285Y-73903142D02*
X28303571Y-73903142D01*
X28703571Y-73903142D02*
X28703571Y-72703142D01*
X29217857Y-73903142D02*
X29217857Y-73274571D01*
X29217857Y-73274571D02*
X29160714Y-73160285D01*
X29160714Y-73160285D02*
X29046428Y-73103142D01*
X29046428Y-73103142D02*
X28874999Y-73103142D01*
X28874999Y-73103142D02*
X28760714Y-73160285D01*
X28760714Y-73160285D02*
X28703571Y-73217428D01*
X30303571Y-73103142D02*
X30303571Y-73903142D01*
X29789285Y-73103142D02*
X29789285Y-73731714D01*
X29789285Y-73731714D02*
X29846428Y-73846000D01*
X29846428Y-73846000D02*
X29960713Y-73903142D01*
X29960713Y-73903142D02*
X30132142Y-73903142D01*
X30132142Y-73903142D02*
X30246428Y-73846000D01*
X30246428Y-73846000D02*
X30303571Y-73788857D01*
X30874999Y-73903142D02*
X30874999Y-72703142D01*
X30874999Y-73160285D02*
X30989285Y-73103142D01*
X30989285Y-73103142D02*
X31217856Y-73103142D01*
X31217856Y-73103142D02*
X31332142Y-73160285D01*
X31332142Y-73160285D02*
X31389285Y-73217428D01*
X31389285Y-73217428D02*
X31446427Y-73331714D01*
X31446427Y-73331714D02*
X31446427Y-73674571D01*
X31446427Y-73674571D02*
X31389285Y-73788857D01*
X31389285Y-73788857D02*
X31332142Y-73846000D01*
X31332142Y-73846000D02*
X31217856Y-73903142D01*
X31217856Y-73903142D02*
X30989285Y-73903142D01*
X30989285Y-73903142D02*
X30874999Y-73846000D01*
X31960713Y-73788857D02*
X32017856Y-73846000D01*
X32017856Y-73846000D02*
X31960713Y-73903142D01*
X31960713Y-73903142D02*
X31903570Y-73846000D01*
X31903570Y-73846000D02*
X31960713Y-73788857D01*
X31960713Y-73788857D02*
X31960713Y-73903142D01*
X33046428Y-73846000D02*
X32932142Y-73903142D01*
X32932142Y-73903142D02*
X32703570Y-73903142D01*
X32703570Y-73903142D02*
X32589285Y-73846000D01*
X32589285Y-73846000D02*
X32532142Y-73788857D01*
X32532142Y-73788857D02*
X32474999Y-73674571D01*
X32474999Y-73674571D02*
X32474999Y-73331714D01*
X32474999Y-73331714D02*
X32532142Y-73217428D01*
X32532142Y-73217428D02*
X32589285Y-73160285D01*
X32589285Y-73160285D02*
X32703570Y-73103142D01*
X32703570Y-73103142D02*
X32932142Y-73103142D01*
X32932142Y-73103142D02*
X33046428Y-73160285D01*
X33732141Y-73903142D02*
X33617856Y-73846000D01*
X33617856Y-73846000D02*
X33560713Y-73788857D01*
X33560713Y-73788857D02*
X33503570Y-73674571D01*
X33503570Y-73674571D02*
X33503570Y-73331714D01*
X33503570Y-73331714D02*
X33560713Y-73217428D01*
X33560713Y-73217428D02*
X33617856Y-73160285D01*
X33617856Y-73160285D02*
X33732141Y-73103142D01*
X33732141Y-73103142D02*
X33903570Y-73103142D01*
X33903570Y-73103142D02*
X34017856Y-73160285D01*
X34017856Y-73160285D02*
X34074999Y-73217428D01*
X34074999Y-73217428D02*
X34132141Y-73331714D01*
X34132141Y-73331714D02*
X34132141Y-73674571D01*
X34132141Y-73674571D02*
X34074999Y-73788857D01*
X34074999Y-73788857D02*
X34017856Y-73846000D01*
X34017856Y-73846000D02*
X33903570Y-73903142D01*
X33903570Y-73903142D02*
X33732141Y-73903142D01*
X34646427Y-73903142D02*
X34646427Y-73103142D01*
X34646427Y-73217428D02*
X34703570Y-73160285D01*
X34703570Y-73160285D02*
X34817855Y-73103142D01*
X34817855Y-73103142D02*
X34989284Y-73103142D01*
X34989284Y-73103142D02*
X35103570Y-73160285D01*
X35103570Y-73160285D02*
X35160713Y-73274571D01*
X35160713Y-73274571D02*
X35160713Y-73903142D01*
X35160713Y-73274571D02*
X35217855Y-73160285D01*
X35217855Y-73160285D02*
X35332141Y-73103142D01*
X35332141Y-73103142D02*
X35503570Y-73103142D01*
X35503570Y-73103142D02*
X35617855Y-73160285D01*
X35617855Y-73160285D02*
X35674998Y-73274571D01*
X35674998Y-73274571D02*
X35674998Y-73903142D01*
X37103570Y-72646000D02*
X36074998Y-74188857D01*
X38189284Y-73788857D02*
X38132141Y-73846000D01*
X38132141Y-73846000D02*
X37960713Y-73903142D01*
X37960713Y-73903142D02*
X37846427Y-73903142D01*
X37846427Y-73903142D02*
X37674998Y-73846000D01*
X37674998Y-73846000D02*
X37560713Y-73731714D01*
X37560713Y-73731714D02*
X37503570Y-73617428D01*
X37503570Y-73617428D02*
X37446427Y-73388857D01*
X37446427Y-73388857D02*
X37446427Y-73217428D01*
X37446427Y-73217428D02*
X37503570Y-72988857D01*
X37503570Y-72988857D02*
X37560713Y-72874571D01*
X37560713Y-72874571D02*
X37674998Y-72760285D01*
X37674998Y-72760285D02*
X37846427Y-72703142D01*
X37846427Y-72703142D02*
X37960713Y-72703142D01*
X37960713Y-72703142D02*
X38132141Y-72760285D01*
X38132141Y-72760285D02*
X38189284Y-72817428D01*
X38874998Y-73903142D02*
X38760713Y-73846000D01*
X38760713Y-73846000D02*
X38703570Y-73788857D01*
X38703570Y-73788857D02*
X38646427Y-73674571D01*
X38646427Y-73674571D02*
X38646427Y-73331714D01*
X38646427Y-73331714D02*
X38703570Y-73217428D01*
X38703570Y-73217428D02*
X38760713Y-73160285D01*
X38760713Y-73160285D02*
X38874998Y-73103142D01*
X38874998Y-73103142D02*
X39046427Y-73103142D01*
X39046427Y-73103142D02*
X39160713Y-73160285D01*
X39160713Y-73160285D02*
X39217856Y-73217428D01*
X39217856Y-73217428D02*
X39274998Y-73331714D01*
X39274998Y-73331714D02*
X39274998Y-73674571D01*
X39274998Y-73674571D02*
X39217856Y-73788857D01*
X39217856Y-73788857D02*
X39160713Y-73846000D01*
X39160713Y-73846000D02*
X39046427Y-73903142D01*
X39046427Y-73903142D02*
X38874998Y-73903142D01*
X39789284Y-73903142D02*
X39789284Y-73103142D01*
X39789284Y-73217428D02*
X39846427Y-73160285D01*
X39846427Y-73160285D02*
X39960712Y-73103142D01*
X39960712Y-73103142D02*
X40132141Y-73103142D01*
X40132141Y-73103142D02*
X40246427Y-73160285D01*
X40246427Y-73160285D02*
X40303570Y-73274571D01*
X40303570Y-73274571D02*
X40303570Y-73903142D01*
X40303570Y-73274571D02*
X40360712Y-73160285D01*
X40360712Y-73160285D02*
X40474998Y-73103142D01*
X40474998Y-73103142D02*
X40646427Y-73103142D01*
X40646427Y-73103142D02*
X40760712Y-73160285D01*
X40760712Y-73160285D02*
X40817855Y-73274571D01*
X40817855Y-73274571D02*
X40817855Y-73903142D01*
X41389284Y-73903142D02*
X41389284Y-73103142D01*
X41389284Y-73217428D02*
X41446427Y-73160285D01*
X41446427Y-73160285D02*
X41560712Y-73103142D01*
X41560712Y-73103142D02*
X41732141Y-73103142D01*
X41732141Y-73103142D02*
X41846427Y-73160285D01*
X41846427Y-73160285D02*
X41903570Y-73274571D01*
X41903570Y-73274571D02*
X41903570Y-73903142D01*
X41903570Y-73274571D02*
X41960712Y-73160285D01*
X41960712Y-73160285D02*
X42074998Y-73103142D01*
X42074998Y-73103142D02*
X42246427Y-73103142D01*
X42246427Y-73103142D02*
X42360712Y-73160285D01*
X42360712Y-73160285D02*
X42417855Y-73274571D01*
X42417855Y-73274571D02*
X42417855Y-73903142D01*
X43503570Y-73903142D02*
X43503570Y-73274571D01*
X43503570Y-73274571D02*
X43446427Y-73160285D01*
X43446427Y-73160285D02*
X43332141Y-73103142D01*
X43332141Y-73103142D02*
X43103570Y-73103142D01*
X43103570Y-73103142D02*
X42989284Y-73160285D01*
X43503570Y-73846000D02*
X43389284Y-73903142D01*
X43389284Y-73903142D02*
X43103570Y-73903142D01*
X43103570Y-73903142D02*
X42989284Y-73846000D01*
X42989284Y-73846000D02*
X42932141Y-73731714D01*
X42932141Y-73731714D02*
X42932141Y-73617428D01*
X42932141Y-73617428D02*
X42989284Y-73503142D01*
X42989284Y-73503142D02*
X43103570Y-73446000D01*
X43103570Y-73446000D02*
X43389284Y-73446000D01*
X43389284Y-73446000D02*
X43503570Y-73388857D01*
X44074998Y-73103142D02*
X44074998Y-73903142D01*
X44074998Y-73217428D02*
X44132141Y-73160285D01*
X44132141Y-73160285D02*
X44246426Y-73103142D01*
X44246426Y-73103142D02*
X44417855Y-73103142D01*
X44417855Y-73103142D02*
X44532141Y-73160285D01*
X44532141Y-73160285D02*
X44589284Y-73274571D01*
X44589284Y-73274571D02*
X44589284Y-73903142D01*
X45674998Y-73903142D02*
X45674998Y-72703142D01*
X45674998Y-73846000D02*
X45560712Y-73903142D01*
X45560712Y-73903142D02*
X45332140Y-73903142D01*
X45332140Y-73903142D02*
X45217855Y-73846000D01*
X45217855Y-73846000D02*
X45160712Y-73788857D01*
X45160712Y-73788857D02*
X45103569Y-73674571D01*
X45103569Y-73674571D02*
X45103569Y-73331714D01*
X45103569Y-73331714D02*
X45160712Y-73217428D01*
X45160712Y-73217428D02*
X45217855Y-73160285D01*
X45217855Y-73160285D02*
X45332140Y-73103142D01*
X45332140Y-73103142D02*
X45560712Y-73103142D01*
X45560712Y-73103142D02*
X45674998Y-73160285D01*
X46703569Y-73846000D02*
X46589283Y-73903142D01*
X46589283Y-73903142D02*
X46360712Y-73903142D01*
X46360712Y-73903142D02*
X46246426Y-73846000D01*
X46246426Y-73846000D02*
X46189283Y-73731714D01*
X46189283Y-73731714D02*
X46189283Y-73274571D01*
X46189283Y-73274571D02*
X46246426Y-73160285D01*
X46246426Y-73160285D02*
X46360712Y-73103142D01*
X46360712Y-73103142D02*
X46589283Y-73103142D01*
X46589283Y-73103142D02*
X46703569Y-73160285D01*
X46703569Y-73160285D02*
X46760712Y-73274571D01*
X46760712Y-73274571D02*
X46760712Y-73388857D01*
X46760712Y-73388857D02*
X46189283Y-73503142D01*
X47274997Y-73903142D02*
X47274997Y-73103142D01*
X47274997Y-73331714D02*
X47332140Y-73217428D01*
X47332140Y-73217428D02*
X47389283Y-73160285D01*
X47389283Y-73160285D02*
X47503568Y-73103142D01*
X47503568Y-73103142D02*
X47617854Y-73103142D01*
X48703568Y-73903142D02*
X48303568Y-73331714D01*
X48017854Y-73903142D02*
X48017854Y-72703142D01*
X48017854Y-72703142D02*
X48474997Y-72703142D01*
X48474997Y-72703142D02*
X48589282Y-72760285D01*
X48589282Y-72760285D02*
X48646425Y-72817428D01*
X48646425Y-72817428D02*
X48703568Y-72931714D01*
X48703568Y-72931714D02*
X48703568Y-73103142D01*
X48703568Y-73103142D02*
X48646425Y-73217428D01*
X48646425Y-73217428D02*
X48589282Y-73274571D01*
X48589282Y-73274571D02*
X48474997Y-73331714D01*
X48474997Y-73331714D02*
X48017854Y-73331714D01*
X49674997Y-73846000D02*
X49560711Y-73903142D01*
X49560711Y-73903142D02*
X49332140Y-73903142D01*
X49332140Y-73903142D02*
X49217854Y-73846000D01*
X49217854Y-73846000D02*
X49160711Y-73731714D01*
X49160711Y-73731714D02*
X49160711Y-73274571D01*
X49160711Y-73274571D02*
X49217854Y-73160285D01*
X49217854Y-73160285D02*
X49332140Y-73103142D01*
X49332140Y-73103142D02*
X49560711Y-73103142D01*
X49560711Y-73103142D02*
X49674997Y-73160285D01*
X49674997Y-73160285D02*
X49732140Y-73274571D01*
X49732140Y-73274571D02*
X49732140Y-73388857D01*
X49732140Y-73388857D02*
X49160711Y-73503142D01*
X50760711Y-73903142D02*
X50760711Y-72703142D01*
X50760711Y-73846000D02*
X50646425Y-73903142D01*
X50646425Y-73903142D02*
X50417853Y-73903142D01*
X50417853Y-73903142D02*
X50303568Y-73846000D01*
X50303568Y-73846000D02*
X50246425Y-73788857D01*
X50246425Y-73788857D02*
X50189282Y-73674571D01*
X50189282Y-73674571D02*
X50189282Y-73331714D01*
X50189282Y-73331714D02*
X50246425Y-73217428D01*
X50246425Y-73217428D02*
X50303568Y-73160285D01*
X50303568Y-73160285D02*
X50417853Y-73103142D01*
X50417853Y-73103142D02*
X50646425Y-73103142D01*
X50646425Y-73103142D02*
X50760711Y-73160285D01*
X51560710Y-73331714D02*
X51560710Y-73903142D01*
X51160710Y-72703142D02*
X51560710Y-73331714D01*
X51560710Y-73331714D02*
X51960710Y-72703142D01*
X52189281Y-72703142D02*
X52874996Y-72703142D01*
X52532138Y-73903142D02*
X52532138Y-72703142D01*
X54132139Y-72646000D02*
X53103567Y-74188857D01*
X54703567Y-73903142D02*
X54589282Y-73846000D01*
X54589282Y-73846000D02*
X54532139Y-73788857D01*
X54532139Y-73788857D02*
X54474996Y-73674571D01*
X54474996Y-73674571D02*
X54474996Y-73331714D01*
X54474996Y-73331714D02*
X54532139Y-73217428D01*
X54532139Y-73217428D02*
X54589282Y-73160285D01*
X54589282Y-73160285D02*
X54703567Y-73103142D01*
X54703567Y-73103142D02*
X54874996Y-73103142D01*
X54874996Y-73103142D02*
X54989282Y-73160285D01*
X54989282Y-73160285D02*
X55046425Y-73217428D01*
X55046425Y-73217428D02*
X55103567Y-73331714D01*
X55103567Y-73331714D02*
X55103567Y-73674571D01*
X55103567Y-73674571D02*
X55046425Y-73788857D01*
X55046425Y-73788857D02*
X54989282Y-73846000D01*
X54989282Y-73846000D02*
X54874996Y-73903142D01*
X54874996Y-73903142D02*
X54703567Y-73903142D01*
X55617853Y-73903142D02*
X55617853Y-72703142D01*
X55617853Y-73160285D02*
X55732139Y-73103142D01*
X55732139Y-73103142D02*
X55960710Y-73103142D01*
X55960710Y-73103142D02*
X56074996Y-73160285D01*
X56074996Y-73160285D02*
X56132139Y-73217428D01*
X56132139Y-73217428D02*
X56189281Y-73331714D01*
X56189281Y-73331714D02*
X56189281Y-73674571D01*
X56189281Y-73674571D02*
X56132139Y-73788857D01*
X56132139Y-73788857D02*
X56074996Y-73846000D01*
X56074996Y-73846000D02*
X55960710Y-73903142D01*
X55960710Y-73903142D02*
X55732139Y-73903142D01*
X55732139Y-73903142D02*
X55617853Y-73846000D01*
X56646424Y-73846000D02*
X56760710Y-73903142D01*
X56760710Y-73903142D02*
X56989281Y-73903142D01*
X56989281Y-73903142D02*
X57103567Y-73846000D01*
X57103567Y-73846000D02*
X57160710Y-73731714D01*
X57160710Y-73731714D02*
X57160710Y-73674571D01*
X57160710Y-73674571D02*
X57103567Y-73560285D01*
X57103567Y-73560285D02*
X56989281Y-73503142D01*
X56989281Y-73503142D02*
X56817853Y-73503142D01*
X56817853Y-73503142D02*
X56703567Y-73446000D01*
X56703567Y-73446000D02*
X56646424Y-73331714D01*
X56646424Y-73331714D02*
X56646424Y-73274571D01*
X56646424Y-73274571D02*
X56703567Y-73160285D01*
X56703567Y-73160285D02*
X56817853Y-73103142D01*
X56817853Y-73103142D02*
X56989281Y-73103142D01*
X56989281Y-73103142D02*
X57103567Y-73160285D01*
X57674996Y-73446000D02*
X58589282Y-73446000D01*
X59103567Y-73846000D02*
X59217853Y-73903142D01*
X59217853Y-73903142D02*
X59446424Y-73903142D01*
X59446424Y-73903142D02*
X59560710Y-73846000D01*
X59560710Y-73846000D02*
X59617853Y-73731714D01*
X59617853Y-73731714D02*
X59617853Y-73674571D01*
X59617853Y-73674571D02*
X59560710Y-73560285D01*
X59560710Y-73560285D02*
X59446424Y-73503142D01*
X59446424Y-73503142D02*
X59274996Y-73503142D01*
X59274996Y-73503142D02*
X59160710Y-73446000D01*
X59160710Y-73446000D02*
X59103567Y-73331714D01*
X59103567Y-73331714D02*
X59103567Y-73274571D01*
X59103567Y-73274571D02*
X59160710Y-73160285D01*
X59160710Y-73160285D02*
X59274996Y-73103142D01*
X59274996Y-73103142D02*
X59446424Y-73103142D01*
X59446424Y-73103142D02*
X59560710Y-73160285D01*
X59960710Y-73103142D02*
X60417853Y-73103142D01*
X60132139Y-72703142D02*
X60132139Y-73731714D01*
X60132139Y-73731714D02*
X60189282Y-73846000D01*
X60189282Y-73846000D02*
X60303567Y-73903142D01*
X60303567Y-73903142D02*
X60417853Y-73903142D01*
X61332139Y-73103142D02*
X61332139Y-73903142D01*
X60817853Y-73103142D02*
X60817853Y-73731714D01*
X60817853Y-73731714D02*
X60874996Y-73846000D01*
X60874996Y-73846000D02*
X60989281Y-73903142D01*
X60989281Y-73903142D02*
X61160710Y-73903142D01*
X61160710Y-73903142D02*
X61274996Y-73846000D01*
X61274996Y-73846000D02*
X61332139Y-73788857D01*
X62417853Y-73903142D02*
X62417853Y-72703142D01*
X62417853Y-73846000D02*
X62303567Y-73903142D01*
X62303567Y-73903142D02*
X62074995Y-73903142D01*
X62074995Y-73903142D02*
X61960710Y-73846000D01*
X61960710Y-73846000D02*
X61903567Y-73788857D01*
X61903567Y-73788857D02*
X61846424Y-73674571D01*
X61846424Y-73674571D02*
X61846424Y-73331714D01*
X61846424Y-73331714D02*
X61903567Y-73217428D01*
X61903567Y-73217428D02*
X61960710Y-73160285D01*
X61960710Y-73160285D02*
X62074995Y-73103142D01*
X62074995Y-73103142D02*
X62303567Y-73103142D01*
X62303567Y-73103142D02*
X62417853Y-73160285D01*
X62989281Y-73903142D02*
X62989281Y-73103142D01*
X62989281Y-72703142D02*
X62932138Y-72760285D01*
X62932138Y-72760285D02*
X62989281Y-72817428D01*
X62989281Y-72817428D02*
X63046424Y-72760285D01*
X63046424Y-72760285D02*
X62989281Y-72703142D01*
X62989281Y-72703142D02*
X62989281Y-72817428D01*
X63732138Y-73903142D02*
X63617853Y-73846000D01*
X63617853Y-73846000D02*
X63560710Y-73788857D01*
X63560710Y-73788857D02*
X63503567Y-73674571D01*
X63503567Y-73674571D02*
X63503567Y-73331714D01*
X63503567Y-73331714D02*
X63560710Y-73217428D01*
X63560710Y-73217428D02*
X63617853Y-73160285D01*
X63617853Y-73160285D02*
X63732138Y-73103142D01*
X63732138Y-73103142D02*
X63903567Y-73103142D01*
X63903567Y-73103142D02*
X64017853Y-73160285D01*
X64017853Y-73160285D02*
X64074996Y-73217428D01*
X64074996Y-73217428D02*
X64132138Y-73331714D01*
X64132138Y-73331714D02*
X64132138Y-73674571D01*
X64132138Y-73674571D02*
X64074996Y-73788857D01*
X64074996Y-73788857D02*
X64017853Y-73846000D01*
X64017853Y-73846000D02*
X63903567Y-73903142D01*
X63903567Y-73903142D02*
X63732138Y-73903142D01*
X64646424Y-73446000D02*
X65560710Y-73446000D01*
X66646424Y-73846000D02*
X66532138Y-73903142D01*
X66532138Y-73903142D02*
X66303566Y-73903142D01*
X66303566Y-73903142D02*
X66189281Y-73846000D01*
X66189281Y-73846000D02*
X66132138Y-73788857D01*
X66132138Y-73788857D02*
X66074995Y-73674571D01*
X66074995Y-73674571D02*
X66074995Y-73331714D01*
X66074995Y-73331714D02*
X66132138Y-73217428D01*
X66132138Y-73217428D02*
X66189281Y-73160285D01*
X66189281Y-73160285D02*
X66303566Y-73103142D01*
X66303566Y-73103142D02*
X66532138Y-73103142D01*
X66532138Y-73103142D02*
X66646424Y-73160285D01*
X67332137Y-73903142D02*
X67217852Y-73846000D01*
X67217852Y-73846000D02*
X67160709Y-73788857D01*
X67160709Y-73788857D02*
X67103566Y-73674571D01*
X67103566Y-73674571D02*
X67103566Y-73331714D01*
X67103566Y-73331714D02*
X67160709Y-73217428D01*
X67160709Y-73217428D02*
X67217852Y-73160285D01*
X67217852Y-73160285D02*
X67332137Y-73103142D01*
X67332137Y-73103142D02*
X67503566Y-73103142D01*
X67503566Y-73103142D02*
X67617852Y-73160285D01*
X67617852Y-73160285D02*
X67674995Y-73217428D01*
X67674995Y-73217428D02*
X67732137Y-73331714D01*
X67732137Y-73331714D02*
X67732137Y-73674571D01*
X67732137Y-73674571D02*
X67674995Y-73788857D01*
X67674995Y-73788857D02*
X67617852Y-73846000D01*
X67617852Y-73846000D02*
X67503566Y-73903142D01*
X67503566Y-73903142D02*
X67332137Y-73903142D01*
X68246423Y-73103142D02*
X68246423Y-73903142D01*
X68246423Y-73217428D02*
X68303566Y-73160285D01*
X68303566Y-73160285D02*
X68417851Y-73103142D01*
X68417851Y-73103142D02*
X68589280Y-73103142D01*
X68589280Y-73103142D02*
X68703566Y-73160285D01*
X68703566Y-73160285D02*
X68760709Y-73274571D01*
X68760709Y-73274571D02*
X68760709Y-73903142D01*
X69160708Y-73103142D02*
X69617851Y-73103142D01*
X69332137Y-72703142D02*
X69332137Y-73731714D01*
X69332137Y-73731714D02*
X69389280Y-73846000D01*
X69389280Y-73846000D02*
X69503565Y-73903142D01*
X69503565Y-73903142D02*
X69617851Y-73903142D01*
X70017851Y-73903142D02*
X70017851Y-73103142D01*
X70017851Y-73331714D02*
X70074994Y-73217428D01*
X70074994Y-73217428D02*
X70132137Y-73160285D01*
X70132137Y-73160285D02*
X70246422Y-73103142D01*
X70246422Y-73103142D02*
X70360708Y-73103142D01*
X70932136Y-73903142D02*
X70817851Y-73846000D01*
X70817851Y-73846000D02*
X70760708Y-73788857D01*
X70760708Y-73788857D02*
X70703565Y-73674571D01*
X70703565Y-73674571D02*
X70703565Y-73331714D01*
X70703565Y-73331714D02*
X70760708Y-73217428D01*
X70760708Y-73217428D02*
X70817851Y-73160285D01*
X70817851Y-73160285D02*
X70932136Y-73103142D01*
X70932136Y-73103142D02*
X71103565Y-73103142D01*
X71103565Y-73103142D02*
X71217851Y-73160285D01*
X71217851Y-73160285D02*
X71274994Y-73217428D01*
X71274994Y-73217428D02*
X71332136Y-73331714D01*
X71332136Y-73331714D02*
X71332136Y-73674571D01*
X71332136Y-73674571D02*
X71274994Y-73788857D01*
X71274994Y-73788857D02*
X71217851Y-73846000D01*
X71217851Y-73846000D02*
X71103565Y-73903142D01*
X71103565Y-73903142D02*
X70932136Y-73903142D01*
X72017850Y-73903142D02*
X71903565Y-73846000D01*
X71903565Y-73846000D02*
X71846422Y-73731714D01*
X71846422Y-73731714D02*
X71846422Y-72703142D01*
X72646421Y-73903142D02*
X72532136Y-73846000D01*
X72532136Y-73846000D02*
X72474993Y-73731714D01*
X72474993Y-73731714D02*
X72474993Y-72703142D01*
X73560707Y-73846000D02*
X73446421Y-73903142D01*
X73446421Y-73903142D02*
X73217850Y-73903142D01*
X73217850Y-73903142D02*
X73103564Y-73846000D01*
X73103564Y-73846000D02*
X73046421Y-73731714D01*
X73046421Y-73731714D02*
X73046421Y-73274571D01*
X73046421Y-73274571D02*
X73103564Y-73160285D01*
X73103564Y-73160285D02*
X73217850Y-73103142D01*
X73217850Y-73103142D02*
X73446421Y-73103142D01*
X73446421Y-73103142D02*
X73560707Y-73160285D01*
X73560707Y-73160285D02*
X73617850Y-73274571D01*
X73617850Y-73274571D02*
X73617850Y-73388857D01*
X73617850Y-73388857D02*
X73046421Y-73503142D01*
X74132135Y-73903142D02*
X74132135Y-73103142D01*
X74132135Y-73331714D02*
X74189278Y-73217428D01*
X74189278Y-73217428D02*
X74246421Y-73160285D01*
X74246421Y-73160285D02*
X74360706Y-73103142D01*
X74360706Y-73103142D02*
X74474992Y-73103142D01*
X75732135Y-72646000D02*
X74703563Y-74188857D01*
X-3554761Y38322380D02*
X-3221428Y37322380D01*
X-3221428Y37322380D02*
X-2888095Y38322380D01*
X-2602380Y38227142D02*
X-2554761Y38274761D01*
X-2554761Y38274761D02*
X-2459523Y38322380D01*
X-2459523Y38322380D02*
X-2221428Y38322380D01*
X-2221428Y38322380D02*
X-2126190Y38274761D01*
X-2126190Y38274761D02*
X-2078571Y38227142D01*
X-2078571Y38227142D02*
X-2030952Y38131904D01*
X-2030952Y38131904D02*
X-2030952Y38036666D01*
X-2030952Y38036666D02*
X-2078571Y37893809D01*
X-2078571Y37893809D02*
X-2649999Y37322380D01*
X-2649999Y37322380D02*
X-2030952Y37322380D01*
X-1602380Y37417619D02*
X-1554761Y37370000D01*
X-1554761Y37370000D02*
X-1602380Y37322380D01*
X-1602380Y37322380D02*
X-1649999Y37370000D01*
X-1649999Y37370000D02*
X-1602380Y37417619D01*
X-1602380Y37417619D02*
X-1602380Y37322380D01*
X-1173809Y38227142D02*
X-1126190Y38274761D01*
X-1126190Y38274761D02*
X-1030952Y38322380D01*
X-1030952Y38322380D02*
X-792857Y38322380D01*
X-792857Y38322380D02*
X-697619Y38274761D01*
X-697619Y38274761D02*
X-650000Y38227142D01*
X-650000Y38227142D02*
X-602381Y38131904D01*
X-602381Y38131904D02*
X-602381Y38036666D01*
X-602381Y38036666D02*
X-650000Y37893809D01*
X-650000Y37893809D02*
X-1221428Y37322380D01*
X-1221428Y37322380D02*
X-602381Y37322380D01*
X873809Y36941428D02*
X826190Y36989047D01*
X826190Y36989047D02*
X730952Y37131904D01*
X730952Y37131904D02*
X683333Y37227142D01*
X683333Y37227142D02*
X635714Y37370000D01*
X635714Y37370000D02*
X588095Y37608095D01*
X588095Y37608095D02*
X588095Y37798571D01*
X588095Y37798571D02*
X635714Y38036666D01*
X635714Y38036666D02*
X683333Y38179523D01*
X683333Y38179523D02*
X730952Y38274761D01*
X730952Y38274761D02*
X826190Y38417619D01*
X826190Y38417619D02*
X873809Y38465238D01*
X1683333Y37322380D02*
X1683333Y38322380D01*
X1683333Y37370000D02*
X1588095Y37322380D01*
X1588095Y37322380D02*
X1397619Y37322380D01*
X1397619Y37322380D02*
X1302381Y37370000D01*
X1302381Y37370000D02*
X1254762Y37417619D01*
X1254762Y37417619D02*
X1207143Y37512857D01*
X1207143Y37512857D02*
X1207143Y37798571D01*
X1207143Y37798571D02*
X1254762Y37893809D01*
X1254762Y37893809D02*
X1302381Y37941428D01*
X1302381Y37941428D02*
X1397619Y37989047D01*
X1397619Y37989047D02*
X1588095Y37989047D01*
X1588095Y37989047D02*
X1683333Y37941428D01*
X2207143Y37322380D02*
X2397619Y37322380D01*
X2397619Y37322380D02*
X2492857Y37370000D01*
X2492857Y37370000D02*
X2540476Y37417619D01*
X2540476Y37417619D02*
X2635714Y37560476D01*
X2635714Y37560476D02*
X2683333Y37750952D01*
X2683333Y37750952D02*
X2683333Y38131904D01*
X2683333Y38131904D02*
X2635714Y38227142D01*
X2635714Y38227142D02*
X2588095Y38274761D01*
X2588095Y38274761D02*
X2492857Y38322380D01*
X2492857Y38322380D02*
X2302381Y38322380D01*
X2302381Y38322380D02*
X2207143Y38274761D01*
X2207143Y38274761D02*
X2159524Y38227142D01*
X2159524Y38227142D02*
X2111905Y38131904D01*
X2111905Y38131904D02*
X2111905Y37893809D01*
X2111905Y37893809D02*
X2159524Y37798571D01*
X2159524Y37798571D02*
X2207143Y37750952D01*
X2207143Y37750952D02*
X2302381Y37703333D01*
X2302381Y37703333D02*
X2492857Y37703333D01*
X2492857Y37703333D02*
X2588095Y37750952D01*
X2588095Y37750952D02*
X2635714Y37798571D01*
X2635714Y37798571D02*
X2683333Y37893809D01*
X3016667Y38322380D02*
X3683333Y38322380D01*
X3683333Y38322380D02*
X3254762Y37322380D01*
X4254762Y38322380D02*
X4350000Y38322380D01*
X4350000Y38322380D02*
X4445238Y38274761D01*
X4445238Y38274761D02*
X4492857Y38227142D01*
X4492857Y38227142D02*
X4540476Y38131904D01*
X4540476Y38131904D02*
X4588095Y37941428D01*
X4588095Y37941428D02*
X4588095Y37703333D01*
X4588095Y37703333D02*
X4540476Y37512857D01*
X4540476Y37512857D02*
X4492857Y37417619D01*
X4492857Y37417619D02*
X4445238Y37370000D01*
X4445238Y37370000D02*
X4350000Y37322380D01*
X4350000Y37322380D02*
X4254762Y37322380D01*
X4254762Y37322380D02*
X4159524Y37370000D01*
X4159524Y37370000D02*
X4111905Y37417619D01*
X4111905Y37417619D02*
X4064286Y37512857D01*
X4064286Y37512857D02*
X4016667Y37703333D01*
X4016667Y37703333D02*
X4016667Y37941428D01*
X4016667Y37941428D02*
X4064286Y38131904D01*
X4064286Y38131904D02*
X4111905Y38227142D01*
X4111905Y38227142D02*
X4159524Y38274761D01*
X4159524Y38274761D02*
X4254762Y38322380D01*
X5397619Y37370000D02*
X5302381Y37322380D01*
X5302381Y37322380D02*
X5111905Y37322380D01*
X5111905Y37322380D02*
X5016667Y37370000D01*
X5016667Y37370000D02*
X4969048Y37465238D01*
X4969048Y37465238D02*
X4969048Y37846190D01*
X4969048Y37846190D02*
X5016667Y37941428D01*
X5016667Y37941428D02*
X5111905Y37989047D01*
X5111905Y37989047D02*
X5302381Y37989047D01*
X5302381Y37989047D02*
X5397619Y37941428D01*
X5397619Y37941428D02*
X5445238Y37846190D01*
X5445238Y37846190D02*
X5445238Y37750952D01*
X5445238Y37750952D02*
X4969048Y37655714D01*
X6397619Y37322380D02*
X5826191Y37322380D01*
X6111905Y37322380D02*
X6111905Y38322380D01*
X6111905Y38322380D02*
X6016667Y38179523D01*
X6016667Y38179523D02*
X5921429Y38084285D01*
X5921429Y38084285D02*
X5826191Y38036666D01*
X7350000Y37322380D02*
X6778572Y37322380D01*
X7064286Y37322380D02*
X7064286Y38322380D01*
X7064286Y38322380D02*
X6969048Y38179523D01*
X6969048Y38179523D02*
X6873810Y38084285D01*
X6873810Y38084285D02*
X6778572Y38036666D01*
X8302381Y37322380D02*
X7730953Y37322380D01*
X8016667Y37322380D02*
X8016667Y38322380D01*
X8016667Y38322380D02*
X7921429Y38179523D01*
X7921429Y38179523D02*
X7826191Y38084285D01*
X7826191Y38084285D02*
X7730953Y38036666D01*
X8683334Y38227142D02*
X8730953Y38274761D01*
X8730953Y38274761D02*
X8826191Y38322380D01*
X8826191Y38322380D02*
X9064286Y38322380D01*
X9064286Y38322380D02*
X9159524Y38274761D01*
X9159524Y38274761D02*
X9207143Y38227142D01*
X9207143Y38227142D02*
X9254762Y38131904D01*
X9254762Y38131904D02*
X9254762Y38036666D01*
X9254762Y38036666D02*
X9207143Y37893809D01*
X9207143Y37893809D02*
X8635715Y37322380D01*
X8635715Y37322380D02*
X9254762Y37322380D01*
X10064286Y37370000D02*
X9969048Y37322380D01*
X9969048Y37322380D02*
X9778572Y37322380D01*
X9778572Y37322380D02*
X9683334Y37370000D01*
X9683334Y37370000D02*
X9635715Y37465238D01*
X9635715Y37465238D02*
X9635715Y37846190D01*
X9635715Y37846190D02*
X9683334Y37941428D01*
X9683334Y37941428D02*
X9778572Y37989047D01*
X9778572Y37989047D02*
X9969048Y37989047D01*
X9969048Y37989047D02*
X10064286Y37941428D01*
X10064286Y37941428D02*
X10111905Y37846190D01*
X10111905Y37846190D02*
X10111905Y37750952D01*
X10111905Y37750952D02*
X9635715Y37655714D01*
X10730953Y38322380D02*
X10826191Y38322380D01*
X10826191Y38322380D02*
X10921429Y38274761D01*
X10921429Y38274761D02*
X10969048Y38227142D01*
X10969048Y38227142D02*
X11016667Y38131904D01*
X11016667Y38131904D02*
X11064286Y37941428D01*
X11064286Y37941428D02*
X11064286Y37703333D01*
X11064286Y37703333D02*
X11016667Y37512857D01*
X11016667Y37512857D02*
X10969048Y37417619D01*
X10969048Y37417619D02*
X10921429Y37370000D01*
X10921429Y37370000D02*
X10826191Y37322380D01*
X10826191Y37322380D02*
X10730953Y37322380D01*
X10730953Y37322380D02*
X10635715Y37370000D01*
X10635715Y37370000D02*
X10588096Y37417619D01*
X10588096Y37417619D02*
X10540477Y37512857D01*
X10540477Y37512857D02*
X10492858Y37703333D01*
X10492858Y37703333D02*
X10492858Y37941428D01*
X10492858Y37941428D02*
X10540477Y38131904D01*
X10540477Y38131904D02*
X10588096Y38227142D01*
X10588096Y38227142D02*
X10635715Y38274761D01*
X10635715Y38274761D02*
X10730953Y38322380D01*
X11445239Y38227142D02*
X11492858Y38274761D01*
X11492858Y38274761D02*
X11588096Y38322380D01*
X11588096Y38322380D02*
X11826191Y38322380D01*
X11826191Y38322380D02*
X11921429Y38274761D01*
X11921429Y38274761D02*
X11969048Y38227142D01*
X11969048Y38227142D02*
X12016667Y38131904D01*
X12016667Y38131904D02*
X12016667Y38036666D01*
X12016667Y38036666D02*
X11969048Y37893809D01*
X11969048Y37893809D02*
X11397620Y37322380D01*
X11397620Y37322380D02*
X12016667Y37322380D01*
X12969048Y37322380D02*
X12397620Y37322380D01*
X12683334Y37322380D02*
X12683334Y38322380D01*
X12683334Y38322380D02*
X12588096Y38179523D01*
X12588096Y38179523D02*
X12492858Y38084285D01*
X12492858Y38084285D02*
X12397620Y38036666D01*
X13826191Y38322380D02*
X13635715Y38322380D01*
X13635715Y38322380D02*
X13540477Y38274761D01*
X13540477Y38274761D02*
X13492858Y38227142D01*
X13492858Y38227142D02*
X13397620Y38084285D01*
X13397620Y38084285D02*
X13350001Y37893809D01*
X13350001Y37893809D02*
X13350001Y37512857D01*
X13350001Y37512857D02*
X13397620Y37417619D01*
X13397620Y37417619D02*
X13445239Y37370000D01*
X13445239Y37370000D02*
X13540477Y37322380D01*
X13540477Y37322380D02*
X13730953Y37322380D01*
X13730953Y37322380D02*
X13826191Y37370000D01*
X13826191Y37370000D02*
X13873810Y37417619D01*
X13873810Y37417619D02*
X13921429Y37512857D01*
X13921429Y37512857D02*
X13921429Y37750952D01*
X13921429Y37750952D02*
X13873810Y37846190D01*
X13873810Y37846190D02*
X13826191Y37893809D01*
X13826191Y37893809D02*
X13730953Y37941428D01*
X13730953Y37941428D02*
X13540477Y37941428D01*
X13540477Y37941428D02*
X13445239Y37893809D01*
X13445239Y37893809D02*
X13397620Y37846190D01*
X13397620Y37846190D02*
X13350001Y37750952D01*
X14207144Y37989047D02*
X14588096Y37989047D01*
X14350001Y37322380D02*
X14350001Y38179523D01*
X14350001Y38179523D02*
X14397620Y38274761D01*
X14397620Y38274761D02*
X14492858Y38322380D01*
X14492858Y38322380D02*
X14588096Y38322380D01*
X15350001Y37322380D02*
X15350001Y37846190D01*
X15350001Y37846190D02*
X15302382Y37941428D01*
X15302382Y37941428D02*
X15207144Y37989047D01*
X15207144Y37989047D02*
X15016668Y37989047D01*
X15016668Y37989047D02*
X14921430Y37941428D01*
X15350001Y37370000D02*
X15254763Y37322380D01*
X15254763Y37322380D02*
X15016668Y37322380D01*
X15016668Y37322380D02*
X14921430Y37370000D01*
X14921430Y37370000D02*
X14873811Y37465238D01*
X14873811Y37465238D02*
X14873811Y37560476D01*
X14873811Y37560476D02*
X14921430Y37655714D01*
X14921430Y37655714D02*
X15016668Y37703333D01*
X15016668Y37703333D02*
X15254763Y37703333D01*
X15254763Y37703333D02*
X15350001Y37750952D01*
X16254763Y37989047D02*
X16254763Y37322380D01*
X16016668Y38370000D02*
X15778573Y37655714D01*
X15778573Y37655714D02*
X16397620Y37655714D01*
X17159525Y37370000D02*
X17064287Y37322380D01*
X17064287Y37322380D02*
X16873811Y37322380D01*
X16873811Y37322380D02*
X16778573Y37370000D01*
X16778573Y37370000D02*
X16730954Y37465238D01*
X16730954Y37465238D02*
X16730954Y37846190D01*
X16730954Y37846190D02*
X16778573Y37941428D01*
X16778573Y37941428D02*
X16873811Y37989047D01*
X16873811Y37989047D02*
X17064287Y37989047D01*
X17064287Y37989047D02*
X17159525Y37941428D01*
X17159525Y37941428D02*
X17207144Y37846190D01*
X17207144Y37846190D02*
X17207144Y37750952D01*
X17207144Y37750952D02*
X16730954Y37655714D01*
X17683335Y37322380D02*
X17873811Y37322380D01*
X17873811Y37322380D02*
X17969049Y37370000D01*
X17969049Y37370000D02*
X18016668Y37417619D01*
X18016668Y37417619D02*
X18111906Y37560476D01*
X18111906Y37560476D02*
X18159525Y37750952D01*
X18159525Y37750952D02*
X18159525Y38131904D01*
X18159525Y38131904D02*
X18111906Y38227142D01*
X18111906Y38227142D02*
X18064287Y38274761D01*
X18064287Y38274761D02*
X17969049Y38322380D01*
X17969049Y38322380D02*
X17778573Y38322380D01*
X17778573Y38322380D02*
X17683335Y38274761D01*
X17683335Y38274761D02*
X17635716Y38227142D01*
X17635716Y38227142D02*
X17588097Y38131904D01*
X17588097Y38131904D02*
X17588097Y37893809D01*
X17588097Y37893809D02*
X17635716Y37798571D01*
X17635716Y37798571D02*
X17683335Y37750952D01*
X17683335Y37750952D02*
X17778573Y37703333D01*
X17778573Y37703333D02*
X17969049Y37703333D01*
X17969049Y37703333D02*
X18064287Y37750952D01*
X18064287Y37750952D02*
X18111906Y37798571D01*
X18111906Y37798571D02*
X18159525Y37893809D01*
X18492859Y38322380D02*
X19111906Y38322380D01*
X19111906Y38322380D02*
X18778573Y37941428D01*
X18778573Y37941428D02*
X18921430Y37941428D01*
X18921430Y37941428D02*
X19016668Y37893809D01*
X19016668Y37893809D02*
X19064287Y37846190D01*
X19064287Y37846190D02*
X19111906Y37750952D01*
X19111906Y37750952D02*
X19111906Y37512857D01*
X19111906Y37512857D02*
X19064287Y37417619D01*
X19064287Y37417619D02*
X19016668Y37370000D01*
X19016668Y37370000D02*
X18921430Y37322380D01*
X18921430Y37322380D02*
X18635716Y37322380D01*
X18635716Y37322380D02*
X18540478Y37370000D01*
X18540478Y37370000D02*
X18492859Y37417619D01*
X19397621Y37989047D02*
X19778573Y37989047D01*
X19540478Y37322380D02*
X19540478Y38179523D01*
X19540478Y38179523D02*
X19588097Y38274761D01*
X19588097Y38274761D02*
X19683335Y38322380D01*
X19683335Y38322380D02*
X19778573Y38322380D01*
X20540478Y37322380D02*
X20540478Y38322380D01*
X20540478Y37370000D02*
X20445240Y37322380D01*
X20445240Y37322380D02*
X20254764Y37322380D01*
X20254764Y37322380D02*
X20159526Y37370000D01*
X20159526Y37370000D02*
X20111907Y37417619D01*
X20111907Y37417619D02*
X20064288Y37512857D01*
X20064288Y37512857D02*
X20064288Y37798571D01*
X20064288Y37798571D02*
X20111907Y37893809D01*
X20111907Y37893809D02*
X20159526Y37941428D01*
X20159526Y37941428D02*
X20254764Y37989047D01*
X20254764Y37989047D02*
X20445240Y37989047D01*
X20445240Y37989047D02*
X20540478Y37941428D01*
X20921431Y38322380D02*
X21588097Y38322380D01*
X21588097Y38322380D02*
X21159526Y37322380D01*
X22397621Y37370000D02*
X22302383Y37322380D01*
X22302383Y37322380D02*
X22111907Y37322380D01*
X22111907Y37322380D02*
X22016669Y37370000D01*
X22016669Y37370000D02*
X21969050Y37417619D01*
X21969050Y37417619D02*
X21921431Y37512857D01*
X21921431Y37512857D02*
X21921431Y37798571D01*
X21921431Y37798571D02*
X21969050Y37893809D01*
X21969050Y37893809D02*
X22016669Y37941428D01*
X22016669Y37941428D02*
X22111907Y37989047D01*
X22111907Y37989047D02*
X22302383Y37989047D01*
X22302383Y37989047D02*
X22397621Y37941428D01*
X23016669Y38322380D02*
X23111907Y38322380D01*
X23111907Y38322380D02*
X23207145Y38274761D01*
X23207145Y38274761D02*
X23254764Y38227142D01*
X23254764Y38227142D02*
X23302383Y38131904D01*
X23302383Y38131904D02*
X23350002Y37941428D01*
X23350002Y37941428D02*
X23350002Y37703333D01*
X23350002Y37703333D02*
X23302383Y37512857D01*
X23302383Y37512857D02*
X23254764Y37417619D01*
X23254764Y37417619D02*
X23207145Y37370000D01*
X23207145Y37370000D02*
X23111907Y37322380D01*
X23111907Y37322380D02*
X23016669Y37322380D01*
X23016669Y37322380D02*
X22921431Y37370000D01*
X22921431Y37370000D02*
X22873812Y37417619D01*
X22873812Y37417619D02*
X22826193Y37512857D01*
X22826193Y37512857D02*
X22778574Y37703333D01*
X22778574Y37703333D02*
X22778574Y37941428D01*
X22778574Y37941428D02*
X22826193Y38131904D01*
X22826193Y38131904D02*
X22873812Y38227142D01*
X22873812Y38227142D02*
X22921431Y38274761D01*
X22921431Y38274761D02*
X23016669Y38322380D01*
X24207145Y38322380D02*
X24016669Y38322380D01*
X24016669Y38322380D02*
X23921431Y38274761D01*
X23921431Y38274761D02*
X23873812Y38227142D01*
X23873812Y38227142D02*
X23778574Y38084285D01*
X23778574Y38084285D02*
X23730955Y37893809D01*
X23730955Y37893809D02*
X23730955Y37512857D01*
X23730955Y37512857D02*
X23778574Y37417619D01*
X23778574Y37417619D02*
X23826193Y37370000D01*
X23826193Y37370000D02*
X23921431Y37322380D01*
X23921431Y37322380D02*
X24111907Y37322380D01*
X24111907Y37322380D02*
X24207145Y37370000D01*
X24207145Y37370000D02*
X24254764Y37417619D01*
X24254764Y37417619D02*
X24302383Y37512857D01*
X24302383Y37512857D02*
X24302383Y37750952D01*
X24302383Y37750952D02*
X24254764Y37846190D01*
X24254764Y37846190D02*
X24207145Y37893809D01*
X24207145Y37893809D02*
X24111907Y37941428D01*
X24111907Y37941428D02*
X23921431Y37941428D01*
X23921431Y37941428D02*
X23826193Y37893809D01*
X23826193Y37893809D02*
X23778574Y37846190D01*
X23778574Y37846190D02*
X23730955Y37750952D01*
X24588098Y37989047D02*
X24969050Y37989047D01*
X24730955Y37322380D02*
X24730955Y38179523D01*
X24730955Y38179523D02*
X24778574Y38274761D01*
X24778574Y38274761D02*
X24873812Y38322380D01*
X24873812Y38322380D02*
X24969050Y38322380D01*
X25730955Y37370000D02*
X25635717Y37322380D01*
X25635717Y37322380D02*
X25445241Y37322380D01*
X25445241Y37322380D02*
X25350003Y37370000D01*
X25350003Y37370000D02*
X25302384Y37417619D01*
X25302384Y37417619D02*
X25254765Y37512857D01*
X25254765Y37512857D02*
X25254765Y37798571D01*
X25254765Y37798571D02*
X25302384Y37893809D01*
X25302384Y37893809D02*
X25350003Y37941428D01*
X25350003Y37941428D02*
X25445241Y37989047D01*
X25445241Y37989047D02*
X25635717Y37989047D01*
X25635717Y37989047D02*
X25730955Y37941428D01*
X26302384Y37893809D02*
X26207146Y37941428D01*
X26207146Y37941428D02*
X26159527Y37989047D01*
X26159527Y37989047D02*
X26111908Y38084285D01*
X26111908Y38084285D02*
X26111908Y38131904D01*
X26111908Y38131904D02*
X26159527Y38227142D01*
X26159527Y38227142D02*
X26207146Y38274761D01*
X26207146Y38274761D02*
X26302384Y38322380D01*
X26302384Y38322380D02*
X26492860Y38322380D01*
X26492860Y38322380D02*
X26588098Y38274761D01*
X26588098Y38274761D02*
X26635717Y38227142D01*
X26635717Y38227142D02*
X26683336Y38131904D01*
X26683336Y38131904D02*
X26683336Y38084285D01*
X26683336Y38084285D02*
X26635717Y37989047D01*
X26635717Y37989047D02*
X26588098Y37941428D01*
X26588098Y37941428D02*
X26492860Y37893809D01*
X26492860Y37893809D02*
X26302384Y37893809D01*
X26302384Y37893809D02*
X26207146Y37846190D01*
X26207146Y37846190D02*
X26159527Y37798571D01*
X26159527Y37798571D02*
X26111908Y37703333D01*
X26111908Y37703333D02*
X26111908Y37512857D01*
X26111908Y37512857D02*
X26159527Y37417619D01*
X26159527Y37417619D02*
X26207146Y37370000D01*
X26207146Y37370000D02*
X26302384Y37322380D01*
X26302384Y37322380D02*
X26492860Y37322380D01*
X26492860Y37322380D02*
X26588098Y37370000D01*
X26588098Y37370000D02*
X26635717Y37417619D01*
X26635717Y37417619D02*
X26683336Y37512857D01*
X26683336Y37512857D02*
X26683336Y37703333D01*
X26683336Y37703333D02*
X26635717Y37798571D01*
X26635717Y37798571D02*
X26588098Y37846190D01*
X26588098Y37846190D02*
X26492860Y37893809D01*
X27111908Y37322380D02*
X27111908Y38322380D01*
X27111908Y37941428D02*
X27207146Y37989047D01*
X27207146Y37989047D02*
X27397622Y37989047D01*
X27397622Y37989047D02*
X27492860Y37941428D01*
X27492860Y37941428D02*
X27540479Y37893809D01*
X27540479Y37893809D02*
X27588098Y37798571D01*
X27588098Y37798571D02*
X27588098Y37512857D01*
X27588098Y37512857D02*
X27540479Y37417619D01*
X27540479Y37417619D02*
X27492860Y37370000D01*
X27492860Y37370000D02*
X27397622Y37322380D01*
X27397622Y37322380D02*
X27207146Y37322380D01*
X27207146Y37322380D02*
X27111908Y37370000D01*
X27873813Y37989047D02*
X28254765Y37989047D01*
X28016670Y37322380D02*
X28016670Y38179523D01*
X28016670Y38179523D02*
X28064289Y38274761D01*
X28064289Y38274761D02*
X28159527Y38322380D01*
X28159527Y38322380D02*
X28254765Y38322380D01*
X28635718Y37322380D02*
X28826194Y37322380D01*
X28826194Y37322380D02*
X28921432Y37370000D01*
X28921432Y37370000D02*
X28969051Y37417619D01*
X28969051Y37417619D02*
X29064289Y37560476D01*
X29064289Y37560476D02*
X29111908Y37750952D01*
X29111908Y37750952D02*
X29111908Y38131904D01*
X29111908Y38131904D02*
X29064289Y38227142D01*
X29064289Y38227142D02*
X29016670Y38274761D01*
X29016670Y38274761D02*
X28921432Y38322380D01*
X28921432Y38322380D02*
X28730956Y38322380D01*
X28730956Y38322380D02*
X28635718Y38274761D01*
X28635718Y38274761D02*
X28588099Y38227142D01*
X28588099Y38227142D02*
X28540480Y38131904D01*
X28540480Y38131904D02*
X28540480Y37893809D01*
X28540480Y37893809D02*
X28588099Y37798571D01*
X28588099Y37798571D02*
X28635718Y37750952D01*
X28635718Y37750952D02*
X28730956Y37703333D01*
X28730956Y37703333D02*
X28921432Y37703333D01*
X28921432Y37703333D02*
X29016670Y37750952D01*
X29016670Y37750952D02*
X29064289Y37798571D01*
X29064289Y37798571D02*
X29111908Y37893809D01*
X29969051Y38322380D02*
X29778575Y38322380D01*
X29778575Y38322380D02*
X29683337Y38274761D01*
X29683337Y38274761D02*
X29635718Y38227142D01*
X29635718Y38227142D02*
X29540480Y38084285D01*
X29540480Y38084285D02*
X29492861Y37893809D01*
X29492861Y37893809D02*
X29492861Y37512857D01*
X29492861Y37512857D02*
X29540480Y37417619D01*
X29540480Y37417619D02*
X29588099Y37370000D01*
X29588099Y37370000D02*
X29683337Y37322380D01*
X29683337Y37322380D02*
X29873813Y37322380D01*
X29873813Y37322380D02*
X29969051Y37370000D01*
X29969051Y37370000D02*
X30016670Y37417619D01*
X30016670Y37417619D02*
X30064289Y37512857D01*
X30064289Y37512857D02*
X30064289Y37750952D01*
X30064289Y37750952D02*
X30016670Y37846190D01*
X30016670Y37846190D02*
X29969051Y37893809D01*
X29969051Y37893809D02*
X29873813Y37941428D01*
X29873813Y37941428D02*
X29683337Y37941428D01*
X29683337Y37941428D02*
X29588099Y37893809D01*
X29588099Y37893809D02*
X29540480Y37846190D01*
X29540480Y37846190D02*
X29492861Y37750952D01*
X30397623Y38322380D02*
X31016670Y38322380D01*
X31016670Y38322380D02*
X30683337Y37941428D01*
X30683337Y37941428D02*
X30826194Y37941428D01*
X30826194Y37941428D02*
X30921432Y37893809D01*
X30921432Y37893809D02*
X30969051Y37846190D01*
X30969051Y37846190D02*
X31016670Y37750952D01*
X31016670Y37750952D02*
X31016670Y37512857D01*
X31016670Y37512857D02*
X30969051Y37417619D01*
X30969051Y37417619D02*
X30921432Y37370000D01*
X30921432Y37370000D02*
X30826194Y37322380D01*
X30826194Y37322380D02*
X30540480Y37322380D01*
X30540480Y37322380D02*
X30445242Y37370000D01*
X30445242Y37370000D02*
X30397623Y37417619D01*
X31873813Y37989047D02*
X31873813Y37322380D01*
X31635718Y38370000D02*
X31397623Y37655714D01*
X31397623Y37655714D02*
X32016670Y37655714D01*
X32302385Y38322380D02*
X32921432Y38322380D01*
X32921432Y38322380D02*
X32588099Y37941428D01*
X32588099Y37941428D02*
X32730956Y37941428D01*
X32730956Y37941428D02*
X32826194Y37893809D01*
X32826194Y37893809D02*
X32873813Y37846190D01*
X32873813Y37846190D02*
X32921432Y37750952D01*
X32921432Y37750952D02*
X32921432Y37512857D01*
X32921432Y37512857D02*
X32873813Y37417619D01*
X32873813Y37417619D02*
X32826194Y37370000D01*
X32826194Y37370000D02*
X32730956Y37322380D01*
X32730956Y37322380D02*
X32445242Y37322380D01*
X32445242Y37322380D02*
X32350004Y37370000D01*
X32350004Y37370000D02*
X32302385Y37417619D01*
X33778575Y38322380D02*
X33588099Y38322380D01*
X33588099Y38322380D02*
X33492861Y38274761D01*
X33492861Y38274761D02*
X33445242Y38227142D01*
X33445242Y38227142D02*
X33350004Y38084285D01*
X33350004Y38084285D02*
X33302385Y37893809D01*
X33302385Y37893809D02*
X33302385Y37512857D01*
X33302385Y37512857D02*
X33350004Y37417619D01*
X33350004Y37417619D02*
X33397623Y37370000D01*
X33397623Y37370000D02*
X33492861Y37322380D01*
X33492861Y37322380D02*
X33683337Y37322380D01*
X33683337Y37322380D02*
X33778575Y37370000D01*
X33778575Y37370000D02*
X33826194Y37417619D01*
X33826194Y37417619D02*
X33873813Y37512857D01*
X33873813Y37512857D02*
X33873813Y37750952D01*
X33873813Y37750952D02*
X33826194Y37846190D01*
X33826194Y37846190D02*
X33778575Y37893809D01*
X33778575Y37893809D02*
X33683337Y37941428D01*
X33683337Y37941428D02*
X33492861Y37941428D01*
X33492861Y37941428D02*
X33397623Y37893809D01*
X33397623Y37893809D02*
X33350004Y37846190D01*
X33350004Y37846190D02*
X33302385Y37750952D01*
X34207147Y38322380D02*
X34873813Y38322380D01*
X34873813Y38322380D02*
X34445242Y37322380D01*
X35683337Y37989047D02*
X35683337Y37322380D01*
X35445242Y38370000D02*
X35207147Y37655714D01*
X35207147Y37655714D02*
X35826194Y37655714D01*
X36111909Y38322380D02*
X36778575Y38322380D01*
X36778575Y38322380D02*
X36350004Y37322380D01*
X37064290Y36941428D02*
X37111909Y36989047D01*
X37111909Y36989047D02*
X37207147Y37131904D01*
X37207147Y37131904D02*
X37254766Y37227142D01*
X37254766Y37227142D02*
X37302385Y37370000D01*
X37302385Y37370000D02*
X37350004Y37608095D01*
X37350004Y37608095D02*
X37350004Y37798571D01*
X37350004Y37798571D02*
X37302385Y38036666D01*
X37302385Y38036666D02*
X37254766Y38179523D01*
X37254766Y38179523D02*
X37207147Y38274761D01*
X37207147Y38274761D02*
X37111909Y38417619D01*
X37111909Y38417619D02*
X37064290Y38465238D01*
D11*
X1850000Y-15750000D02*
X10800000Y-15750000D01*
X10800000Y-38050000D01*
X1850000Y-38050000D01*
X1850000Y-15750000D01*
X19250000Y-15750000D02*
X29350000Y-15750000D01*
X29350000Y-37750000D01*
X19250000Y-37750000D01*
X19250000Y-15750000D01*
X-5000000Y16000000D02*
X100000000Y16000000D01*
X100000000Y-1500000D01*
X-5000000Y-1500000D01*
X-5000000Y16000000D01*
X-2809523Y-66462619D02*
X-2809523Y-65462619D01*
X-2809523Y-65462619D02*
X-2476190Y-66176904D01*
X-2476190Y-66176904D02*
X-2142857Y-65462619D01*
X-2142857Y-65462619D02*
X-2142857Y-66462619D01*
X-1238095Y-65795952D02*
X-1238095Y-66462619D01*
X-1476190Y-65415000D02*
X-1714285Y-66129285D01*
X-1714285Y-66129285D02*
X-1095238Y-66129285D01*
D12*
X62493928Y35300000D02*
X61779642Y34800000D01*
X62493928Y34442857D02*
X60993928Y34442857D01*
X60993928Y34442857D02*
X60993928Y35014286D01*
X60993928Y35014286D02*
X61065357Y35157143D01*
X61065357Y35157143D02*
X61136785Y35228572D01*
X61136785Y35228572D02*
X61279642Y35300000D01*
X61279642Y35300000D02*
X61493928Y35300000D01*
X61493928Y35300000D02*
X61636785Y35228572D01*
X61636785Y35228572D02*
X61708214Y35157143D01*
X61708214Y35157143D02*
X61779642Y35014286D01*
X61779642Y35014286D02*
X61779642Y34442857D01*
X60993928Y35800000D02*
X62493928Y36800000D01*
X60993928Y36800000D02*
X62493928Y35800000D01*
X25185714Y-18618190D02*
X24471428Y-18618190D01*
X24471428Y-18618190D02*
X24471428Y-17018190D01*
X25685714Y-17780095D02*
X26185714Y-17780095D01*
X26400000Y-18618190D02*
X25685714Y-18618190D01*
X25685714Y-18618190D02*
X25685714Y-17018190D01*
X25685714Y-17018190D02*
X26400000Y-17018190D01*
X27042857Y-18618190D02*
X27042857Y-17018190D01*
X27042857Y-17018190D02*
X27400000Y-17018190D01*
X27400000Y-17018190D02*
X27614286Y-17094380D01*
X27614286Y-17094380D02*
X27757143Y-17246761D01*
X27757143Y-17246761D02*
X27828572Y-17399142D01*
X27828572Y-17399142D02*
X27900000Y-17703904D01*
X27900000Y-17703904D02*
X27900000Y-17932476D01*
X27900000Y-17932476D02*
X27828572Y-18237238D01*
X27828572Y-18237238D02*
X27757143Y-18389619D01*
X27757143Y-18389619D02*
X27614286Y-18542000D01*
X27614286Y-18542000D02*
X27400000Y-18618190D01*
X27400000Y-18618190D02*
X27042857Y-18618190D01*
X25900000Y-21057809D02*
X25828572Y-21134000D01*
X25828572Y-21134000D02*
X25614286Y-21210190D01*
X25614286Y-21210190D02*
X25471429Y-21210190D01*
X25471429Y-21210190D02*
X25257143Y-21134000D01*
X25257143Y-21134000D02*
X25114286Y-20981619D01*
X25114286Y-20981619D02*
X25042857Y-20829238D01*
X25042857Y-20829238D02*
X24971429Y-20524476D01*
X24971429Y-20524476D02*
X24971429Y-20295904D01*
X24971429Y-20295904D02*
X25042857Y-19991142D01*
X25042857Y-19991142D02*
X25114286Y-19838761D01*
X25114286Y-19838761D02*
X25257143Y-19686380D01*
X25257143Y-19686380D02*
X25471429Y-19610190D01*
X25471429Y-19610190D02*
X25614286Y-19610190D01*
X25614286Y-19610190D02*
X25828572Y-19686380D01*
X25828572Y-19686380D02*
X25900000Y-19762571D01*
X26471429Y-21134000D02*
X26685715Y-21210190D01*
X26685715Y-21210190D02*
X27042857Y-21210190D01*
X27042857Y-21210190D02*
X27185715Y-21134000D01*
X27185715Y-21134000D02*
X27257143Y-21057809D01*
X27257143Y-21057809D02*
X27328572Y-20905428D01*
X27328572Y-20905428D02*
X27328572Y-20753047D01*
X27328572Y-20753047D02*
X27257143Y-20600666D01*
X27257143Y-20600666D02*
X27185715Y-20524476D01*
X27185715Y-20524476D02*
X27042857Y-20448285D01*
X27042857Y-20448285D02*
X26757143Y-20372095D01*
X26757143Y-20372095D02*
X26614286Y-20295904D01*
X26614286Y-20295904D02*
X26542857Y-20219714D01*
X26542857Y-20219714D02*
X26471429Y-20067333D01*
X26471429Y-20067333D02*
X26471429Y-19914952D01*
X26471429Y-19914952D02*
X26542857Y-19762571D01*
X26542857Y-19762571D02*
X26614286Y-19686380D01*
X26614286Y-19686380D02*
X26757143Y-19610190D01*
X26757143Y-19610190D02*
X27114286Y-19610190D01*
X27114286Y-19610190D02*
X27328572Y-19686380D01*
X25007142Y-23802190D02*
X25007142Y-22202190D01*
X25007142Y-22202190D02*
X25364285Y-22202190D01*
X25364285Y-22202190D02*
X25578571Y-22278380D01*
X25578571Y-22278380D02*
X25721428Y-22430761D01*
X25721428Y-22430761D02*
X25792857Y-22583142D01*
X25792857Y-22583142D02*
X25864285Y-22887904D01*
X25864285Y-22887904D02*
X25864285Y-23116476D01*
X25864285Y-23116476D02*
X25792857Y-23421238D01*
X25792857Y-23421238D02*
X25721428Y-23573619D01*
X25721428Y-23573619D02*
X25578571Y-23726000D01*
X25578571Y-23726000D02*
X25364285Y-23802190D01*
X25364285Y-23802190D02*
X25007142Y-23802190D01*
X27364285Y-23649809D02*
X27292857Y-23726000D01*
X27292857Y-23726000D02*
X27078571Y-23802190D01*
X27078571Y-23802190D02*
X26935714Y-23802190D01*
X26935714Y-23802190D02*
X26721428Y-23726000D01*
X26721428Y-23726000D02*
X26578571Y-23573619D01*
X26578571Y-23573619D02*
X26507142Y-23421238D01*
X26507142Y-23421238D02*
X26435714Y-23116476D01*
X26435714Y-23116476D02*
X26435714Y-22887904D01*
X26435714Y-22887904D02*
X26507142Y-22583142D01*
X26507142Y-22583142D02*
X26578571Y-22430761D01*
X26578571Y-22430761D02*
X26721428Y-22278380D01*
X26721428Y-22278380D02*
X26935714Y-22202190D01*
X26935714Y-22202190D02*
X27078571Y-22202190D01*
X27078571Y-22202190D02*
X27292857Y-22278380D01*
X27292857Y-22278380D02*
X27364285Y-22354571D01*
X25328571Y-26394190D02*
X24828571Y-25632285D01*
X24471428Y-26394190D02*
X24471428Y-24794190D01*
X24471428Y-24794190D02*
X25042857Y-24794190D01*
X25042857Y-24794190D02*
X25185714Y-24870380D01*
X25185714Y-24870380D02*
X25257143Y-24946571D01*
X25257143Y-24946571D02*
X25328571Y-25098952D01*
X25328571Y-25098952D02*
X25328571Y-25327523D01*
X25328571Y-25327523D02*
X25257143Y-25479904D01*
X25257143Y-25479904D02*
X25185714Y-25556095D01*
X25185714Y-25556095D02*
X25042857Y-25632285D01*
X25042857Y-25632285D02*
X24471428Y-25632285D01*
X25900000Y-26318000D02*
X26114286Y-26394190D01*
X26114286Y-26394190D02*
X26471428Y-26394190D01*
X26471428Y-26394190D02*
X26614286Y-26318000D01*
X26614286Y-26318000D02*
X26685714Y-26241809D01*
X26685714Y-26241809D02*
X26757143Y-26089428D01*
X26757143Y-26089428D02*
X26757143Y-25937047D01*
X26757143Y-25937047D02*
X26685714Y-25784666D01*
X26685714Y-25784666D02*
X26614286Y-25708476D01*
X26614286Y-25708476D02*
X26471428Y-25632285D01*
X26471428Y-25632285D02*
X26185714Y-25556095D01*
X26185714Y-25556095D02*
X26042857Y-25479904D01*
X26042857Y-25479904D02*
X25971428Y-25403714D01*
X25971428Y-25403714D02*
X25900000Y-25251333D01*
X25900000Y-25251333D02*
X25900000Y-25098952D01*
X25900000Y-25098952D02*
X25971428Y-24946571D01*
X25971428Y-24946571D02*
X26042857Y-24870380D01*
X26042857Y-24870380D02*
X26185714Y-24794190D01*
X26185714Y-24794190D02*
X26542857Y-24794190D01*
X26542857Y-24794190D02*
X26757143Y-24870380D01*
X27185714Y-24794190D02*
X28042857Y-24794190D01*
X27614285Y-26394190D02*
X27614285Y-24794190D01*
X23792856Y-28986190D02*
X23792856Y-27386190D01*
X23792856Y-27386190D02*
X24292856Y-28529047D01*
X24292856Y-28529047D02*
X24792856Y-27386190D01*
X24792856Y-27386190D02*
X24792856Y-28986190D01*
X25792857Y-27386190D02*
X26078571Y-27386190D01*
X26078571Y-27386190D02*
X26221428Y-27462380D01*
X26221428Y-27462380D02*
X26364285Y-27614761D01*
X26364285Y-27614761D02*
X26435714Y-27919523D01*
X26435714Y-27919523D02*
X26435714Y-28452857D01*
X26435714Y-28452857D02*
X26364285Y-28757619D01*
X26364285Y-28757619D02*
X26221428Y-28910000D01*
X26221428Y-28910000D02*
X26078571Y-28986190D01*
X26078571Y-28986190D02*
X25792857Y-28986190D01*
X25792857Y-28986190D02*
X25650000Y-28910000D01*
X25650000Y-28910000D02*
X25507142Y-28757619D01*
X25507142Y-28757619D02*
X25435714Y-28452857D01*
X25435714Y-28452857D02*
X25435714Y-27919523D01*
X25435714Y-27919523D02*
X25507142Y-27614761D01*
X25507142Y-27614761D02*
X25650000Y-27462380D01*
X25650000Y-27462380D02*
X25792857Y-27386190D01*
X27007143Y-28910000D02*
X27221429Y-28986190D01*
X27221429Y-28986190D02*
X27578571Y-28986190D01*
X27578571Y-28986190D02*
X27721429Y-28910000D01*
X27721429Y-28910000D02*
X27792857Y-28833809D01*
X27792857Y-28833809D02*
X27864286Y-28681428D01*
X27864286Y-28681428D02*
X27864286Y-28529047D01*
X27864286Y-28529047D02*
X27792857Y-28376666D01*
X27792857Y-28376666D02*
X27721429Y-28300476D01*
X27721429Y-28300476D02*
X27578571Y-28224285D01*
X27578571Y-28224285D02*
X27292857Y-28148095D01*
X27292857Y-28148095D02*
X27150000Y-28071904D01*
X27150000Y-28071904D02*
X27078571Y-27995714D01*
X27078571Y-27995714D02*
X27007143Y-27843333D01*
X27007143Y-27843333D02*
X27007143Y-27690952D01*
X27007143Y-27690952D02*
X27078571Y-27538571D01*
X27078571Y-27538571D02*
X27150000Y-27462380D01*
X27150000Y-27462380D02*
X27292857Y-27386190D01*
X27292857Y-27386190D02*
X27650000Y-27386190D01*
X27650000Y-27386190D02*
X27864286Y-27462380D01*
X28507142Y-28986190D02*
X28507142Y-27386190D01*
X23614286Y-31502000D02*
X23828572Y-31578190D01*
X23828572Y-31578190D02*
X24185714Y-31578190D01*
X24185714Y-31578190D02*
X24328572Y-31502000D01*
X24328572Y-31502000D02*
X24400000Y-31425809D01*
X24400000Y-31425809D02*
X24471429Y-31273428D01*
X24471429Y-31273428D02*
X24471429Y-31121047D01*
X24471429Y-31121047D02*
X24400000Y-30968666D01*
X24400000Y-30968666D02*
X24328572Y-30892476D01*
X24328572Y-30892476D02*
X24185714Y-30816285D01*
X24185714Y-30816285D02*
X23900000Y-30740095D01*
X23900000Y-30740095D02*
X23757143Y-30663904D01*
X23757143Y-30663904D02*
X23685714Y-30587714D01*
X23685714Y-30587714D02*
X23614286Y-30435333D01*
X23614286Y-30435333D02*
X23614286Y-30282952D01*
X23614286Y-30282952D02*
X23685714Y-30130571D01*
X23685714Y-30130571D02*
X23757143Y-30054380D01*
X23757143Y-30054380D02*
X23900000Y-29978190D01*
X23900000Y-29978190D02*
X24257143Y-29978190D01*
X24257143Y-29978190D02*
X24471429Y-30054380D01*
X25971428Y-31425809D02*
X25900000Y-31502000D01*
X25900000Y-31502000D02*
X25685714Y-31578190D01*
X25685714Y-31578190D02*
X25542857Y-31578190D01*
X25542857Y-31578190D02*
X25328571Y-31502000D01*
X25328571Y-31502000D02*
X25185714Y-31349619D01*
X25185714Y-31349619D02*
X25114285Y-31197238D01*
X25114285Y-31197238D02*
X25042857Y-30892476D01*
X25042857Y-30892476D02*
X25042857Y-30663904D01*
X25042857Y-30663904D02*
X25114285Y-30359142D01*
X25114285Y-30359142D02*
X25185714Y-30206761D01*
X25185714Y-30206761D02*
X25328571Y-30054380D01*
X25328571Y-30054380D02*
X25542857Y-29978190D01*
X25542857Y-29978190D02*
X25685714Y-29978190D01*
X25685714Y-29978190D02*
X25900000Y-30054380D01*
X25900000Y-30054380D02*
X25971428Y-30130571D01*
X27328571Y-31578190D02*
X26614285Y-31578190D01*
X26614285Y-31578190D02*
X26614285Y-29978190D01*
X27828571Y-31578190D02*
X27828571Y-29978190D01*
X28685714Y-31578190D02*
X28042857Y-30663904D01*
X28685714Y-29978190D02*
X27828571Y-30892476D01*
X24292857Y-32570190D02*
X25221429Y-32570190D01*
X25221429Y-32570190D02*
X24721429Y-33179714D01*
X24721429Y-33179714D02*
X24935714Y-33179714D01*
X24935714Y-33179714D02*
X25078572Y-33255904D01*
X25078572Y-33255904D02*
X25150000Y-33332095D01*
X25150000Y-33332095D02*
X25221429Y-33484476D01*
X25221429Y-33484476D02*
X25221429Y-33865428D01*
X25221429Y-33865428D02*
X25150000Y-34017809D01*
X25150000Y-34017809D02*
X25078572Y-34094000D01*
X25078572Y-34094000D02*
X24935714Y-34170190D01*
X24935714Y-34170190D02*
X24507143Y-34170190D01*
X24507143Y-34170190D02*
X24364286Y-34094000D01*
X24364286Y-34094000D02*
X24292857Y-34017809D01*
X25650000Y-32570190D02*
X26150000Y-34170190D01*
X26150000Y-34170190D02*
X26650000Y-32570190D01*
X27007142Y-32570190D02*
X27935714Y-32570190D01*
X27935714Y-32570190D02*
X27435714Y-33179714D01*
X27435714Y-33179714D02*
X27649999Y-33179714D01*
X27649999Y-33179714D02*
X27792857Y-33255904D01*
X27792857Y-33255904D02*
X27864285Y-33332095D01*
X27864285Y-33332095D02*
X27935714Y-33484476D01*
X27935714Y-33484476D02*
X27935714Y-33865428D01*
X27935714Y-33865428D02*
X27864285Y-34017809D01*
X27864285Y-34017809D02*
X27792857Y-34094000D01*
X27792857Y-34094000D02*
X27649999Y-34170190D01*
X27649999Y-34170190D02*
X27221428Y-34170190D01*
X27221428Y-34170190D02*
X27078571Y-34094000D01*
X27078571Y-34094000D02*
X27007142Y-34017809D01*
X25007143Y-35238380D02*
X24864286Y-35162190D01*
X24864286Y-35162190D02*
X24650000Y-35162190D01*
X24650000Y-35162190D02*
X24435714Y-35238380D01*
X24435714Y-35238380D02*
X24292857Y-35390761D01*
X24292857Y-35390761D02*
X24221428Y-35543142D01*
X24221428Y-35543142D02*
X24150000Y-35847904D01*
X24150000Y-35847904D02*
X24150000Y-36076476D01*
X24150000Y-36076476D02*
X24221428Y-36381238D01*
X24221428Y-36381238D02*
X24292857Y-36533619D01*
X24292857Y-36533619D02*
X24435714Y-36686000D01*
X24435714Y-36686000D02*
X24650000Y-36762190D01*
X24650000Y-36762190D02*
X24792857Y-36762190D01*
X24792857Y-36762190D02*
X25007143Y-36686000D01*
X25007143Y-36686000D02*
X25078571Y-36609809D01*
X25078571Y-36609809D02*
X25078571Y-36076476D01*
X25078571Y-36076476D02*
X24792857Y-36076476D01*
X25721428Y-36762190D02*
X25721428Y-35162190D01*
X25721428Y-35162190D02*
X26578571Y-36762190D01*
X26578571Y-36762190D02*
X26578571Y-35162190D01*
X27292857Y-36762190D02*
X27292857Y-35162190D01*
X27292857Y-35162190D02*
X27650000Y-35162190D01*
X27650000Y-35162190D02*
X27864286Y-35238380D01*
X27864286Y-35238380D02*
X28007143Y-35390761D01*
X28007143Y-35390761D02*
X28078572Y-35543142D01*
X28078572Y-35543142D02*
X28150000Y-35847904D01*
X28150000Y-35847904D02*
X28150000Y-36076476D01*
X28150000Y-36076476D02*
X28078572Y-36381238D01*
X28078572Y-36381238D02*
X28007143Y-36533619D01*
X28007143Y-36533619D02*
X27864286Y-36686000D01*
X27864286Y-36686000D02*
X27650000Y-36762190D01*
X27650000Y-36762190D02*
X27292857Y-36762190D01*
D11*
X-2809523Y35537380D02*
X-2809523Y36537380D01*
X-2809523Y36537380D02*
X-2476190Y35823095D01*
X-2476190Y35823095D02*
X-2142857Y36537380D01*
X-2142857Y36537380D02*
X-2142857Y35537380D01*
X-1238095Y36204047D02*
X-1238095Y35537380D01*
X-1476190Y36585000D02*
X-1714285Y35870714D01*
X-1714285Y35870714D02*
X-1095238Y35870714D01*
X41092858Y6398595D02*
X40659525Y7017642D01*
X40350001Y6398595D02*
X40350001Y7698595D01*
X40350001Y7698595D02*
X40845239Y7698595D01*
X40845239Y7698595D02*
X40969049Y7636690D01*
X40969049Y7636690D02*
X41030954Y7574785D01*
X41030954Y7574785D02*
X41092858Y7450976D01*
X41092858Y7450976D02*
X41092858Y7265261D01*
X41092858Y7265261D02*
X41030954Y7141452D01*
X41030954Y7141452D02*
X40969049Y7079547D01*
X40969049Y7079547D02*
X40845239Y7017642D01*
X40845239Y7017642D02*
X40350001Y7017642D01*
X41835716Y6398595D02*
X41711906Y6460500D01*
X41711906Y6460500D02*
X41650001Y6522404D01*
X41650001Y6522404D02*
X41588097Y6646214D01*
X41588097Y6646214D02*
X41588097Y7017642D01*
X41588097Y7017642D02*
X41650001Y7141452D01*
X41650001Y7141452D02*
X41711906Y7203357D01*
X41711906Y7203357D02*
X41835716Y7265261D01*
X41835716Y7265261D02*
X42021430Y7265261D01*
X42021430Y7265261D02*
X42145239Y7203357D01*
X42145239Y7203357D02*
X42207144Y7141452D01*
X42207144Y7141452D02*
X42269049Y7017642D01*
X42269049Y7017642D02*
X42269049Y6646214D01*
X42269049Y6646214D02*
X42207144Y6522404D01*
X42207144Y6522404D02*
X42145239Y6460500D01*
X42145239Y6460500D02*
X42021430Y6398595D01*
X42021430Y6398595D02*
X41835716Y6398595D01*
X42640477Y7265261D02*
X43135715Y7265261D01*
X42826191Y7698595D02*
X42826191Y6584309D01*
X42826191Y6584309D02*
X42888096Y6460500D01*
X42888096Y6460500D02*
X43011906Y6398595D01*
X43011906Y6398595D02*
X43135715Y6398595D01*
X44126191Y6398595D02*
X44126191Y7079547D01*
X44126191Y7079547D02*
X44064286Y7203357D01*
X44064286Y7203357D02*
X43940477Y7265261D01*
X43940477Y7265261D02*
X43692858Y7265261D01*
X43692858Y7265261D02*
X43569048Y7203357D01*
X44126191Y6460500D02*
X44002382Y6398595D01*
X44002382Y6398595D02*
X43692858Y6398595D01*
X43692858Y6398595D02*
X43569048Y6460500D01*
X43569048Y6460500D02*
X43507144Y6584309D01*
X43507144Y6584309D02*
X43507144Y6708119D01*
X43507144Y6708119D02*
X43569048Y6831928D01*
X43569048Y6831928D02*
X43692858Y6893833D01*
X43692858Y6893833D02*
X44002382Y6893833D01*
X44002382Y6893833D02*
X44126191Y6955738D01*
X44745238Y6398595D02*
X44745238Y7265261D01*
X44745238Y7017642D02*
X44807143Y7141452D01*
X44807143Y7141452D02*
X44869048Y7203357D01*
X44869048Y7203357D02*
X44992857Y7265261D01*
X44992857Y7265261D02*
X45116667Y7265261D01*
X45426191Y7265261D02*
X45735715Y6398595D01*
X46045238Y7265261D02*
X45735715Y6398595D01*
X45735715Y6398595D02*
X45611905Y6089071D01*
X45611905Y6089071D02*
X45550000Y6027166D01*
X45550000Y6027166D02*
X45426191Y5965261D01*
X47530952Y7079547D02*
X47964286Y7079547D01*
X48150000Y6398595D02*
X47530952Y6398595D01*
X47530952Y6398595D02*
X47530952Y7698595D01*
X47530952Y7698595D02*
X48150000Y7698595D01*
X48707142Y7265261D02*
X48707142Y6398595D01*
X48707142Y7141452D02*
X48769047Y7203357D01*
X48769047Y7203357D02*
X48892857Y7265261D01*
X48892857Y7265261D02*
X49078571Y7265261D01*
X49078571Y7265261D02*
X49202380Y7203357D01*
X49202380Y7203357D02*
X49264285Y7079547D01*
X49264285Y7079547D02*
X49264285Y6398595D01*
X50440475Y6460500D02*
X50316666Y6398595D01*
X50316666Y6398595D02*
X50069047Y6398595D01*
X50069047Y6398595D02*
X49945237Y6460500D01*
X49945237Y6460500D02*
X49883332Y6522404D01*
X49883332Y6522404D02*
X49821428Y6646214D01*
X49821428Y6646214D02*
X49821428Y7017642D01*
X49821428Y7017642D02*
X49883332Y7141452D01*
X49883332Y7141452D02*
X49945237Y7203357D01*
X49945237Y7203357D02*
X50069047Y7265261D01*
X50069047Y7265261D02*
X50316666Y7265261D01*
X50316666Y7265261D02*
X50440475Y7203357D01*
X51183333Y6398595D02*
X51059523Y6460500D01*
X51059523Y6460500D02*
X50997618Y6522404D01*
X50997618Y6522404D02*
X50935714Y6646214D01*
X50935714Y6646214D02*
X50935714Y7017642D01*
X50935714Y7017642D02*
X50997618Y7141452D01*
X50997618Y7141452D02*
X51059523Y7203357D01*
X51059523Y7203357D02*
X51183333Y7265261D01*
X51183333Y7265261D02*
X51369047Y7265261D01*
X51369047Y7265261D02*
X51492856Y7203357D01*
X51492856Y7203357D02*
X51554761Y7141452D01*
X51554761Y7141452D02*
X51616666Y7017642D01*
X51616666Y7017642D02*
X51616666Y6646214D01*
X51616666Y6646214D02*
X51554761Y6522404D01*
X51554761Y6522404D02*
X51492856Y6460500D01*
X51492856Y6460500D02*
X51369047Y6398595D01*
X51369047Y6398595D02*
X51183333Y6398595D01*
X52730951Y6398595D02*
X52730951Y7698595D01*
X52730951Y6460500D02*
X52607142Y6398595D01*
X52607142Y6398595D02*
X52359523Y6398595D01*
X52359523Y6398595D02*
X52235713Y6460500D01*
X52235713Y6460500D02*
X52173808Y6522404D01*
X52173808Y6522404D02*
X52111904Y6646214D01*
X52111904Y6646214D02*
X52111904Y7017642D01*
X52111904Y7017642D02*
X52173808Y7141452D01*
X52173808Y7141452D02*
X52235713Y7203357D01*
X52235713Y7203357D02*
X52359523Y7265261D01*
X52359523Y7265261D02*
X52607142Y7265261D01*
X52607142Y7265261D02*
X52730951Y7203357D01*
X53845236Y6460500D02*
X53721427Y6398595D01*
X53721427Y6398595D02*
X53473808Y6398595D01*
X53473808Y6398595D02*
X53349998Y6460500D01*
X53349998Y6460500D02*
X53288094Y6584309D01*
X53288094Y6584309D02*
X53288094Y7079547D01*
X53288094Y7079547D02*
X53349998Y7203357D01*
X53349998Y7203357D02*
X53473808Y7265261D01*
X53473808Y7265261D02*
X53721427Y7265261D01*
X53721427Y7265261D02*
X53845236Y7203357D01*
X53845236Y7203357D02*
X53907141Y7079547D01*
X53907141Y7079547D02*
X53907141Y6955738D01*
X53907141Y6955738D02*
X53288094Y6831928D01*
X54464284Y6398595D02*
X54464284Y7265261D01*
X54464284Y7017642D02*
X54526189Y7141452D01*
X54526189Y7141452D02*
X54588094Y7203357D01*
X54588094Y7203357D02*
X54711903Y7265261D01*
X54711903Y7265261D02*
X54835713Y7265261D01*
D12*
X62893928Y34557143D02*
X62893928Y35414286D01*
X64393928Y34985714D02*
X62893928Y34985714D01*
X62893928Y35771428D02*
X64393928Y36771428D01*
X62893928Y36771428D02*
X64393928Y35771428D01*
X56843928Y33192857D02*
X56843928Y34121429D01*
X56843928Y34121429D02*
X57415357Y33621429D01*
X57415357Y33621429D02*
X57415357Y33835714D01*
X57415357Y33835714D02*
X57486785Y33978572D01*
X57486785Y33978572D02*
X57558214Y34050000D01*
X57558214Y34050000D02*
X57701071Y34121429D01*
X57701071Y34121429D02*
X58058214Y34121429D01*
X58058214Y34121429D02*
X58201071Y34050000D01*
X58201071Y34050000D02*
X58272500Y33978572D01*
X58272500Y33978572D02*
X58343928Y33835714D01*
X58343928Y33835714D02*
X58343928Y33407143D01*
X58343928Y33407143D02*
X58272500Y33264286D01*
X58272500Y33264286D02*
X58201071Y33192857D01*
X56843928Y34550000D02*
X58343928Y35050000D01*
X58343928Y35050000D02*
X56843928Y35550000D01*
X56843928Y35907142D02*
X56843928Y36835714D01*
X56843928Y36835714D02*
X57415357Y36335714D01*
X57415357Y36335714D02*
X57415357Y36549999D01*
X57415357Y36549999D02*
X57486785Y36692857D01*
X57486785Y36692857D02*
X57558214Y36764285D01*
X57558214Y36764285D02*
X57701071Y36835714D01*
X57701071Y36835714D02*
X58058214Y36835714D01*
X58058214Y36835714D02*
X58201071Y36764285D01*
X58201071Y36764285D02*
X58272500Y36692857D01*
X58272500Y36692857D02*
X58343928Y36549999D01*
X58343928Y36549999D02*
X58343928Y36121428D01*
X58343928Y36121428D02*
X58272500Y35978571D01*
X58272500Y35978571D02*
X58201071Y35907142D01*
X93643928Y-23678571D02*
X93643928Y-24392857D01*
X93643928Y-24392857D02*
X92143928Y-24392857D01*
X92858214Y-23178571D02*
X92858214Y-22678571D01*
X93643928Y-22464285D02*
X93643928Y-23178571D01*
X93643928Y-23178571D02*
X92143928Y-23178571D01*
X92143928Y-23178571D02*
X92143928Y-22464285D01*
X93643928Y-21821428D02*
X92143928Y-21821428D01*
X92143928Y-21821428D02*
X92143928Y-21464285D01*
X92143928Y-21464285D02*
X92215357Y-21249999D01*
X92215357Y-21249999D02*
X92358214Y-21107142D01*
X92358214Y-21107142D02*
X92501071Y-21035713D01*
X92501071Y-21035713D02*
X92786785Y-20964285D01*
X92786785Y-20964285D02*
X93001071Y-20964285D01*
X93001071Y-20964285D02*
X93286785Y-21035713D01*
X93286785Y-21035713D02*
X93429642Y-21107142D01*
X93429642Y-21107142D02*
X93572500Y-21249999D01*
X93572500Y-21249999D02*
X93643928Y-21464285D01*
X93643928Y-21464285D02*
X93643928Y-21821428D01*
X93572500Y-20392856D02*
X93643928Y-20178571D01*
X93643928Y-20178571D02*
X93643928Y-19821428D01*
X93643928Y-19821428D02*
X93572500Y-19678571D01*
X93572500Y-19678571D02*
X93501071Y-19607142D01*
X93501071Y-19607142D02*
X93358214Y-19535713D01*
X93358214Y-19535713D02*
X93215357Y-19535713D01*
X93215357Y-19535713D02*
X93072500Y-19607142D01*
X93072500Y-19607142D02*
X93001071Y-19678571D01*
X93001071Y-19678571D02*
X92929642Y-19821428D01*
X92929642Y-19821428D02*
X92858214Y-20107142D01*
X92858214Y-20107142D02*
X92786785Y-20249999D01*
X92786785Y-20249999D02*
X92715357Y-20321428D01*
X92715357Y-20321428D02*
X92572500Y-20392856D01*
X92572500Y-20392856D02*
X92429642Y-20392856D01*
X92429642Y-20392856D02*
X92286785Y-20321428D01*
X92286785Y-20321428D02*
X92215357Y-20249999D01*
X92215357Y-20249999D02*
X92143928Y-20107142D01*
X92143928Y-20107142D02*
X92143928Y-19749999D01*
X92143928Y-19749999D02*
X92215357Y-19535713D01*
X55772500Y32771428D02*
X55772500Y33914286D01*
X56343928Y33342857D02*
X55201071Y33342857D01*
X54843928Y35342857D02*
X54843928Y34628571D01*
X54843928Y34628571D02*
X55558214Y34557143D01*
X55558214Y34557143D02*
X55486785Y34628571D01*
X55486785Y34628571D02*
X55415357Y34771429D01*
X55415357Y34771429D02*
X55415357Y35128571D01*
X55415357Y35128571D02*
X55486785Y35271429D01*
X55486785Y35271429D02*
X55558214Y35342857D01*
X55558214Y35342857D02*
X55701071Y35414286D01*
X55701071Y35414286D02*
X56058214Y35414286D01*
X56058214Y35414286D02*
X56201071Y35342857D01*
X56201071Y35342857D02*
X56272500Y35271429D01*
X56272500Y35271429D02*
X56343928Y35128571D01*
X56343928Y35128571D02*
X56343928Y34771429D01*
X56343928Y34771429D02*
X56272500Y34628571D01*
X56272500Y34628571D02*
X56201071Y34557143D01*
X54843928Y35842857D02*
X56343928Y36342857D01*
X56343928Y36342857D02*
X54843928Y36842857D01*
X99893928Y-26064284D02*
X101393928Y-25707141D01*
X101393928Y-25707141D02*
X100322500Y-25421427D01*
X100322500Y-25421427D02*
X101393928Y-25135712D01*
X101393928Y-25135712D02*
X99893928Y-24778570D01*
X101322500Y-24278569D02*
X101393928Y-24064284D01*
X101393928Y-24064284D02*
X101393928Y-23707141D01*
X101393928Y-23707141D02*
X101322500Y-23564284D01*
X101322500Y-23564284D02*
X101251071Y-23492855D01*
X101251071Y-23492855D02*
X101108214Y-23421426D01*
X101108214Y-23421426D02*
X100965357Y-23421426D01*
X100965357Y-23421426D02*
X100822500Y-23492855D01*
X100822500Y-23492855D02*
X100751071Y-23564284D01*
X100751071Y-23564284D02*
X100679642Y-23707141D01*
X100679642Y-23707141D02*
X100608214Y-23992855D01*
X100608214Y-23992855D02*
X100536785Y-24135712D01*
X100536785Y-24135712D02*
X100465357Y-24207141D01*
X100465357Y-24207141D02*
X100322500Y-24278569D01*
X100322500Y-24278569D02*
X100179642Y-24278569D01*
X100179642Y-24278569D02*
X100036785Y-24207141D01*
X100036785Y-24207141D02*
X99965357Y-24135712D01*
X99965357Y-24135712D02*
X99893928Y-23992855D01*
X99893928Y-23992855D02*
X99893928Y-23635712D01*
X99893928Y-23635712D02*
X99965357Y-23421426D01*
X100036785Y-22849998D02*
X99965357Y-22778570D01*
X99965357Y-22778570D02*
X99893928Y-22635713D01*
X99893928Y-22635713D02*
X99893928Y-22278570D01*
X99893928Y-22278570D02*
X99965357Y-22135713D01*
X99965357Y-22135713D02*
X100036785Y-22064284D01*
X100036785Y-22064284D02*
X100179642Y-21992855D01*
X100179642Y-21992855D02*
X100322500Y-21992855D01*
X100322500Y-21992855D02*
X100536785Y-22064284D01*
X100536785Y-22064284D02*
X101393928Y-22921427D01*
X101393928Y-22921427D02*
X101393928Y-21992855D01*
X100536785Y-21135713D02*
X100465357Y-21278570D01*
X100465357Y-21278570D02*
X100393928Y-21349999D01*
X100393928Y-21349999D02*
X100251071Y-21421427D01*
X100251071Y-21421427D02*
X100179642Y-21421427D01*
X100179642Y-21421427D02*
X100036785Y-21349999D01*
X100036785Y-21349999D02*
X99965357Y-21278570D01*
X99965357Y-21278570D02*
X99893928Y-21135713D01*
X99893928Y-21135713D02*
X99893928Y-20849999D01*
X99893928Y-20849999D02*
X99965357Y-20707142D01*
X99965357Y-20707142D02*
X100036785Y-20635713D01*
X100036785Y-20635713D02*
X100179642Y-20564284D01*
X100179642Y-20564284D02*
X100251071Y-20564284D01*
X100251071Y-20564284D02*
X100393928Y-20635713D01*
X100393928Y-20635713D02*
X100465357Y-20707142D01*
X100465357Y-20707142D02*
X100536785Y-20849999D01*
X100536785Y-20849999D02*
X100536785Y-21135713D01*
X100536785Y-21135713D02*
X100608214Y-21278570D01*
X100608214Y-21278570D02*
X100679642Y-21349999D01*
X100679642Y-21349999D02*
X100822500Y-21421427D01*
X100822500Y-21421427D02*
X101108214Y-21421427D01*
X101108214Y-21421427D02*
X101251071Y-21349999D01*
X101251071Y-21349999D02*
X101322500Y-21278570D01*
X101322500Y-21278570D02*
X101393928Y-21135713D01*
X101393928Y-21135713D02*
X101393928Y-20849999D01*
X101393928Y-20849999D02*
X101322500Y-20707142D01*
X101322500Y-20707142D02*
X101251071Y-20635713D01*
X101251071Y-20635713D02*
X101108214Y-20564284D01*
X101108214Y-20564284D02*
X100822500Y-20564284D01*
X100822500Y-20564284D02*
X100679642Y-20635713D01*
X100679642Y-20635713D02*
X100608214Y-20707142D01*
X100608214Y-20707142D02*
X100536785Y-20849999D01*
X101393928Y-19135713D02*
X101393928Y-19992856D01*
X101393928Y-19564285D02*
X99893928Y-19564285D01*
X99893928Y-19564285D02*
X100108214Y-19707142D01*
X100108214Y-19707142D02*
X100251071Y-19849999D01*
X100251071Y-19849999D02*
X100322500Y-19992856D01*
X100036785Y-18564285D02*
X99965357Y-18492857D01*
X99965357Y-18492857D02*
X99893928Y-18350000D01*
X99893928Y-18350000D02*
X99893928Y-17992857D01*
X99893928Y-17992857D02*
X99965357Y-17850000D01*
X99965357Y-17850000D02*
X100036785Y-17778571D01*
X100036785Y-17778571D02*
X100179642Y-17707142D01*
X100179642Y-17707142D02*
X100322500Y-17707142D01*
X100322500Y-17707142D02*
X100536785Y-17778571D01*
X100536785Y-17778571D02*
X101393928Y-18635714D01*
X101393928Y-18635714D02*
X101393928Y-17707142D01*
D11*
X9411190Y-24111904D02*
X9363571Y-24254761D01*
X9363571Y-24254761D02*
X9315952Y-24302380D01*
X9315952Y-24302380D02*
X9220714Y-24349999D01*
X9220714Y-24349999D02*
X9077857Y-24349999D01*
X9077857Y-24349999D02*
X8982619Y-24302380D01*
X8982619Y-24302380D02*
X8935000Y-24254761D01*
X8935000Y-24254761D02*
X8887380Y-24159523D01*
X8887380Y-24159523D02*
X8887380Y-23778571D01*
X8887380Y-23778571D02*
X9887380Y-23778571D01*
X9887380Y-23778571D02*
X9887380Y-24111904D01*
X9887380Y-24111904D02*
X9839761Y-24207142D01*
X9839761Y-24207142D02*
X9792142Y-24254761D01*
X9792142Y-24254761D02*
X9696904Y-24302380D01*
X9696904Y-24302380D02*
X9601666Y-24302380D01*
X9601666Y-24302380D02*
X9506428Y-24254761D01*
X9506428Y-24254761D02*
X9458809Y-24207142D01*
X9458809Y-24207142D02*
X9411190Y-24111904D01*
X9411190Y-24111904D02*
X9411190Y-23778571D01*
X9887380Y-24778571D02*
X9077857Y-24778571D01*
X9077857Y-24778571D02*
X8982619Y-24826190D01*
X8982619Y-24826190D02*
X8935000Y-24873809D01*
X8935000Y-24873809D02*
X8887380Y-24969047D01*
X8887380Y-24969047D02*
X8887380Y-25159523D01*
X8887380Y-25159523D02*
X8935000Y-25254761D01*
X8935000Y-25254761D02*
X8982619Y-25302380D01*
X8982619Y-25302380D02*
X9077857Y-25349999D01*
X9077857Y-25349999D02*
X9887380Y-25349999D01*
X9887380Y-25683333D02*
X9887380Y-26254761D01*
X8887380Y-25969047D02*
X9887380Y-25969047D01*
X9887380Y-26445238D02*
X9887380Y-27016666D01*
X8887380Y-26730952D02*
X9887380Y-26730952D01*
X9887380Y-27540476D02*
X9887380Y-27730952D01*
X9887380Y-27730952D02*
X9839761Y-27826190D01*
X9839761Y-27826190D02*
X9744523Y-27921428D01*
X9744523Y-27921428D02*
X9554047Y-27969047D01*
X9554047Y-27969047D02*
X9220714Y-27969047D01*
X9220714Y-27969047D02*
X9030238Y-27921428D01*
X9030238Y-27921428D02*
X8935000Y-27826190D01*
X8935000Y-27826190D02*
X8887380Y-27730952D01*
X8887380Y-27730952D02*
X8887380Y-27540476D01*
X8887380Y-27540476D02*
X8935000Y-27445238D01*
X8935000Y-27445238D02*
X9030238Y-27350000D01*
X9030238Y-27350000D02*
X9220714Y-27302381D01*
X9220714Y-27302381D02*
X9554047Y-27302381D01*
X9554047Y-27302381D02*
X9744523Y-27350000D01*
X9744523Y-27350000D02*
X9839761Y-27445238D01*
X9839761Y-27445238D02*
X9887380Y-27540476D01*
X8887380Y-28397619D02*
X9887380Y-28397619D01*
X9887380Y-28397619D02*
X8887380Y-28969047D01*
X8887380Y-28969047D02*
X9887380Y-28969047D01*
X8935000Y-29397619D02*
X8887380Y-29540476D01*
X8887380Y-29540476D02*
X8887380Y-29778571D01*
X8887380Y-29778571D02*
X8935000Y-29873809D01*
X8935000Y-29873809D02*
X8982619Y-29921428D01*
X8982619Y-29921428D02*
X9077857Y-29969047D01*
X9077857Y-29969047D02*
X9173095Y-29969047D01*
X9173095Y-29969047D02*
X9268333Y-29921428D01*
X9268333Y-29921428D02*
X9315952Y-29873809D01*
X9315952Y-29873809D02*
X9363571Y-29778571D01*
X9363571Y-29778571D02*
X9411190Y-29588095D01*
X9411190Y-29588095D02*
X9458809Y-29492857D01*
X9458809Y-29492857D02*
X9506428Y-29445238D01*
X9506428Y-29445238D02*
X9601666Y-29397619D01*
X9601666Y-29397619D02*
X9696904Y-29397619D01*
X9696904Y-29397619D02*
X9792142Y-29445238D01*
X9792142Y-29445238D02*
X9839761Y-29492857D01*
X9839761Y-29492857D02*
X9887380Y-29588095D01*
X9887380Y-29588095D02*
X9887380Y-29826190D01*
X9887380Y-29826190D02*
X9839761Y-29969047D01*
X96190476Y35537380D02*
X96190476Y36537380D01*
X96190476Y36537380D02*
X96523809Y35823095D01*
X96523809Y35823095D02*
X96857142Y36537380D01*
X96857142Y36537380D02*
X96857142Y35537380D01*
X97761904Y36204047D02*
X97761904Y35537380D01*
X97523809Y36585000D02*
X97285714Y35870714D01*
X97285714Y35870714D02*
X97904761Y35870714D01*
X96190476Y-66462619D02*
X96190476Y-65462619D01*
X96190476Y-65462619D02*
X96523809Y-66176904D01*
X96523809Y-66176904D02*
X96857142Y-65462619D01*
X96857142Y-65462619D02*
X96857142Y-66462619D01*
X97761904Y-65795952D02*
X97761904Y-66462619D01*
X97523809Y-65415000D02*
X97285714Y-66129285D01*
X97285714Y-66129285D02*
X97904761Y-66129285D01*
%TO.C,U4*%
X54112619Y25238095D02*
X54922142Y25238095D01*
X54922142Y25238095D02*
X55017380Y25285714D01*
X55017380Y25285714D02*
X55065000Y25333333D01*
X55065000Y25333333D02*
X55112619Y25428571D01*
X55112619Y25428571D02*
X55112619Y25619047D01*
X55112619Y25619047D02*
X55065000Y25714285D01*
X55065000Y25714285D02*
X55017380Y25761904D01*
X55017380Y25761904D02*
X54922142Y25809523D01*
X54922142Y25809523D02*
X54112619Y25809523D01*
X54445952Y26714285D02*
X55112619Y26714285D01*
X54065000Y26476190D02*
X54779285Y26238095D01*
X54779285Y26238095D02*
X54779285Y26857142D01*
%TO.C,R5*%
X37062619Y-47866666D02*
X36586428Y-48199999D01*
X37062619Y-48438094D02*
X36062619Y-48438094D01*
X36062619Y-48438094D02*
X36062619Y-48057142D01*
X36062619Y-48057142D02*
X36110238Y-47961904D01*
X36110238Y-47961904D02*
X36157857Y-47914285D01*
X36157857Y-47914285D02*
X36253095Y-47866666D01*
X36253095Y-47866666D02*
X36395952Y-47866666D01*
X36395952Y-47866666D02*
X36491190Y-47914285D01*
X36491190Y-47914285D02*
X36538809Y-47961904D01*
X36538809Y-47961904D02*
X36586428Y-48057142D01*
X36586428Y-48057142D02*
X36586428Y-48438094D01*
X36062619Y-46961904D02*
X36062619Y-47438094D01*
X36062619Y-47438094D02*
X36538809Y-47485713D01*
X36538809Y-47485713D02*
X36491190Y-47438094D01*
X36491190Y-47438094D02*
X36443571Y-47342856D01*
X36443571Y-47342856D02*
X36443571Y-47104761D01*
X36443571Y-47104761D02*
X36491190Y-47009523D01*
X36491190Y-47009523D02*
X36538809Y-46961904D01*
X36538809Y-46961904D02*
X36634047Y-46914285D01*
X36634047Y-46914285D02*
X36872142Y-46914285D01*
X36872142Y-46914285D02*
X36967380Y-46961904D01*
X36967380Y-46961904D02*
X37015000Y-47009523D01*
X37015000Y-47009523D02*
X37062619Y-47104761D01*
X37062619Y-47104761D02*
X37062619Y-47342856D01*
X37062619Y-47342856D02*
X37015000Y-47438094D01*
X37015000Y-47438094D02*
X36967380Y-47485713D01*
%TO.C,D5*%
X-738094Y-32662619D02*
X-738094Y-31662619D01*
X-738094Y-31662619D02*
X-499999Y-31662619D01*
X-499999Y-31662619D02*
X-357142Y-31710238D01*
X-357142Y-31710238D02*
X-261904Y-31805476D01*
X-261904Y-31805476D02*
X-214285Y-31900714D01*
X-214285Y-31900714D02*
X-166666Y-32091190D01*
X-166666Y-32091190D02*
X-166666Y-32234047D01*
X-166666Y-32234047D02*
X-214285Y-32424523D01*
X-214285Y-32424523D02*
X-261904Y-32519761D01*
X-261904Y-32519761D02*
X-357142Y-32615000D01*
X-357142Y-32615000D02*
X-499999Y-32662619D01*
X-499999Y-32662619D02*
X-738094Y-32662619D01*
X738095Y-31662619D02*
X261905Y-31662619D01*
X261905Y-31662619D02*
X214286Y-32138809D01*
X214286Y-32138809D02*
X261905Y-32091190D01*
X261905Y-32091190D02*
X357143Y-32043571D01*
X357143Y-32043571D02*
X595238Y-32043571D01*
X595238Y-32043571D02*
X690476Y-32091190D01*
X690476Y-32091190D02*
X738095Y-32138809D01*
X738095Y-32138809D02*
X785714Y-32234047D01*
X785714Y-32234047D02*
X785714Y-32472142D01*
X785714Y-32472142D02*
X738095Y-32567380D01*
X738095Y-32567380D02*
X690476Y-32615000D01*
X690476Y-32615000D02*
X595238Y-32662619D01*
X595238Y-32662619D02*
X357143Y-32662619D01*
X357143Y-32662619D02*
X261905Y-32615000D01*
X261905Y-32615000D02*
X214286Y-32567380D01*
%TO.C,SW3*%
X61166667Y18085000D02*
X61309524Y18037380D01*
X61309524Y18037380D02*
X61547619Y18037380D01*
X61547619Y18037380D02*
X61642857Y18085000D01*
X61642857Y18085000D02*
X61690476Y18132619D01*
X61690476Y18132619D02*
X61738095Y18227857D01*
X61738095Y18227857D02*
X61738095Y18323095D01*
X61738095Y18323095D02*
X61690476Y18418333D01*
X61690476Y18418333D02*
X61642857Y18465952D01*
X61642857Y18465952D02*
X61547619Y18513571D01*
X61547619Y18513571D02*
X61357143Y18561190D01*
X61357143Y18561190D02*
X61261905Y18608809D01*
X61261905Y18608809D02*
X61214286Y18656428D01*
X61214286Y18656428D02*
X61166667Y18751666D01*
X61166667Y18751666D02*
X61166667Y18846904D01*
X61166667Y18846904D02*
X61214286Y18942142D01*
X61214286Y18942142D02*
X61261905Y18989761D01*
X61261905Y18989761D02*
X61357143Y19037380D01*
X61357143Y19037380D02*
X61595238Y19037380D01*
X61595238Y19037380D02*
X61738095Y18989761D01*
X62071429Y19037380D02*
X62309524Y18037380D01*
X62309524Y18037380D02*
X62500000Y18751666D01*
X62500000Y18751666D02*
X62690476Y18037380D01*
X62690476Y18037380D02*
X62928572Y19037380D01*
X63214286Y19037380D02*
X63833333Y19037380D01*
X63833333Y19037380D02*
X63500000Y18656428D01*
X63500000Y18656428D02*
X63642857Y18656428D01*
X63642857Y18656428D02*
X63738095Y18608809D01*
X63738095Y18608809D02*
X63785714Y18561190D01*
X63785714Y18561190D02*
X63833333Y18465952D01*
X63833333Y18465952D02*
X63833333Y18227857D01*
X63833333Y18227857D02*
X63785714Y18132619D01*
X63785714Y18132619D02*
X63738095Y18085000D01*
X63738095Y18085000D02*
X63642857Y18037380D01*
X63642857Y18037380D02*
X63357143Y18037380D01*
X63357143Y18037380D02*
X63261905Y18085000D01*
X63261905Y18085000D02*
X63214286Y18132619D01*
%TO.C,R4*%
X61687619Y-62366666D02*
X61211428Y-62699999D01*
X61687619Y-62938094D02*
X60687619Y-62938094D01*
X60687619Y-62938094D02*
X60687619Y-62557142D01*
X60687619Y-62557142D02*
X60735238Y-62461904D01*
X60735238Y-62461904D02*
X60782857Y-62414285D01*
X60782857Y-62414285D02*
X60878095Y-62366666D01*
X60878095Y-62366666D02*
X61020952Y-62366666D01*
X61020952Y-62366666D02*
X61116190Y-62414285D01*
X61116190Y-62414285D02*
X61163809Y-62461904D01*
X61163809Y-62461904D02*
X61211428Y-62557142D01*
X61211428Y-62557142D02*
X61211428Y-62938094D01*
X61020952Y-61509523D02*
X61687619Y-61509523D01*
X60640000Y-61747618D02*
X61354285Y-61985713D01*
X61354285Y-61985713D02*
X61354285Y-61366666D01*
%TO.C,Q3*%
X43607857Y17304761D02*
X43560238Y17209523D01*
X43560238Y17209523D02*
X43465000Y17114285D01*
X43465000Y17114285D02*
X43322142Y16971428D01*
X43322142Y16971428D02*
X43274523Y16876190D01*
X43274523Y16876190D02*
X43274523Y16780952D01*
X43512619Y16828571D02*
X43465000Y16733333D01*
X43465000Y16733333D02*
X43369761Y16638095D01*
X43369761Y16638095D02*
X43179285Y16590476D01*
X43179285Y16590476D02*
X42845952Y16590476D01*
X42845952Y16590476D02*
X42655476Y16638095D01*
X42655476Y16638095D02*
X42560238Y16733333D01*
X42560238Y16733333D02*
X42512619Y16828571D01*
X42512619Y16828571D02*
X42512619Y17019047D01*
X42512619Y17019047D02*
X42560238Y17114285D01*
X42560238Y17114285D02*
X42655476Y17209523D01*
X42655476Y17209523D02*
X42845952Y17257142D01*
X42845952Y17257142D02*
X43179285Y17257142D01*
X43179285Y17257142D02*
X43369761Y17209523D01*
X43369761Y17209523D02*
X43465000Y17114285D01*
X43465000Y17114285D02*
X43512619Y17019047D01*
X43512619Y17019047D02*
X43512619Y16828571D01*
X42512619Y17590476D02*
X42512619Y18209523D01*
X42512619Y18209523D02*
X42893571Y17876190D01*
X42893571Y17876190D02*
X42893571Y18019047D01*
X42893571Y18019047D02*
X42941190Y18114285D01*
X42941190Y18114285D02*
X42988809Y18161904D01*
X42988809Y18161904D02*
X43084047Y18209523D01*
X43084047Y18209523D02*
X43322142Y18209523D01*
X43322142Y18209523D02*
X43417380Y18161904D01*
X43417380Y18161904D02*
X43465000Y18114285D01*
X43465000Y18114285D02*
X43512619Y18019047D01*
X43512619Y18019047D02*
X43512619Y17733333D01*
X43512619Y17733333D02*
X43465000Y17638095D01*
X43465000Y17638095D02*
X43417380Y17590476D01*
%TO.C,SW1*%
X1166667Y18085000D02*
X1309524Y18037380D01*
X1309524Y18037380D02*
X1547619Y18037380D01*
X1547619Y18037380D02*
X1642857Y18085000D01*
X1642857Y18085000D02*
X1690476Y18132619D01*
X1690476Y18132619D02*
X1738095Y18227857D01*
X1738095Y18227857D02*
X1738095Y18323095D01*
X1738095Y18323095D02*
X1690476Y18418333D01*
X1690476Y18418333D02*
X1642857Y18465952D01*
X1642857Y18465952D02*
X1547619Y18513571D01*
X1547619Y18513571D02*
X1357143Y18561190D01*
X1357143Y18561190D02*
X1261905Y18608809D01*
X1261905Y18608809D02*
X1214286Y18656428D01*
X1214286Y18656428D02*
X1166667Y18751666D01*
X1166667Y18751666D02*
X1166667Y18846904D01*
X1166667Y18846904D02*
X1214286Y18942142D01*
X1214286Y18942142D02*
X1261905Y18989761D01*
X1261905Y18989761D02*
X1357143Y19037380D01*
X1357143Y19037380D02*
X1595238Y19037380D01*
X1595238Y19037380D02*
X1738095Y18989761D01*
X2071429Y19037380D02*
X2309524Y18037380D01*
X2309524Y18037380D02*
X2500000Y18751666D01*
X2500000Y18751666D02*
X2690476Y18037380D01*
X2690476Y18037380D02*
X2928572Y19037380D01*
X3833333Y18037380D02*
X3261905Y18037380D01*
X3547619Y18037380D02*
X3547619Y19037380D01*
X3547619Y19037380D02*
X3452381Y18894523D01*
X3452381Y18894523D02*
X3357143Y18799285D01*
X3357143Y18799285D02*
X3261905Y18751666D01*
%TO.C,R15*%
X36632619Y-3792857D02*
X36156428Y-4126190D01*
X36632619Y-4364285D02*
X35632619Y-4364285D01*
X35632619Y-4364285D02*
X35632619Y-3983333D01*
X35632619Y-3983333D02*
X35680238Y-3888095D01*
X35680238Y-3888095D02*
X35727857Y-3840476D01*
X35727857Y-3840476D02*
X35823095Y-3792857D01*
X35823095Y-3792857D02*
X35965952Y-3792857D01*
X35965952Y-3792857D02*
X36061190Y-3840476D01*
X36061190Y-3840476D02*
X36108809Y-3888095D01*
X36108809Y-3888095D02*
X36156428Y-3983333D01*
X36156428Y-3983333D02*
X36156428Y-4364285D01*
X36632619Y-2840476D02*
X36632619Y-3411904D01*
X36632619Y-3126190D02*
X35632619Y-3126190D01*
X35632619Y-3126190D02*
X35775476Y-3221428D01*
X35775476Y-3221428D02*
X35870714Y-3316666D01*
X35870714Y-3316666D02*
X35918333Y-3411904D01*
X35632619Y-1935714D02*
X35632619Y-2411904D01*
X35632619Y-2411904D02*
X36108809Y-2459523D01*
X36108809Y-2459523D02*
X36061190Y-2411904D01*
X36061190Y-2411904D02*
X36013571Y-2316666D01*
X36013571Y-2316666D02*
X36013571Y-2078571D01*
X36013571Y-2078571D02*
X36061190Y-1983333D01*
X36061190Y-1983333D02*
X36108809Y-1935714D01*
X36108809Y-1935714D02*
X36204047Y-1888095D01*
X36204047Y-1888095D02*
X36442142Y-1888095D01*
X36442142Y-1888095D02*
X36537380Y-1935714D01*
X36537380Y-1935714D02*
X36585000Y-1983333D01*
X36585000Y-1983333D02*
X36632619Y-2078571D01*
X36632619Y-2078571D02*
X36632619Y-2316666D01*
X36632619Y-2316666D02*
X36585000Y-2411904D01*
X36585000Y-2411904D02*
X36537380Y-2459523D01*
%TO.C,Q2*%
X51497857Y17304761D02*
X51450238Y17209523D01*
X51450238Y17209523D02*
X51355000Y17114285D01*
X51355000Y17114285D02*
X51212142Y16971428D01*
X51212142Y16971428D02*
X51164523Y16876190D01*
X51164523Y16876190D02*
X51164523Y16780952D01*
X51402619Y16828571D02*
X51355000Y16733333D01*
X51355000Y16733333D02*
X51259761Y16638095D01*
X51259761Y16638095D02*
X51069285Y16590476D01*
X51069285Y16590476D02*
X50735952Y16590476D01*
X50735952Y16590476D02*
X50545476Y16638095D01*
X50545476Y16638095D02*
X50450238Y16733333D01*
X50450238Y16733333D02*
X50402619Y16828571D01*
X50402619Y16828571D02*
X50402619Y17019047D01*
X50402619Y17019047D02*
X50450238Y17114285D01*
X50450238Y17114285D02*
X50545476Y17209523D01*
X50545476Y17209523D02*
X50735952Y17257142D01*
X50735952Y17257142D02*
X51069285Y17257142D01*
X51069285Y17257142D02*
X51259761Y17209523D01*
X51259761Y17209523D02*
X51355000Y17114285D01*
X51355000Y17114285D02*
X51402619Y17019047D01*
X51402619Y17019047D02*
X51402619Y16828571D01*
X50497857Y17638095D02*
X50450238Y17685714D01*
X50450238Y17685714D02*
X50402619Y17780952D01*
X50402619Y17780952D02*
X50402619Y18019047D01*
X50402619Y18019047D02*
X50450238Y18114285D01*
X50450238Y18114285D02*
X50497857Y18161904D01*
X50497857Y18161904D02*
X50593095Y18209523D01*
X50593095Y18209523D02*
X50688333Y18209523D01*
X50688333Y18209523D02*
X50831190Y18161904D01*
X50831190Y18161904D02*
X51402619Y17590476D01*
X51402619Y17590476D02*
X51402619Y18209523D01*
%TO.C,U2*%
X-5561904Y-18762619D02*
X-5561904Y-19572142D01*
X-5561904Y-19572142D02*
X-5514285Y-19667380D01*
X-5514285Y-19667380D02*
X-5466666Y-19715000D01*
X-5466666Y-19715000D02*
X-5371428Y-19762619D01*
X-5371428Y-19762619D02*
X-5180952Y-19762619D01*
X-5180952Y-19762619D02*
X-5085714Y-19715000D01*
X-5085714Y-19715000D02*
X-5038095Y-19667380D01*
X-5038095Y-19667380D02*
X-4990476Y-19572142D01*
X-4990476Y-19572142D02*
X-4990476Y-18762619D01*
X-4561904Y-18857857D02*
X-4514285Y-18810238D01*
X-4514285Y-18810238D02*
X-4419047Y-18762619D01*
X-4419047Y-18762619D02*
X-4180952Y-18762619D01*
X-4180952Y-18762619D02*
X-4085714Y-18810238D01*
X-4085714Y-18810238D02*
X-4038095Y-18857857D01*
X-4038095Y-18857857D02*
X-3990476Y-18953095D01*
X-3990476Y-18953095D02*
X-3990476Y-19048333D01*
X-3990476Y-19048333D02*
X-4038095Y-19191190D01*
X-4038095Y-19191190D02*
X-4609523Y-19762619D01*
X-4609523Y-19762619D02*
X-3990476Y-19762619D01*
%TO.C,SW2*%
X31166667Y18085000D02*
X31309524Y18037380D01*
X31309524Y18037380D02*
X31547619Y18037380D01*
X31547619Y18037380D02*
X31642857Y18085000D01*
X31642857Y18085000D02*
X31690476Y18132619D01*
X31690476Y18132619D02*
X31738095Y18227857D01*
X31738095Y18227857D02*
X31738095Y18323095D01*
X31738095Y18323095D02*
X31690476Y18418333D01*
X31690476Y18418333D02*
X31642857Y18465952D01*
X31642857Y18465952D02*
X31547619Y18513571D01*
X31547619Y18513571D02*
X31357143Y18561190D01*
X31357143Y18561190D02*
X31261905Y18608809D01*
X31261905Y18608809D02*
X31214286Y18656428D01*
X31214286Y18656428D02*
X31166667Y18751666D01*
X31166667Y18751666D02*
X31166667Y18846904D01*
X31166667Y18846904D02*
X31214286Y18942142D01*
X31214286Y18942142D02*
X31261905Y18989761D01*
X31261905Y18989761D02*
X31357143Y19037380D01*
X31357143Y19037380D02*
X31595238Y19037380D01*
X31595238Y19037380D02*
X31738095Y18989761D01*
X32071429Y19037380D02*
X32309524Y18037380D01*
X32309524Y18037380D02*
X32500000Y18751666D01*
X32500000Y18751666D02*
X32690476Y18037380D01*
X32690476Y18037380D02*
X32928572Y19037380D01*
X33261905Y18942142D02*
X33309524Y18989761D01*
X33309524Y18989761D02*
X33404762Y19037380D01*
X33404762Y19037380D02*
X33642857Y19037380D01*
X33642857Y19037380D02*
X33738095Y18989761D01*
X33738095Y18989761D02*
X33785714Y18942142D01*
X33785714Y18942142D02*
X33833333Y18846904D01*
X33833333Y18846904D02*
X33833333Y18751666D01*
X33833333Y18751666D02*
X33785714Y18608809D01*
X33785714Y18608809D02*
X33214286Y18037380D01*
X33214286Y18037380D02*
X33833333Y18037380D01*
%TO.C,C3*%
X39783333Y18372619D02*
X39735714Y18325000D01*
X39735714Y18325000D02*
X39592857Y18277380D01*
X39592857Y18277380D02*
X39497619Y18277380D01*
X39497619Y18277380D02*
X39354762Y18325000D01*
X39354762Y18325000D02*
X39259524Y18420238D01*
X39259524Y18420238D02*
X39211905Y18515476D01*
X39211905Y18515476D02*
X39164286Y18705952D01*
X39164286Y18705952D02*
X39164286Y18848809D01*
X39164286Y18848809D02*
X39211905Y19039285D01*
X39211905Y19039285D02*
X39259524Y19134523D01*
X39259524Y19134523D02*
X39354762Y19229761D01*
X39354762Y19229761D02*
X39497619Y19277380D01*
X39497619Y19277380D02*
X39592857Y19277380D01*
X39592857Y19277380D02*
X39735714Y19229761D01*
X39735714Y19229761D02*
X39783333Y19182142D01*
X40116667Y19277380D02*
X40735714Y19277380D01*
X40735714Y19277380D02*
X40402381Y18896428D01*
X40402381Y18896428D02*
X40545238Y18896428D01*
X40545238Y18896428D02*
X40640476Y18848809D01*
X40640476Y18848809D02*
X40688095Y18801190D01*
X40688095Y18801190D02*
X40735714Y18705952D01*
X40735714Y18705952D02*
X40735714Y18467857D01*
X40735714Y18467857D02*
X40688095Y18372619D01*
X40688095Y18372619D02*
X40640476Y18325000D01*
X40640476Y18325000D02*
X40545238Y18277380D01*
X40545238Y18277380D02*
X40259524Y18277380D01*
X40259524Y18277380D02*
X40164286Y18325000D01*
X40164286Y18325000D02*
X40116667Y18372619D01*
%TO.C,R8*%
X81233333Y-23562619D02*
X80900000Y-23086428D01*
X80661905Y-23562619D02*
X80661905Y-22562619D01*
X80661905Y-22562619D02*
X81042857Y-22562619D01*
X81042857Y-22562619D02*
X81138095Y-22610238D01*
X81138095Y-22610238D02*
X81185714Y-22657857D01*
X81185714Y-22657857D02*
X81233333Y-22753095D01*
X81233333Y-22753095D02*
X81233333Y-22895952D01*
X81233333Y-22895952D02*
X81185714Y-22991190D01*
X81185714Y-22991190D02*
X81138095Y-23038809D01*
X81138095Y-23038809D02*
X81042857Y-23086428D01*
X81042857Y-23086428D02*
X80661905Y-23086428D01*
X81804762Y-22991190D02*
X81709524Y-22943571D01*
X81709524Y-22943571D02*
X81661905Y-22895952D01*
X81661905Y-22895952D02*
X81614286Y-22800714D01*
X81614286Y-22800714D02*
X81614286Y-22753095D01*
X81614286Y-22753095D02*
X81661905Y-22657857D01*
X81661905Y-22657857D02*
X81709524Y-22610238D01*
X81709524Y-22610238D02*
X81804762Y-22562619D01*
X81804762Y-22562619D02*
X81995238Y-22562619D01*
X81995238Y-22562619D02*
X82090476Y-22610238D01*
X82090476Y-22610238D02*
X82138095Y-22657857D01*
X82138095Y-22657857D02*
X82185714Y-22753095D01*
X82185714Y-22753095D02*
X82185714Y-22800714D01*
X82185714Y-22800714D02*
X82138095Y-22895952D01*
X82138095Y-22895952D02*
X82090476Y-22943571D01*
X82090476Y-22943571D02*
X81995238Y-22991190D01*
X81995238Y-22991190D02*
X81804762Y-22991190D01*
X81804762Y-22991190D02*
X81709524Y-23038809D01*
X81709524Y-23038809D02*
X81661905Y-23086428D01*
X81661905Y-23086428D02*
X81614286Y-23181666D01*
X81614286Y-23181666D02*
X81614286Y-23372142D01*
X81614286Y-23372142D02*
X81661905Y-23467380D01*
X81661905Y-23467380D02*
X81709524Y-23515000D01*
X81709524Y-23515000D02*
X81804762Y-23562619D01*
X81804762Y-23562619D02*
X81995238Y-23562619D01*
X81995238Y-23562619D02*
X82090476Y-23515000D01*
X82090476Y-23515000D02*
X82138095Y-23467380D01*
X82138095Y-23467380D02*
X82185714Y-23372142D01*
X82185714Y-23372142D02*
X82185714Y-23181666D01*
X82185714Y-23181666D02*
X82138095Y-23086428D01*
X82138095Y-23086428D02*
X82090476Y-23038809D01*
X82090476Y-23038809D02*
X81995238Y-22991190D01*
%TO.C,R6*%
X81233333Y-18462619D02*
X80900000Y-17986428D01*
X80661905Y-18462619D02*
X80661905Y-17462619D01*
X80661905Y-17462619D02*
X81042857Y-17462619D01*
X81042857Y-17462619D02*
X81138095Y-17510238D01*
X81138095Y-17510238D02*
X81185714Y-17557857D01*
X81185714Y-17557857D02*
X81233333Y-17653095D01*
X81233333Y-17653095D02*
X81233333Y-17795952D01*
X81233333Y-17795952D02*
X81185714Y-17891190D01*
X81185714Y-17891190D02*
X81138095Y-17938809D01*
X81138095Y-17938809D02*
X81042857Y-17986428D01*
X81042857Y-17986428D02*
X80661905Y-17986428D01*
X82090476Y-17462619D02*
X81900000Y-17462619D01*
X81900000Y-17462619D02*
X81804762Y-17510238D01*
X81804762Y-17510238D02*
X81757143Y-17557857D01*
X81757143Y-17557857D02*
X81661905Y-17700714D01*
X81661905Y-17700714D02*
X81614286Y-17891190D01*
X81614286Y-17891190D02*
X81614286Y-18272142D01*
X81614286Y-18272142D02*
X81661905Y-18367380D01*
X81661905Y-18367380D02*
X81709524Y-18415000D01*
X81709524Y-18415000D02*
X81804762Y-18462619D01*
X81804762Y-18462619D02*
X81995238Y-18462619D01*
X81995238Y-18462619D02*
X82090476Y-18415000D01*
X82090476Y-18415000D02*
X82138095Y-18367380D01*
X82138095Y-18367380D02*
X82185714Y-18272142D01*
X82185714Y-18272142D02*
X82185714Y-18034047D01*
X82185714Y-18034047D02*
X82138095Y-17938809D01*
X82138095Y-17938809D02*
X82090476Y-17891190D01*
X82090476Y-17891190D02*
X81995238Y-17843571D01*
X81995238Y-17843571D02*
X81804762Y-17843571D01*
X81804762Y-17843571D02*
X81709524Y-17891190D01*
X81709524Y-17891190D02*
X81661905Y-17938809D01*
X81661905Y-17938809D02*
X81614286Y-18034047D01*
%TO.C,R24*%
X44147142Y19687380D02*
X43813809Y20163571D01*
X43575714Y19687380D02*
X43575714Y20687380D01*
X43575714Y20687380D02*
X43956666Y20687380D01*
X43956666Y20687380D02*
X44051904Y20639761D01*
X44051904Y20639761D02*
X44099523Y20592142D01*
X44099523Y20592142D02*
X44147142Y20496904D01*
X44147142Y20496904D02*
X44147142Y20354047D01*
X44147142Y20354047D02*
X44099523Y20258809D01*
X44099523Y20258809D02*
X44051904Y20211190D01*
X44051904Y20211190D02*
X43956666Y20163571D01*
X43956666Y20163571D02*
X43575714Y20163571D01*
X44528095Y20592142D02*
X44575714Y20639761D01*
X44575714Y20639761D02*
X44670952Y20687380D01*
X44670952Y20687380D02*
X44909047Y20687380D01*
X44909047Y20687380D02*
X45004285Y20639761D01*
X45004285Y20639761D02*
X45051904Y20592142D01*
X45051904Y20592142D02*
X45099523Y20496904D01*
X45099523Y20496904D02*
X45099523Y20401666D01*
X45099523Y20401666D02*
X45051904Y20258809D01*
X45051904Y20258809D02*
X44480476Y19687380D01*
X44480476Y19687380D02*
X45099523Y19687380D01*
X45956666Y20354047D02*
X45956666Y19687380D01*
X45718571Y20735000D02*
X45480476Y20020714D01*
X45480476Y20020714D02*
X46099523Y20020714D01*
%TO.C,U5*%
X31412619Y25338095D02*
X32222142Y25338095D01*
X32222142Y25338095D02*
X32317380Y25385714D01*
X32317380Y25385714D02*
X32365000Y25433333D01*
X32365000Y25433333D02*
X32412619Y25528571D01*
X32412619Y25528571D02*
X32412619Y25719047D01*
X32412619Y25719047D02*
X32365000Y25814285D01*
X32365000Y25814285D02*
X32317380Y25861904D01*
X32317380Y25861904D02*
X32222142Y25909523D01*
X32222142Y25909523D02*
X31412619Y25909523D01*
X31412619Y26861904D02*
X31412619Y26385714D01*
X31412619Y26385714D02*
X31888809Y26338095D01*
X31888809Y26338095D02*
X31841190Y26385714D01*
X31841190Y26385714D02*
X31793571Y26480952D01*
X31793571Y26480952D02*
X31793571Y26719047D01*
X31793571Y26719047D02*
X31841190Y26814285D01*
X31841190Y26814285D02*
X31888809Y26861904D01*
X31888809Y26861904D02*
X31984047Y26909523D01*
X31984047Y26909523D02*
X32222142Y26909523D01*
X32222142Y26909523D02*
X32317380Y26861904D01*
X32317380Y26861904D02*
X32365000Y26814285D01*
X32365000Y26814285D02*
X32412619Y26719047D01*
X32412619Y26719047D02*
X32412619Y26480952D01*
X32412619Y26480952D02*
X32365000Y26385714D01*
X32365000Y26385714D02*
X32317380Y26338095D01*
%TO.C,R18*%
X66632619Y-3792857D02*
X66156428Y-4126190D01*
X66632619Y-4364285D02*
X65632619Y-4364285D01*
X65632619Y-4364285D02*
X65632619Y-3983333D01*
X65632619Y-3983333D02*
X65680238Y-3888095D01*
X65680238Y-3888095D02*
X65727857Y-3840476D01*
X65727857Y-3840476D02*
X65823095Y-3792857D01*
X65823095Y-3792857D02*
X65965952Y-3792857D01*
X65965952Y-3792857D02*
X66061190Y-3840476D01*
X66061190Y-3840476D02*
X66108809Y-3888095D01*
X66108809Y-3888095D02*
X66156428Y-3983333D01*
X66156428Y-3983333D02*
X66156428Y-4364285D01*
X66632619Y-2840476D02*
X66632619Y-3411904D01*
X66632619Y-3126190D02*
X65632619Y-3126190D01*
X65632619Y-3126190D02*
X65775476Y-3221428D01*
X65775476Y-3221428D02*
X65870714Y-3316666D01*
X65870714Y-3316666D02*
X65918333Y-3411904D01*
X66061190Y-2269047D02*
X66013571Y-2364285D01*
X66013571Y-2364285D02*
X65965952Y-2411904D01*
X65965952Y-2411904D02*
X65870714Y-2459523D01*
X65870714Y-2459523D02*
X65823095Y-2459523D01*
X65823095Y-2459523D02*
X65727857Y-2411904D01*
X65727857Y-2411904D02*
X65680238Y-2364285D01*
X65680238Y-2364285D02*
X65632619Y-2269047D01*
X65632619Y-2269047D02*
X65632619Y-2078571D01*
X65632619Y-2078571D02*
X65680238Y-1983333D01*
X65680238Y-1983333D02*
X65727857Y-1935714D01*
X65727857Y-1935714D02*
X65823095Y-1888095D01*
X65823095Y-1888095D02*
X65870714Y-1888095D01*
X65870714Y-1888095D02*
X65965952Y-1935714D01*
X65965952Y-1935714D02*
X66013571Y-1983333D01*
X66013571Y-1983333D02*
X66061190Y-2078571D01*
X66061190Y-2078571D02*
X66061190Y-2269047D01*
X66061190Y-2269047D02*
X66108809Y-2364285D01*
X66108809Y-2364285D02*
X66156428Y-2411904D01*
X66156428Y-2411904D02*
X66251666Y-2459523D01*
X66251666Y-2459523D02*
X66442142Y-2459523D01*
X66442142Y-2459523D02*
X66537380Y-2411904D01*
X66537380Y-2411904D02*
X66585000Y-2364285D01*
X66585000Y-2364285D02*
X66632619Y-2269047D01*
X66632619Y-2269047D02*
X66632619Y-2078571D01*
X66632619Y-2078571D02*
X66585000Y-1983333D01*
X66585000Y-1983333D02*
X66537380Y-1935714D01*
X66537380Y-1935714D02*
X66442142Y-1888095D01*
X66442142Y-1888095D02*
X66251666Y-1888095D01*
X66251666Y-1888095D02*
X66156428Y-1935714D01*
X66156428Y-1935714D02*
X66108809Y-1983333D01*
X66108809Y-1983333D02*
X66061190Y-2078571D01*
%TO.C,SW4*%
X91166667Y18085000D02*
X91309524Y18037380D01*
X91309524Y18037380D02*
X91547619Y18037380D01*
X91547619Y18037380D02*
X91642857Y18085000D01*
X91642857Y18085000D02*
X91690476Y18132619D01*
X91690476Y18132619D02*
X91738095Y18227857D01*
X91738095Y18227857D02*
X91738095Y18323095D01*
X91738095Y18323095D02*
X91690476Y18418333D01*
X91690476Y18418333D02*
X91642857Y18465952D01*
X91642857Y18465952D02*
X91547619Y18513571D01*
X91547619Y18513571D02*
X91357143Y18561190D01*
X91357143Y18561190D02*
X91261905Y18608809D01*
X91261905Y18608809D02*
X91214286Y18656428D01*
X91214286Y18656428D02*
X91166667Y18751666D01*
X91166667Y18751666D02*
X91166667Y18846904D01*
X91166667Y18846904D02*
X91214286Y18942142D01*
X91214286Y18942142D02*
X91261905Y18989761D01*
X91261905Y18989761D02*
X91357143Y19037380D01*
X91357143Y19037380D02*
X91595238Y19037380D01*
X91595238Y19037380D02*
X91738095Y18989761D01*
X92071429Y19037380D02*
X92309524Y18037380D01*
X92309524Y18037380D02*
X92500000Y18751666D01*
X92500000Y18751666D02*
X92690476Y18037380D01*
X92690476Y18037380D02*
X92928572Y19037380D01*
X93738095Y18704047D02*
X93738095Y18037380D01*
X93500000Y19085000D02*
X93261905Y18370714D01*
X93261905Y18370714D02*
X93880952Y18370714D01*
%TO.C,R21*%
X96632619Y-3792857D02*
X96156428Y-4126190D01*
X96632619Y-4364285D02*
X95632619Y-4364285D01*
X95632619Y-4364285D02*
X95632619Y-3983333D01*
X95632619Y-3983333D02*
X95680238Y-3888095D01*
X95680238Y-3888095D02*
X95727857Y-3840476D01*
X95727857Y-3840476D02*
X95823095Y-3792857D01*
X95823095Y-3792857D02*
X95965952Y-3792857D01*
X95965952Y-3792857D02*
X96061190Y-3840476D01*
X96061190Y-3840476D02*
X96108809Y-3888095D01*
X96108809Y-3888095D02*
X96156428Y-3983333D01*
X96156428Y-3983333D02*
X96156428Y-4364285D01*
X95727857Y-3411904D02*
X95680238Y-3364285D01*
X95680238Y-3364285D02*
X95632619Y-3269047D01*
X95632619Y-3269047D02*
X95632619Y-3030952D01*
X95632619Y-3030952D02*
X95680238Y-2935714D01*
X95680238Y-2935714D02*
X95727857Y-2888095D01*
X95727857Y-2888095D02*
X95823095Y-2840476D01*
X95823095Y-2840476D02*
X95918333Y-2840476D01*
X95918333Y-2840476D02*
X96061190Y-2888095D01*
X96061190Y-2888095D02*
X96632619Y-3459523D01*
X96632619Y-3459523D02*
X96632619Y-2840476D01*
X96632619Y-1888095D02*
X96632619Y-2459523D01*
X96632619Y-2173809D02*
X95632619Y-2173809D01*
X95632619Y-2173809D02*
X95775476Y-2269047D01*
X95775476Y-2269047D02*
X95870714Y-2364285D01*
X95870714Y-2364285D02*
X95918333Y-2459523D01*
%TO.C,R7*%
X81233333Y-21012619D02*
X80900000Y-20536428D01*
X80661905Y-21012619D02*
X80661905Y-20012619D01*
X80661905Y-20012619D02*
X81042857Y-20012619D01*
X81042857Y-20012619D02*
X81138095Y-20060238D01*
X81138095Y-20060238D02*
X81185714Y-20107857D01*
X81185714Y-20107857D02*
X81233333Y-20203095D01*
X81233333Y-20203095D02*
X81233333Y-20345952D01*
X81233333Y-20345952D02*
X81185714Y-20441190D01*
X81185714Y-20441190D02*
X81138095Y-20488809D01*
X81138095Y-20488809D02*
X81042857Y-20536428D01*
X81042857Y-20536428D02*
X80661905Y-20536428D01*
X81566667Y-20012619D02*
X82233333Y-20012619D01*
X82233333Y-20012619D02*
X81804762Y-21012619D01*
%TO.C,R23*%
X46957142Y22107380D02*
X46623809Y22583571D01*
X46385714Y22107380D02*
X46385714Y23107380D01*
X46385714Y23107380D02*
X46766666Y23107380D01*
X46766666Y23107380D02*
X46861904Y23059761D01*
X46861904Y23059761D02*
X46909523Y23012142D01*
X46909523Y23012142D02*
X46957142Y22916904D01*
X46957142Y22916904D02*
X46957142Y22774047D01*
X46957142Y22774047D02*
X46909523Y22678809D01*
X46909523Y22678809D02*
X46861904Y22631190D01*
X46861904Y22631190D02*
X46766666Y22583571D01*
X46766666Y22583571D02*
X46385714Y22583571D01*
X47338095Y23012142D02*
X47385714Y23059761D01*
X47385714Y23059761D02*
X47480952Y23107380D01*
X47480952Y23107380D02*
X47719047Y23107380D01*
X47719047Y23107380D02*
X47814285Y23059761D01*
X47814285Y23059761D02*
X47861904Y23012142D01*
X47861904Y23012142D02*
X47909523Y22916904D01*
X47909523Y22916904D02*
X47909523Y22821666D01*
X47909523Y22821666D02*
X47861904Y22678809D01*
X47861904Y22678809D02*
X47290476Y22107380D01*
X47290476Y22107380D02*
X47909523Y22107380D01*
X48242857Y23107380D02*
X48861904Y23107380D01*
X48861904Y23107380D02*
X48528571Y22726428D01*
X48528571Y22726428D02*
X48671428Y22726428D01*
X48671428Y22726428D02*
X48766666Y22678809D01*
X48766666Y22678809D02*
X48814285Y22631190D01*
X48814285Y22631190D02*
X48861904Y22535952D01*
X48861904Y22535952D02*
X48861904Y22297857D01*
X48861904Y22297857D02*
X48814285Y22202619D01*
X48814285Y22202619D02*
X48766666Y22155000D01*
X48766666Y22155000D02*
X48671428Y22107380D01*
X48671428Y22107380D02*
X48385714Y22107380D01*
X48385714Y22107380D02*
X48290476Y22155000D01*
X48290476Y22155000D02*
X48242857Y22202619D01*
%TO.C,D2*%
X-738094Y-17262619D02*
X-738094Y-16262619D01*
X-738094Y-16262619D02*
X-499999Y-16262619D01*
X-499999Y-16262619D02*
X-357142Y-16310238D01*
X-357142Y-16310238D02*
X-261904Y-16405476D01*
X-261904Y-16405476D02*
X-214285Y-16500714D01*
X-214285Y-16500714D02*
X-166666Y-16691190D01*
X-166666Y-16691190D02*
X-166666Y-16834047D01*
X-166666Y-16834047D02*
X-214285Y-17024523D01*
X-214285Y-17024523D02*
X-261904Y-17119761D01*
X-261904Y-17119761D02*
X-357142Y-17215000D01*
X-357142Y-17215000D02*
X-499999Y-17262619D01*
X-499999Y-17262619D02*
X-738094Y-17262619D01*
X214286Y-16357857D02*
X261905Y-16310238D01*
X261905Y-16310238D02*
X357143Y-16262619D01*
X357143Y-16262619D02*
X595238Y-16262619D01*
X595238Y-16262619D02*
X690476Y-16310238D01*
X690476Y-16310238D02*
X738095Y-16357857D01*
X738095Y-16357857D02*
X785714Y-16453095D01*
X785714Y-16453095D02*
X785714Y-16548333D01*
X785714Y-16548333D02*
X738095Y-16691190D01*
X738095Y-16691190D02*
X166667Y-17262619D01*
X166667Y-17262619D02*
X785714Y-17262619D01*
%TO.C,U3*%
X-5561904Y-29012619D02*
X-5561904Y-29822142D01*
X-5561904Y-29822142D02*
X-5514285Y-29917380D01*
X-5514285Y-29917380D02*
X-5466666Y-29965000D01*
X-5466666Y-29965000D02*
X-5371428Y-30012619D01*
X-5371428Y-30012619D02*
X-5180952Y-30012619D01*
X-5180952Y-30012619D02*
X-5085714Y-29965000D01*
X-5085714Y-29965000D02*
X-5038095Y-29917380D01*
X-5038095Y-29917380D02*
X-4990476Y-29822142D01*
X-4990476Y-29822142D02*
X-4990476Y-29012619D01*
X-4609523Y-29012619D02*
X-3990476Y-29012619D01*
X-3990476Y-29012619D02*
X-4323809Y-29393571D01*
X-4323809Y-29393571D02*
X-4180952Y-29393571D01*
X-4180952Y-29393571D02*
X-4085714Y-29441190D01*
X-4085714Y-29441190D02*
X-4038095Y-29488809D01*
X-4038095Y-29488809D02*
X-3990476Y-29584047D01*
X-3990476Y-29584047D02*
X-3990476Y-29822142D01*
X-3990476Y-29822142D02*
X-4038095Y-29917380D01*
X-4038095Y-29917380D02*
X-4085714Y-29965000D01*
X-4085714Y-29965000D02*
X-4180952Y-30012619D01*
X-4180952Y-30012619D02*
X-4466666Y-30012619D01*
X-4466666Y-30012619D02*
X-4561904Y-29965000D01*
X-4561904Y-29965000D02*
X-4609523Y-29917380D01*
%TO.C,C9*%
X19847380Y-34716666D02*
X19895000Y-34764285D01*
X19895000Y-34764285D02*
X19942619Y-34907142D01*
X19942619Y-34907142D02*
X19942619Y-35002380D01*
X19942619Y-35002380D02*
X19895000Y-35145237D01*
X19895000Y-35145237D02*
X19799761Y-35240475D01*
X19799761Y-35240475D02*
X19704523Y-35288094D01*
X19704523Y-35288094D02*
X19514047Y-35335713D01*
X19514047Y-35335713D02*
X19371190Y-35335713D01*
X19371190Y-35335713D02*
X19180714Y-35288094D01*
X19180714Y-35288094D02*
X19085476Y-35240475D01*
X19085476Y-35240475D02*
X18990238Y-35145237D01*
X18990238Y-35145237D02*
X18942619Y-35002380D01*
X18942619Y-35002380D02*
X18942619Y-34907142D01*
X18942619Y-34907142D02*
X18990238Y-34764285D01*
X18990238Y-34764285D02*
X19037857Y-34716666D01*
X19942619Y-34240475D02*
X19942619Y-34049999D01*
X19942619Y-34049999D02*
X19895000Y-33954761D01*
X19895000Y-33954761D02*
X19847380Y-33907142D01*
X19847380Y-33907142D02*
X19704523Y-33811904D01*
X19704523Y-33811904D02*
X19514047Y-33764285D01*
X19514047Y-33764285D02*
X19133095Y-33764285D01*
X19133095Y-33764285D02*
X19037857Y-33811904D01*
X19037857Y-33811904D02*
X18990238Y-33859523D01*
X18990238Y-33859523D02*
X18942619Y-33954761D01*
X18942619Y-33954761D02*
X18942619Y-34145237D01*
X18942619Y-34145237D02*
X18990238Y-34240475D01*
X18990238Y-34240475D02*
X19037857Y-34288094D01*
X19037857Y-34288094D02*
X19133095Y-34335713D01*
X19133095Y-34335713D02*
X19371190Y-34335713D01*
X19371190Y-34335713D02*
X19466428Y-34288094D01*
X19466428Y-34288094D02*
X19514047Y-34240475D01*
X19514047Y-34240475D02*
X19561666Y-34145237D01*
X19561666Y-34145237D02*
X19561666Y-33954761D01*
X19561666Y-33954761D02*
X19514047Y-33859523D01*
X19514047Y-33859523D02*
X19466428Y-33811904D01*
X19466428Y-33811904D02*
X19371190Y-33764285D01*
%TO.C,C6*%
X63233333Y-64517380D02*
X63185714Y-64565000D01*
X63185714Y-64565000D02*
X63042857Y-64612619D01*
X63042857Y-64612619D02*
X62947619Y-64612619D01*
X62947619Y-64612619D02*
X62804762Y-64565000D01*
X62804762Y-64565000D02*
X62709524Y-64469761D01*
X62709524Y-64469761D02*
X62661905Y-64374523D01*
X62661905Y-64374523D02*
X62614286Y-64184047D01*
X62614286Y-64184047D02*
X62614286Y-64041190D01*
X62614286Y-64041190D02*
X62661905Y-63850714D01*
X62661905Y-63850714D02*
X62709524Y-63755476D01*
X62709524Y-63755476D02*
X62804762Y-63660238D01*
X62804762Y-63660238D02*
X62947619Y-63612619D01*
X62947619Y-63612619D02*
X63042857Y-63612619D01*
X63042857Y-63612619D02*
X63185714Y-63660238D01*
X63185714Y-63660238D02*
X63233333Y-63707857D01*
X64090476Y-63612619D02*
X63900000Y-63612619D01*
X63900000Y-63612619D02*
X63804762Y-63660238D01*
X63804762Y-63660238D02*
X63757143Y-63707857D01*
X63757143Y-63707857D02*
X63661905Y-63850714D01*
X63661905Y-63850714D02*
X63614286Y-64041190D01*
X63614286Y-64041190D02*
X63614286Y-64422142D01*
X63614286Y-64422142D02*
X63661905Y-64517380D01*
X63661905Y-64517380D02*
X63709524Y-64565000D01*
X63709524Y-64565000D02*
X63804762Y-64612619D01*
X63804762Y-64612619D02*
X63995238Y-64612619D01*
X63995238Y-64612619D02*
X64090476Y-64565000D01*
X64090476Y-64565000D02*
X64138095Y-64517380D01*
X64138095Y-64517380D02*
X64185714Y-64422142D01*
X64185714Y-64422142D02*
X64185714Y-64184047D01*
X64185714Y-64184047D02*
X64138095Y-64088809D01*
X64138095Y-64088809D02*
X64090476Y-64041190D01*
X64090476Y-64041190D02*
X63995238Y-63993571D01*
X63995238Y-63993571D02*
X63804762Y-63993571D01*
X63804762Y-63993571D02*
X63709524Y-64041190D01*
X63709524Y-64041190D02*
X63661905Y-64088809D01*
X63661905Y-64088809D02*
X63614286Y-64184047D01*
%TO.C,C4*%
X60717380Y-66866666D02*
X60765000Y-66914285D01*
X60765000Y-66914285D02*
X60812619Y-67057142D01*
X60812619Y-67057142D02*
X60812619Y-67152380D01*
X60812619Y-67152380D02*
X60765000Y-67295237D01*
X60765000Y-67295237D02*
X60669761Y-67390475D01*
X60669761Y-67390475D02*
X60574523Y-67438094D01*
X60574523Y-67438094D02*
X60384047Y-67485713D01*
X60384047Y-67485713D02*
X60241190Y-67485713D01*
X60241190Y-67485713D02*
X60050714Y-67438094D01*
X60050714Y-67438094D02*
X59955476Y-67390475D01*
X59955476Y-67390475D02*
X59860238Y-67295237D01*
X59860238Y-67295237D02*
X59812619Y-67152380D01*
X59812619Y-67152380D02*
X59812619Y-67057142D01*
X59812619Y-67057142D02*
X59860238Y-66914285D01*
X59860238Y-66914285D02*
X59907857Y-66866666D01*
X60145952Y-66009523D02*
X60812619Y-66009523D01*
X59765000Y-66247618D02*
X60479285Y-66485713D01*
X60479285Y-66485713D02*
X60479285Y-65866666D01*
%TO.C,R22*%
X96632619Y16357142D02*
X96156428Y16023809D01*
X96632619Y15785714D02*
X95632619Y15785714D01*
X95632619Y15785714D02*
X95632619Y16166666D01*
X95632619Y16166666D02*
X95680238Y16261904D01*
X95680238Y16261904D02*
X95727857Y16309523D01*
X95727857Y16309523D02*
X95823095Y16357142D01*
X95823095Y16357142D02*
X95965952Y16357142D01*
X95965952Y16357142D02*
X96061190Y16309523D01*
X96061190Y16309523D02*
X96108809Y16261904D01*
X96108809Y16261904D02*
X96156428Y16166666D01*
X96156428Y16166666D02*
X96156428Y15785714D01*
X95727857Y16738095D02*
X95680238Y16785714D01*
X95680238Y16785714D02*
X95632619Y16880952D01*
X95632619Y16880952D02*
X95632619Y17119047D01*
X95632619Y17119047D02*
X95680238Y17214285D01*
X95680238Y17214285D02*
X95727857Y17261904D01*
X95727857Y17261904D02*
X95823095Y17309523D01*
X95823095Y17309523D02*
X95918333Y17309523D01*
X95918333Y17309523D02*
X96061190Y17261904D01*
X96061190Y17261904D02*
X96632619Y16690476D01*
X96632619Y16690476D02*
X96632619Y17309523D01*
X95727857Y17690476D02*
X95680238Y17738095D01*
X95680238Y17738095D02*
X95632619Y17833333D01*
X95632619Y17833333D02*
X95632619Y18071428D01*
X95632619Y18071428D02*
X95680238Y18166666D01*
X95680238Y18166666D02*
X95727857Y18214285D01*
X95727857Y18214285D02*
X95823095Y18261904D01*
X95823095Y18261904D02*
X95918333Y18261904D01*
X95918333Y18261904D02*
X96061190Y18214285D01*
X96061190Y18214285D02*
X96632619Y17642857D01*
X96632619Y17642857D02*
X96632619Y18261904D01*
%TO.C,R14*%
X29292619Y-3792857D02*
X28816428Y-4126190D01*
X29292619Y-4364285D02*
X28292619Y-4364285D01*
X28292619Y-4364285D02*
X28292619Y-3983333D01*
X28292619Y-3983333D02*
X28340238Y-3888095D01*
X28340238Y-3888095D02*
X28387857Y-3840476D01*
X28387857Y-3840476D02*
X28483095Y-3792857D01*
X28483095Y-3792857D02*
X28625952Y-3792857D01*
X28625952Y-3792857D02*
X28721190Y-3840476D01*
X28721190Y-3840476D02*
X28768809Y-3888095D01*
X28768809Y-3888095D02*
X28816428Y-3983333D01*
X28816428Y-3983333D02*
X28816428Y-4364285D01*
X29292619Y-2840476D02*
X29292619Y-3411904D01*
X29292619Y-3126190D02*
X28292619Y-3126190D01*
X28292619Y-3126190D02*
X28435476Y-3221428D01*
X28435476Y-3221428D02*
X28530714Y-3316666D01*
X28530714Y-3316666D02*
X28578333Y-3411904D01*
X28625952Y-1983333D02*
X29292619Y-1983333D01*
X28245000Y-2221428D02*
X28959285Y-2459523D01*
X28959285Y-2459523D02*
X28959285Y-1840476D01*
%TO.C,J4*%
X21666666Y-37492619D02*
X21666666Y-38206904D01*
X21666666Y-38206904D02*
X21619047Y-38349761D01*
X21619047Y-38349761D02*
X21523809Y-38445000D01*
X21523809Y-38445000D02*
X21380952Y-38492619D01*
X21380952Y-38492619D02*
X21285714Y-38492619D01*
X22571428Y-37825952D02*
X22571428Y-38492619D01*
X22333333Y-37445000D02*
X22095238Y-38159285D01*
X22095238Y-38159285D02*
X22714285Y-38159285D01*
D12*
X28833334Y-25187857D02*
X30166667Y-28187857D01*
X30166667Y-28187857D02*
X31500001Y-25187857D01*
X32833333Y-28187857D02*
X32833333Y-26187857D01*
X32833333Y-25187857D02*
X32642857Y-25330714D01*
X32642857Y-25330714D02*
X32833333Y-25473571D01*
X32833333Y-25473571D02*
X33023810Y-25330714D01*
X33023810Y-25330714D02*
X32833333Y-25187857D01*
X32833333Y-25187857D02*
X32833333Y-25473571D01*
X36261905Y-28045000D02*
X35880953Y-28187857D01*
X35880953Y-28187857D02*
X35119048Y-28187857D01*
X35119048Y-28187857D02*
X34738095Y-28045000D01*
X34738095Y-28045000D02*
X34547619Y-27759285D01*
X34547619Y-27759285D02*
X34547619Y-26616428D01*
X34547619Y-26616428D02*
X34738095Y-26330714D01*
X34738095Y-26330714D02*
X35119048Y-26187857D01*
X35119048Y-26187857D02*
X35880953Y-26187857D01*
X35880953Y-26187857D02*
X36261905Y-26330714D01*
X36261905Y-26330714D02*
X36452381Y-26616428D01*
X36452381Y-26616428D02*
X36452381Y-26902142D01*
X36452381Y-26902142D02*
X34547619Y-27187857D01*
X37785714Y-26187857D02*
X38547619Y-28187857D01*
X38547619Y-28187857D02*
X39309524Y-26759285D01*
X39309524Y-26759285D02*
X40071428Y-28187857D01*
X40071428Y-28187857D02*
X40833333Y-26187857D01*
X42357142Y-28187857D02*
X42357142Y-26187857D01*
X42357142Y-25187857D02*
X42166666Y-25330714D01*
X42166666Y-25330714D02*
X42357142Y-25473571D01*
X42357142Y-25473571D02*
X42547619Y-25330714D01*
X42547619Y-25330714D02*
X42357142Y-25187857D01*
X42357142Y-25187857D02*
X42357142Y-25473571D01*
X44261904Y-26187857D02*
X44261904Y-28187857D01*
X44261904Y-26473571D02*
X44452381Y-26330714D01*
X44452381Y-26330714D02*
X44833333Y-26187857D01*
X44833333Y-26187857D02*
X45404762Y-26187857D01*
X45404762Y-26187857D02*
X45785714Y-26330714D01*
X45785714Y-26330714D02*
X45976190Y-26616428D01*
X45976190Y-26616428D02*
X45976190Y-28187857D01*
X49595238Y-26187857D02*
X49595238Y-28616428D01*
X49595238Y-28616428D02*
X49404762Y-28902142D01*
X49404762Y-28902142D02*
X49214286Y-29045000D01*
X49214286Y-29045000D02*
X48833333Y-29187857D01*
X48833333Y-29187857D02*
X48261905Y-29187857D01*
X48261905Y-29187857D02*
X47880952Y-29045000D01*
X49595238Y-28045000D02*
X49214286Y-28187857D01*
X49214286Y-28187857D02*
X48452381Y-28187857D01*
X48452381Y-28187857D02*
X48071429Y-28045000D01*
X48071429Y-28045000D02*
X47880952Y-27902142D01*
X47880952Y-27902142D02*
X47690476Y-27616428D01*
X47690476Y-27616428D02*
X47690476Y-26759285D01*
X47690476Y-26759285D02*
X47880952Y-26473571D01*
X47880952Y-26473571D02*
X48071429Y-26330714D01*
X48071429Y-26330714D02*
X48452381Y-26187857D01*
X48452381Y-26187857D02*
X49214286Y-26187857D01*
X49214286Y-26187857D02*
X49595238Y-26330714D01*
X54357143Y-27330714D02*
X56261905Y-27330714D01*
X53976191Y-28187857D02*
X55309524Y-25187857D01*
X55309524Y-25187857D02*
X56642858Y-28187857D01*
X57976190Y-28187857D02*
X57976190Y-26187857D01*
X57976190Y-26759285D02*
X58166667Y-26473571D01*
X58166667Y-26473571D02*
X58357143Y-26330714D01*
X58357143Y-26330714D02*
X58738095Y-26187857D01*
X58738095Y-26187857D02*
X59119048Y-26187857D01*
X61976190Y-28045000D02*
X61595238Y-28187857D01*
X61595238Y-28187857D02*
X60833333Y-28187857D01*
X60833333Y-28187857D02*
X60452380Y-28045000D01*
X60452380Y-28045000D02*
X60261904Y-27759285D01*
X60261904Y-27759285D02*
X60261904Y-26616428D01*
X60261904Y-26616428D02*
X60452380Y-26330714D01*
X60452380Y-26330714D02*
X60833333Y-26187857D01*
X60833333Y-26187857D02*
X61595238Y-26187857D01*
X61595238Y-26187857D02*
X61976190Y-26330714D01*
X61976190Y-26330714D02*
X62166666Y-26616428D01*
X62166666Y-26616428D02*
X62166666Y-26902142D01*
X62166666Y-26902142D02*
X60261904Y-27187857D01*
X65595237Y-28187857D02*
X65595237Y-26616428D01*
X65595237Y-26616428D02*
X65404761Y-26330714D01*
X65404761Y-26330714D02*
X65023809Y-26187857D01*
X65023809Y-26187857D02*
X64261904Y-26187857D01*
X64261904Y-26187857D02*
X63880951Y-26330714D01*
X65595237Y-28045000D02*
X65214285Y-28187857D01*
X65214285Y-28187857D02*
X64261904Y-28187857D01*
X64261904Y-28187857D02*
X63880951Y-28045000D01*
X63880951Y-28045000D02*
X63690475Y-27759285D01*
X63690475Y-27759285D02*
X63690475Y-27473571D01*
X63690475Y-27473571D02*
X63880951Y-27187857D01*
X63880951Y-27187857D02*
X64261904Y-27045000D01*
X64261904Y-27045000D02*
X65214285Y-27045000D01*
X65214285Y-27045000D02*
X65595237Y-26902142D01*
D11*
%TO.C,C8*%
X96437380Y-28066666D02*
X96485000Y-28114285D01*
X96485000Y-28114285D02*
X96532619Y-28257142D01*
X96532619Y-28257142D02*
X96532619Y-28352380D01*
X96532619Y-28352380D02*
X96485000Y-28495237D01*
X96485000Y-28495237D02*
X96389761Y-28590475D01*
X96389761Y-28590475D02*
X96294523Y-28638094D01*
X96294523Y-28638094D02*
X96104047Y-28685713D01*
X96104047Y-28685713D02*
X95961190Y-28685713D01*
X95961190Y-28685713D02*
X95770714Y-28638094D01*
X95770714Y-28638094D02*
X95675476Y-28590475D01*
X95675476Y-28590475D02*
X95580238Y-28495237D01*
X95580238Y-28495237D02*
X95532619Y-28352380D01*
X95532619Y-28352380D02*
X95532619Y-28257142D01*
X95532619Y-28257142D02*
X95580238Y-28114285D01*
X95580238Y-28114285D02*
X95627857Y-28066666D01*
X95961190Y-27495237D02*
X95913571Y-27590475D01*
X95913571Y-27590475D02*
X95865952Y-27638094D01*
X95865952Y-27638094D02*
X95770714Y-27685713D01*
X95770714Y-27685713D02*
X95723095Y-27685713D01*
X95723095Y-27685713D02*
X95627857Y-27638094D01*
X95627857Y-27638094D02*
X95580238Y-27590475D01*
X95580238Y-27590475D02*
X95532619Y-27495237D01*
X95532619Y-27495237D02*
X95532619Y-27304761D01*
X95532619Y-27304761D02*
X95580238Y-27209523D01*
X95580238Y-27209523D02*
X95627857Y-27161904D01*
X95627857Y-27161904D02*
X95723095Y-27114285D01*
X95723095Y-27114285D02*
X95770714Y-27114285D01*
X95770714Y-27114285D02*
X95865952Y-27161904D01*
X95865952Y-27161904D02*
X95913571Y-27209523D01*
X95913571Y-27209523D02*
X95961190Y-27304761D01*
X95961190Y-27304761D02*
X95961190Y-27495237D01*
X95961190Y-27495237D02*
X96008809Y-27590475D01*
X96008809Y-27590475D02*
X96056428Y-27638094D01*
X96056428Y-27638094D02*
X96151666Y-27685713D01*
X96151666Y-27685713D02*
X96342142Y-27685713D01*
X96342142Y-27685713D02*
X96437380Y-27638094D01*
X96437380Y-27638094D02*
X96485000Y-27590475D01*
X96485000Y-27590475D02*
X96532619Y-27495237D01*
X96532619Y-27495237D02*
X96532619Y-27304761D01*
X96532619Y-27304761D02*
X96485000Y-27209523D01*
X96485000Y-27209523D02*
X96437380Y-27161904D01*
X96437380Y-27161904D02*
X96342142Y-27114285D01*
X96342142Y-27114285D02*
X96151666Y-27114285D01*
X96151666Y-27114285D02*
X96056428Y-27161904D01*
X96056428Y-27161904D02*
X96008809Y-27209523D01*
X96008809Y-27209523D02*
X95961190Y-27304761D01*
%TO.C,D4*%
X-738094Y-27462619D02*
X-738094Y-26462619D01*
X-738094Y-26462619D02*
X-499999Y-26462619D01*
X-499999Y-26462619D02*
X-357142Y-26510238D01*
X-357142Y-26510238D02*
X-261904Y-26605476D01*
X-261904Y-26605476D02*
X-214285Y-26700714D01*
X-214285Y-26700714D02*
X-166666Y-26891190D01*
X-166666Y-26891190D02*
X-166666Y-27034047D01*
X-166666Y-27034047D02*
X-214285Y-27224523D01*
X-214285Y-27224523D02*
X-261904Y-27319761D01*
X-261904Y-27319761D02*
X-357142Y-27415000D01*
X-357142Y-27415000D02*
X-499999Y-27462619D01*
X-499999Y-27462619D02*
X-738094Y-27462619D01*
X690476Y-26795952D02*
X690476Y-27462619D01*
X452381Y-26415000D02*
X214286Y-27129285D01*
X214286Y-27129285D02*
X833333Y-27129285D01*
%TO.C,R13*%
X13212619Y-21492857D02*
X12736428Y-21826190D01*
X13212619Y-22064285D02*
X12212619Y-22064285D01*
X12212619Y-22064285D02*
X12212619Y-21683333D01*
X12212619Y-21683333D02*
X12260238Y-21588095D01*
X12260238Y-21588095D02*
X12307857Y-21540476D01*
X12307857Y-21540476D02*
X12403095Y-21492857D01*
X12403095Y-21492857D02*
X12545952Y-21492857D01*
X12545952Y-21492857D02*
X12641190Y-21540476D01*
X12641190Y-21540476D02*
X12688809Y-21588095D01*
X12688809Y-21588095D02*
X12736428Y-21683333D01*
X12736428Y-21683333D02*
X12736428Y-22064285D01*
X13212619Y-20540476D02*
X13212619Y-21111904D01*
X13212619Y-20826190D02*
X12212619Y-20826190D01*
X12212619Y-20826190D02*
X12355476Y-20921428D01*
X12355476Y-20921428D02*
X12450714Y-21016666D01*
X12450714Y-21016666D02*
X12498333Y-21111904D01*
X12212619Y-20207142D02*
X12212619Y-19588095D01*
X12212619Y-19588095D02*
X12593571Y-19921428D01*
X12593571Y-19921428D02*
X12593571Y-19778571D01*
X12593571Y-19778571D02*
X12641190Y-19683333D01*
X12641190Y-19683333D02*
X12688809Y-19635714D01*
X12688809Y-19635714D02*
X12784047Y-19588095D01*
X12784047Y-19588095D02*
X13022142Y-19588095D01*
X13022142Y-19588095D02*
X13117380Y-19635714D01*
X13117380Y-19635714D02*
X13165000Y-19683333D01*
X13165000Y-19683333D02*
X13212619Y-19778571D01*
X13212619Y-19778571D02*
X13212619Y-20064285D01*
X13212619Y-20064285D02*
X13165000Y-20159523D01*
X13165000Y-20159523D02*
X13117380Y-20207142D01*
%TO.C,R19*%
X66632619Y16357142D02*
X66156428Y16023809D01*
X66632619Y15785714D02*
X65632619Y15785714D01*
X65632619Y15785714D02*
X65632619Y16166666D01*
X65632619Y16166666D02*
X65680238Y16261904D01*
X65680238Y16261904D02*
X65727857Y16309523D01*
X65727857Y16309523D02*
X65823095Y16357142D01*
X65823095Y16357142D02*
X65965952Y16357142D01*
X65965952Y16357142D02*
X66061190Y16309523D01*
X66061190Y16309523D02*
X66108809Y16261904D01*
X66108809Y16261904D02*
X66156428Y16166666D01*
X66156428Y16166666D02*
X66156428Y15785714D01*
X66632619Y17309523D02*
X66632619Y16738095D01*
X66632619Y17023809D02*
X65632619Y17023809D01*
X65632619Y17023809D02*
X65775476Y16928571D01*
X65775476Y16928571D02*
X65870714Y16833333D01*
X65870714Y16833333D02*
X65918333Y16738095D01*
X66632619Y17785714D02*
X66632619Y17976190D01*
X66632619Y17976190D02*
X66585000Y18071428D01*
X66585000Y18071428D02*
X66537380Y18119047D01*
X66537380Y18119047D02*
X66394523Y18214285D01*
X66394523Y18214285D02*
X66204047Y18261904D01*
X66204047Y18261904D02*
X65823095Y18261904D01*
X65823095Y18261904D02*
X65727857Y18214285D01*
X65727857Y18214285D02*
X65680238Y18166666D01*
X65680238Y18166666D02*
X65632619Y18071428D01*
X65632619Y18071428D02*
X65632619Y17880952D01*
X65632619Y17880952D02*
X65680238Y17785714D01*
X65680238Y17785714D02*
X65727857Y17738095D01*
X65727857Y17738095D02*
X65823095Y17690476D01*
X65823095Y17690476D02*
X66061190Y17690476D01*
X66061190Y17690476D02*
X66156428Y17738095D01*
X66156428Y17738095D02*
X66204047Y17785714D01*
X66204047Y17785714D02*
X66251666Y17880952D01*
X66251666Y17880952D02*
X66251666Y18071428D01*
X66251666Y18071428D02*
X66204047Y18166666D01*
X66204047Y18166666D02*
X66156428Y18214285D01*
X66156428Y18214285D02*
X66061190Y18261904D01*
%TO.C,C7*%
X99467380Y-30016666D02*
X99515000Y-30064285D01*
X99515000Y-30064285D02*
X99562619Y-30207142D01*
X99562619Y-30207142D02*
X99562619Y-30302380D01*
X99562619Y-30302380D02*
X99515000Y-30445237D01*
X99515000Y-30445237D02*
X99419761Y-30540475D01*
X99419761Y-30540475D02*
X99324523Y-30588094D01*
X99324523Y-30588094D02*
X99134047Y-30635713D01*
X99134047Y-30635713D02*
X98991190Y-30635713D01*
X98991190Y-30635713D02*
X98800714Y-30588094D01*
X98800714Y-30588094D02*
X98705476Y-30540475D01*
X98705476Y-30540475D02*
X98610238Y-30445237D01*
X98610238Y-30445237D02*
X98562619Y-30302380D01*
X98562619Y-30302380D02*
X98562619Y-30207142D01*
X98562619Y-30207142D02*
X98610238Y-30064285D01*
X98610238Y-30064285D02*
X98657857Y-30016666D01*
X98562619Y-29683332D02*
X98562619Y-29016666D01*
X98562619Y-29016666D02*
X99562619Y-29445237D01*
%TO.C,R28*%
X44582619Y14807142D02*
X44106428Y14473809D01*
X44582619Y14235714D02*
X43582619Y14235714D01*
X43582619Y14235714D02*
X43582619Y14616666D01*
X43582619Y14616666D02*
X43630238Y14711904D01*
X43630238Y14711904D02*
X43677857Y14759523D01*
X43677857Y14759523D02*
X43773095Y14807142D01*
X43773095Y14807142D02*
X43915952Y14807142D01*
X43915952Y14807142D02*
X44011190Y14759523D01*
X44011190Y14759523D02*
X44058809Y14711904D01*
X44058809Y14711904D02*
X44106428Y14616666D01*
X44106428Y14616666D02*
X44106428Y14235714D01*
X43677857Y15188095D02*
X43630238Y15235714D01*
X43630238Y15235714D02*
X43582619Y15330952D01*
X43582619Y15330952D02*
X43582619Y15569047D01*
X43582619Y15569047D02*
X43630238Y15664285D01*
X43630238Y15664285D02*
X43677857Y15711904D01*
X43677857Y15711904D02*
X43773095Y15759523D01*
X43773095Y15759523D02*
X43868333Y15759523D01*
X43868333Y15759523D02*
X44011190Y15711904D01*
X44011190Y15711904D02*
X44582619Y15140476D01*
X44582619Y15140476D02*
X44582619Y15759523D01*
X44011190Y16330952D02*
X43963571Y16235714D01*
X43963571Y16235714D02*
X43915952Y16188095D01*
X43915952Y16188095D02*
X43820714Y16140476D01*
X43820714Y16140476D02*
X43773095Y16140476D01*
X43773095Y16140476D02*
X43677857Y16188095D01*
X43677857Y16188095D02*
X43630238Y16235714D01*
X43630238Y16235714D02*
X43582619Y16330952D01*
X43582619Y16330952D02*
X43582619Y16521428D01*
X43582619Y16521428D02*
X43630238Y16616666D01*
X43630238Y16616666D02*
X43677857Y16664285D01*
X43677857Y16664285D02*
X43773095Y16711904D01*
X43773095Y16711904D02*
X43820714Y16711904D01*
X43820714Y16711904D02*
X43915952Y16664285D01*
X43915952Y16664285D02*
X43963571Y16616666D01*
X43963571Y16616666D02*
X44011190Y16521428D01*
X44011190Y16521428D02*
X44011190Y16330952D01*
X44011190Y16330952D02*
X44058809Y16235714D01*
X44058809Y16235714D02*
X44106428Y16188095D01*
X44106428Y16188095D02*
X44201666Y16140476D01*
X44201666Y16140476D02*
X44392142Y16140476D01*
X44392142Y16140476D02*
X44487380Y16188095D01*
X44487380Y16188095D02*
X44535000Y16235714D01*
X44535000Y16235714D02*
X44582619Y16330952D01*
X44582619Y16330952D02*
X44582619Y16521428D01*
X44582619Y16521428D02*
X44535000Y16616666D01*
X44535000Y16616666D02*
X44487380Y16664285D01*
X44487380Y16664285D02*
X44392142Y16711904D01*
X44392142Y16711904D02*
X44201666Y16711904D01*
X44201666Y16711904D02*
X44106428Y16664285D01*
X44106428Y16664285D02*
X44058809Y16616666D01*
X44058809Y16616666D02*
X44011190Y16521428D01*
%TO.C,D3*%
X-738094Y-22412619D02*
X-738094Y-21412619D01*
X-738094Y-21412619D02*
X-499999Y-21412619D01*
X-499999Y-21412619D02*
X-357142Y-21460238D01*
X-357142Y-21460238D02*
X-261904Y-21555476D01*
X-261904Y-21555476D02*
X-214285Y-21650714D01*
X-214285Y-21650714D02*
X-166666Y-21841190D01*
X-166666Y-21841190D02*
X-166666Y-21984047D01*
X-166666Y-21984047D02*
X-214285Y-22174523D01*
X-214285Y-22174523D02*
X-261904Y-22269761D01*
X-261904Y-22269761D02*
X-357142Y-22365000D01*
X-357142Y-22365000D02*
X-499999Y-22412619D01*
X-499999Y-22412619D02*
X-738094Y-22412619D01*
X166667Y-21412619D02*
X785714Y-21412619D01*
X785714Y-21412619D02*
X452381Y-21793571D01*
X452381Y-21793571D02*
X595238Y-21793571D01*
X595238Y-21793571D02*
X690476Y-21841190D01*
X690476Y-21841190D02*
X738095Y-21888809D01*
X738095Y-21888809D02*
X785714Y-21984047D01*
X785714Y-21984047D02*
X785714Y-22222142D01*
X785714Y-22222142D02*
X738095Y-22317380D01*
X738095Y-22317380D02*
X690476Y-22365000D01*
X690476Y-22365000D02*
X595238Y-22412619D01*
X595238Y-22412619D02*
X309524Y-22412619D01*
X309524Y-22412619D02*
X214286Y-22365000D01*
X214286Y-22365000D02*
X166667Y-22317380D01*
%TO.C,R20*%
X89292619Y-3792857D02*
X88816428Y-4126190D01*
X89292619Y-4364285D02*
X88292619Y-4364285D01*
X88292619Y-4364285D02*
X88292619Y-3983333D01*
X88292619Y-3983333D02*
X88340238Y-3888095D01*
X88340238Y-3888095D02*
X88387857Y-3840476D01*
X88387857Y-3840476D02*
X88483095Y-3792857D01*
X88483095Y-3792857D02*
X88625952Y-3792857D01*
X88625952Y-3792857D02*
X88721190Y-3840476D01*
X88721190Y-3840476D02*
X88768809Y-3888095D01*
X88768809Y-3888095D02*
X88816428Y-3983333D01*
X88816428Y-3983333D02*
X88816428Y-4364285D01*
X88387857Y-3411904D02*
X88340238Y-3364285D01*
X88340238Y-3364285D02*
X88292619Y-3269047D01*
X88292619Y-3269047D02*
X88292619Y-3030952D01*
X88292619Y-3030952D02*
X88340238Y-2935714D01*
X88340238Y-2935714D02*
X88387857Y-2888095D01*
X88387857Y-2888095D02*
X88483095Y-2840476D01*
X88483095Y-2840476D02*
X88578333Y-2840476D01*
X88578333Y-2840476D02*
X88721190Y-2888095D01*
X88721190Y-2888095D02*
X89292619Y-3459523D01*
X89292619Y-3459523D02*
X89292619Y-2840476D01*
X88292619Y-2221428D02*
X88292619Y-2126190D01*
X88292619Y-2126190D02*
X88340238Y-2030952D01*
X88340238Y-2030952D02*
X88387857Y-1983333D01*
X88387857Y-1983333D02*
X88483095Y-1935714D01*
X88483095Y-1935714D02*
X88673571Y-1888095D01*
X88673571Y-1888095D02*
X88911666Y-1888095D01*
X88911666Y-1888095D02*
X89102142Y-1935714D01*
X89102142Y-1935714D02*
X89197380Y-1983333D01*
X89197380Y-1983333D02*
X89245000Y-2030952D01*
X89245000Y-2030952D02*
X89292619Y-2126190D01*
X89292619Y-2126190D02*
X89292619Y-2221428D01*
X89292619Y-2221428D02*
X89245000Y-2316666D01*
X89245000Y-2316666D02*
X89197380Y-2364285D01*
X89197380Y-2364285D02*
X89102142Y-2411904D01*
X89102142Y-2411904D02*
X88911666Y-2459523D01*
X88911666Y-2459523D02*
X88673571Y-2459523D01*
X88673571Y-2459523D02*
X88483095Y-2411904D01*
X88483095Y-2411904D02*
X88387857Y-2364285D01*
X88387857Y-2364285D02*
X88340238Y-2316666D01*
X88340238Y-2316666D02*
X88292619Y-2221428D01*
%TO.C,R17*%
X59292619Y-3792857D02*
X58816428Y-4126190D01*
X59292619Y-4364285D02*
X58292619Y-4364285D01*
X58292619Y-4364285D02*
X58292619Y-3983333D01*
X58292619Y-3983333D02*
X58340238Y-3888095D01*
X58340238Y-3888095D02*
X58387857Y-3840476D01*
X58387857Y-3840476D02*
X58483095Y-3792857D01*
X58483095Y-3792857D02*
X58625952Y-3792857D01*
X58625952Y-3792857D02*
X58721190Y-3840476D01*
X58721190Y-3840476D02*
X58768809Y-3888095D01*
X58768809Y-3888095D02*
X58816428Y-3983333D01*
X58816428Y-3983333D02*
X58816428Y-4364285D01*
X59292619Y-2840476D02*
X59292619Y-3411904D01*
X59292619Y-3126190D02*
X58292619Y-3126190D01*
X58292619Y-3126190D02*
X58435476Y-3221428D01*
X58435476Y-3221428D02*
X58530714Y-3316666D01*
X58530714Y-3316666D02*
X58578333Y-3411904D01*
X58292619Y-2507142D02*
X58292619Y-1840476D01*
X58292619Y-1840476D02*
X59292619Y-2269047D01*
%TO.C,Q1*%
X16454761Y-17057857D02*
X16359523Y-17010238D01*
X16359523Y-17010238D02*
X16264285Y-16915000D01*
X16264285Y-16915000D02*
X16121428Y-16772142D01*
X16121428Y-16772142D02*
X16026190Y-16724523D01*
X16026190Y-16724523D02*
X15930952Y-16724523D01*
X15978571Y-16962619D02*
X15883333Y-16915000D01*
X15883333Y-16915000D02*
X15788095Y-16819761D01*
X15788095Y-16819761D02*
X15740476Y-16629285D01*
X15740476Y-16629285D02*
X15740476Y-16295952D01*
X15740476Y-16295952D02*
X15788095Y-16105476D01*
X15788095Y-16105476D02*
X15883333Y-16010238D01*
X15883333Y-16010238D02*
X15978571Y-15962619D01*
X15978571Y-15962619D02*
X16169047Y-15962619D01*
X16169047Y-15962619D02*
X16264285Y-16010238D01*
X16264285Y-16010238D02*
X16359523Y-16105476D01*
X16359523Y-16105476D02*
X16407142Y-16295952D01*
X16407142Y-16295952D02*
X16407142Y-16629285D01*
X16407142Y-16629285D02*
X16359523Y-16819761D01*
X16359523Y-16819761D02*
X16264285Y-16915000D01*
X16264285Y-16915000D02*
X16169047Y-16962619D01*
X16169047Y-16962619D02*
X15978571Y-16962619D01*
X17359523Y-16962619D02*
X16788095Y-16962619D01*
X17073809Y-16962619D02*
X17073809Y-15962619D01*
X17073809Y-15962619D02*
X16978571Y-16105476D01*
X16978571Y-16105476D02*
X16883333Y-16200714D01*
X16883333Y-16200714D02*
X16788095Y-16248333D01*
%TO.C,C5*%
X50083333Y29122619D02*
X50035714Y29075000D01*
X50035714Y29075000D02*
X49892857Y29027380D01*
X49892857Y29027380D02*
X49797619Y29027380D01*
X49797619Y29027380D02*
X49654762Y29075000D01*
X49654762Y29075000D02*
X49559524Y29170238D01*
X49559524Y29170238D02*
X49511905Y29265476D01*
X49511905Y29265476D02*
X49464286Y29455952D01*
X49464286Y29455952D02*
X49464286Y29598809D01*
X49464286Y29598809D02*
X49511905Y29789285D01*
X49511905Y29789285D02*
X49559524Y29884523D01*
X49559524Y29884523D02*
X49654762Y29979761D01*
X49654762Y29979761D02*
X49797619Y30027380D01*
X49797619Y30027380D02*
X49892857Y30027380D01*
X49892857Y30027380D02*
X50035714Y29979761D01*
X50035714Y29979761D02*
X50083333Y29932142D01*
X50988095Y30027380D02*
X50511905Y30027380D01*
X50511905Y30027380D02*
X50464286Y29551190D01*
X50464286Y29551190D02*
X50511905Y29598809D01*
X50511905Y29598809D02*
X50607143Y29646428D01*
X50607143Y29646428D02*
X50845238Y29646428D01*
X50845238Y29646428D02*
X50940476Y29598809D01*
X50940476Y29598809D02*
X50988095Y29551190D01*
X50988095Y29551190D02*
X51035714Y29455952D01*
X51035714Y29455952D02*
X51035714Y29217857D01*
X51035714Y29217857D02*
X50988095Y29122619D01*
X50988095Y29122619D02*
X50940476Y29075000D01*
X50940476Y29075000D02*
X50845238Y29027380D01*
X50845238Y29027380D02*
X50607143Y29027380D01*
X50607143Y29027380D02*
X50511905Y29075000D01*
X50511905Y29075000D02*
X50464286Y29122619D01*
%TO.C,J7*%
X97166666Y-16042619D02*
X97166666Y-16756904D01*
X97166666Y-16756904D02*
X97119047Y-16899761D01*
X97119047Y-16899761D02*
X97023809Y-16995000D01*
X97023809Y-16995000D02*
X96880952Y-17042619D01*
X96880952Y-17042619D02*
X96785714Y-17042619D01*
X97547619Y-16042619D02*
X98214285Y-16042619D01*
X98214285Y-16042619D02*
X97785714Y-17042619D01*
%TO.C,R9*%
X81233333Y-26062619D02*
X80900000Y-25586428D01*
X80661905Y-26062619D02*
X80661905Y-25062619D01*
X80661905Y-25062619D02*
X81042857Y-25062619D01*
X81042857Y-25062619D02*
X81138095Y-25110238D01*
X81138095Y-25110238D02*
X81185714Y-25157857D01*
X81185714Y-25157857D02*
X81233333Y-25253095D01*
X81233333Y-25253095D02*
X81233333Y-25395952D01*
X81233333Y-25395952D02*
X81185714Y-25491190D01*
X81185714Y-25491190D02*
X81138095Y-25538809D01*
X81138095Y-25538809D02*
X81042857Y-25586428D01*
X81042857Y-25586428D02*
X80661905Y-25586428D01*
X81709524Y-26062619D02*
X81900000Y-26062619D01*
X81900000Y-26062619D02*
X81995238Y-26015000D01*
X81995238Y-26015000D02*
X82042857Y-25967380D01*
X82042857Y-25967380D02*
X82138095Y-25824523D01*
X82138095Y-25824523D02*
X82185714Y-25634047D01*
X82185714Y-25634047D02*
X82185714Y-25253095D01*
X82185714Y-25253095D02*
X82138095Y-25157857D01*
X82138095Y-25157857D02*
X82090476Y-25110238D01*
X82090476Y-25110238D02*
X81995238Y-25062619D01*
X81995238Y-25062619D02*
X81804762Y-25062619D01*
X81804762Y-25062619D02*
X81709524Y-25110238D01*
X81709524Y-25110238D02*
X81661905Y-25157857D01*
X81661905Y-25157857D02*
X81614286Y-25253095D01*
X81614286Y-25253095D02*
X81614286Y-25491190D01*
X81614286Y-25491190D02*
X81661905Y-25586428D01*
X81661905Y-25586428D02*
X81709524Y-25634047D01*
X81709524Y-25634047D02*
X81804762Y-25681666D01*
X81804762Y-25681666D02*
X81995238Y-25681666D01*
X81995238Y-25681666D02*
X82090476Y-25634047D01*
X82090476Y-25634047D02*
X82138095Y-25586428D01*
X82138095Y-25586428D02*
X82185714Y-25491190D01*
%TO.C,R16*%
X36632619Y16357142D02*
X36156428Y16023809D01*
X36632619Y15785714D02*
X35632619Y15785714D01*
X35632619Y15785714D02*
X35632619Y16166666D01*
X35632619Y16166666D02*
X35680238Y16261904D01*
X35680238Y16261904D02*
X35727857Y16309523D01*
X35727857Y16309523D02*
X35823095Y16357142D01*
X35823095Y16357142D02*
X35965952Y16357142D01*
X35965952Y16357142D02*
X36061190Y16309523D01*
X36061190Y16309523D02*
X36108809Y16261904D01*
X36108809Y16261904D02*
X36156428Y16166666D01*
X36156428Y16166666D02*
X36156428Y15785714D01*
X36632619Y17309523D02*
X36632619Y16738095D01*
X36632619Y17023809D02*
X35632619Y17023809D01*
X35632619Y17023809D02*
X35775476Y16928571D01*
X35775476Y16928571D02*
X35870714Y16833333D01*
X35870714Y16833333D02*
X35918333Y16738095D01*
X35632619Y18166666D02*
X35632619Y17976190D01*
X35632619Y17976190D02*
X35680238Y17880952D01*
X35680238Y17880952D02*
X35727857Y17833333D01*
X35727857Y17833333D02*
X35870714Y17738095D01*
X35870714Y17738095D02*
X36061190Y17690476D01*
X36061190Y17690476D02*
X36442142Y17690476D01*
X36442142Y17690476D02*
X36537380Y17738095D01*
X36537380Y17738095D02*
X36585000Y17785714D01*
X36585000Y17785714D02*
X36632619Y17880952D01*
X36632619Y17880952D02*
X36632619Y18071428D01*
X36632619Y18071428D02*
X36585000Y18166666D01*
X36585000Y18166666D02*
X36537380Y18214285D01*
X36537380Y18214285D02*
X36442142Y18261904D01*
X36442142Y18261904D02*
X36204047Y18261904D01*
X36204047Y18261904D02*
X36108809Y18214285D01*
X36108809Y18214285D02*
X36061190Y18166666D01*
X36061190Y18166666D02*
X36013571Y18071428D01*
X36013571Y18071428D02*
X36013571Y17880952D01*
X36013571Y17880952D02*
X36061190Y17785714D01*
X36061190Y17785714D02*
X36108809Y17738095D01*
X36108809Y17738095D02*
X36204047Y17690476D01*
%TO.C,R27*%
X34287619Y-63617857D02*
X33811428Y-63951190D01*
X34287619Y-64189285D02*
X33287619Y-64189285D01*
X33287619Y-64189285D02*
X33287619Y-63808333D01*
X33287619Y-63808333D02*
X33335238Y-63713095D01*
X33335238Y-63713095D02*
X33382857Y-63665476D01*
X33382857Y-63665476D02*
X33478095Y-63617857D01*
X33478095Y-63617857D02*
X33620952Y-63617857D01*
X33620952Y-63617857D02*
X33716190Y-63665476D01*
X33716190Y-63665476D02*
X33763809Y-63713095D01*
X33763809Y-63713095D02*
X33811428Y-63808333D01*
X33811428Y-63808333D02*
X33811428Y-64189285D01*
X33382857Y-63236904D02*
X33335238Y-63189285D01*
X33335238Y-63189285D02*
X33287619Y-63094047D01*
X33287619Y-63094047D02*
X33287619Y-62855952D01*
X33287619Y-62855952D02*
X33335238Y-62760714D01*
X33335238Y-62760714D02*
X33382857Y-62713095D01*
X33382857Y-62713095D02*
X33478095Y-62665476D01*
X33478095Y-62665476D02*
X33573333Y-62665476D01*
X33573333Y-62665476D02*
X33716190Y-62713095D01*
X33716190Y-62713095D02*
X34287619Y-63284523D01*
X34287619Y-63284523D02*
X34287619Y-62665476D01*
X33287619Y-62332142D02*
X33287619Y-61665476D01*
X33287619Y-61665476D02*
X34287619Y-62094047D01*
%TO.C,R10*%
X-707380Y-3792857D02*
X-1183571Y-4126190D01*
X-707380Y-4364285D02*
X-1707380Y-4364285D01*
X-1707380Y-4364285D02*
X-1707380Y-3983333D01*
X-1707380Y-3983333D02*
X-1659761Y-3888095D01*
X-1659761Y-3888095D02*
X-1612142Y-3840476D01*
X-1612142Y-3840476D02*
X-1516904Y-3792857D01*
X-1516904Y-3792857D02*
X-1374047Y-3792857D01*
X-1374047Y-3792857D02*
X-1278809Y-3840476D01*
X-1278809Y-3840476D02*
X-1231190Y-3888095D01*
X-1231190Y-3888095D02*
X-1183571Y-3983333D01*
X-1183571Y-3983333D02*
X-1183571Y-4364285D01*
X-707380Y-2840476D02*
X-707380Y-3411904D01*
X-707380Y-3126190D02*
X-1707380Y-3126190D01*
X-1707380Y-3126190D02*
X-1564523Y-3221428D01*
X-1564523Y-3221428D02*
X-1469285Y-3316666D01*
X-1469285Y-3316666D02*
X-1421666Y-3411904D01*
X-1707380Y-2221428D02*
X-1707380Y-2126190D01*
X-1707380Y-2126190D02*
X-1659761Y-2030952D01*
X-1659761Y-2030952D02*
X-1612142Y-1983333D01*
X-1612142Y-1983333D02*
X-1516904Y-1935714D01*
X-1516904Y-1935714D02*
X-1326428Y-1888095D01*
X-1326428Y-1888095D02*
X-1088333Y-1888095D01*
X-1088333Y-1888095D02*
X-897857Y-1935714D01*
X-897857Y-1935714D02*
X-802619Y-1983333D01*
X-802619Y-1983333D02*
X-755000Y-2030952D01*
X-755000Y-2030952D02*
X-707380Y-2126190D01*
X-707380Y-2126190D02*
X-707380Y-2221428D01*
X-707380Y-2221428D02*
X-755000Y-2316666D01*
X-755000Y-2316666D02*
X-802619Y-2364285D01*
X-802619Y-2364285D02*
X-897857Y-2411904D01*
X-897857Y-2411904D02*
X-1088333Y-2459523D01*
X-1088333Y-2459523D02*
X-1326428Y-2459523D01*
X-1326428Y-2459523D02*
X-1516904Y-2411904D01*
X-1516904Y-2411904D02*
X-1612142Y-2364285D01*
X-1612142Y-2364285D02*
X-1659761Y-2316666D01*
X-1659761Y-2316666D02*
X-1707380Y-2221428D01*
%TO.C,R26*%
X40157142Y32237380D02*
X39823809Y32713571D01*
X39585714Y32237380D02*
X39585714Y33237380D01*
X39585714Y33237380D02*
X39966666Y33237380D01*
X39966666Y33237380D02*
X40061904Y33189761D01*
X40061904Y33189761D02*
X40109523Y33142142D01*
X40109523Y33142142D02*
X40157142Y33046904D01*
X40157142Y33046904D02*
X40157142Y32904047D01*
X40157142Y32904047D02*
X40109523Y32808809D01*
X40109523Y32808809D02*
X40061904Y32761190D01*
X40061904Y32761190D02*
X39966666Y32713571D01*
X39966666Y32713571D02*
X39585714Y32713571D01*
X40538095Y33142142D02*
X40585714Y33189761D01*
X40585714Y33189761D02*
X40680952Y33237380D01*
X40680952Y33237380D02*
X40919047Y33237380D01*
X40919047Y33237380D02*
X41014285Y33189761D01*
X41014285Y33189761D02*
X41061904Y33142142D01*
X41061904Y33142142D02*
X41109523Y33046904D01*
X41109523Y33046904D02*
X41109523Y32951666D01*
X41109523Y32951666D02*
X41061904Y32808809D01*
X41061904Y32808809D02*
X40490476Y32237380D01*
X40490476Y32237380D02*
X41109523Y32237380D01*
X41966666Y33237380D02*
X41776190Y33237380D01*
X41776190Y33237380D02*
X41680952Y33189761D01*
X41680952Y33189761D02*
X41633333Y33142142D01*
X41633333Y33142142D02*
X41538095Y32999285D01*
X41538095Y32999285D02*
X41490476Y32808809D01*
X41490476Y32808809D02*
X41490476Y32427857D01*
X41490476Y32427857D02*
X41538095Y32332619D01*
X41538095Y32332619D02*
X41585714Y32285000D01*
X41585714Y32285000D02*
X41680952Y32237380D01*
X41680952Y32237380D02*
X41871428Y32237380D01*
X41871428Y32237380D02*
X41966666Y32285000D01*
X41966666Y32285000D02*
X42014285Y32332619D01*
X42014285Y32332619D02*
X42061904Y32427857D01*
X42061904Y32427857D02*
X42061904Y32665952D01*
X42061904Y32665952D02*
X42014285Y32761190D01*
X42014285Y32761190D02*
X41966666Y32808809D01*
X41966666Y32808809D02*
X41871428Y32856428D01*
X41871428Y32856428D02*
X41680952Y32856428D01*
X41680952Y32856428D02*
X41585714Y32808809D01*
X41585714Y32808809D02*
X41538095Y32761190D01*
X41538095Y32761190D02*
X41490476Y32665952D01*
%TO.C,U1*%
X57572619Y-50716904D02*
X58382142Y-50716904D01*
X58382142Y-50716904D02*
X58477380Y-50669285D01*
X58477380Y-50669285D02*
X58525000Y-50621666D01*
X58525000Y-50621666D02*
X58572619Y-50526428D01*
X58572619Y-50526428D02*
X58572619Y-50335952D01*
X58572619Y-50335952D02*
X58525000Y-50240714D01*
X58525000Y-50240714D02*
X58477380Y-50193095D01*
X58477380Y-50193095D02*
X58382142Y-50145476D01*
X58382142Y-50145476D02*
X57572619Y-50145476D01*
X58572619Y-49145476D02*
X58572619Y-49716904D01*
X58572619Y-49431190D02*
X57572619Y-49431190D01*
X57572619Y-49431190D02*
X57715476Y-49526428D01*
X57715476Y-49526428D02*
X57810714Y-49621666D01*
X57810714Y-49621666D02*
X57858333Y-49716904D01*
%TO.C,R25*%
X54107142Y31037380D02*
X53773809Y31513571D01*
X53535714Y31037380D02*
X53535714Y32037380D01*
X53535714Y32037380D02*
X53916666Y32037380D01*
X53916666Y32037380D02*
X54011904Y31989761D01*
X54011904Y31989761D02*
X54059523Y31942142D01*
X54059523Y31942142D02*
X54107142Y31846904D01*
X54107142Y31846904D02*
X54107142Y31704047D01*
X54107142Y31704047D02*
X54059523Y31608809D01*
X54059523Y31608809D02*
X54011904Y31561190D01*
X54011904Y31561190D02*
X53916666Y31513571D01*
X53916666Y31513571D02*
X53535714Y31513571D01*
X54488095Y31942142D02*
X54535714Y31989761D01*
X54535714Y31989761D02*
X54630952Y32037380D01*
X54630952Y32037380D02*
X54869047Y32037380D01*
X54869047Y32037380D02*
X54964285Y31989761D01*
X54964285Y31989761D02*
X55011904Y31942142D01*
X55011904Y31942142D02*
X55059523Y31846904D01*
X55059523Y31846904D02*
X55059523Y31751666D01*
X55059523Y31751666D02*
X55011904Y31608809D01*
X55011904Y31608809D02*
X54440476Y31037380D01*
X54440476Y31037380D02*
X55059523Y31037380D01*
X55964285Y32037380D02*
X55488095Y32037380D01*
X55488095Y32037380D02*
X55440476Y31561190D01*
X55440476Y31561190D02*
X55488095Y31608809D01*
X55488095Y31608809D02*
X55583333Y31656428D01*
X55583333Y31656428D02*
X55821428Y31656428D01*
X55821428Y31656428D02*
X55916666Y31608809D01*
X55916666Y31608809D02*
X55964285Y31561190D01*
X55964285Y31561190D02*
X56011904Y31465952D01*
X56011904Y31465952D02*
X56011904Y31227857D01*
X56011904Y31227857D02*
X55964285Y31132619D01*
X55964285Y31132619D02*
X55916666Y31085000D01*
X55916666Y31085000D02*
X55821428Y31037380D01*
X55821428Y31037380D02*
X55583333Y31037380D01*
X55583333Y31037380D02*
X55488095Y31085000D01*
X55488095Y31085000D02*
X55440476Y31132619D01*
%TO.C,R11*%
X6632619Y-3792857D02*
X6156428Y-4126190D01*
X6632619Y-4364285D02*
X5632619Y-4364285D01*
X5632619Y-4364285D02*
X5632619Y-3983333D01*
X5632619Y-3983333D02*
X5680238Y-3888095D01*
X5680238Y-3888095D02*
X5727857Y-3840476D01*
X5727857Y-3840476D02*
X5823095Y-3792857D01*
X5823095Y-3792857D02*
X5965952Y-3792857D01*
X5965952Y-3792857D02*
X6061190Y-3840476D01*
X6061190Y-3840476D02*
X6108809Y-3888095D01*
X6108809Y-3888095D02*
X6156428Y-3983333D01*
X6156428Y-3983333D02*
X6156428Y-4364285D01*
X6632619Y-2840476D02*
X6632619Y-3411904D01*
X6632619Y-3126190D02*
X5632619Y-3126190D01*
X5632619Y-3126190D02*
X5775476Y-3221428D01*
X5775476Y-3221428D02*
X5870714Y-3316666D01*
X5870714Y-3316666D02*
X5918333Y-3411904D01*
X6632619Y-1888095D02*
X6632619Y-2459523D01*
X6632619Y-2173809D02*
X5632619Y-2173809D01*
X5632619Y-2173809D02*
X5775476Y-2269047D01*
X5775476Y-2269047D02*
X5870714Y-2364285D01*
X5870714Y-2364285D02*
X5918333Y-2459523D01*
%TO.C,C2*%
X35083333Y16882619D02*
X35035714Y16835000D01*
X35035714Y16835000D02*
X34892857Y16787380D01*
X34892857Y16787380D02*
X34797619Y16787380D01*
X34797619Y16787380D02*
X34654762Y16835000D01*
X34654762Y16835000D02*
X34559524Y16930238D01*
X34559524Y16930238D02*
X34511905Y17025476D01*
X34511905Y17025476D02*
X34464286Y17215952D01*
X34464286Y17215952D02*
X34464286Y17358809D01*
X34464286Y17358809D02*
X34511905Y17549285D01*
X34511905Y17549285D02*
X34559524Y17644523D01*
X34559524Y17644523D02*
X34654762Y17739761D01*
X34654762Y17739761D02*
X34797619Y17787380D01*
X34797619Y17787380D02*
X34892857Y17787380D01*
X34892857Y17787380D02*
X35035714Y17739761D01*
X35035714Y17739761D02*
X35083333Y17692142D01*
X35464286Y17692142D02*
X35511905Y17739761D01*
X35511905Y17739761D02*
X35607143Y17787380D01*
X35607143Y17787380D02*
X35845238Y17787380D01*
X35845238Y17787380D02*
X35940476Y17739761D01*
X35940476Y17739761D02*
X35988095Y17692142D01*
X35988095Y17692142D02*
X36035714Y17596904D01*
X36035714Y17596904D02*
X36035714Y17501666D01*
X36035714Y17501666D02*
X35988095Y17358809D01*
X35988095Y17358809D02*
X35416667Y16787380D01*
X35416667Y16787380D02*
X36035714Y16787380D01*
%TO.C,R12*%
X6632619Y16357142D02*
X6156428Y16023809D01*
X6632619Y15785714D02*
X5632619Y15785714D01*
X5632619Y15785714D02*
X5632619Y16166666D01*
X5632619Y16166666D02*
X5680238Y16261904D01*
X5680238Y16261904D02*
X5727857Y16309523D01*
X5727857Y16309523D02*
X5823095Y16357142D01*
X5823095Y16357142D02*
X5965952Y16357142D01*
X5965952Y16357142D02*
X6061190Y16309523D01*
X6061190Y16309523D02*
X6108809Y16261904D01*
X6108809Y16261904D02*
X6156428Y16166666D01*
X6156428Y16166666D02*
X6156428Y15785714D01*
X6632619Y17309523D02*
X6632619Y16738095D01*
X6632619Y17023809D02*
X5632619Y17023809D01*
X5632619Y17023809D02*
X5775476Y16928571D01*
X5775476Y16928571D02*
X5870714Y16833333D01*
X5870714Y16833333D02*
X5918333Y16738095D01*
X5727857Y17690476D02*
X5680238Y17738095D01*
X5680238Y17738095D02*
X5632619Y17833333D01*
X5632619Y17833333D02*
X5632619Y18071428D01*
X5632619Y18071428D02*
X5680238Y18166666D01*
X5680238Y18166666D02*
X5727857Y18214285D01*
X5727857Y18214285D02*
X5823095Y18261904D01*
X5823095Y18261904D02*
X5918333Y18261904D01*
X5918333Y18261904D02*
X6061190Y18214285D01*
X6061190Y18214285D02*
X6632619Y17642857D01*
X6632619Y17642857D02*
X6632619Y18261904D01*
%TO.C,C10*%
X15857380Y-35192858D02*
X15905000Y-35240477D01*
X15905000Y-35240477D02*
X15952619Y-35383334D01*
X15952619Y-35383334D02*
X15952619Y-35478572D01*
X15952619Y-35478572D02*
X15905000Y-35621429D01*
X15905000Y-35621429D02*
X15809761Y-35716667D01*
X15809761Y-35716667D02*
X15714523Y-35764286D01*
X15714523Y-35764286D02*
X15524047Y-35811905D01*
X15524047Y-35811905D02*
X15381190Y-35811905D01*
X15381190Y-35811905D02*
X15190714Y-35764286D01*
X15190714Y-35764286D02*
X15095476Y-35716667D01*
X15095476Y-35716667D02*
X15000238Y-35621429D01*
X15000238Y-35621429D02*
X14952619Y-35478572D01*
X14952619Y-35478572D02*
X14952619Y-35383334D01*
X14952619Y-35383334D02*
X15000238Y-35240477D01*
X15000238Y-35240477D02*
X15047857Y-35192858D01*
X15952619Y-34240477D02*
X15952619Y-34811905D01*
X15952619Y-34526191D02*
X14952619Y-34526191D01*
X14952619Y-34526191D02*
X15095476Y-34621429D01*
X15095476Y-34621429D02*
X15190714Y-34716667D01*
X15190714Y-34716667D02*
X15238333Y-34811905D01*
X14952619Y-33621429D02*
X14952619Y-33526191D01*
X14952619Y-33526191D02*
X15000238Y-33430953D01*
X15000238Y-33430953D02*
X15047857Y-33383334D01*
X15047857Y-33383334D02*
X15143095Y-33335715D01*
X15143095Y-33335715D02*
X15333571Y-33288096D01*
X15333571Y-33288096D02*
X15571666Y-33288096D01*
X15571666Y-33288096D02*
X15762142Y-33335715D01*
X15762142Y-33335715D02*
X15857380Y-33383334D01*
X15857380Y-33383334D02*
X15905000Y-33430953D01*
X15905000Y-33430953D02*
X15952619Y-33526191D01*
X15952619Y-33526191D02*
X15952619Y-33621429D01*
X15952619Y-33621429D02*
X15905000Y-33716667D01*
X15905000Y-33716667D02*
X15857380Y-33764286D01*
X15857380Y-33764286D02*
X15762142Y-33811905D01*
X15762142Y-33811905D02*
X15571666Y-33859524D01*
X15571666Y-33859524D02*
X15333571Y-33859524D01*
X15333571Y-33859524D02*
X15143095Y-33811905D01*
X15143095Y-33811905D02*
X15047857Y-33764286D01*
X15047857Y-33764286D02*
X15000238Y-33716667D01*
X15000238Y-33716667D02*
X14952619Y-33621429D01*
%TO.C,C1*%
X37163333Y19382619D02*
X37115714Y19335000D01*
X37115714Y19335000D02*
X36972857Y19287380D01*
X36972857Y19287380D02*
X36877619Y19287380D01*
X36877619Y19287380D02*
X36734762Y19335000D01*
X36734762Y19335000D02*
X36639524Y19430238D01*
X36639524Y19430238D02*
X36591905Y19525476D01*
X36591905Y19525476D02*
X36544286Y19715952D01*
X36544286Y19715952D02*
X36544286Y19858809D01*
X36544286Y19858809D02*
X36591905Y20049285D01*
X36591905Y20049285D02*
X36639524Y20144523D01*
X36639524Y20144523D02*
X36734762Y20239761D01*
X36734762Y20239761D02*
X36877619Y20287380D01*
X36877619Y20287380D02*
X36972857Y20287380D01*
X36972857Y20287380D02*
X37115714Y20239761D01*
X37115714Y20239761D02*
X37163333Y20192142D01*
X38115714Y19287380D02*
X37544286Y19287380D01*
X37830000Y19287380D02*
X37830000Y20287380D01*
X37830000Y20287380D02*
X37734762Y20144523D01*
X37734762Y20144523D02*
X37639524Y20049285D01*
X37639524Y20049285D02*
X37544286Y20001666D01*
D13*
%TO.C,U4*%
X53810000Y26000000D02*
X53810000Y29450000D01*
X53810000Y26000000D02*
X53810000Y24050000D01*
X43690000Y26000000D02*
X43690000Y27950000D01*
X43690000Y26000000D02*
X43690000Y24050000D01*
%TO.C,R5*%
X36930000Y-49446359D02*
X36930000Y-49753641D01*
X36170000Y-49446359D02*
X36170000Y-49753641D01*
%TO.C,D5*%
X0Y-33040000D02*
X-1675000Y-33040000D01*
X0Y-33040000D02*
X650000Y-33040000D01*
X0Y-36160000D02*
X-650000Y-36160000D01*
X0Y-36160000D02*
X650000Y-36160000D01*
D11*
%TO.C,SW3*%
X56200000Y12500000D02*
X59500000Y12500000D01*
X56200000Y12120000D02*
X56580000Y12500000D01*
X56200000Y11410000D02*
X57290000Y12500000D01*
X56200000Y10710000D02*
X57990000Y12500000D01*
X56200000Y10000000D02*
X56200000Y12500000D01*
X56200000Y10000000D02*
X58700000Y12500000D01*
X56200000Y5000000D02*
X59500000Y5000000D01*
X56200000Y4620000D02*
X56580000Y5000000D01*
X56200000Y3910000D02*
X57290000Y5000000D01*
X56200000Y3210000D02*
X57990000Y5000000D01*
X56200000Y2500000D02*
X56200000Y5000000D01*
X56200000Y2500000D02*
X58700000Y5000000D01*
X56910000Y10000000D02*
X59410000Y12500000D01*
X56910000Y2500000D02*
X59410000Y5000000D01*
X57610000Y10000000D02*
X59500000Y11890000D01*
X57610000Y2500000D02*
X59500000Y4390000D01*
D14*
X57660000Y13500000D02*
X59360000Y13500000D01*
X57660000Y1500000D02*
X67340000Y1500000D01*
D11*
X58320000Y10000000D02*
X59500000Y11180000D01*
X58320000Y2500000D02*
X59500000Y3680000D01*
X59030000Y10000000D02*
X59500000Y10470000D01*
X59030000Y2500000D02*
X59500000Y2970000D01*
X59500000Y12500000D02*
X59500000Y10000000D01*
X59500000Y10000000D02*
X56200000Y10000000D01*
X59500000Y5000000D02*
X59500000Y2500000D01*
X59500000Y2500000D02*
X56200000Y2500000D01*
D14*
X59900000Y9000000D02*
X65100000Y9000000D01*
X60600000Y13500000D02*
X64400000Y13500000D01*
D11*
X65500000Y12500000D02*
X68800000Y12500000D01*
X65500000Y12120000D02*
X65880000Y12500000D01*
X65500000Y11410000D02*
X66590000Y12500000D01*
X65500000Y10710000D02*
X67290000Y12500000D01*
X65500000Y10000000D02*
X65500000Y12500000D01*
X65500000Y10000000D02*
X68000000Y12500000D01*
X65500000Y5000000D02*
X68800000Y5000000D01*
X65500000Y4620000D02*
X65880000Y5000000D01*
X65500000Y3910000D02*
X66590000Y5000000D01*
X65500000Y3210000D02*
X67290000Y5000000D01*
X65500000Y2500000D02*
X65500000Y5000000D01*
X65500000Y2500000D02*
X68000000Y5000000D01*
D14*
X65640000Y13500000D02*
X67340000Y13500000D01*
D11*
X66210000Y10000000D02*
X68710000Y12500000D01*
X66210000Y2500000D02*
X68710000Y5000000D01*
X66910000Y10000000D02*
X68800000Y11890000D01*
X66910000Y2500000D02*
X68800000Y4390000D01*
X67620000Y10000000D02*
X68800000Y11180000D01*
X67620000Y2500000D02*
X68800000Y3680000D01*
X68330000Y10000000D02*
X68800000Y10470000D01*
X68330000Y2500000D02*
X68800000Y2970000D01*
X68800000Y12500000D02*
X68800000Y10000000D01*
X68800000Y10000000D02*
X65500000Y10000000D01*
X68800000Y5000000D02*
X68800000Y2500000D01*
X68800000Y2500000D02*
X65500000Y2500000D01*
D14*
X57660128Y13500049D02*
G75*
G03*
X56650000Y12500000I-129J-1010048D01*
G01*
X56650047Y2500129D02*
G75*
G03*
X57660000Y1500000I1009954J9873D01*
G01*
X58760065Y10000017D02*
G75*
G03*
X58360001Y9260000I3739935J-2500017D01*
G01*
X58359940Y5740029D02*
G75*
G03*
X58760001Y5000000I4140040J1759957D01*
G01*
X59377857Y9997323D02*
G75*
G03*
X59380000Y5000000I3122143J-2497323D01*
G01*
X65504050Y11687097D02*
G75*
G03*
X59500000Y11690000I-3004050J-4187097D01*
G01*
X65495887Y10853679D02*
G75*
G03*
X59500000Y10850000I-2995887J-3353679D01*
G01*
X65504180Y10145260D02*
G75*
G03*
X59500000Y10150000I-3004180J-2645260D01*
G01*
X61182503Y9002199D02*
G75*
G03*
X63820000Y9000000I1317497J-1502199D01*
G01*
X59495820Y4854740D02*
G75*
G03*
X65500000Y4850000I3004180J2645260D01*
G01*
X59504114Y4146322D02*
G75*
G03*
X65500000Y4150000I2995886J3353677D01*
G01*
X59495950Y3312902D02*
G75*
G03*
X65499999Y3310001I3004049J4187097D01*
G01*
X65622143Y5002677D02*
G75*
G03*
X65620000Y10000000I-3122143J2497323D01*
G01*
X66640061Y9259971D02*
G75*
G03*
X66240000Y10000000I-4140061J-1759971D01*
G01*
X66239935Y4999983D02*
G75*
G03*
X66640000Y5740000I-3739964J2500033D01*
G01*
X68349952Y12499871D02*
G75*
G03*
X67340000Y13500000I-1009952J-9871D01*
G01*
X67339872Y1499951D02*
G75*
G03*
X68349999Y2500000I128J1010049D01*
G01*
X65500000Y7500000D02*
G75*
G03*
X65500000Y7500000I-3000000J0D01*
G01*
D13*
%TO.C,R4*%
X60380000Y-61996359D02*
X60380000Y-62303641D01*
X59620000Y-61996359D02*
X59620000Y-62303641D01*
%TO.C,Q3*%
X45710000Y18420000D02*
X45710000Y20850000D01*
X45700000Y18400000D02*
X44700000Y18400000D01*
X43700000Y18400000D02*
X42650000Y18400000D01*
X42650000Y18400000D02*
X42650000Y20250000D01*
D11*
%TO.C,SW1*%
X-3800000Y12500000D02*
X-500000Y12500000D01*
X-3800000Y12120000D02*
X-3420000Y12500000D01*
X-3800000Y11410000D02*
X-2710000Y12500000D01*
X-3800000Y10710000D02*
X-2010000Y12500000D01*
X-3800000Y10000000D02*
X-3800000Y12500000D01*
X-3800000Y10000000D02*
X-1300000Y12500000D01*
X-3800000Y5000000D02*
X-500000Y5000000D01*
X-3800000Y4620000D02*
X-3420000Y5000000D01*
X-3800000Y3910000D02*
X-2710000Y5000000D01*
X-3800000Y3210000D02*
X-2010000Y5000000D01*
X-3800000Y2500000D02*
X-3800000Y5000000D01*
X-3800000Y2500000D02*
X-1300000Y5000000D01*
X-3090000Y10000000D02*
X-590000Y12500000D01*
X-3090000Y2500000D02*
X-590000Y5000000D01*
X-2390000Y10000000D02*
X-500000Y11890000D01*
X-2390000Y2500000D02*
X-500000Y4390000D01*
D14*
X-2340000Y13500000D02*
X-640000Y13500000D01*
X-2340000Y1500000D02*
X7340000Y1500000D01*
D11*
X-1680000Y10000000D02*
X-500000Y11180000D01*
X-1680000Y2500000D02*
X-500000Y3680000D01*
X-970000Y10000000D02*
X-500000Y10470000D01*
X-970000Y2500000D02*
X-500000Y2970000D01*
X-500000Y12500000D02*
X-500000Y10000000D01*
X-500000Y10000000D02*
X-3800000Y10000000D01*
X-500000Y5000000D02*
X-500000Y2500000D01*
X-500000Y2500000D02*
X-3800000Y2500000D01*
D14*
X-100000Y9000000D02*
X5100000Y9000000D01*
X600000Y13500000D02*
X4400000Y13500000D01*
D11*
X5500000Y12500000D02*
X8800000Y12500000D01*
X5500000Y12120000D02*
X5880000Y12500000D01*
X5500000Y11410000D02*
X6590000Y12500000D01*
X5500000Y10710000D02*
X7290000Y12500000D01*
X5500000Y10000000D02*
X5500000Y12500000D01*
X5500000Y10000000D02*
X8000000Y12500000D01*
X5500000Y5000000D02*
X8800000Y5000000D01*
X5500000Y4620000D02*
X5880000Y5000000D01*
X5500000Y3910000D02*
X6590000Y5000000D01*
X5500000Y3210000D02*
X7290000Y5000000D01*
X5500000Y2500000D02*
X5500000Y5000000D01*
X5500000Y2500000D02*
X8000000Y5000000D01*
D14*
X5640000Y13500000D02*
X7340000Y13500000D01*
D11*
X6210000Y10000000D02*
X8710000Y12500000D01*
X6210000Y2500000D02*
X8710000Y5000000D01*
X6910000Y10000000D02*
X8800000Y11890000D01*
X6910000Y2500000D02*
X8800000Y4390000D01*
X7620000Y10000000D02*
X8800000Y11180000D01*
X7620000Y2500000D02*
X8800000Y3680000D01*
X8330000Y10000000D02*
X8800000Y10470000D01*
X8330000Y2500000D02*
X8800000Y2970000D01*
X8800000Y12500000D02*
X8800000Y10000000D01*
X8800000Y10000000D02*
X5500000Y10000000D01*
X8800000Y5000000D02*
X8800000Y2500000D01*
X8800000Y2500000D02*
X5500000Y2500000D01*
D14*
X-2339872Y13500049D02*
G75*
G03*
X-3350000Y12500000I-129J-1010048D01*
G01*
X-3349953Y2500129D02*
G75*
G03*
X-2340000Y1500000I1009954J9873D01*
G01*
X-1239935Y10000017D02*
G75*
G03*
X-1639999Y9260000I3739935J-2500017D01*
G01*
X-1640060Y5740029D02*
G75*
G03*
X-1239999Y5000000I4140040J1759957D01*
G01*
X-622143Y9997323D02*
G75*
G03*
X-620000Y5000000I3122143J-2497323D01*
G01*
X5504050Y11687097D02*
G75*
G03*
X-500000Y11690000I-3004050J-4187097D01*
G01*
X5495887Y10853679D02*
G75*
G03*
X-500000Y10850000I-2995887J-3353679D01*
G01*
X5504180Y10145260D02*
G75*
G03*
X-500000Y10150000I-3004180J-2645260D01*
G01*
X1182503Y9002199D02*
G75*
G03*
X3820000Y9000000I1317497J-1502199D01*
G01*
X-504180Y4854740D02*
G75*
G03*
X5500000Y4850000I3004180J2645260D01*
G01*
X-495886Y4146322D02*
G75*
G03*
X5500000Y4150000I2995886J3353677D01*
G01*
X-504050Y3312902D02*
G75*
G03*
X5499999Y3310001I3004049J4187097D01*
G01*
X5622143Y5002677D02*
G75*
G03*
X5620000Y10000000I-3122143J2497323D01*
G01*
X6640061Y9259971D02*
G75*
G03*
X6240000Y10000000I-4140061J-1759971D01*
G01*
X6239935Y4999983D02*
G75*
G03*
X6640000Y5740000I-3739964J2500033D01*
G01*
X8349952Y12499871D02*
G75*
G03*
X7340000Y13500000I-1009952J-9871D01*
G01*
X7339872Y1499951D02*
G75*
G03*
X8349999Y2500000I128J1010049D01*
G01*
X5500000Y7500000D02*
G75*
G03*
X5500000Y7500000I-3000000J0D01*
G01*
D13*
%TO.C,D6*%
X62585000Y37115000D02*
X62585000Y38585000D01*
X62585000Y38585000D02*
X60300000Y38585000D01*
X60300000Y37115000D02*
X62585000Y37115000D01*
%TO.C,R15*%
X35380000Y-2996359D02*
X35380000Y-3303641D01*
X34620000Y-2996359D02*
X34620000Y-3303641D01*
%TO.C,Q2*%
X50000000Y16470000D02*
X50000000Y18900000D01*
X49990000Y16450000D02*
X48990000Y16450000D01*
X47990000Y16450000D02*
X46940000Y16450000D01*
X46940000Y16450000D02*
X46940000Y18300000D01*
%TO.C,U2*%
X-4800000Y-20140000D02*
X-6600000Y-20140000D01*
X-4800000Y-20140000D02*
X-4000000Y-20140000D01*
X-4800000Y-23260000D02*
X-5600000Y-23260000D01*
X-4800000Y-23260000D02*
X-4000000Y-23260000D01*
%TO.C,R30*%
X64870000Y35846359D02*
X64870000Y36153641D01*
X65630000Y35846359D02*
X65630000Y36153641D01*
D11*
%TO.C,SW2*%
X26200000Y12500000D02*
X29500000Y12500000D01*
X26200000Y12120000D02*
X26580000Y12500000D01*
X26200000Y11410000D02*
X27290000Y12500000D01*
X26200000Y10710000D02*
X27990000Y12500000D01*
X26200000Y10000000D02*
X26200000Y12500000D01*
X26200000Y10000000D02*
X28700000Y12500000D01*
X26200000Y5000000D02*
X29500000Y5000000D01*
X26200000Y4620000D02*
X26580000Y5000000D01*
X26200000Y3910000D02*
X27290000Y5000000D01*
X26200000Y3210000D02*
X27990000Y5000000D01*
X26200000Y2500000D02*
X26200000Y5000000D01*
X26200000Y2500000D02*
X28700000Y5000000D01*
X26910000Y10000000D02*
X29410000Y12500000D01*
X26910000Y2500000D02*
X29410000Y5000000D01*
X27610000Y10000000D02*
X29500000Y11890000D01*
X27610000Y2500000D02*
X29500000Y4390000D01*
D14*
X27660000Y13500000D02*
X29360000Y13500000D01*
X27660000Y1500000D02*
X37340000Y1500000D01*
D11*
X28320000Y10000000D02*
X29500000Y11180000D01*
X28320000Y2500000D02*
X29500000Y3680000D01*
X29030000Y10000000D02*
X29500000Y10470000D01*
X29030000Y2500000D02*
X29500000Y2970000D01*
X29500000Y12500000D02*
X29500000Y10000000D01*
X29500000Y10000000D02*
X26200000Y10000000D01*
X29500000Y5000000D02*
X29500000Y2500000D01*
X29500000Y2500000D02*
X26200000Y2500000D01*
D14*
X29900000Y9000000D02*
X35100000Y9000000D01*
X30600000Y13500000D02*
X34400000Y13500000D01*
D11*
X35500000Y12500000D02*
X38800000Y12500000D01*
X35500000Y12120000D02*
X35880000Y12500000D01*
X35500000Y11410000D02*
X36590000Y12500000D01*
X35500000Y10710000D02*
X37290000Y12500000D01*
X35500000Y10000000D02*
X35500000Y12500000D01*
X35500000Y10000000D02*
X38000000Y12500000D01*
X35500000Y5000000D02*
X38800000Y5000000D01*
X35500000Y4620000D02*
X35880000Y5000000D01*
X35500000Y3910000D02*
X36590000Y5000000D01*
X35500000Y3210000D02*
X37290000Y5000000D01*
X35500000Y2500000D02*
X35500000Y5000000D01*
X35500000Y2500000D02*
X38000000Y5000000D01*
D14*
X35640000Y13500000D02*
X37340000Y13500000D01*
D11*
X36210000Y10000000D02*
X38710000Y12500000D01*
X36210000Y2500000D02*
X38710000Y5000000D01*
X36910000Y10000000D02*
X38800000Y11890000D01*
X36910000Y2500000D02*
X38800000Y4390000D01*
X37620000Y10000000D02*
X38800000Y11180000D01*
X37620000Y2500000D02*
X38800000Y3680000D01*
X38330000Y10000000D02*
X38800000Y10470000D01*
X38330000Y2500000D02*
X38800000Y2970000D01*
X38800000Y12500000D02*
X38800000Y10000000D01*
X38800000Y10000000D02*
X35500000Y10000000D01*
X38800000Y5000000D02*
X38800000Y2500000D01*
X38800000Y2500000D02*
X35500000Y2500000D01*
D14*
X27660128Y13500049D02*
G75*
G03*
X26650000Y12500000I-129J-1010048D01*
G01*
X26650047Y2500129D02*
G75*
G03*
X27660000Y1500000I1009954J9873D01*
G01*
X28760065Y10000017D02*
G75*
G03*
X28360001Y9260000I3739935J-2500017D01*
G01*
X28359940Y5740029D02*
G75*
G03*
X28760001Y5000000I4140040J1759957D01*
G01*
X29377857Y9997323D02*
G75*
G03*
X29380000Y5000000I3122143J-2497323D01*
G01*
X35504050Y11687097D02*
G75*
G03*
X29500000Y11690000I-3004050J-4187097D01*
G01*
X35495887Y10853679D02*
G75*
G03*
X29500000Y10850000I-2995887J-3353679D01*
G01*
X35504180Y10145260D02*
G75*
G03*
X29500000Y10150000I-3004180J-2645260D01*
G01*
X31182503Y9002199D02*
G75*
G03*
X33820000Y9000000I1317497J-1502199D01*
G01*
X29495820Y4854740D02*
G75*
G03*
X35500000Y4850000I3004180J2645260D01*
G01*
X29504114Y4146322D02*
G75*
G03*
X35500000Y4150000I2995886J3353677D01*
G01*
X29495950Y3312902D02*
G75*
G03*
X35499999Y3310001I3004049J4187097D01*
G01*
X35622143Y5002677D02*
G75*
G03*
X35620000Y10000000I-3122143J2497323D01*
G01*
X36640061Y9259971D02*
G75*
G03*
X36240000Y10000000I-4140061J-1759971D01*
G01*
X36239935Y4999983D02*
G75*
G03*
X36640000Y5740000I-3739964J2500033D01*
G01*
X38349952Y12499871D02*
G75*
G03*
X37340000Y13500000I-1009952J-9871D01*
G01*
X37339872Y1499951D02*
G75*
G03*
X38349999Y2500000I128J1010049D01*
G01*
X35500000Y7500000D02*
G75*
G03*
X35500000Y7500000I-3000000J0D01*
G01*
D13*
%TO.C,C3*%
X40057836Y19540000D02*
X39842164Y19540000D01*
X40057836Y20260000D02*
X39842164Y20260000D01*
%TO.C,R8*%
X83712742Y-22577500D02*
X84187258Y-22577500D01*
X83712742Y-23622500D02*
X84187258Y-23622500D01*
%TO.C,R6*%
X83712742Y-17477500D02*
X84187258Y-17477500D01*
X83712742Y-18522500D02*
X84187258Y-18522500D01*
%TO.C,R24*%
X47403641Y19770000D02*
X47096359Y19770000D01*
X47403641Y20530000D02*
X47096359Y20530000D01*
%TO.C,U5*%
X33040000Y22000000D02*
X33040000Y28010000D01*
X39860000Y24250000D02*
X39860000Y28010000D01*
X33040000Y28010000D02*
X34300000Y28010000D01*
X39860000Y28010000D02*
X38600000Y28010000D01*
%TO.C,R18*%
X65380000Y-2996359D02*
X65380000Y-3303641D01*
X64620000Y-2996359D02*
X64620000Y-3303641D01*
D11*
%TO.C,SW4*%
X86200000Y12500000D02*
X89500000Y12500000D01*
X86200000Y12120000D02*
X86580000Y12500000D01*
X86200000Y11410000D02*
X87290000Y12500000D01*
X86200000Y10710000D02*
X87990000Y12500000D01*
X86200000Y10000000D02*
X86200000Y12500000D01*
X86200000Y10000000D02*
X88700000Y12500000D01*
X86200000Y5000000D02*
X89500000Y5000000D01*
X86200000Y4620000D02*
X86580000Y5000000D01*
X86200000Y3910000D02*
X87290000Y5000000D01*
X86200000Y3210000D02*
X87990000Y5000000D01*
X86200000Y2500000D02*
X86200000Y5000000D01*
X86200000Y2500000D02*
X88700000Y5000000D01*
X86910000Y10000000D02*
X89410000Y12500000D01*
X86910000Y2500000D02*
X89410000Y5000000D01*
X87610000Y10000000D02*
X89500000Y11890000D01*
X87610000Y2500000D02*
X89500000Y4390000D01*
D14*
X87660000Y13500000D02*
X89360000Y13500000D01*
X87660000Y1500000D02*
X97340000Y1500000D01*
D11*
X88320000Y10000000D02*
X89500000Y11180000D01*
X88320000Y2500000D02*
X89500000Y3680000D01*
X89030000Y10000000D02*
X89500000Y10470000D01*
X89030000Y2500000D02*
X89500000Y2970000D01*
X89500000Y12500000D02*
X89500000Y10000000D01*
X89500000Y10000000D02*
X86200000Y10000000D01*
X89500000Y5000000D02*
X89500000Y2500000D01*
X89500000Y2500000D02*
X86200000Y2500000D01*
D14*
X89900000Y9000000D02*
X95100000Y9000000D01*
X90600000Y13500000D02*
X94400000Y13500000D01*
D11*
X95500000Y12500000D02*
X98800000Y12500000D01*
X95500000Y12120000D02*
X95880000Y12500000D01*
X95500000Y11410000D02*
X96590000Y12500000D01*
X95500000Y10710000D02*
X97290000Y12500000D01*
X95500000Y10000000D02*
X95500000Y12500000D01*
X95500000Y10000000D02*
X98000000Y12500000D01*
X95500000Y5000000D02*
X98800000Y5000000D01*
X95500000Y4620000D02*
X95880000Y5000000D01*
X95500000Y3910000D02*
X96590000Y5000000D01*
X95500000Y3210000D02*
X97290000Y5000000D01*
X95500000Y2500000D02*
X95500000Y5000000D01*
X95500000Y2500000D02*
X98000000Y5000000D01*
D14*
X95640000Y13500000D02*
X97340000Y13500000D01*
D11*
X96210000Y10000000D02*
X98710000Y12500000D01*
X96210000Y2500000D02*
X98710000Y5000000D01*
X96910000Y10000000D02*
X98800000Y11890000D01*
X96910000Y2500000D02*
X98800000Y4390000D01*
X97620000Y10000000D02*
X98800000Y11180000D01*
X97620000Y2500000D02*
X98800000Y3680000D01*
X98330000Y10000000D02*
X98800000Y10470000D01*
X98330000Y2500000D02*
X98800000Y2970000D01*
X98800000Y12500000D02*
X98800000Y10000000D01*
X98800000Y10000000D02*
X95500000Y10000000D01*
X98800000Y5000000D02*
X98800000Y2500000D01*
X98800000Y2500000D02*
X95500000Y2500000D01*
D14*
X87660128Y13500049D02*
G75*
G03*
X86650000Y12500000I-129J-1010048D01*
G01*
X86650047Y2500129D02*
G75*
G03*
X87660000Y1500000I1009954J9873D01*
G01*
X88760065Y10000017D02*
G75*
G03*
X88360001Y9260000I3739935J-2500017D01*
G01*
X88359940Y5740029D02*
G75*
G03*
X88760001Y5000000I4140040J1759957D01*
G01*
X89377857Y9997323D02*
G75*
G03*
X89380000Y5000000I3122143J-2497323D01*
G01*
X95504050Y11687097D02*
G75*
G03*
X89500000Y11690000I-3004050J-4187097D01*
G01*
X95495887Y10853679D02*
G75*
G03*
X89500000Y10850000I-2995887J-3353679D01*
G01*
X95504180Y10145260D02*
G75*
G03*
X89500000Y10150000I-3004180J-2645260D01*
G01*
X91182503Y9002199D02*
G75*
G03*
X93820000Y9000000I1317497J-1502199D01*
G01*
X89495820Y4854740D02*
G75*
G03*
X95500000Y4850000I3004180J2645260D01*
G01*
X89504114Y4146322D02*
G75*
G03*
X95500000Y4150000I2995886J3353677D01*
G01*
X89495950Y3312902D02*
G75*
G03*
X95499999Y3310001I3004049J4187097D01*
G01*
X95622143Y5002677D02*
G75*
G03*
X95620000Y10000000I-3122143J2497323D01*
G01*
X96640061Y9259971D02*
G75*
G03*
X96240000Y10000000I-4140061J-1759971D01*
G01*
X96239935Y4999983D02*
G75*
G03*
X96640000Y5740000I-3739964J2500033D01*
G01*
X98349952Y12499871D02*
G75*
G03*
X97340000Y13500000I-1009952J-9871D01*
G01*
X97339872Y1499951D02*
G75*
G03*
X98349999Y2500000I128J1010049D01*
G01*
X95500000Y7500000D02*
G75*
G03*
X95500000Y7500000I-3000000J0D01*
G01*
D13*
%TO.C,R29*%
X59720000Y35846359D02*
X59720000Y36153641D01*
X60480000Y35846359D02*
X60480000Y36153641D01*
%TO.C,R31*%
X58670000Y35846359D02*
X58670000Y36153641D01*
X59430000Y35846359D02*
X59430000Y36153641D01*
%TO.C,R21*%
X95380000Y-2996359D02*
X95380000Y-3303641D01*
X94620000Y-2996359D02*
X94620000Y-3303641D01*
%TO.C,R7*%
X83712742Y-20027500D02*
X84187258Y-20027500D01*
X83712742Y-21072500D02*
X84187258Y-21072500D01*
%TO.C,R23*%
X47446359Y21780000D02*
X47753641Y21780000D01*
X47446359Y21020000D02*
X47753641Y21020000D01*
%TO.C,D7*%
X62765000Y38585000D02*
X62765000Y37115000D01*
X62765000Y37115000D02*
X65050000Y37115000D01*
X65050000Y38585000D02*
X62765000Y38585000D01*
%TO.C,D2*%
X0Y-17640000D02*
X-1675000Y-17640000D01*
X0Y-17640000D02*
X650000Y-17640000D01*
X0Y-20760000D02*
X-650000Y-20760000D01*
X0Y-20760000D02*
X650000Y-20760000D01*
%TO.C,U3*%
X-4800000Y-30390000D02*
X-6600000Y-30390000D01*
X-4800000Y-30390000D02*
X-4000000Y-30390000D01*
X-4800000Y-33510000D02*
X-5600000Y-33510000D01*
X-4800000Y-33510000D02*
X-4000000Y-33510000D01*
%TO.C,C9*%
X18560000Y-34409420D02*
X18560000Y-34690580D01*
X17540000Y-34409420D02*
X17540000Y-34690580D01*
%TO.C,C6*%
X60940580Y-64460000D02*
X60659420Y-64460000D01*
X60940580Y-63440000D02*
X60659420Y-63440000D01*
%TO.C,C4*%
X61340000Y-66540580D02*
X61340000Y-66259420D01*
X62360000Y-66540580D02*
X62360000Y-66259420D01*
%TO.C,R22*%
X95380000Y17153641D02*
X95380000Y16846359D01*
X94620000Y17153641D02*
X94620000Y16846359D01*
%TO.C,R14*%
X29620000Y-3303641D02*
X29620000Y-2996359D01*
X30380000Y-3303641D02*
X30380000Y-2996359D01*
%TO.C,J4*%
X20670000Y-34430000D02*
X20670000Y-16590000D01*
X23330000Y-16590000D02*
X20670000Y-16590000D01*
X23330000Y-34430000D02*
X20670000Y-34430000D01*
X23330000Y-34430000D02*
X23330000Y-16590000D01*
X23330000Y-35700000D02*
X23330000Y-37030000D01*
X23330000Y-37030000D02*
X22000000Y-37030000D01*
X25600000Y-9550000D02*
X25600000Y-44050000D01*
X69450000Y-9550000D02*
X69450000Y-44050000D01*
X18900000Y-7900000D02*
X74450000Y-7900000D01*
X74450000Y-7900000D02*
X74450000Y-45680000D01*
X74450000Y-45680000D02*
X18900000Y-45680000D01*
X18900000Y-45680000D02*
X18900000Y-7900000D01*
X25600000Y-9550000D02*
X69450000Y-9550000D01*
X69450000Y-9550000D02*
X69450000Y-44050000D01*
X69450000Y-44050000D02*
X25600000Y-44050000D01*
X25600000Y-44050000D02*
X25600000Y-9550000D01*
%TO.C,C8*%
X96990000Y-28040580D02*
X96990000Y-27759420D01*
X98010000Y-28040580D02*
X98010000Y-27759420D01*
%TO.C,J3*%
X86130000Y-16670000D02*
X86130000Y-26950000D01*
X86130000Y-16670000D02*
X88730000Y-16670000D01*
X86130000Y-26950000D02*
X91330000Y-26950000D01*
X88730000Y-16670000D02*
X88730000Y-19270000D01*
X88730000Y-19270000D02*
X91330000Y-19270000D01*
X90000000Y-16670000D02*
X91330000Y-16670000D01*
X91330000Y-16670000D02*
X91330000Y-18000000D01*
X91330000Y-19270000D02*
X91330000Y-26950000D01*
%TO.C,D4*%
X0Y-27840000D02*
X-1675000Y-27840000D01*
X0Y-27840000D02*
X650000Y-27840000D01*
X0Y-30960000D02*
X-650000Y-30960000D01*
X0Y-30960000D02*
X650000Y-30960000D01*
%TO.C,R13*%
X14380000Y-19046359D02*
X14380000Y-19353641D01*
X13620000Y-19046359D02*
X13620000Y-19353641D01*
%TO.C,R19*%
X65380000Y17153641D02*
X65380000Y16846359D01*
X64620000Y17153641D02*
X64620000Y16846359D01*
%TO.C,C7*%
X98590000Y-27957836D02*
X98590000Y-27742164D01*
X99310000Y-27957836D02*
X99310000Y-27742164D01*
%TO.C,R32*%
X53520000Y35846359D02*
X53520000Y36153641D01*
X54280000Y35846359D02*
X54280000Y36153641D01*
%TO.C,R28*%
X43330000Y15603641D02*
X43330000Y15296359D01*
X42570000Y15603641D02*
X42570000Y15296359D01*
%TO.C,D3*%
X0Y-22790000D02*
X-1675000Y-22790000D01*
X0Y-22790000D02*
X650000Y-22790000D01*
X0Y-25910000D02*
X-650000Y-25910000D01*
X0Y-25910000D02*
X650000Y-25910000D01*
%TO.C,R20*%
X89620000Y-3303641D02*
X89620000Y-2996359D01*
X90380000Y-3303641D02*
X90380000Y-2996359D01*
%TO.C,R17*%
X59620000Y-3303641D02*
X59620000Y-2996359D01*
X60380000Y-3303641D02*
X60380000Y-2996359D01*
%TO.C,Q1*%
X16550000Y-17340000D02*
X14875000Y-17340000D01*
X16550000Y-17340000D02*
X17200000Y-17340000D01*
X16550000Y-20460000D02*
X15900000Y-20460000D01*
X16550000Y-20460000D02*
X17200000Y-20460000D01*
%TO.C,C5*%
X50357836Y30290000D02*
X50142164Y30290000D01*
X50357836Y31010000D02*
X50142164Y31010000D01*
%TO.C,J5*%
X2670000Y-16670000D02*
X4000000Y-16670000D01*
X2670000Y-18000000D02*
X2670000Y-16670000D01*
X2670000Y-19270000D02*
X2670000Y-37110000D01*
X2670000Y-19270000D02*
X5270000Y-19270000D01*
X2670000Y-37110000D02*
X7870000Y-37110000D01*
X5270000Y-16670000D02*
X7870000Y-16670000D01*
X5270000Y-19270000D02*
X5270000Y-16670000D01*
X7870000Y-16670000D02*
X7870000Y-37110000D01*
%TO.C,J7*%
X96170000Y-20620000D02*
X96170000Y-25760000D01*
X96170000Y-20620000D02*
X98830000Y-20620000D01*
X96170000Y-25760000D02*
X98830000Y-25760000D01*
X97500000Y-18020000D02*
X98830000Y-18020000D01*
X98830000Y-18020000D02*
X98830000Y-19350000D01*
X98830000Y-20620000D02*
X98830000Y-25760000D01*
%TO.C,R9*%
X83712742Y-25077500D02*
X84187258Y-25077500D01*
X83712742Y-26122500D02*
X84187258Y-26122500D01*
%TO.C,R16*%
X35380000Y17153641D02*
X35380000Y16846359D01*
X34620000Y17153641D02*
X34620000Y16846359D01*
%TO.C,R27*%
X35755000Y-61971359D02*
X35755000Y-62278641D01*
X34995000Y-61971359D02*
X34995000Y-62278641D01*
%TO.C,R10*%
X-380000Y-3303641D02*
X-380000Y-2996359D01*
X380000Y-3303641D02*
X380000Y-2996359D01*
%TO.C,D9*%
X56385000Y37115000D02*
X56385000Y38585000D01*
X56385000Y38585000D02*
X54100000Y38585000D01*
X54100000Y37115000D02*
X56385000Y37115000D01*
%TO.C,R26*%
X42446359Y31780000D02*
X42753641Y31780000D01*
X42446359Y31020000D02*
X42753641Y31020000D01*
%TO.C,U1*%
X56620000Y-74245000D02*
X56620000Y-67830000D01*
X56620000Y-74245000D02*
X38380000Y-74245000D01*
X56620000Y-67830000D02*
X57000000Y-67830000D01*
X56620000Y-49285000D02*
X56620000Y-48505000D01*
X56620000Y-48505000D02*
X55620000Y-48505000D01*
X38380000Y-74245000D02*
X38380000Y-67830000D01*
X38380000Y-49285000D02*
X38380000Y-48505000D01*
X38380000Y-48505000D02*
X39380000Y-48505000D01*
D14*
%TO.C,USBC1*%
X52070000Y34550000D02*
X52070000Y36200000D01*
X52070000Y38550000D02*
X52070000Y40080000D01*
X52070000Y40080000D02*
X42930000Y40080000D01*
X42930000Y34550000D02*
X42930000Y36200000D01*
X42930000Y40080000D02*
X42930000Y38550000D01*
D13*
%TO.C,R25*%
X52096359Y31730000D02*
X52403641Y31730000D01*
X52096359Y30970000D02*
X52403641Y30970000D01*
%TO.C,D8*%
X56565000Y38585000D02*
X56565000Y37115000D01*
X56565000Y37115000D02*
X58850000Y37115000D01*
X58850000Y38585000D02*
X56565000Y38585000D01*
%TO.C,R11*%
X5380000Y-2996359D02*
X5380000Y-3303641D01*
X4620000Y-2996359D02*
X4620000Y-3303641D01*
%TO.C,C2*%
X33192164Y17610000D02*
X33407836Y17610000D01*
X33192164Y16890000D02*
X33407836Y16890000D01*
%TO.C,R12*%
X5380000Y17153641D02*
X5380000Y16846359D01*
X4620000Y17153641D02*
X4620000Y16846359D01*
%TO.C,C10*%
X16290000Y-34657837D02*
X16290000Y-34442165D01*
X17010000Y-34657837D02*
X17010000Y-34442165D01*
%TO.C,C1*%
X34709420Y20210000D02*
X34990580Y20210000D01*
X34709420Y19190000D02*
X34990580Y19190000D01*
%TD*%
%LPC*%
D15*
%TO.C,U4*%
X53195000Y28475000D03*
X51925000Y28475000D03*
X50655000Y28475000D03*
X49385000Y28475000D03*
X48115000Y28475000D03*
X46845000Y28475000D03*
X45575000Y28475000D03*
X44305000Y28475000D03*
X44305000Y23525000D03*
X45575000Y23525000D03*
X46845000Y23525000D03*
X48115000Y23525000D03*
X49385000Y23525000D03*
X50655000Y23525000D03*
X51925000Y23525000D03*
X53195000Y23525000D03*
%TD*%
D16*
%TO.C,R5*%
X36550000Y-49090000D03*
X36550000Y-50110000D03*
%TD*%
D17*
%TO.C,D5*%
X-937500Y-33650000D03*
X-937500Y-35550000D03*
X937500Y-34600000D03*
%TD*%
D18*
%TO.C,SW3*%
X62500000Y7500000D03*
D19*
X60000000Y0D03*
X65000000Y0D03*
X62500000Y0D03*
X60000000Y14500000D03*
X65000000Y14500000D03*
D20*
X57030000Y7500000D03*
X67970000Y7500000D03*
%TD*%
D16*
%TO.C,R4*%
X60000000Y-61640000D03*
X60000000Y-62660000D03*
%TD*%
D21*
%TO.C,Q3*%
X45150000Y20660000D03*
X43250000Y20660000D03*
X44200000Y18040000D03*
%TD*%
D18*
%TO.C,SW1*%
X2500000Y7500000D03*
D19*
X0Y0D03*
X5000000Y0D03*
X2500000Y0D03*
X0Y14500000D03*
X5000000Y14500000D03*
D20*
X-2970000Y7500000D03*
X7970000Y7500000D03*
%TD*%
D22*
%TO.C,D6*%
X61887500Y37850000D03*
X60312500Y37850000D03*
%TD*%
D16*
%TO.C,R15*%
X35000000Y-2640000D03*
X35000000Y-3660000D03*
%TD*%
D21*
%TO.C,Q2*%
X49440000Y18710000D03*
X47540000Y18710000D03*
X48490000Y16090000D03*
%TD*%
D23*
%TO.C,U2*%
X-5937500Y-20750000D03*
X-5937500Y-21700000D03*
X-5937500Y-22650000D03*
X-3662500Y-22650000D03*
X-3662500Y-21700000D03*
X-3662500Y-20750000D03*
%TD*%
D24*
%TO.C,R30*%
X65250000Y35490000D03*
X65250000Y36510000D03*
%TD*%
D18*
%TO.C,SW2*%
X32500000Y7500000D03*
D19*
X30000000Y0D03*
X35000000Y0D03*
X32500000Y0D03*
X30000000Y14500000D03*
X35000000Y14500000D03*
D20*
X27030000Y7500000D03*
X37970000Y7500000D03*
%TD*%
D25*
%TO.C,C3*%
X40430000Y19900000D03*
X39470000Y19900000D03*
%TD*%
D26*
%TO.C,R8*%
X83125000Y-23100000D03*
X84775000Y-23100000D03*
%TD*%
%TO.C,R6*%
X83125000Y-18000000D03*
X84775000Y-18000000D03*
%TD*%
D27*
%TO.C,R24*%
X47760000Y20150000D03*
X46740000Y20150000D03*
%TD*%
D28*
%TO.C,U5*%
X34150000Y22950000D03*
X36450000Y22950000D03*
D29*
X36450000Y29250000D03*
D28*
X38750000Y22950000D03*
%TD*%
D16*
%TO.C,R18*%
X65000000Y-2640000D03*
X65000000Y-3660000D03*
%TD*%
D18*
%TO.C,SW4*%
X92500000Y7500000D03*
D19*
X90000000Y0D03*
X95000000Y0D03*
X92500000Y0D03*
X90000000Y14500000D03*
X95000000Y14500000D03*
D20*
X87030000Y7500000D03*
X97970000Y7500000D03*
%TD*%
D24*
%TO.C,R29*%
X60100000Y35490000D03*
X60100000Y36510000D03*
%TD*%
%TO.C,R31*%
X59050000Y35490000D03*
X59050000Y36510000D03*
%TD*%
D16*
%TO.C,R21*%
X95000000Y-2640000D03*
X95000000Y-3660000D03*
%TD*%
D26*
%TO.C,R7*%
X83125000Y-20550000D03*
X84775000Y-20550000D03*
%TD*%
D30*
%TO.C,R23*%
X47090000Y21400000D03*
X48110000Y21400000D03*
%TD*%
D31*
%TO.C,D7*%
X63462500Y37850000D03*
X65037500Y37850000D03*
%TD*%
D17*
%TO.C,D2*%
X-937500Y-18250000D03*
X-937500Y-20150000D03*
X937500Y-19200000D03*
%TD*%
D23*
%TO.C,U3*%
X-5937500Y-31000000D03*
X-5937500Y-31950000D03*
X-5937500Y-32900000D03*
X-3662500Y-32900000D03*
X-3662500Y-31950000D03*
X-3662500Y-31000000D03*
%TD*%
D32*
%TO.C,C9*%
X18050000Y-33775000D03*
X18050000Y-35325000D03*
%TD*%
D33*
%TO.C,C6*%
X61575000Y-63950000D03*
X60025000Y-63950000D03*
%TD*%
D34*
%TO.C,C4*%
X61850000Y-67175000D03*
X61850000Y-65625000D03*
%TD*%
D16*
%TO.C,R22*%
X95000000Y17510000D03*
X95000000Y16490000D03*
%TD*%
D24*
%TO.C,R14*%
X30000000Y-3660000D03*
X30000000Y-2640000D03*
%TD*%
D35*
%TO.C,J4*%
X22000000Y-35700000D03*
D36*
X22000000Y-33160000D03*
X22000000Y-30620000D03*
X22000000Y-28080000D03*
X22000000Y-25540000D03*
X22000000Y-23000000D03*
X22000000Y-20460000D03*
X22000000Y-17920000D03*
%TD*%
D34*
%TO.C,C8*%
X97500000Y-28675000D03*
X97500000Y-27125000D03*
%TD*%
D35*
%TO.C,J3*%
X90000000Y-18000000D03*
D36*
X87460000Y-18000000D03*
X90000000Y-20540000D03*
X87460000Y-20540000D03*
X90000000Y-23080000D03*
X87460000Y-23080000D03*
X90000000Y-25620000D03*
X87460000Y-25620000D03*
%TD*%
D17*
%TO.C,D4*%
X-937500Y-28450000D03*
X-937500Y-30350000D03*
X937500Y-29400000D03*
%TD*%
D16*
%TO.C,R13*%
X14000000Y-18690000D03*
X14000000Y-19710000D03*
%TD*%
%TO.C,R19*%
X65000000Y17510000D03*
X65000000Y16490000D03*
%TD*%
D37*
%TO.C,C7*%
X98950000Y-28330000D03*
X98950000Y-27370000D03*
%TD*%
D24*
%TO.C,R32*%
X53900000Y35490000D03*
X53900000Y36510000D03*
%TD*%
D16*
%TO.C,R28*%
X42950000Y15960000D03*
X42950000Y14940000D03*
%TD*%
D17*
%TO.C,D3*%
X-937500Y-23400000D03*
X-937500Y-25300000D03*
X937500Y-24350000D03*
%TD*%
D24*
%TO.C,R20*%
X90000000Y-3660000D03*
X90000000Y-2640000D03*
%TD*%
%TO.C,R17*%
X60000000Y-3660000D03*
X60000000Y-2640000D03*
%TD*%
D17*
%TO.C,Q1*%
X15612500Y-17950000D03*
X15612500Y-19850000D03*
X17487500Y-18900000D03*
%TD*%
D25*
%TO.C,C5*%
X50730000Y30650000D03*
X49770000Y30650000D03*
%TD*%
D35*
%TO.C,J5*%
X4000000Y-18000000D03*
D36*
X6540000Y-18000000D03*
X4000000Y-20540000D03*
X6540000Y-20540000D03*
X4000000Y-23080000D03*
X6540000Y-23080000D03*
X4000000Y-25620000D03*
X6540000Y-25620000D03*
X4000000Y-28160000D03*
X6540000Y-28160000D03*
X4000000Y-30700000D03*
X6540000Y-30700000D03*
X4000000Y-33240000D03*
X6540000Y-33240000D03*
X4000000Y-35780000D03*
X6540000Y-35780000D03*
%TD*%
D35*
%TO.C,J7*%
X97500000Y-19350000D03*
D36*
X97500000Y-21890000D03*
X97500000Y-24430000D03*
%TD*%
D26*
%TO.C,R9*%
X83125000Y-25600000D03*
X84775000Y-25600000D03*
%TD*%
D16*
%TO.C,R16*%
X35000000Y17510000D03*
X35000000Y16490000D03*
%TD*%
%TO.C,R27*%
X35375000Y-61615000D03*
X35375000Y-62635000D03*
%TD*%
D24*
%TO.C,R10*%
X0Y-3660000D03*
X0Y-2640000D03*
%TD*%
D22*
%TO.C,D9*%
X55687500Y37850000D03*
X54112500Y37850000D03*
%TD*%
D30*
%TO.C,R26*%
X42090000Y31400000D03*
X43110000Y31400000D03*
%TD*%
D38*
%TO.C,U1*%
X56250000Y-66635000D03*
X56250000Y-65365000D03*
X56250000Y-64095000D03*
X56250000Y-62825000D03*
X56250000Y-61555000D03*
X56250000Y-60285000D03*
X56250000Y-59015000D03*
X56250000Y-57745000D03*
X56250000Y-56475000D03*
X56250000Y-55205000D03*
X56250000Y-53935000D03*
X56250000Y-52665000D03*
X56250000Y-51395000D03*
X56250000Y-50125000D03*
D39*
X53210000Y-48875000D03*
X51940000Y-48875000D03*
X50670000Y-48875000D03*
X49400000Y-48875000D03*
X48130000Y-48875000D03*
X46860000Y-48875000D03*
X45590000Y-48875000D03*
X44320000Y-48875000D03*
X43050000Y-48875000D03*
X41780000Y-48875000D03*
D38*
X38750000Y-50125000D03*
X38750000Y-51395000D03*
X38750000Y-52665000D03*
X38750000Y-53935000D03*
X38750000Y-55205000D03*
X38750000Y-56475000D03*
X38750000Y-57745000D03*
X38750000Y-59015000D03*
X38750000Y-60285000D03*
X38750000Y-61555000D03*
X38750000Y-62825000D03*
X38750000Y-64095000D03*
X38750000Y-65365000D03*
X38750000Y-66635000D03*
D40*
X49705000Y-60057500D03*
X49705000Y-58532500D03*
X48942500Y-60820000D03*
X48942500Y-59295000D03*
X48942500Y-57770000D03*
X48180000Y-60057500D03*
D41*
X48180000Y-59295000D03*
D40*
X48180000Y-58532500D03*
X47417500Y-60820000D03*
X47417500Y-59295000D03*
X47417500Y-57770000D03*
X46655000Y-60057500D03*
X46655000Y-58532500D03*
%TD*%
D42*
%TO.C,USBC1*%
X50390000Y33690000D03*
X44610000Y33690000D03*
D43*
X51820000Y33190000D03*
D44*
X51820000Y37370000D03*
X43180000Y37370000D03*
D43*
X43180000Y33190000D03*
D45*
X50700000Y32630000D03*
X49900000Y32630000D03*
D46*
X48750000Y32630000D03*
X47750000Y32630000D03*
X47250000Y32630000D03*
X46250000Y32630000D03*
D45*
X44300000Y32630000D03*
X45100000Y32630000D03*
D46*
X45750000Y32630000D03*
X46750000Y32630000D03*
X48250000Y32630000D03*
X49250000Y32630000D03*
%TD*%
D30*
%TO.C,R25*%
X51740000Y31350000D03*
X52760000Y31350000D03*
%TD*%
D31*
%TO.C,D8*%
X57262500Y37850000D03*
X58837500Y37850000D03*
%TD*%
D16*
%TO.C,R11*%
X5000000Y-2640000D03*
X5000000Y-3660000D03*
%TD*%
D47*
%TO.C,C2*%
X32820000Y17250000D03*
X33780000Y17250000D03*
%TD*%
D16*
%TO.C,R12*%
X5000000Y17510000D03*
X5000000Y16490000D03*
%TD*%
D37*
%TO.C,C10*%
X16650000Y-35030001D03*
X16650000Y-34070001D03*
%TD*%
D48*
%TO.C,C1*%
X34075000Y19700000D03*
X35625000Y19700000D03*
%TD*%
M02*
