%TF.GenerationSoftware,KiCad,Pcbnew,7.0.1*%
%TF.CreationDate,2023-04-08T17:38:17+02:00*%
%TF.ProjectId,obs-studio-controller,6f62732d-7374-4756-9469-6f2d636f6e74,rev?*%
%TF.SameCoordinates,Original*%
%TF.FileFunction,Other,Comment*%
%FSLAX46Y46*%
G04 Gerber Fmt 4.6, Leading zero omitted, Abs format (unit mm)*
G04 Created by KiCad (PCBNEW 7.0.1) date 2023-04-08 17:38:17*
%MOMM*%
%LPD*%
G01*
G04 APERTURE LIST*
%ADD10C,0.150000*%
%ADD11C,1.000000*%
%ADD12C,0.750000*%
G04 APERTURE END LIST*
D10*
%TO.C,U1*%
X35307142Y-81790238D02*
X35307142Y-79790238D01*
X36449999Y-81790238D02*
X35592856Y-80647380D01*
X36449999Y-79790238D02*
X35307142Y-80933095D01*
X37307142Y-80742619D02*
X37973809Y-80742619D01*
X38259523Y-81790238D02*
X37307142Y-81790238D01*
X37307142Y-81790238D02*
X37307142Y-79790238D01*
X37307142Y-79790238D02*
X38259523Y-79790238D01*
X39116666Y-80742619D02*
X39783333Y-80742619D01*
X40069047Y-81790238D02*
X39116666Y-81790238D01*
X39116666Y-81790238D02*
X39116666Y-79790238D01*
X39116666Y-79790238D02*
X40069047Y-79790238D01*
X40926190Y-81790238D02*
X40926190Y-79790238D01*
X40926190Y-79790238D02*
X41688095Y-79790238D01*
X41688095Y-79790238D02*
X41878571Y-79885476D01*
X41878571Y-79885476D02*
X41973809Y-79980714D01*
X41973809Y-79980714D02*
X42069047Y-80171190D01*
X42069047Y-80171190D02*
X42069047Y-80456904D01*
X42069047Y-80456904D02*
X41973809Y-80647380D01*
X41973809Y-80647380D02*
X41878571Y-80742619D01*
X41878571Y-80742619D02*
X41688095Y-80837857D01*
X41688095Y-80837857D02*
X40926190Y-80837857D01*
X42926190Y-81028333D02*
X44450000Y-81028333D01*
X45783332Y-79790238D02*
X46164285Y-79790238D01*
X46164285Y-79790238D02*
X46354761Y-79885476D01*
X46354761Y-79885476D02*
X46545237Y-80075952D01*
X46545237Y-80075952D02*
X46640475Y-80456904D01*
X46640475Y-80456904D02*
X46640475Y-81123571D01*
X46640475Y-81123571D02*
X46545237Y-81504523D01*
X46545237Y-81504523D02*
X46354761Y-81695000D01*
X46354761Y-81695000D02*
X46164285Y-81790238D01*
X46164285Y-81790238D02*
X45783332Y-81790238D01*
X45783332Y-81790238D02*
X45592856Y-81695000D01*
X45592856Y-81695000D02*
X45402380Y-81504523D01*
X45402380Y-81504523D02*
X45307142Y-81123571D01*
X45307142Y-81123571D02*
X45307142Y-80456904D01*
X45307142Y-80456904D02*
X45402380Y-80075952D01*
X45402380Y-80075952D02*
X45592856Y-79885476D01*
X45592856Y-79885476D02*
X45783332Y-79790238D01*
X47497618Y-79790238D02*
X47497618Y-81409285D01*
X47497618Y-81409285D02*
X47592856Y-81599761D01*
X47592856Y-81599761D02*
X47688094Y-81695000D01*
X47688094Y-81695000D02*
X47878570Y-81790238D01*
X47878570Y-81790238D02*
X48259523Y-81790238D01*
X48259523Y-81790238D02*
X48449999Y-81695000D01*
X48449999Y-81695000D02*
X48545237Y-81599761D01*
X48545237Y-81599761D02*
X48640475Y-81409285D01*
X48640475Y-81409285D02*
X48640475Y-79790238D01*
X49307142Y-79790238D02*
X50449999Y-79790238D01*
X49878570Y-81790238D02*
X49878570Y-79790238D01*
X52450000Y-79790238D02*
X53783333Y-79790238D01*
X53783333Y-79790238D02*
X52450000Y-81790238D01*
X52450000Y-81790238D02*
X53783333Y-81790238D01*
X54926190Y-79790238D02*
X55307143Y-79790238D01*
X55307143Y-79790238D02*
X55497619Y-79885476D01*
X55497619Y-79885476D02*
X55688095Y-80075952D01*
X55688095Y-80075952D02*
X55783333Y-80456904D01*
X55783333Y-80456904D02*
X55783333Y-81123571D01*
X55783333Y-81123571D02*
X55688095Y-81504523D01*
X55688095Y-81504523D02*
X55497619Y-81695000D01*
X55497619Y-81695000D02*
X55307143Y-81790238D01*
X55307143Y-81790238D02*
X54926190Y-81790238D01*
X54926190Y-81790238D02*
X54735714Y-81695000D01*
X54735714Y-81695000D02*
X54545238Y-81504523D01*
X54545238Y-81504523D02*
X54450000Y-81123571D01*
X54450000Y-81123571D02*
X54450000Y-80456904D01*
X54450000Y-80456904D02*
X54545238Y-80075952D01*
X54545238Y-80075952D02*
X54735714Y-79885476D01*
X54735714Y-79885476D02*
X54926190Y-79790238D01*
X56640476Y-81790238D02*
X56640476Y-79790238D01*
X56640476Y-79790238D02*
X57783333Y-81790238D01*
X57783333Y-81790238D02*
X57783333Y-79790238D01*
X58735714Y-80742619D02*
X59402381Y-80742619D01*
X59688095Y-81790238D02*
X58735714Y-81790238D01*
X58735714Y-81790238D02*
X58735714Y-79790238D01*
X58735714Y-79790238D02*
X59688095Y-79790238D01*
X44738095Y-71561904D02*
X45214285Y-71561904D01*
X44642857Y-71847619D02*
X44976190Y-70847619D01*
X44976190Y-70847619D02*
X45309523Y-71847619D01*
X45642857Y-71180952D02*
X45642857Y-71847619D01*
X45642857Y-71276190D02*
X45690476Y-71228571D01*
X45690476Y-71228571D02*
X45785714Y-71180952D01*
X45785714Y-71180952D02*
X45928571Y-71180952D01*
X45928571Y-71180952D02*
X46023809Y-71228571D01*
X46023809Y-71228571D02*
X46071428Y-71323809D01*
X46071428Y-71323809D02*
X46071428Y-71847619D01*
X46404762Y-71180952D02*
X46785714Y-71180952D01*
X46547619Y-70847619D02*
X46547619Y-71704761D01*
X46547619Y-71704761D02*
X46595238Y-71800000D01*
X46595238Y-71800000D02*
X46690476Y-71847619D01*
X46690476Y-71847619D02*
X46785714Y-71847619D01*
X47500000Y-71800000D02*
X47404762Y-71847619D01*
X47404762Y-71847619D02*
X47214286Y-71847619D01*
X47214286Y-71847619D02*
X47119048Y-71800000D01*
X47119048Y-71800000D02*
X47071429Y-71704761D01*
X47071429Y-71704761D02*
X47071429Y-71323809D01*
X47071429Y-71323809D02*
X47119048Y-71228571D01*
X47119048Y-71228571D02*
X47214286Y-71180952D01*
X47214286Y-71180952D02*
X47404762Y-71180952D01*
X47404762Y-71180952D02*
X47500000Y-71228571D01*
X47500000Y-71228571D02*
X47547619Y-71323809D01*
X47547619Y-71323809D02*
X47547619Y-71419047D01*
X47547619Y-71419047D02*
X47071429Y-71514285D01*
X47976191Y-71180952D02*
X47976191Y-71847619D01*
X47976191Y-71276190D02*
X48023810Y-71228571D01*
X48023810Y-71228571D02*
X48119048Y-71180952D01*
X48119048Y-71180952D02*
X48261905Y-71180952D01*
X48261905Y-71180952D02*
X48357143Y-71228571D01*
X48357143Y-71228571D02*
X48404762Y-71323809D01*
X48404762Y-71323809D02*
X48404762Y-71847619D01*
X48880953Y-71180952D02*
X48880953Y-71847619D01*
X48880953Y-71276190D02*
X48928572Y-71228571D01*
X48928572Y-71228571D02*
X49023810Y-71180952D01*
X49023810Y-71180952D02*
X49166667Y-71180952D01*
X49166667Y-71180952D02*
X49261905Y-71228571D01*
X49261905Y-71228571D02*
X49309524Y-71323809D01*
X49309524Y-71323809D02*
X49309524Y-71847619D01*
X50214286Y-71847619D02*
X50214286Y-71323809D01*
X50214286Y-71323809D02*
X50166667Y-71228571D01*
X50166667Y-71228571D02*
X50071429Y-71180952D01*
X50071429Y-71180952D02*
X49880953Y-71180952D01*
X49880953Y-71180952D02*
X49785715Y-71228571D01*
X50214286Y-71800000D02*
X50119048Y-71847619D01*
X50119048Y-71847619D02*
X49880953Y-71847619D01*
X49880953Y-71847619D02*
X49785715Y-71800000D01*
X49785715Y-71800000D02*
X49738096Y-71704761D01*
X49738096Y-71704761D02*
X49738096Y-71609523D01*
X49738096Y-71609523D02*
X49785715Y-71514285D01*
X49785715Y-71514285D02*
X49880953Y-71466666D01*
X49880953Y-71466666D02*
X50119048Y-71466666D01*
X50119048Y-71466666D02*
X50214286Y-71419047D01*
D11*
%TO.C,SW3*%
X63000000Y7500000D02*
G75*
G03*
X63000000Y7500000I-500000J0D01*
G01*
D12*
X62870000Y3000000D02*
G75*
G03*
X62870000Y3000000I-370000J0D01*
G01*
D11*
%TO.C,SW1*%
X3000000Y7500000D02*
G75*
G03*
X3000000Y7500000I-500000J0D01*
G01*
D12*
X2870000Y3000000D02*
G75*
G03*
X2870000Y3000000I-370000J0D01*
G01*
D11*
%TO.C,SW2*%
X33000000Y7500000D02*
G75*
G03*
X33000000Y7500000I-500000J0D01*
G01*
D12*
X32870000Y3000000D02*
G75*
G03*
X32870000Y3000000I-370000J0D01*
G01*
D11*
%TO.C,SW4*%
X93000000Y7500000D02*
G75*
G03*
X93000000Y7500000I-500000J0D01*
G01*
D12*
X92870000Y3000000D02*
G75*
G03*
X92870000Y3000000I-370000J0D01*
G01*
%TD*%
M02*
